<svg viewBox="0 0 330 200" xmlns="http://www.w3.org/2000/svg"><g><g><g><g><g><line x1="30" y1="174.5114430438705" x2="25" y2="174.5114430438705" style="visibility: inherit;" fill="rgb(0, 0, 0)" stroke="rgb(204, 204, 204)" stroke-width="1px"></line><line x1="30" y1="155.55765670376118" x2="25" y2="155.55765670376118" style="visibility: inherit;" fill="rgb(0, 0, 0)" stroke="rgb(204, 204, 204)" stroke-width="1px"></line><line x1="30" y1="136.60387036365182" x2="25" y2="136.60387036365182" style="visibility: inherit;" fill="rgb(0, 0, 0)" stroke="rgb(204, 204, 204)" stroke-width="1px"></line><line x1="30" y1="117.65008402354249" x2="25" y2="117.65008402354249" style="visibility: inherit;" fill="rgb(0, 0, 0)" stroke="rgb(204, 204, 204)" stroke-width="1px"></line><line x1="30" y1="98.69629768343316" x2="25" y2="98.69629768343316" style="visibility: inherit;" fill="rgb(0, 0, 0)" stroke="rgb(204, 204, 204)" stroke-width="1px"></line><line x1="30" y1="79.74251134332381" x2="25" y2="79.74251134332381" style="visibility: inherit;" fill="rgb(0, 0, 0)" stroke="rgb(204, 204, 204)" stroke-width="1px"></line><line x1="30" y1="60.788725003214466" x2="25" y2="60.788725003214466" style="visibility: inherit;" fill="rgb(0, 0, 0)" stroke="rgb(204, 204, 204)" stroke-width="1px"></line><line x1="30" y1="41.834938663105106" x2="25" y2="41.834938663105106" style="visibility: inherit;" fill="rgb(0, 0, 0)" stroke="rgb(204, 204, 204)" stroke-width="1px"></line><line x1="30" y1="22.881152322995774" x2="25" y2="22.881152322995774" style="visibility: inherit;" fill="rgb(0, 0, 0)" stroke="rgb(204, 204, 204)" stroke-width="1px"></line><line x1="30" y1="3.927365982886414" x2="25" y2="3.927365982886414" style="visibility: inherit;" fill="rgb(0, 0, 0)" stroke="rgb(204, 204, 204)" stroke-width="1px"></line></g><g transform="translate(20, 0)"><text x="0" y="174.5114430438705" dx="0em" dy="0.3em" style="text-anchor: end; visibility: hidden; font-family: &quot;Helvetica Neue&quot;, sans-serif; font-size: 12px; font-weight: 200;" fill="rgb(50, 49, 63)" stroke="none" stroke-width="1px">0</text><text x="0" y="155.55765670376118" dx="0em" dy="0.3em" style="text-anchor: end; visibility: inherit; font-family: &quot;Helvetica Neue&quot;, sans-serif; font-size: 12px; font-weight: 200;" fill="rgb(50, 49, 63)" stroke="none" stroke-width="1px">10</text><text x="0" y="136.60387036365182" dx="0em" dy="0.3em" style="text-anchor: end; visibility: hidden; font-family: &quot;Helvetica Neue&quot;, sans-serif; font-size: 12px; font-weight: 200;" fill="rgb(50, 49, 63)" stroke="none" stroke-width="1px">20</text><text x="0" y="117.65008402354249" dx="0em" dy="0.3em" style="text-anchor: end; visibility: inherit; font-family: &quot;Helvetica Neue&quot;, sans-serif; font-size: 12px; font-weight: 200;" fill="rgb(50, 49, 63)" stroke="none" stroke-width="1px">30</text><text x="0" y="98.69629768343316" dx="0em" dy="0.3em" style="text-anchor: end; visibility: hidden; font-family: &quot;Helvetica Neue&quot;, sans-serif; font-size: 12px; font-weight: 200;" fill="rgb(50, 49, 63)" stroke="none" stroke-width="1px">40</text><text x="0" y="79.74251134332381" dx="0em" dy="0.3em" style="text-anchor: end; visibility: inherit; font-family: &quot;Helvetica Neue&quot;, sans-serif; font-size: 12px; font-weight: 200;" fill="rgb(50, 49, 63)" stroke="none" stroke-width="1px">50</text><text x="0" y="60.788725003214466" dx="0em" dy="0.3em" style="text-anchor: end; visibility: hidden; font-family: &quot;Helvetica Neue&quot;, sans-serif; font-size: 12px; font-weight: 200;" fill="rgb(50, 49, 63)" stroke="none" stroke-width="1px">60</text><text x="0" y="41.834938663105106" dx="0em" dy="0.3em" style="text-anchor: end; visibility: inherit; font-family: &quot;Helvetica Neue&quot;, sans-serif; font-size: 12px; font-weight: 200;" fill="rgb(50, 49, 63)" stroke="none" stroke-width="1px">70</text><text x="0" y="22.881152322995774" dx="0em" dy="0.3em" style="text-anchor: end; visibility: hidden; font-family: &quot;Helvetica Neue&quot;, sans-serif; font-size: 12px; font-weight: 200;" fill="rgb(50, 49, 63)" stroke="none" stroke-width="1px">80</text><text x="0" y="3.927365982886414" dx="0em" dy="0.3em" style="text-anchor: end; visibility: hidden; font-family: &quot;Helvetica Neue&quot;, sans-serif; font-size: 12px; font-weight: 200;" fill="rgb(50, 49, 63)" stroke="none" stroke-width="1px">90</text></g><line x1="30" y1="0" x2="30" y2="178" fill="rgb(0, 0, 0)" stroke="rgb(204, 204, 204)" stroke-width="1px"></line></g></g><g transform="translate(30, 0)" clip-path="url(#clip_0)"><clipPath id="clip_0"><rect width="300" height="178"></rect></clipPath><g><g><g><line x1="3.5183774161540042" y1="0" x2="3.5183774161540042" y2="178" fill="rgb(0, 0, 0)" stroke="rgb(60, 60, 60)" stroke-width="1px" opacity="0.25"></line><line x1="23.149232465407938" y1="0" x2="23.149232465407938" y2="178" fill="rgb(0, 0, 0)" stroke="rgb(60, 60, 60)" stroke-width="1px" opacity="0.25"></line><line x1="42.78008751466186" y1="0" x2="42.78008751466186" y2="178" fill="rgb(0, 0, 0)" stroke="rgb(60, 60, 60)" stroke-width="1px" opacity="0.25"></line><line x1="62.410942563915796" y1="0" x2="62.410942563915796" y2="178" fill="rgb(0, 0, 0)" stroke="rgb(60, 60, 60)" stroke-width="1px" opacity="0.25"></line><line x1="82.04179761316972" y1="0" x2="82.04179761316972" y2="178" fill="rgb(0, 0, 0)" stroke="rgb(60, 60, 60)" stroke-width="1px" opacity="0.25"></line><line x1="101.67265266242364" y1="0" x2="101.67265266242364" y2="178" fill="rgb(0, 0, 0)" stroke="rgb(60, 60, 60)" stroke-width="1px" opacity="0.25"></line><line x1="121.30350771167758" y1="0" x2="121.30350771167758" y2="178" fill="rgb(0, 0, 0)" stroke="rgb(60, 60, 60)" stroke-width="1px" opacity="0.25"></line><line x1="140.93436276093152" y1="0" x2="140.93436276093152" y2="178" fill="rgb(0, 0, 0)" stroke="rgb(60, 60, 60)" stroke-width="1px" opacity="0.25"></line><line x1="160.56521781018546" y1="0" x2="160.56521781018546" y2="178" fill="rgb(0, 0, 0)" stroke="rgb(60, 60, 60)" stroke-width="1px" opacity="0.25"></line><line x1="180.1960728594394" y1="0" x2="180.1960728594394" y2="178" fill="rgb(0, 0, 0)" stroke="rgb(60, 60, 60)" stroke-width="1px" opacity="0.25"></line><line x1="199.82692790869334" y1="0" x2="199.82692790869334" y2="178" fill="rgb(0, 0, 0)" stroke="rgb(60, 60, 60)" stroke-width="1px" opacity="0.25"></line><line x1="219.45778295794724" y1="0" x2="219.45778295794724" y2="178" fill="rgb(0, 0, 0)" stroke="rgb(60, 60, 60)" stroke-width="1px" opacity="0.25"></line><line x1="239.08863800720118" y1="0" x2="239.08863800720118" y2="178" fill="rgb(0, 0, 0)" stroke="rgb(60, 60, 60)" stroke-width="1px" opacity="0.25"></line><line x1="258.7194930564551" y1="0" x2="258.7194930564551" y2="178" fill="rgb(0, 0, 0)" stroke="rgb(60, 60, 60)" stroke-width="1px" opacity="0.25"></line><line x1="278.35034810570903" y1="0" x2="278.35034810570903" y2="178" fill="rgb(0, 0, 0)" stroke="rgb(60, 60, 60)" stroke-width="1px" opacity="0.25"></line><line x1="297.981203154963" y1="0" x2="297.981203154963" y2="178" fill="rgb(0, 0, 0)" stroke="rgb(60, 60, 60)" stroke-width="1px" opacity="0.25"></line></g><g><line x1="0" y1="174.5114430438705" x2="300" y2="174.5114430438705" fill="rgb(0, 0, 0)" stroke="rgb(60, 60, 60)" stroke-width="1px" opacity="0.25"></line><line x1="0" y1="155.55765670376118" x2="300" y2="155.55765670376118" fill="rgb(0, 0, 0)" stroke="rgb(60, 60, 60)" stroke-width="1px" opacity="0.25"></line><line x1="0" y1="136.60387036365182" x2="300" y2="136.60387036365182" fill="rgb(0, 0, 0)" stroke="rgb(60, 60, 60)" stroke-width="1px" opacity="0.25"></line><line x1="0" y1="117.65008402354249" x2="300" y2="117.65008402354249" fill="rgb(0, 0, 0)" stroke="rgb(60, 60, 60)" stroke-width="1px" opacity="0.25"></line><line x1="0" y1="98.69629768343316" x2="300" y2="98.69629768343316" fill="rgb(0, 0, 0)" stroke="rgb(60, 60, 60)" stroke-width="1px" opacity="0.25"></line><line x1="0" y1="79.74251134332381" x2="300" y2="79.74251134332381" fill="rgb(0, 0, 0)" stroke="rgb(60, 60, 60)" stroke-width="1px" opacity="0.25"></line><line x1="0" y1="60.788725003214466" x2="300" y2="60.788725003214466" fill="rgb(0, 0, 0)" stroke="rgb(60, 60, 60)" stroke-width="1px" opacity="0.25"></line><line x1="0" y1="41.834938663105106" x2="300" y2="41.834938663105106" fill="rgb(0, 0, 0)" stroke="rgb(60, 60, 60)" stroke-width="1px" opacity="0.25"></line><line x1="0" y1="22.881152322995774" x2="300" y2="22.881152322995774" fill="rgb(0, 0, 0)" stroke="rgb(60, 60, 60)" stroke-width="1px" opacity="0.25"></line><line x1="0" y1="3.927365982886414" x2="300" y2="3.927365982886414" fill="rgb(0, 0, 0)" stroke="rgb(60, 60, 60)" stroke-width="1px" opacity="0.25"></line></g></g></g><g><g><line x1="0" y1="174.5114430438705" x2="300" y2="174.5114430438705" fill="rgb(0, 0, 0)" stroke="rgb(153, 153, 153)" stroke-width="1.5px"></line></g></g><g><g><line x1="3.5183774161540042" y1="0" x2="3.5183774161540042" y2="178" fill="rgb(0, 0, 0)" stroke="rgb(153, 153, 153)" stroke-width="1.5px"></line></g></g><g><g><g><g><g><path stroke="rgb(255, 112, 67)" stroke-width="2px" d="M3.7441322492204243,6.188279445926668L3.773578531794305,1.8924846814512648L4.087672212582368,11.936144366844587L4.117118495156249,17.655025642975488L4.3428733282226695,23.004722901711744L4.352688755747296,24.498248116307764L4.421396748419685,28.059840082858557L4.931798979700288,29.465408239806266L5.206630950389842,29.918702988877385L5.245892660488351,30.646336652981716L5.648325188998056,31.913592334495206L5.864264594539849,34.91645266004792L6.129281137704777,37.77149992791095L6.885069057101053,39.225321362141756L7.130454745216727,42.12768856422869L7.4838101361032985,42.863479611774096L8.004027794908527,43.75245447427761L8.573322591336892,45.35236069989432L8.936493409748088,45.372334969749204L8.956124264797342,46.7159198009455L9.06409396756824,47.4561300057139L9.309479655683914,48.76628246635681L9.702096756668992,50.39832439927447L10.016190437457054,50.30708988220549L10.045636720030936,51.00473869958812L10.094713857654071,50.71515009450806L10.408807538442135,52.041727398607875L10.821055494476466,52.242685316110794L10.850501777050347,52.04143945521727L11.537581703774235,51.67533788703038L11.792782819414535,52.29356957322224L11.87130623961155,51.84876959984386L12.136322782776478,53.06658776304097L12.205030775448868,54.11848437830696L12.23447705802275,53.54509520805664L12.381708470892153,54.61996292212807L12.411154753466034,55.53898564882252L12.666355869106335,55.982960543056834L13.431959216027238,57.53808443311803L13.755868324339929,57.397947165011644L13.893284309684706,58.80666203115514L14.050331150078737,58.94946864039362L14.236824273046649,61.04517502681048L14.658887656605609,60.02308567486885L15.414675576001885,59.78244293294128L15.46375271362502,59.45050379304456L15.640430409068307,59.27876245003013L15.777846394413084,58.751125432894725L15.925077807282488,58.70508217840978L16.091940075201144,59.38771946725112L16.366772045890702,59.89928290568584L17.044036545089963,61.489254131579344L17.446469073599665,63.023689756633416L17.495546211222802,64.675248723782L19.21324602803252,63.642580920712575L19.429185433574315,64.57247651499353L19.458631716148197,64.10719772617836L19.645124839116107,64.12952999626077L19.80217167951014,64.82456449885042L20.2242350630691,63.96523249562766L20.42054361356164,63.80463970962799L20.63648301910343,63.75247047898287L20.783714431972836,65.03289398024258L21.029100120088508,64.8770433639891L21.05854640266239,65.87981825060048L21.195962388007167,65.17648923073283L21.31374751830269,64.20669181495231L21.343193800876573,64.82545231124149L21.853596032157174,65.1512202694474L21.951750307403444,64.29537590929327L22.05972001017434,65.42436679872318L22.55049138640569,66.80582229860758L22.609383951553454,66.03595173620103L22.97255476996465,67.76791326434997L23.41424900857286,68.4740722285213L24.25837577569078,68.67152738870003L26.025152730123633,68.41826072848475L26.2312767081408,69.35503927002978L27.085218902783346,69.13686589804624L27.26189659822663,66.90386690281278L27.75266797445798,67.11356320056616L28.14528507544306,65.45469825915188L28.321962770886344,66.07955655694369L28.518271321378883,66.21382934774563L28.950150132462472,66.88833046472124L28.969780987511726,66.88366822252968L28.999227270085605,67.07083235035904L29.04830440770874,67.28226728230332L29.234797530676655,68.02163570960231L29.548891211464714,69.35431407504299L29.93169288492517,68.89566681993827L30.422464261156517,68.73069317120326L30.972128202535625,69.59439050986254L31.394191586094585,70.97614653192322L31.659208129259515,71.46414988031913L31.76717783203041,71.9024477963528L32.20887207063862,71.99928263502441L32.7094588743946,72.36333917886809L33.298384525872216,71.86099393895444L33.494693076364754,73.74804982261594L33.975649025071476,72.38631435592687L34.28974270585954,71.80375663232974L34.67254437931999,72.92159683388208L35.673717986831946,72.11244514726317L35.693348841881196,72.26173969170908L35.92891910247224,72.7585252629205L35.96818081257075,72.5931719987887L36.105596797915524,71.03767205231671L36.11541222544015,70.49178062151904L36.23319735573568,70.98035825602967L36.55710646404837,70.00454266360533L37.224555535723,70.91955475966006L37.48957207888793,70.61510222153127L37.81348118720062,70.71282153743914L38.58889996164615,70.70857050199854L38.98151706263123,70.0067822969101L39.06004048282824,70.81505763648863L39.50173472143646,70.88103448834559L40.23789178578348,69.86368181729735L40.27715349588199,69.44154984019676L40.28696892340662,69.79186801819992L40.36549234360363,67.87723376488944L40.522539183997665,67.2758062784719L40.532354611522294,67.84212868033339L41.29795795844319,69.09425316891627L41.376481378640214,70.17378923819868L41.445189371312594,69.69268739995957L41.49426650893573,69.85293597351263L42.505255543972304,69.40478264075449L42.78990294218649,71.18079633076894L42.99602692020366,71.84648706670228L43.87941539742008,70.33175510784353L44.38981762870068,71.30216514099796L44.81188101225965,70.51582087279438L44.880589004932034,70.59074995975733L45.20449811324472,70.21254418995368L45.49896093898353,70.90917450468905L45.53822264908204,71.25961801079161L47.02035220530072,71.13043880729442L47.17739904569474,70.50841472247859L47.40315387876116,69.42192430091673L47.61909328430296,71.17912274991022L47.92337153756639,70.49240060371821L48.37488120369923,71.01822435947714L48.93436057260297,71.19526618426217L49.08159198547237,72.11320056807757L49.346608528637304,69.97905475523552L49.57236336170372,70.40594754115374L49.71959477457313,71.82545732940821L50.023873027836565,71.68991250838833L50.328151281100006,71.78945141128273L50.48519812149403,72.06748544539577L51.36858659871046,70.87775737951216L51.47655630148135,70.49800712262027L52.04585109790972,71.57356368250059L52.752561879682865,70.9925261058406L52.90960872007689,71.84102329808829L53.13536355314331,70.75997566870451L53.154994408192564,70.8647584540762L53.17462526324182,72.13835758510902L53.262964110963466,70.59940097799364L53.57705779175153,69.55809995180927L53.7144737770963,69.13942931119603L53.783181769768696,69.02079608763408L54.04819831293362,69.22249599211105L54.08746002303213,70.61576076291915L54.215060580852274,70.24106434081796L54.5880468267881,69.55762980459876L54.94140221767468,70.02640921530809L56.01128381785902,69.64544032432947L56.423531773893345,69.90053878732027L56.43334720141797,71.09763913519629L56.776887164779914,71.13985345144896L57.081165418043355,71.22619183762738L57.35599738873291,71.51266101712893L57.473782519028425,71.78016173282677L57.54249051170082,73.07869054990387L57.67990649704559,73.17224720688816L57.74861448971799,74.68500448579644L57.984184750309026,75.18491581965871L58.121600735653814,74.74788959485244L58.23938586594933,74.63664810612205L58.465140699015755,75.68526920051227L58.514217836638885,75.44828643507181L58.92646579267322,74.8045993433778L59.28963661108441,75.0150075330436L59.34852917623218,76.1765003969571L60.202471370874726,75.73304272385361L60.27117936354711,75.23034732497851L60.82084330492623,74.37477667043873L61.3214301086822,73.29064182494841L61.812201484913544,73.4716831917884L63.304146468656846,73.60614551393158L63.36303903380461,74.50187520496034L63.53971672924789,73.60773680300773L63.618240149444915,73.74488723080096L64.25624293854567,73.79161719384722L64.31513550369343,74.7027558454933L64.3445817862673,74.8461529371922L64.44273606151357,75.51553972180362L64.48199777161209,76.34920907395774L64.50162862666134,77.02560021974583L64.55070576428447,76.58738410266689L65.61077193694419,77.15494447084978L65.68929535714119,77.64858016046857L65.69911078466582,78.75151234309381L65.85615762505986,78.51876255274256L67.35791803632777,78.49924712846214L67.60330372444345,78.78655251445885L68.61429275948004,79.71113441388657L69.48786580917184,78.37084810436156L69.96882175787856,76.97303371589915L71.01907250301365,76.32214660990874L71.35279703885097,77.96033158886844L71.82393756003306,77.56689577387519L71.86319927013156,77.50512656143559L71.94172269032858,78.00407733226103L72.33433979131365,76.4591828351525L72.35397064636291,76.45713834576065L72.4226786390353,76.06201744117841L72.46194034913381,76.65317090331946L72.91345001526665,76.93072509359592L73.04105057308679,76.65094190760063L73.07049685566068,77.53187137139078L73.23735912357934,75.42273435287828L73.2569899786286,76.01838544400202L73.4434831015965,76.07904261915102L74.04222418059875,74.68527942617251L74.15019388336964,74.2603627493967L74.45447213663307,74.46109836502616L74.49373384673159,75.56223249899664L74.52318012930547,75.05468193341781L75.55380001939129,75.17430774370739L75.67158514968682,75.47592136787439L75.877709127704,75.01149173968145L75.90715541027788,75.02583053593006L75.97586340295027,73.42876808020571L76.3194033663122,72.66297725901832L77.59540894451372,71.92407031457175L77.88987177025251,73.05809444425118L78.0665494656958,73.60742242609197L78.40027400153312,75.4427186374442L78.63584426212417,75.43503605335364L78.77326024746894,76.82561006944525L79.30329333379879,76.5761200739306L80.29465151378614,77.6284712830111L80.51059091932791,78.8201368102285L81.33508683139658,79.51248477989621L81.40379482406898,77.37460552674304L81.4528719616921,76.60150674931369L82.40496843158093,75.48404830393655L83.70060486483167,75.33463489948575L83.74968200245482,75.0752268227528L84.20119166858765,75.60971777359038L84.79993274758989,76.43402046812092L85.40848925411677,77.51986834627434L85.50664352936305,76.53276524609922L85.57535152203543,77.05097521142383L85.63424408718319,77.81659800668857L85.77166007252798,78.75070819748031L85.8894452028235,78.43613505068961L85.95815319549588,78.09105800363997L86.02686118816827,78.42894815792114L86.1839080285623,78.0671071186064L86.5470788469735,76.71133390822362L86.82191081766307,76.09746450837835L87.36175933151755,75.53458668776503L87.75437643250262,75.72905554506595L87.77400728755187,76.31941715616264L87.92123870042128,75.41659699644191L87.9703158380444,75.15596103977255L88.12736267843844,73.54945712764884L88.21570152616009,74.12675853149685L88.46108721427576,74.67560026507715L89.3837374015907,75.12844900694816L89.40336825663995,77.10496268481741L90.24749502375786,77.00891996872092L90.47324985682428,76.83560181032672L90.5125115669228,76.41012531569774L90.6204812696937,75.7723884242771L90.63029669721833,75.84195478155061L90.68918926236607,76.24970459096716L90.99346751562952,75.46774452129709L91.28793034136832,77.02698800315605L91.73944000750117,77.05381136211942L91.77870171759966,77.12657300438288L93.12341528847357,76.06045452163607L93.33935469401537,76.14164563332163L93.49640153440939,76.59876903920268L94.18348146113328,77.32790210635139L94.41905172172433,77.73150955999836L94.68406826488925,77.81638561223488L95.64598016230269,78.66861165638585L95.6852418724012,78.52019745870419L97.01032458822584,76.90124183557104L97.0299554432751,77.75729359928756L97.19681771119375,79.03518756074519L97.35386455158779,79.38911256812197L98.09002161593482,81.16067582975906L98.22743760127958,81.18922892152783L98.80654782523257,81.46021312357541L99.0715643683975,80.2321955379081L99.10101065097139,78.28876624849872L99.33658091156242,78.01684207360873L99.58196659967811,78.22256979791958L99.71938258502288,77.96053560104566L100.01384541076169,77.80217296362349L100.07273797590946,77.2129941668671L100.10218425848333,77.59277272553787L100.66166362738707,76.63945839639445L101.0739115834214,76.62954898381822L101.13280414856916,76.0610014768808L101.21132756876618,76.34666555781916L102.18305489370425,76.66119227426691L102.39899429924606,77.58200393005738L102.80142682775575,77.89820609975476L102.89958110300202,78.15036240463992L102.98791995072366,78.21006671667435L103.20385935626545,78.83381040060715L103.44924504438113,78.63764347180168L103.79278500774308,79.15875202277887L103.95964727566174,77.90157079365461L104.04798612338338,77.12680197250651L104.64672720238563,75.77212564621485L104.90192831802592,76.24932175704598L105.02952887584607,76.78302732099806L105.38288426673265,77.25983865326018L105.41233054930652,78.1035084763514L105.5890082447498,78.12784871218729L106.55092014216325,77.65409720354124L106.94353724314834,77.36721607185703L107.05150694591923,77.42205267957817L107.13003036611624,77.13004427072356L107.20855378631326,77.73955772942129L107.24781549641177,78.40558559947908L107.37541605423192,78.68522562845135L107.5128320395767,78.31829843172021L108.3864050892685,77.74912323266902L108.4943747920394,76.86089749094032L108.84773018292597,76.26654972522206L109.14219300866476,75.26187101750284L109.61333352984687,75.10797948945425L109.93724263815956,75.95738747480645L110.0648431959797,75.26722741997168L110.11392033360285,75.17786617925954L110.42801401439091,76.14897978990746L110.52616828963718,74.61029253042592L110.85007739794986,76.39133558127199L110.85989282547449,77.38772659725247L111.18380193378718,77.81171481755062L111.34084877418121,78.61377522169278L111.36047962923047,79.18983493830488L111.52734189714913,80.79950055405396L111.69420416506779,79.49122134457772L111.71383502011705,80.17606060346176L111.93958985318345,79.8269600472186L111.9592207082327,78.91570112845598L112.19479096882377,79.14261398513953L112.2046063963484,80.34284315713305L112.6463006349566,79.12301958610355L112.9015017505969,79.14116416006773L113.32356513415587,79.12694137460655L113.33338056168049,78.69406257101029L113.36282684425437,77.71792802725992L113.62784338741929,76.77156183920349L113.86341364801035,76.2538451789121L113.96156792325662,75.82226808804099L114.22658446642154,75.45818166202913L114.8645872555223,75.2198752984455L115.21794264640886,74.39666811913499L115.4142511969014,74.63933252581911L115.64982145749246,75.59742530934028L116.3270859566917,75.297580528375L116.45468651451186,76.16829267895581L117.35770584677753,76.11894832499905L117.37733670182679,76.23395609193847L117.40678298440068,75.97623587906648L117.50493725964695,75.94702259000539L117.61290696241785,75.652846971332L118.23127889646935,75.26417710550085L118.58463428735591,75.04366428386302L119.42876105447382,74.4640193705257L119.65451588754026,76.20780445847626L120.30233410416564,76.19221235176425L120.34159581426414,76.50362520161299L120.71458206019996,77.02742086021927L120.90107518316788,76.95184441763404L121.3820311318746,77.3555972868395L122.22615789899251,78.49749973945778L122.31449674671416,78.26363909483527L122.81508355047013,78.73163089529547L123.1291772312582,79.77550605216858L123.24696236155371,81.5163702502015L123.91441143322835,81.75136916260426L124.09108912867164,81.03208694279209L124.10090455619627,80.64844825460209L124.26776682411493,81.51453433806918L124.31684396173807,80.69185430106849L124.49352165718135,80.1560858485869L125.16097072885599,81.79905972672705L125.3474638518239,81.46783678000062L126.05417463359703,79.7680983768447L126.22103690151569,79.01366177786527L126.34863745933585,80.64623179018285L126.66273114012391,80.99150892671315L127.18294879892913,80.21450691937608L127.25165679160152,80.35933920695395L127.3203647842739,80.76170913104848L127.42833448704481,79.87492524971746L127.43814991456944,78.36301865778199L127.9681830008993,78.26882810214914L128.06633727614556,77.13924888922347L128.13504526881795,77.56751735529326L128.1448606963426,77.1791157984921L128.97917203593587,75.87017660248033L129.08714173870678,75.06023670920611L129.3227119992978,75.29137661751464L129.56809768741348,76.26912071917127L129.63680568008587,76.03704765782399L129.685882817709,75.10614714432863L130.09813077374335,75.55037430681601L130.186469621465,76.61124718425974L130.27480846918664,76.36308278208483L131.10911980877992,76.92648668751612L131.40358263451873,78.33109739956443L131.47229062719111,78.42154378766965L131.56062947491276,77.35596262378752L132.159370553915,77.49116278745821L132.1986322640135,77.29326973269602L132.24770940163666,78.22600229477382L132.4832796622277,78.568300586921L132.5912493649986,78.86543128336544L132.6305110750971,79.85268716472137L132.8857121907374,80.62914994748809L133.00349732103294,81.090701632767L133.51389955231352,81.48813011865361L134.14208691388964,80.41151923517214L134.1617177689389,80.43093728982281L134.2598720441852,80.59751838428576L134.5641502974486,80.5367145945452L135.02547539110608,80.28764458333029L135.2512302241725,79.05788574664895L135.74200160040385,79.20098157205439L136.07572613624117,79.98695758438906L136.68428264276804,78.5347131350677L136.9885608960315,78.82375763687455L137.60693283008297,79.64746254086538L137.8032413805755,78.36371259716948L137.88176480077252,79.39515473734662L138.30382818433148,78.80453188036385L138.34308989443,78.6127085366124L138.5688447274964,78.81620863601874L138.5982910100703,78.67489459410753L138.83386127066134,78.91980555181689L138.86330755323522,79.42296130036559L138.98109268353076,80.38616583763834L140.07060513876434,78.84196813718891L140.0902359938136,79.7561051663814L140.28654454430614,78.96274289236354L141.05214789122704,79.63307945175714L142.131844918936,79.3591100971041L142.43612317219944,79.08166737691592L142.69132428783973,79.56472001378452L143.3293270769405,78.45023859448283L143.5060047723838,78.24111979441616L143.6237899026793,78.00694943865233L143.65323618525318,76.90085036467472L144.1734538440584,77.74518308355366L144.21271555415692,78.60554207901541L144.76237949553604,79.49137971406546L144.95868804602856,80.54934528004918L145.3709360020629,80.6898377096531L145.67521425532635,80.3964627691843L145.71447596542484,81.0273133459193L145.74392224799874,80.3591569624142L145.8126302406711,80.53153764001195L145.91078451591738,80.03271095280088L146.3132170444271,80.08765402634678L146.51934102244425,79.94660789805161L146.5389718774935,80.74328320103496L146.57823358759202,80.01015551842893L147.1867900941189,78.90853033863107L147.57940719510395,79.76553037960451L147.5892226226286,80.29707407031711L147.74626946302263,79.93465796934076L147.81497745569501,79.16448804468072L148.02110143371218,80.21764968547629L148.51187280994353,78.58609031030491L148.62965794023904,79.11866773408566L148.98301333112562,79.4720604456854L149.09098303389652,79.73241980929319L149.42470756973384,79.39498020171276L150.07252578635922,79.09077699496318L150.11178749645774,78.7177691000147L150.6908977204107,79.08798750623782L151.05406853882192,79.307583581334L151.0835148213958,78.33855782403133L151.76077932059508,77.99737709000198L151.79022560316895,78.91381869396129L151.91782616098908,79.44764653167911L152.3595203995973,80.02579427952128L152.40859753722043,80.8830106224144L152.4282283922697,82.1832635947817L152.45767467484356,81.559653578325L152.55582895008982,81.4456718577927L152.57545980513908,80.79302153992347L153.15457002909207,81.27640267371471L153.21346259423984,81.4294894692937L153.2232780217645,80.4144260617995L153.33124772453536,79.89360808069857L153.75331110809432,80.12325103869071L153.78275739066822,80.22220780398875L154.24408248432567,79.36627629076389L154.26371333937493,79.42228452671144L154.75448471560628,80.91534559882811L154.84282356332793,80.53952579748776L154.92134698352496,81.51671089812481L155.4513800698548,81.54446833781883L155.62805776529808,82.04538398587253L155.69676575797047,80.40237817581396L155.82436631579063,79.93158770843444L156.02067486628317,80.11395939841675L156.1482754241033,80.76938686430769L156.2169834167757,81.10456815949152L156.44273824984214,79.82883490957856L156.45255367736675,79.96421526015908L156.49181538746524,80.20651470563877L156.7372010755809,80.51161204554352L157.0120330462705,80.26325928743121L157.11018732151675,79.96229622541652L157.25741873438614,79.67254119775744L157.58132784269887,79.86601764201268L157.68929754546974,81.33469643660595L158.09173007397945,80.75893659459507L158.35674661714435,80.7191774572179L158.6217631603093,80.50660121135994L158.63157858783393,79.7369172620034L158.9162259860481,79.15952413213374L159.41681278980408,79.44081249442509L159.69164476049363,79.3557871982981L159.9664767311832,80.13569068878158L160.07444643395408,80.21863354254866L160.3689092596929,81.24152944563849L160.7713417882026,81.39041750546119L161.25229773690933,81.73121899982877L161.53694513512355,82.24037308744643L162.5381187426355,82.32815462314815L162.5479341701601,81.76494923672142L162.55774959768473,80.8936088755417L162.60682673530786,81.65349664387219L162.7147964380788,82.45177996178077L162.96018212619444,82.03104575112846L163.22519866935937,82.19819074180583L163.5589232051967,82.37833747944035L164.01043287132953,81.22134994309309L164.48157339251162,80.75084862268645L164.8152979283489,81.36250338601913L164.8447442109228,81.17345685660959L164.85455963844743,81.12559843899689L165.13920703666165,82.13486784366123L165.3551464422034,81.4866129930404L165.55145499269594,81.04464991956989L165.70850183309,81.10906593949673L165.95388752120564,81.60575274361078L166.6213365928803,81.29674369693862L166.8470914259467,81.36493051196037L168.06420443900046,80.4419268944322L168.39792897483778,80.63072817988096L168.49608325008407,79.95203657290914L169.0261163364139,80.42303687436758L169.07519347403704,80.62403827553959L169.55614942274377,80.93695635207247L169.82116596590868,80.61303399824455L169.8309813934333,78.78433991251646L170.20396763936913,79.11294671409802L170.68492358807586,79.36725657203966L171.0971715441102,78.35624550302106L171.56831206529228,77.3728857965296L171.6468354854893,77.69941261628918L172.78542507834604,78.88484696974051L172.93265649121545,77.03227111034529L172.97191820131397,78.05964037279651L173.1093341866587,78.3470695755521L173.30564273715126,79.09959577055533L173.9730918088259,79.39714920938427L174.00253809139977,80.1497105277222L174.20866206941693,79.32509015035264L174.3460780547617,79.26140912831916L174.3755243373356,79.07456122497577L174.46386318505725,78.45915129234551L174.69943344564828,79.13070616848114L174.80740314841918,77.1087857127787L174.94481913376396,78.26225598859745L174.98408084386247,79.01442298186333L175.48466764761844,78.33402159666453L175.8674693210789,78.39620859516356L175.92636188622666,77.50195943471441L176.00488530642366,78.48195343100367L176.44657954503188,77.67635692940605L176.7803040808692,77.4306355709106L177.07476690660803,77.88803400952447L177.1729211818543,78.78722955213313L177.50664571769158,79.97421095344706L177.85018568105352,78.4492347800296L177.9777862388737,78.70142260285985L178.03667880402145,79.72910977611488L178.17409478936625,79.75557357717692L178.67468159312222,80.34351138970557L179.59733178043714,79.97037502532152L180.0095797364715,79.57901614584956L180.36293512735804,79.40487752497755L180.68684423567072,80.2067435927068L180.87333735863865,80.91086611319143L180.94204535131104,81.6103836691256L181.41318587249313,80.99376398519321L181.96284981387223,80.93581647092806L181.98248066892148,80.72455111818773L182.48306747267748,80.13239899478778L183.32719423979538,79.06343470572689L183.42534851504166,78.77247563742135L183.78851933345288,78.35775574358514L183.85722732612524,79.111329427722L183.8768581811745,78.46594726655543L185.69271227323048,78.708843645483L185.7417894108536,78.63458505418204L186.0460676641171,80.33139793228382L186.05588309164168,80.29216332554357L186.11477565678945,80.86957677462715L186.30126877975735,80.69095616746026L186.59573160549618,80.91664629630766L186.60554703302083,82.03295403272669L186.64480874311928,81.56941843067892L186.75277844589021,80.79602737409871L187.79321376350066,80.53248550335805L188.1367537268626,80.73725981452195L188.37232398745365,81.10806732842143L189.97223867396784,81.56125913153454L190.0311312391156,80.12622020735921L190.3648557749529,78.67348173703951L190.4630100501992,79.18157576469379L190.62987231811786,79.577398337737L190.87525800623354,78.45678889573432L190.9734122814798,79.75156411624833L191.1599054044477,80.98527463002742L191.53289165038353,80.90300461949184L191.74883105592534,79.39279555532742L192.90705150383133,79.73968255642359L193.74136284342458,79.3789591786111L194.05545652421267,78.84316703498799L194.49715076282087,80.1876501297189L194.74253645093654,80.63940426092725L194.99773756657686,81.8877624409524L195.0075529941015,82.1905481242382L195.02718384915073,81.04946101455197L195.0566301317246,81.22169443447817L195.62592492815298,79.61600491221283L195.71426377587463,80.34638123173265L196.36208199249998,79.64751715731921L196.39152827507388,78.9216548510557L196.97063849902688,78.95238267290542L197.16694704951942,78.14682405141696L197.2258396146672,78.20802051856082L197.6773492808,78.78116543893131L197.98162753406348,78.3678029216494L198.0699663817851,78.2396311875377L198.14848980198212,78.33820872816226L198.66870746078735,77.43071454440248L198.74723088098435,78.08324802113403L198.85520058375525,77.01701014022889L200.1115753069075,77.50042025737677L200.14102158948137,77.40358158426939L200.27843757482614,76.94090568077286L201.79982884114332,77.64742167206454L201.8587214062911,77.81314215860198L201.8979831163896,77.3024691892216L202.57524761558886,77.51599744045846L202.7322944559829,78.01233629686173L202.78137159360605,79.09349800529847L202.82063330370457,79.74039901320893L203.04638813677096,79.40434030363218L204.0083000341844,78.57403282300488L204.2242394397262,78.2177898956603L204.35183999754634,78.52887232969246L204.5579639755635,79.05288777394294L204.75427252605604,78.96250834569366L204.91131936645007,79.84888670217781L205.41190617020607,79.6986195338403L205.6572918583217,80.3110808206779L206.413079777718,81.60543162258703L206.4425260602919,82.51915421355972L206.4817877703904,83.56393718377917L206.6290191832598,84.17769391819795L206.76643516860457,83.60125863372434L207.55166937057473,82.88558537633082L207.70871621096876,82.78498720890002L208.8473058038255,82.19270154648706L209.74050970856658,82.46128610970958L210.0840496719285,81.9170163417147L210.50611305548745,82.2908448152131L210.86928387389864,81.92893830314806L210.87909930142328,81.19538778571862L211.23245469230986,81.97301549002009L211.438578670327,82.42249391607592L211.76248777863972,83.11379671031807L211.8999037639845,81.57460305256362L212.52809112556062,81.31799611392732L213.03849335684123,80.9351866622058L213.3624024651539,79.90966399852641L213.77465042118823,79.87361820862174L213.98077439920542,79.87530709900615L214.2261600873211,79.92544223236683L215.16844112968525,80.8344171378397L215.41382681780092,80.69028160982995L215.69847421601514,81.0672614447541L215.7573667811629,80.91531993008657L215.85552105640917,82.1664760819152L216.12053759957408,82.63153722811977L216.14998388214795,83.00605584938913L216.62112440333007,82.8409952740721L216.7487249611502,82.00653311640829L216.79780209877336,83.36654440692081L217.17078834470917,81.77108621613817L217.27875804748007,81.26141101653515L217.48488202549723,81.90397372502157L217.85786827143306,82.68725057523474L218.07380767697484,82.13176061055647L218.34863964766438,81.8600967970303L218.4173476403368,79.97069063831718L218.45660935043531,79.49132144905829L218.5743944807308,80.28808944577557L218.59402533578006,79.31298359822213L219.12405842210993,79.67167663726315L219.50686009557037,80.36612942294133L220.00744689932637,80.08912377309262L220.2430171599174,79.32490953066453L220.4589565654592,79.48741753636922L220.72397310862414,81.26847698978028L221.68588500603758,81.88323460997653L221.90182441157936,82.40074752325945L222.65761233097564,82.8756627104856L222.80484374384505,82.72540073255236L223.12875285215773,83.48568815662696L223.42321567789654,83.50386709739945L223.5606316632413,83.74252531252155L223.6587859384876,84.0622821042495L223.72749393115998,85.11427607079861L224.11029560462043,84.41243660425239L224.6501441184749,84.32096102374798L224.8170063863936,83.92261562470425L224.9053452341152,84.07333859594723L224.97405322678762,83.0175873919247L225.02313036441075,83.83471444260948L225.79854913885626,84.26485129168682L226.11264281964435,84.46722458371433L226.34821308023538,84.86515648309592L226.44636735548164,85.7385553104402L226.70156847112196,84.69760098465676L227.05492386200854,84.59556484988855L227.45735639051824,83.56314178255276L227.46717181804286,84.31911797764862L227.66348036853537,84.11659251499509L227.9579431942742,84.24605983251568L228.752992823769,83.40856418107987L228.9002242366384,82.37588050143037L229.10634821465555,82.87455228039906L229.36154933029584,83.27515782844648L229.45970360554213,83.72442472382943L229.67564301108393,82.97752842304955L229.9308441267242,81.54744496131784L231.38352740036902,82.59262054269622L231.66817479858318,81.05806061280136L232.0018993344205,80.55850019014972L232.29636216015933,80.99490841014786L232.32580844273318,80.76466320029321L232.59082498589814,80.50667514952048L232.90491866668617,79.69163411269173L233.0128883694571,80.0843461630832L233.4643980355899,81.0631498360741L233.50365974568842,80.5932126074073L233.75886086132874,80.75772749085321L233.78830714390264,80.06386761992975L234.05332368706755,80.59764452331179L234.06313911459216,80.55498121016772L234.55391049082354,80.32192820149643L234.7502190413161,80.59949926650734L234.87781959913622,81.70757436940595L235.18209785239964,81.6660412461415L235.85936235159892,80.91837697768197L235.88880863417276,80.25983477680823L236.0065937644683,79.35636713943332L236.05567090209146,79.36383357379242L236.74275082881533,80.0356652964299L236.8409051040616,78.58936079626281L236.86053595911085,80.1408237207214L238.34266551532951,79.84020030534977L238.76472889888848,79.8900936962075L238.81380603651164,79.18858255078321L238.96103744938102,80.96376095933199L239.23586942007057,82.04404252136744L239.33402369531686,81.06559690029793L239.64811737610492,80.51674511268469L239.83461049907282,81.02586397506344L239.9818419119422,79.93951428499567L240.49224414322285,80.85756879848917L240.67873726619075,80.86163296194292L240.6885526937154,80.87873211500634L240.93393838183104,80.78879789768665L241.01246180202807,80.94262244689494L241.05172351212659,82.35240777780868L241.36581719291462,82.02242113575957L241.70935715627658,81.79403013826665L242.24920567013106,81.72460157313496L242.61237648854225,82.53655587871802L242.7301616188378,83.1558168582106L242.86757760418257,82.78581512424304L243.14240957487212,82.08151473724571L243.15222500239673,82.96894417156551L243.50558039328334,84.36180434164326L244.01598262456392,83.90262694344902L244.0748751897117,83.28179924534335L244.14358318238405,81.58472005612033L244.30063002277808,81.52413821780918L244.34970716040124,81.27526331532127L244.35952258792585,81.46542547973338L244.7325088338617,80.7672136666213L244.86010939168182,80.73681573227633L245.14475678989604,80.97642018671829L246.08703783226022,81.58858619346451L246.2342692451296,81.9456748637798L246.381500657999,82.39695075146858L246.63670177363932,83.60055819212398L247.1078422948214,83.18703444456077L247.31396627283857,84.26117322298036L247.3924896930356,84.5183086086378L247.85381478669305,85.43572322267008L247.9814153445132,85.5275802807808L248.0893850472841,84.67278437891373L248.18753932253037,84.46065687046034L248.2660627427274,84.55737862409994L248.58015642351543,84.17964555432343L249.08074322727143,83.32432833538873L249.28686720528862,82.8091690469008L249.6500380236998,81.6646165265843L249.99357798706174,81.25644978773863L251.2597681377386,81.52172283988023L253.144330222467,81.5349562107276L253.93937985196177,81.3200024056755L254.03753412720803,81.71288618698395L254.3908895180946,81.16370910995417L254.4988592208655,81.55266202803047L254.51849007591477,81.23187654067921L254.5773826410625,82.94335741249725L255.03870773472,83.6597151823935L255.0681540172939,84.06808577206354L255.17612372006477,83.698841167697L255.50003282837744,82.81562249925933L256.11840476242895,82.96757477514035L256.22637446519985,82.65942188128761L257.2569943552857,82.54454866474184L258.1600136875514,83.32032784910159L258.36613766556854,83.22610329389408L258.4446610857656,83.51615332668715L258.62133878120886,83.93193935353497L259.2887878528835,83.53168880672618L259.34768041803125,83.80028899756668L259.64214324377,83.17623697006407L259.9660523520827,84.9318704938144L259.97586777960737,83.61491272002894L260.2997768879201,84.04101166985498L260.5157162934618,84.9956399312943L260.5353471485111,84.71926337421851L260.61387056870814,83.13528866891689L261.1733499376119,83.70518491313342L261.5561516110723,83.14841259180594L261.5659670385969,83.00625649354052L262.1843389726484,82.96579133765927L262.2039698276977,82.28795739320469L262.3708320956163,83.30955630990827L263.21495886273425,82.59750328397242L263.27385142788205,83.06339981057937L263.57812968114547,82.23452909204292L263.5879451086701,83.50622570418051L263.72536109401483,81.86751689170652L264.00019306470443,84.04602575410033L266.49331165595964,82.80784720349529L266.9546367496171,82.72288639939266L267.2392841478313,83.4207354045603L267.2785458579298,84.43114826496536L267.38651556070073,83.84101507519047L267.7398709515873,82.57254674337649L267.75950180663654,82.81997274861949L267.77913266168576,82.66258927645592L268.26008861039253,82.29726677607023L268.485843443459,81.91502360425551L268.49565887098356,82.20670342023632L268.6821519939515,82.45442694748233L268.92753768206717,82.11684112259826L269.15329251513356,82.48867230062092L270.1642815501702,82.6453689933993L270.6452374988769,81.77087182743988L270.9593311796649,82.79949360107476L271.02803917233734,83.46386477605448L271.8721659394553,83.22996149483176L272.2942293230142,83.75444374263192L272.97149382221346,83.1944569540452L273.18743322775526,82.96120709454398L273.62912746636346,82.92698436616581L274.59103936377693,82.68036204946073L274.8364250518926,82.45754166264601L275.3860889932717,82.42725947174019L275.44498155841944,82.1499947227341L275.4940586960426,82.97162376162933L275.6314746813874,83.7504856090655L275.8964912245523,83.07372194947062L276.9958191073105,81.74295897692559L277.0841579550322,81.24531513380764L277.3099127880986,80.18798802368062L277.47677505601723,80.12110312316635L277.74179159918214,79.99292269034783L278.0460698524456,81.06633718281367L278.20311669283967,82.34822200319732L278.21293212036426,83.08419768048078L278.3110863956105,82.5769735280133L279.5772765462874,81.86157001669824L279.7245079591568,81.38245068430676L280.60789643637327,82.2178221191603L281.2066375153755,81.98984822113438L281.7366706017053,82.60412862302191L282.49245852110164,82.92068973775795L283.0224916074315,82.93408641969502L283.1599075927762,82.62786654430866L283.876433802074,81.6192940853469L284.0040343598942,81.87094263140071L285.0739159600785,80.99154239508805L285.09354681512775,81.84118760378725L285.24077822799717,82.24395538318512L286.07508956759045,82.07126158720381L286.0849049951151,80.45195045849512L286.11435127768897,80.82823387412293L286.4382603860016,82.25026376980315L286.8014312044129,82.09359442514557L287.2627562980703,80.83317601598883L287.8026048119248,81.26073334686687L288.0479905000405,81.16378837865399L288.087252210139,81.8426401457187L288.28356076063153,79.3747878821781L288.67617786161657,80.15208441485714L289.48104291863604,80.33788633683578L290.4920319536726,79.62710903359377L290.77667935188674,79.77780668611399L291.3361587207905,79.71231057963286L291.49320556118454,80.65785554559571L291.6993295392017,80.91548406481553L292.0232386475144,80.74381577144678L292.22936262553156,81.28826470476503L292.7397648568122,81.09901042947665L292.8182882770092,81.93064598611585L293.2599825156174,81.49309698381357L293.4661064936346,80.89809480222415L293.5249990587823,81.54101931197248L293.78020017442265,82.10190605848197L294.4476492460973,80.92850221994513L294.48691095619574,80.04060948190792L295.48808456370773,81.14196239345232L295.96904051241444,80.73708595693206L296.0966410702346,81.11927202398236L296.18497991795624,80.95015037200301L296.4794427436951,82.09924478102407L297.5493243438794,81.82082857348432L297.5689551989286,82.91693990912218L297.637663191601,82.5574266380038L297.7652637494212,82.54070002550654L297.9615722999137,82.86502624585282L298.05972657515997,83.07906192151557L298.23640427060326,83.94038912357098L298.6486522266376,84.11219438911462L299.50259442128015,84.17912443747645L299.532040703854,83.03243763709378L299.689087544248,84.20620147569447L299.7381646818712,83.15698934293685L299.75779553692047,85.12176900527147L299.91484237731447,84.2853045435823L300.3565366159227,82.6341321455273" style="fill: none;" fill="none"></path></g></g></g></g><g opacity="0.2"><g><g><g><path style="fill: none;" stroke="rgb(255, 112, 67)" stroke-width="2px" d="M3.7441322492204243,6.188279445926668L3.773578531794305,-1.9565474275186148L4.087672212582368,28.998474138945653L4.117118495156249,31.484076270925584L4.3428733282226695,39.38898747270278L4.352688755747296,29.934884194670843L4.421396748419685,42.867381506217896L4.931798979700288,35.96078615188492L5.206630950389842,32.20175542136167L5.245892660488351,34.58193984214515L5.648325188998056,39.1905013953527L5.864264594539849,53.05692154090673L6.129281137704777,55.7834009738818L6.885069057101053,48.745930037219125L7.130454745216727,61.75818474055001L7.4838101361032985,47.98178900666309L8.004027794908527,50.089738334033115L8.573322591336892,57.00506065526692L8.936493409748088,45.52058189234964L8.956124264797342,56.85463435338475L9.06409396756824,53.1240909878899L9.309479655683914,58.928977266376094L9.702096756668992,63.20359315243479L10.016190437457054,49.58395022916096L10.045636720030936,56.584423742765196L10.094713857654071,48.38046751114675L10.408807538442135,62.81301980942243L10.821055494476466,53.88474701592217L10.850501777050347,50.38772774070321L11.537581703774235,48.65179158730297L11.792782819414535,57.42232824997595L11.87130623961155,48.14399346022833L12.136322782776478,63.24615790317645L12.205030775448868,62.93920292984767L12.23447705802275,48.72321244815333L12.381708470892153,63.682021818406554L12.411154753466034,63.304773910355436L12.666355869106335,59.74220477438841L13.431959216027238,70.72965855081286L13.755868324339929,56.20727705885376L13.893284309684706,70.79316946817565L14.050331150078737,60.16616762290869L14.236824273046649,78.92120759502299L14.658887656605609,51.295737194948316L15.414675576001885,57.72574037841542L15.46375271362502,56.611146915644625L15.640430409068307,57.80861402764269L15.777846394413084,54.2313963126027L15.925077807282488,58.310439930475354L16.091940075201144,65.24182796873785L16.366772045890702,64.28841948783962L17.044036545089963,75.13684190839328L17.446469073599665,76.1996664540059L17.495546211222802,78.86184686738767L19.21324602803252,54.76940261508054L19.429185433574315,72.56480159140969L19.458631716148197,60.10719733124077L19.645124839116107,64.32156316329399L19.80217167951014,70.80229410133957L20.2242350630691,56.573122790597836L20.42054361356164,62.42297427799559L20.63648301910343,63.3035664509748L20.783714431972836,76.05205273714809L21.029100120088508,63.53565894270359L21.05854640266239,74.51145025217603L21.195962388007167,59.12185263426885L21.31374751830269,55.857460892659915L21.343193800876573,70.15291232401466L21.853596032157174,67.95623280790647L21.951750307403444,56.92572262063328L22.05972001017434,75.14659557728244L22.55049138640569,78.70270082890038L22.609383951553454,59.40566343108598L22.97255476996465,82.68450420000481L23.41424900857286,74.55610455837284L24.25837577569078,70.37222888325483L26.025152730123633,66.2367889589808L26.2312767081408,77.42403026598L27.085218902783346,67.25757656543729L27.26189659822663,47.66900641500618L27.75266797445798,68.91990107839233L28.14528507544306,51.16489776409709L28.321962770886344,71.46228995274103L28.518271321378883,67.37051378415391L28.950150132462472,72.69884404325268L28.969780987511726,66.84350476142434L28.999227270085605,68.68319565801174L29.04830440770874,69.10373134637379L29.234797530676655,74.39117428333155L29.548891211464714,80.83519701014637L29.93169288492517,64.94444590690593L30.422464261156517,67.30944670673517L30.972128202535625,77.03517050304673L31.394191586094585,82.88006923789514L31.659208129259515,75.66834817504359L31.76717783203041,75.6784416678303L32.20887207063862,72.83352999141229L32.7094588743946,75.4997521400862L33.298384525872216,67.53318820693914L33.494693076364754,90.00545333988273L33.975649025071476,60.65463916959733L34.28974270585954,66.78487429365397L34.67254437931999,82.55208856469261L35.673717986831946,65.14137747068214L35.693348841881196,73.54795550878681L35.92891910247224,77.03848197847391L35.96818081257075,71.16860257200796L36.105596797915524,57.63654745075293L36.11541222544015,65.78874922580455L36.23319735573568,75.18961583665273L36.55710646404837,61.59756372174144L37.224555535723,78.80269581832746L37.48957207888793,67.99213845631537L37.81348118720062,71.5547075922824L38.58889996164615,70.67194633059543L38.98151706263123,63.96062680232511L39.06004048282824,77.77864011821796L39.50173472143646,71.44944894759118L40.23789178578348,61.098817924873785L40.27715349588199,65.80472817928494L40.28696892340662,72.80998814863759L40.36549234360363,51.38195124078551L40.522539183997665,62.09428503581519L40.532354611522294,72.72120734782953L41.29795795844319,79.88177406865678L41.376481378640214,79.47439751845506L41.445189371312594,65.54781408244385L41.49426650893573,71.23353785762217L42.505255543972304,65.54377234715176L42.78990294218649,86.48182657651545L42.99602692020366,77.58166517266757L43.87941539742008,57.28176407141834L44.38981762870068,79.66261657592185L44.81188101225965,63.74116563717109L44.880589004932034,71.23629260028102L45.20449811324472,66.95415720670215L45.49896093898353,76.91091064127569L45.53822264908204,74.27882271856602L47.02035220530072,70.01751057658149L47.17739904569474,65.14943925037927L47.40315387876116,60.06139340802889L47.61909328430296,86.31806037908063L47.92337153756639,64.57602618989532L48.37488120369923,75.54839756950525L48.93436057260297,72.72054939092153L49.08159198547237,80.0215573752796L49.346608528637304,51.59256975430762L49.57236336170372,74.08379272255691L49.71959477457313,84.05507905147236L50.023873027836565,70.52214183414283L50.328151281100006,72.64701728372896L50.48519812149403,74.46285543482686L51.36858659871046,60.627793081691124L51.47655630148135,67.22631276686299L52.04585109790972,80.83989670234651L52.752561879682865,65.98666410979494L52.90960872007689,79.1511526889311L53.13536355314331,61.446334857037414L53.154994408192564,71.76750242480793L53.17462526324182,83.11090365817344L53.262964110963466,57.34069821160779L53.57705779175153,60.58689129895873L53.7144737770963,65.53242078291454L53.783181769768696,67.99872525569121L54.04819831293362,70.96021821985485L54.08746002303213,82.6192724722672L54.215060580852274,67.01291058949927L54.5880468267881,63.6695784795198L54.94140221767468,74.06512409907891L56.01128381785902,66.36324683064237L56.423531773893345,72.09831014362622L56.43334720141797,81.41111898323561L56.776887164779914,71.50354601996237L57.081165418043355,71.97003023745015L57.35599738873291,73.98070316657345L57.473782519028425,74.08478327306678L57.54249051170082,84.26601569800494L57.67990649704559,73.97827378722077L57.74861448971799,87.7179902310597L57.984184750309026,79.49184422196102L58.121600735653814,70.98274059093694L58.23938586594933,73.67825989775677L58.465140699015755,84.71954322561177L58.514217836638885,73.40658876740733L58.92646579267322,69.25898748577853L59.28963661108441,76.8277550105164L59.34852917623218,86.18320813412011L60.202471370874726,71.91248431403365L60.27117936354711,70.89943312396811L60.82084330492623,67.00370642308275L61.3214301086822,63.95040316421593L61.812201484913544,75.03142419719684L63.304146468656846,74.76459013466565L63.36303903380461,82.21893099977427L63.53971672924789,65.90439057511016L63.618240149444915,74.9264909158118L64.25624293854567,74.19421379837254L64.31513550369343,82.55256576420831L64.3445817862673,76.08157403446053L64.44273606151357,81.28256432582324L64.48199777161209,83.53159118274503L64.50162862666134,82.85297008963971L64.55070576428447,72.81198371024871L65.61077193694419,82.04469533417675L65.68929535714119,81.90144148562152L65.69911078466582,88.25369729950734L65.85615762505986,76.51353359001668L67.35791803632777,78.33111424237647L67.60330372444345,81.26179891659442L68.61429275948004,87.67676308502114L69.48786580917184,66.82376605418384L69.96882175787856,64.9303251394185L71.01907250301365,70.71450385104141L71.35279703885097,92.07392525277177L71.82393756003306,74.17729490645213L71.86319927013156,76.9729610389086L71.94172269032858,82.30273012685016L72.33433979131365,63.14932255296699L72.35397064636291,76.4395242833084L72.4226786390353,72.65789887874615L72.46194034913381,81.74618534621678L72.91345001526665,79.32196119437039L73.04105057308679,74.24050215139584L73.07049685566068,85.12141752079152L73.23735912357934,57.25170773222467L73.2569899786286,81.15014869051105L73.4434831015965,76.60162751273393L74.04222418059875,62.67747345607539L74.15019388336964,70.5995421495309L74.45447213663307,76.1905128996592L74.49373384673159,85.04892657617864L74.52318012930547,70.68193859924244L75.55380001939129,76.20493010927001L75.67158514968682,78.07443874529324L75.877709127704,71.01025186604683L75.90715541027788,75.14936478053266L75.97586340295027,59.66946076942632L76.3194033663122,66.06539479959042L77.59540894451372,65.55810279321426L77.88987177025251,82.8281484845274L78.0665494656958,78.34009426962655L78.40027400153312,91.254501381351L78.63584426212417,75.36884763657375L78.77326024746894,88.8059400542037L79.30329333379879,74.42666780488597L80.29465151378614,86.69488169968592L80.51059091932791,89.0867936600826L81.33508683139658,85.47732882625411L81.40379482406898,58.95595349960476L81.4528719616921,69.94096343608514L82.40496843158093,65.8567140053139L83.70060486483167,74.04738095344955L83.74968200245482,72.84032646936323L84.20119166858765,80.2145628884948L84.79993274758989,83.53570522099405L85.40848925411677,86.87486545035897L85.50664352936305,68.02849238305718L85.57535152203543,81.51555337421789L85.63424408718319,84.41273285819685L85.77166007252798,86.798426764298L85.8894452028235,75.725966401417L85.95815319549588,75.11808652136696L86.02686118816827,81.34000179480435L86.1839080285623,74.94970739528036L86.5470788469735,65.03082624954405L86.82191081766307,70.80874352509726L87.36175933151755,70.6851777717127L87.75437643250262,77.40447954642754L87.77400728755187,81.40560949791796L87.92123870042128,67.63845408192604L87.9703158380444,72.91048202846743L88.12736267843844,59.70880803858482L88.21570152616009,79.10043216464832L88.46108721427576,79.40408289284564L89.3837374015907,79.0299150907595L89.40336825663995,94.13338821722797L90.24749502375786,76.18147503004359L90.47324985682428,75.34239921493065L90.5125115669228,72.74448166966366L90.6204812696937,70.27803982126882L90.63029669721833,76.44129570575305L90.68918926236607,79.76262602594029L90.99346751562952,68.7308577672166L91.28793034136832,90.46047030840224L91.73944000750117,77.2849049162652L91.77870171759966,77.75344253772964L93.12341528847357,66.87543374720235L93.33935469401537,76.84113828784321L93.49640153440939,80.53706299756243L94.18348146113328,83.60966391563248L94.41905172172433,81.20874300680296L94.68406826488925,78.54762544688796L95.64598016230269,86.010866805994L95.6852418724012,77.24155206329304L97.01032458822584,62.9533164670394L97.0299554432751,85.13250879438378L97.19681771119375,90.04473553638002L97.35386455158779,82.43831263167567L98.09002161593482,96.4233746992477L98.22743760127958,81.43522478907437L98.80654782523257,83.79484624890843L99.0715643683975,69.6523517229282L99.10101065097139,61.545375447433074L99.33658091156242,75.67411072071049L99.58196659967811,79.9949932689054L99.71938258502288,75.70301021259336L100.01384541076169,76.43781793352498L100.07273797590946,72.13699222558103L100.10218425848333,80.86471107716311L100.66166362738707,68.42628879146635L101.0739115834214,76.54417558316145L101.13280414856916,71.16274603249704L101.21132756876618,78.80777148590357L102.18305489370425,79.37096090827836L102.39899429924606,85.51515050302152L102.80142682775575,80.62240940791652L102.89958110300202,80.32278595441993L102.98791995072366,78.72444232804769L103.20385935626545,84.20760213910533L103.44924504438113,76.94758993132368L103.79278500774308,83.64830261581312L103.95964727566174,67.07047097350714L104.04798612338338,70.45187059030756L104.64672720238563,64.10106806585596L104.90192831802592,80.36054978882177L105.02952887584607,81.38110602581612L105.38288426673265,81.36775166967209L105.41233054930652,85.37204849067584L105.5890082447498,78.33754920554277L106.55092014216325,73.57254574443695L106.94353724314834,74.89562478350058L107.05150694591923,77.89449114609866L107.13003036611624,74.61427951751457L107.20855378631326,82.99075060435571L107.24781549641177,84.14367186459239L107.37541605423192,81.09443203190474L107.5128320395767,75.15707950603655L108.3864050892685,72.84545997930492L108.4943747920394,69.20849110066221L108.84773018292597,71.14601512826465L109.14219300866476,66.6061775356142L109.61333352984687,73.78214478626641L109.93724263815956,83.27536396399472L110.0648431959797,69.32123310139514L110.11392033360285,74.40798472081659L110.42801401439091,84.51549705087413L110.52616828963718,61.35390998720038L110.85007739794986,91.73570648086869L110.85989282547449,85.97201842723828L111.18380193378718,81.4645364078117L111.34084877418121,85.52383408814818L111.36047962923047,84.15281095834769L111.52734189714913,94.66738893589219L111.69420416506779,68.21989277062866L111.71383502011705,86.0762142184627L111.93958985318345,76.81932448573897L111.9592207082327,71.06485505911648L112.19479096882377,81.09755551964392L112.2046063963484,90.68327910046187L112.6463006349566,68.6137703587725L112.9015017505969,79.29748664345132L113.32356513415587,79.00440660755642L113.33338056168049,74.96464518618104L113.36282684425437,69.30815349648744L113.62784338741929,68.61825314210184L113.86341364801035,71.79351702870949L113.96156792325662,72.10406545899744L114.22658446642154,72.32143706869631L114.8645872555223,73.16677431987895L115.21794264640886,67.30442165122889L115.4142511969014,76.72997972186693L115.64982145749246,83.85176313659967L116.3270859566917,72.71430241544321L116.45468651451186,83.66981274549826L117.35770584677753,75.69382773706391L117.37733670182679,77.22479223787786L117.40678298440068,73.7558771220156L117.50493725964695,75.69533886886363L117.61290696241785,73.11841087199193L118.23127889646935,71.91563672295557L118.58463428735591,73.14386151282949L119.42876105447382,69.47015550177326L119.65451588754026,91.23118367774273L120.30233410416564,76.05788035547624L120.34159581426414,79.1865666772329L120.71458206019996,81.54012191898096L120.90107518316788,76.30072429689976L121.3820311318746,80.83408354460974L122.22615789899251,88.3354285620152L122.31449674671416,76.24883969501049L122.81508355047013,82.76356025310643L123.1291772312582,88.7688920190754L123.24696236155371,96.5145848794084L123.91441143322835,83.77597517715104L124.09108912867164,74.83519397210279L124.10090455619627,77.34325340250355L124.26776682411493,88.97619905717033L124.31684396173807,73.6041493669088L124.49352165718135,75.54023456566843L125.16097072885599,95.9539115999346L125.3474638518239,78.61422370051143L126.05417463359703,65.12419828811682L126.22103690151569,72.5139003097346L126.34863745933585,94.7114503578422L126.66273114012391,83.96620425682032L127.18294879892913,73.5203357792415L127.25165679160152,81.60712506916322L127.3203647842739,84.22828078478585L127.42833448704481,72.23494104132712L127.43814991456944,65.33736186572267L127.9681830008993,77.45734023823529L128.06633727614556,67.4074895163253L128.13504526881795,81.25721490912538L128.1448606963426,73.83288700143628L128.97917203593587,64.59316199068651L129.08714173870678,68.08229301330496L129.3227119992978,77.28273582755746L129.56809768741348,84.69276221036681L129.63680568008587,74.03764897544745L129.685882817709,67.08608118190723L130.09813077374335,79.3775621682456L130.186469621465,85.7510750514673L130.27480846918664,74.225051009501L131.10911980877992,81.78042802661639L131.40358263451873,90.43235891874986L131.47229062719111,79.20077420826863L131.56062947491276,68.17557105803373L132.159370553915,78.65596419754415L132.1986322640135,75.58834495320623L132.24770940163666,86.26185206036726L132.4832796622277,81.51733202695824L132.5912493649986,81.42532651427136L132.6305110750971,88.35827629640345L132.8857121907374,87.3186754605551L133.00349732103294,85.06714692132373L133.51389955231352,84.91212938167682L134.14208691388964,71.13610239287024L134.1617177689389,80.59823129912087L134.2598720441852,82.03267858273583L134.5641502974486,80.01286655985723L135.02547539110608,78.14181064055582L135.2512302241725,68.46304038447126L135.74200160040385,80.43380714477804L136.07572613624117,86.75844322911854L136.68428264276804,66.02306864860661L136.9885608960315,81.31398719090278L137.60693283008297,86.74399709832495L137.8032413805755,67.30371308225104L137.88176480077252,88.28142548348802L138.30382818433148,73.71608880481986L138.34308989443,76.9600766519846L138.5688447274964,80.56944026167339L138.5982910100703,77.4574197714879L138.83386127066134,81.02980764900532L138.86330755323522,83.75784159555428L138.98109268353076,88.68454338952687L140.07060513876434,65.53811102562453L140.0902359938136,87.63174726403973L140.28654454430614,72.12762176236355L141.05214789122704,85.40828673268658L142.131844918936,76.9987587339394L142.43612317219944,76.69139163375614L142.69132428783973,83.72640426988336L143.3293270769405,68.84855252049888L143.5060047723838,76.43948090153424L143.6237899026793,75.98948175822532L143.65323618525318,67.37138141963702L144.1734538440584,85.019434200049L144.21271555415692,86.01786573222432L144.76237949553604,87.12321164680445L144.95868804602856,89.66412554083188L145.3709360020629,81.90023402624088L145.67521425532635,77.86892482053001L145.71447596542484,86.46233369932851L145.74392224799874,74.60273273529367L145.8126302406711,82.01666347777697L145.91078451591738,75.73512718605939L146.3132170444271,80.56100973689594L146.51934102244425,78.73144125427801L146.5389718774935,87.60694734981449L146.57823358759202,73.69397856059224L147.1867900941189,69.41760571268027L147.57940719510395,87.14891534799123L147.5892226226286,84.87652740568703L147.74626946302263,76.81230386862157L147.81497745569501,72.52917792453282L148.02110143371218,89.29104228309963L148.51187280994353,64.52957877036681L148.62965794023904,83.7070270774275L148.98301333112562,82.51667457639081L149.09098303389652,81.97551586499104L149.42470756973384,76.48780819794283L150.07252578635922,76.46994936758239L150.11178749645774,75.50416262045862L150.6908977204107,82.27756146754463L151.05406853882192,81.19948822831657L151.0835148213958,69.99002822265436L151.76077932059508,75.05797384297965L151.79022560316895,86.80931558961089L151.91782616098908,84.04677867201738L152.3595203995973,85.00675949170007L152.40859753722043,88.268259115032L152.4282283922697,93.38544304902311L152.45767467484356,76.18701343654402L152.55582895008982,80.4636754962837L152.57545980513908,75.17018803212702L153.15457002909207,85.44091705714676L153.21346259423984,82.74839109274359L153.2232780217645,71.66926439723413L153.33124772453536,75.40656085890576L153.75331110809432,82.1017134460077L153.78275739066822,81.07475839732551L154.24408248432567,71.99209709990362L154.26371333937493,79.90481702102872L154.75448471560628,93.77864098937187L154.84282356332793,77.30169366286314L154.92134698352496,89.9355363805364L155.4513800698548,81.7836093567211L155.62805776529808,86.36096495371986L155.69676575797047,66.24725119684781L155.82436631579063,75.87554675870314L156.02067486628317,81.6851616505722L156.1482754241033,86.4161465704449L156.2169834167757,83.99228393338312L156.44273824984214,68.83790229494387L156.45255367736675,81.1305690497758L156.49181538746524,82.29401762054074L156.7372010755809,83.14014297395386L157.0120330462705,78.12360475600214L157.11018732151675,77.36938369113619L157.25741873438614,77.17619019023299L157.58132784269887,81.53289162328846L157.68929754546974,93.98792912848656L158.09173007397945,75.79854410957817L158.35674661714435,80.37663719673756L158.6217631603093,78.67517509319909L158.63157858783393,73.10579400600854L158.9162259860481,74.18506024402586L159.41681278980408,81.86421992339662L159.69164476049363,78.62326157012704L159.9664767311832,86.85485922217786L160.07444643395408,80.9332181288494L160.3689092596929,90.05417107225871L160.7713417882026,82.6731454054719L161.25229773690933,84.66735495130342L161.53694513512355,86.62693138076794L162.5381187426355,83.08442631534756L162.5479341701601,76.91271821519882L162.55774959768473,73.38667653307023L162.60682673530786,88.20022203256572L162.7147964380788,89.32929777760857L162.96018212619444,78.40625870550848L163.22519866935937,83.63820912302641L163.5589232051967,83.93037091136836L164.01043287132953,71.25345732225497L164.48157339251162,76.6972987853369L164.8152979283489,86.63214442396222L164.8447442109228,79.54474829554295L164.85455963844743,80.71327976417969L165.13920703666165,90.83011194538487L165.3551464422034,75.90164812615302L165.55145499269594,77.23696805582401L165.70850183309,81.66403472655878L165.95388752120564,85.88490059443953L166.6213365928803,78.63451191022456L166.8470914259467,81.95238614907079L168.06420443900046,72.48989572803555L168.39792897483778,82.25732386990136L168.49608325008407,74.10484734361341L169.0261163364139,84.48088562539422L169.07519347403704,82.35574265486748L169.55614942274377,83.63286593450965L169.82116596590868,77.82231833449626L169.8309813934333,63.02943702008989L170.20396763936913,81.94402069695458L170.68492358807586,81.55823380969063L171.0971715441102,69.6459962930145L171.56831206529228,68.90086370983403L171.6468354854893,80.51256675575628L172.78542507834604,89.09781986101363L172.93265649121545,61.071617552478656L172.97191820131397,86.91082171083768L173.1093341866587,80.82338270698484L173.30564273715126,85.5828983736601L173.9730918088259,81.96068652852576L174.00253809139977,86.6333157318644L174.20866206941693,72.22066843763015L174.3460780547617,78.71277263080002L174.3755243373356,77.46479467309423L174.46386318505725,73.15715802660797L174.69943344564828,84.91640971672678L174.80740314841918,59.689163325188346L174.94481913376396,88.1998460571897L174.98408084386247,85.49463092384623L175.48466764761844,72.47210197033634L175.8674693210789,78.9319735053091L175.92636188622666,69.79765897546008L176.00488530642366,86.92497862980356L176.44657954503188,70.73583322333424L176.7803040808692,75.31365155925731L177.07476690660803,81.82869748065943L177.1729211818543,86.53414499614625L177.50664571769158,90.2005122570746L177.85018568105352,65.3109785167408L177.9777862388737,80.87411769185904L178.03667880402145,88.58303003800435L178.17409478936625,79.98356940171126L178.67468159312222,85.40882177456781L179.59733178043714,76.75566173216663L180.0095797364715,76.20730887655283L180.36293512735804,77.90460632977243L180.68684423567072,87.11512817622024L180.87333735863865,86.97715244352055L180.94204535131104,87.63699645871247L181.41318587249313,75.68134824669866L181.96284981387223,80.43657634802825L181.98248066892148,78.90441884842504L182.48306747267748,75.0307807008802L183.32719423979538,69.85389621535624L183.42534851504166,76.2657513566352L183.78851933345288,74.78478435053476L183.85722732612524,85.60365655259322L183.8768581811745,72.90573172419747L185.69271227323048,80.80148937162802L185.7417894108536,77.99481872912759L186.0460676641171,94.95009349746837L186.05588309164168,79.95414209824285L186.11477565678945,85.8442157205779L186.30126877975735,79.15207093648405L186.59573160549618,82.86105356022391L186.60554703302083,91.65037453110597L186.64480874311928,77.57588093611359L186.75277844589021,74.1329659635615L187.79321376350066,78.26197092466923L188.1367537268626,82.50146926454953L188.37232398745365,84.30271667893999L189.97223867396784,85.46568081989352L190.0311312391156,67.76280793754111L190.3648557749529,66.15758106966962L190.4630100501992,83.55900123371524L190.62987231811786,82.98756204395532L190.87525800623354,68.80230754924975L190.9734122814798,90.90655063144582L191.1599054044477,91.614165210278L191.53289165038353,80.19421683641615L191.74883105592534,66.38176361791083L192.90705150383133,82.72824748894432L193.74136284342458,76.27118853899596L194.05545652421267,74.22711164377336L194.49715076282087,91.77088909970831L194.74253645093654,84.53143985287606L194.99773756657686,92.6428482996307L195.0075529941015,84.79916324177744L195.02718384915073,71.21855668494734L195.0566301317246,82.70555159076561L195.62592492815298,65.78237210500377L195.71426377587463,86.63885413836483L196.36208199249998,73.62653436237272L196.39152827507388,72.66807190478546L196.97063849902688,79.21711467653364L197.16694704951942,71.20662669705474L197.2258396146672,78.73525162010795L197.6773492808,83.71902936827702L197.98162753406348,74.80652584968207L198.0699663817851,77.1353824013446L198.14848980198212,79.18749215508153L198.66870746078735,69.61230311508751L198.74723088098435,83.7050748975905L198.85520058375525,67.83096070473846L200.1115753069075,81.66518434357388L200.14102158948137,76.56927916980574L200.27843757482614,72.95477481987959L201.79982884114332,83.73432867396231L201.8587214062911,79.24088788877054L201.8979831163896,72.90282514532909L202.57524761558886,79.35562545111459L202.7322944559829,82.28848644433597L202.78137159360605,88.40812195490746L202.82063330370457,85.31370000443748L203.04638813677096,76.50906526727873L204.0083000341844,71.42061452836954L204.2242394397262,75.14862006007634L204.35183999754634,81.20896714596942L204.5579639755635,83.56748237056253L204.75427252605604,78.18385481000762L204.91131936645007,87.48537715804105L205.41190617020607,78.40401008354812L205.6572918583217,85.58767036881713L206.413079777718,92.7567616082658L206.4425260602919,90.39122576655531L206.4817877703904,92.56514431182356L206.6290191832598,89.46544424549806L206.76643516860457,78.6350469521058L207.55166937057473,76.71978500494053L207.70871621096876,81.91829530488071L208.8473058038255,77.08993276262163L209.74050970856658,84.7752454236267L210.0840496719285,77.22792295591272L210.50611305548745,85.51152089458388L210.86928387389864,78.81097450689535L210.87909930142328,74.87556794324962L211.23245469230986,88.67257725015578L211.438578670327,86.29492343286468L211.76248777863972,89.06963616840433L211.8999037639845,68.31385769344818L212.52809112556062,79.10722864259925L213.03849335684123,77.63713600122033L213.3624024651539,71.07439181913487L213.77465042118823,79.56306986482771L213.98077439920542,79.88985753924096L214.2261600873211,80.35737568901278L215.16844112968525,88.66558555422117L215.41382681780092,79.44849859928458L215.69847421601514,84.31508771486983L215.7573667811629,79.60628534218169L215.85552105640917,92.94566754382338L216.12053759957408,86.6382178723439L216.14998388214795,86.23267781724809L216.62112440333007,81.4189349328792L216.7487249611502,74.81732068115095L216.79780209877336,95.08356475595166L217.17078834470917,68.02560026478018L217.27875804748007,76.87036314303222L217.48488202549723,87.43989859813531L217.85786827143306,89.43548190014842L218.07380767697484,77.3460009148667L218.34863964766438,79.51960855742017L218.4173476403368,63.69272988632713L218.45660935043531,75.36137151082772L218.5743944807308,87.15255218672456L218.59402533578006,70.91207168083857L219.12405842210993,82.7619551274627L219.50686009557037,86.34910726878418L220.00744689932637,77.70261355901148L220.2430171599174,72.74090990359156L220.4589565654592,80.88748650859444L220.72397310862414,96.61298920378313L221.68588500603758,87.17960795320583L221.90182441157936,86.8593203146201L222.65761233097564,86.96723970812614L222.80484374384505,81.43083599958904L223.12875285215773,90.03585673326964L223.42321567789654,83.66048566405496L223.5606316632413,85.79865762741956L223.6587859384876,86.81710984836738L223.72749393115998,94.17760870568321L224.11029560462043,78.36581966170041L224.6501441184749,83.5328637147869L224.8170063863936,80.4907168021736L224.9053452341152,85.37187496357922L224.97405322678762,73.92188471111508L225.02313036441075,90.87457826389365L225.79854913885626,87.97064568373791L226.11264281964435,86.21074833041277L226.34821308023538,88.29349284699877L226.44636735548164,93.26322213063733L226.70156847112196,75.72937910098385L227.05492386200854,83.71648430419327L227.45735639051824,74.6684199716599L227.46717181804286,90.83214365847446L227.66348036853537,82.37175775982632L227.9579431942742,85.36147056807772L228.752992823769,76.19321703024819L228.9002242366384,73.47891341521927L229.10634821465555,87.17080145305238L229.36154933029584,86.72652870393192L229.45970360554213,87.59503182251329L229.67564301108393,76.54272952402295L229.9308441267242,69.22672590639866L231.38352740036902,91.59721016687912L231.66817479858318,67.83723660139955L232.0018993344205,76.2545950103817L232.29636216015933,84.75473307474711L232.32580844273318,78.78101216154569L232.59082498589814,78.28400886593992L232.90491866668617,72.66974210309043L233.0128883694571,83.4677115203019L233.4643980355899,89.49591994184189L233.50365974568842,76.54452263735466L233.75886086132874,82.17508648669504L233.78830714390264,74.08599796274312L234.05332368706755,85.19633784475704L234.06313911459216,80.1874203584652L234.55391049082354,78.31408689602065L234.7502190413161,82.99088074967817L234.87781959913622,91.25406756360945L235.18209785239964,81.30821741494016L235.85936235159892,74.47696174172289L235.88880863417276,74.58624043081912L236.0065937644683,71.57264595589545L236.05567090209146,79.4281597775016L236.74275082881533,85.82375398376817L236.8409051040616,66.12889125636183L236.86053595911085,93.5072735314415L238.34266551532951,77.25021395753265L238.76472889888848,80.31994444821278L238.81380603651164,73.14479422097381L238.96103744938102,96.25760570990607L239.23586942007057,91.35108367121123L239.33402369531686,72.6359115495453L239.64811737610492,75.78817586555515L239.83461049907282,85.41211878940358L239.9818419119422,70.5801938782578L240.49224414322285,88.7669615301255L240.67873726619075,80.89664729323681L240.6885526937154,81.02604789524523L240.93393838183104,80.01398002539386L241.01246180202807,82.26788010161239L241.05172351212659,94.49825062875787L241.36581719291462,79.17945929656719L241.70935715627658,79.82635385217387L242.24920567013106,81.12644778123108L242.61237648854225,89.53185451143355L242.7301616188378,88.49098837383902L242.86757760418257,79.59810787775348L243.14240957487212,76.01369601849946L243.15222500239673,90.61449006724357L243.50558039328334,96.36183042231326L244.01598262456392,79.94663705131406L244.0748751897117,77.9331298462793L244.14358318238405,66.963730118199L244.30063002277808,81.00220238005141L244.34970716040124,79.13111030927152L244.35952258792585,83.10374566543788L244.7325088338617,74.7518503536555L244.86010939168182,80.4749258363812L245.14475678989604,83.0407047172951L246.08703783226022,86.86263179004726L246.2342692451296,85.02213110034229L246.381500657999,86.28486609155645L246.63670177363932,93.97009921930889L247.1078422948214,79.62436831170858L247.31396627283857,93.51529192936447L247.3924896930356,86.73362885430194L247.85381478669305,93.33960297433275L247.9814153445132,86.3189641660422L248.0893850472841,77.30838891667437L248.18753932253037,82.63309679763121L248.2660627427274,85.39067373237967L248.58015642351543,80.9253298762489L249.08074322727143,75.95544152610512L249.28686720528862,78.37087363838944L249.6500380236998,71.80385635154974L249.99357798706174,77.73993634537608L251.2597681377386,83.80715221217702L253.144330222467,81.64896679033562L253.93937985196177,79.46809270061122L254.03753412720803,85.09773107210292L254.3908895180946,76.43233736939005L254.4988592208655,84.90364101453386L254.51849007591477,78.46818618811461L254.5773826410625,97.68842338508342L255.03870773472,89.83141289226892L255.0681540172939,87.58635546768231L255.17612372006477,80.5176568839238L255.50003282837744,75.20635397118083L256.11840476242895,84.27670207503843L256.22637446519985,80.00456618040226L257.2569943552857,81.55487172219362L258.1600136875514,90.00396389897008L258.36613766556854,82.41432251056798L258.4446610857656,86.01504591690426L258.62133878120886,87.5140958925316L259.2887878528835,80.08337640345036L259.34768041803125,86.11438294942332L259.64214324377,77.79978873311848L259.9660523520827,100.05732854458664L259.97586777960737,72.26881497664641L260.2997768879201,87.7120180068177L260.5157162934618,93.22012956831013L260.5353471485111,82.33817303633474L260.61387056870814,69.48873736170293L261.1733499376119,88.61506024792209L261.5561516110723,78.35160490036898L261.5659670385969,81.78152703156165L262.1843389726484,82.61716845622068L262.2039698276977,76.44815725636523L262.3708320956163,92.11102389996992L263.21495886273425,76.46289259898651L263.27385142788205,87.0772775782701L263.57812968114547,75.09348905542114L263.5879451086701,94.46238113182746L263.72536109401483,67.74941019962291L264.00019306470443,102.81471749164709L266.49331165595964,72.14046276751341L266.9546367496171,81.99091639481604L267.2392841478313,89.43297298754311L267.2785458579298,93.13624367768591L267.38651556070073,78.75679067097587L267.7398709515873,71.64420419236396L267.75950180663654,84.95164294763624L267.77913266168576,81.30667013166197L268.26008861039253,79.14987292659353L268.485843443459,78.62185166246702L268.49565887098356,84.71963721945578L268.6821519939515,84.58866041298641L268.92753768206717,79.2084094005199L269.15329251513356,85.69214091127787L270.1642815501702,83.99537126964381L270.6452374988769,74.23674239763575L270.9593311796649,91.66146580469824L271.02803917233734,89.18767797587985L271.8721659394553,81.21479476429757L272.2942293230142,88.27306003137181L272.97149382221346,78.3699553908365L273.18743322775526,80.95166984345663L273.62912746636346,82.63214239859981L274.59103936377693,80.55561593630934L274.8364250518926,80.53785833008861L275.3860889932717,82.1663667500899L275.44498155841944,79.76125226975873L275.4940586960426,90.05027394288045L275.6314746813874,90.46067998697733L275.8964912245523,77.2431427283454L276.9958191073105,70.27792413653775L277.0841579550322,76.95792202386822L277.3099127880986,71.0787083056633L277.47677505601723,79.54486398027403L277.74179159918214,78.88859896144989L278.0460698524456,90.31421588713464L278.20311669283967,93.39215276342574L278.21293212036426,89.424911207846L278.3110863956105,78.20704236829341L279.5772765462874,75.69809361152247L279.7245079591568,77.25465335908784L280.60789643637327,89.41486832712913L281.2066375153755,80.02576540737263L281.7366706017053,87.8963905469761L282.49245852110164,85.64798549548385L283.0224916074315,83.04950398715285L283.1599075927762,79.98966454098004L283.876433802074,72.93005443890699L284.0040343598942,84.03899164355657L285.0739159600785,73.4151711283943L285.09354681512775,89.16120786334966L285.24077822799717,85.71395471338208L286.07508956759045,80.58343811413404L286.0849049951151,66.50096227269714L286.11435127768897,84.0700602241472L286.4382603860016,94.5015982556635L286.8014312044129,80.74382776348044L287.2627562980703,69.97418664479211L287.8026048119248,84.94430419750839L288.0479905000405,80.3285701909739L288.087252210139,87.69120921581472L288.28356076063153,58.11329145782834L288.67617786161657,86.84879300409186L289.48104291863604,81.93864135695937L290.4920319536726,73.503489190278L290.77667935188674,81.0761249232114L291.3361587207905,79.14803643148764L291.49320556118454,88.80408909850641L291.6993295392017,83.13505284578635L292.0232386475144,79.26482739780836L292.22936262553156,85.97890166873754L292.7397648568122,79.46851205776139L292.8182882770092,89.09550616639206L293.2599825156174,77.72344404090153L293.4661064936346,75.77192216083844L293.5249990587823,87.08006124211168L293.78020017442265,86.93416110533303L294.4476492460973,70.81917684178153L294.48691095619574,72.39107204651064L295.48808456370773,90.63054132368089L295.96904051241444,77.24891973460369L296.0966410702346,84.41195198626207L296.18497991795624,79.49310229341152L296.4794427436951,91.99913507412872L297.5493243438794,79.42216586237255L297.5689551989286,92.36036064692529L297.637663191601,79.46008153298393L297.7652637494212,82.39659382553003L297.9615722999137,85.65922137498998L298.05972657515997,84.92306158876386L298.23640427060326,91.36105424897116L298.6486522266376,85.59236283072157L299.50259442128015,84.75575254643975L299.532040703854,73.15328981841247L299.689087544248,94.31862839286946L299.7381646818712,74.11762327610204L299.75779553692047,102.04910148076978L299.91484237731447,77.07884148902936L300.3565366159227,68.40864686997668" fill="none"></path></g></g></g></g></g></g><g transform="translate(30, 178)" clip-path="url(#clip_1)"><clipPath id="clip_1"><rect width="300" height="22"></rect></clipPath><g><g><line x1="3.5183774161540042" y1="0" x2="3.5183774161540042" y2="5" style="visibility: inherit;" fill="rgb(0, 0, 0)" stroke="rgb(204, 204, 204)" stroke-width="1px"></line><line x1="23.149232465407938" y1="0" x2="23.149232465407938" y2="5" style="visibility: inherit;" fill="rgb(0, 0, 0)" stroke="rgb(204, 204, 204)" stroke-width="1px"></line><line x1="42.78008751466186" y1="0" x2="42.78008751466186" y2="5" style="visibility: inherit;" fill="rgb(0, 0, 0)" stroke="rgb(204, 204, 204)" stroke-width="1px"></line><line x1="62.410942563915796" y1="0" x2="62.410942563915796" y2="5" style="visibility: inherit;" fill="rgb(0, 0, 0)" stroke="rgb(204, 204, 204)" stroke-width="1px"></line><line x1="82.04179761316972" y1="0" x2="82.04179761316972" y2="5" style="visibility: inherit;" fill="rgb(0, 0, 0)" stroke="rgb(204, 204, 204)" stroke-width="1px"></line><line x1="101.67265266242364" y1="0" x2="101.67265266242364" y2="5" style="visibility: inherit;" fill="rgb(0, 0, 0)" stroke="rgb(204, 204, 204)" stroke-width="1px"></line><line x1="121.30350771167758" y1="0" x2="121.30350771167758" y2="5" style="visibility: inherit;" fill="rgb(0, 0, 0)" stroke="rgb(204, 204, 204)" stroke-width="1px"></line><line x1="140.93436276093152" y1="0" x2="140.93436276093152" y2="5" style="visibility: inherit;" fill="rgb(0, 0, 0)" stroke="rgb(204, 204, 204)" stroke-width="1px"></line><line x1="160.56521781018546" y1="0" x2="160.56521781018546" y2="5" style="visibility: inherit;" fill="rgb(0, 0, 0)" stroke="rgb(204, 204, 204)" stroke-width="1px"></line><line x1="180.1960728594394" y1="0" x2="180.1960728594394" y2="5" style="visibility: inherit;" fill="rgb(0, 0, 0)" stroke="rgb(204, 204, 204)" stroke-width="1px"></line><line x1="199.82692790869334" y1="0" x2="199.82692790869334" y2="5" style="visibility: inherit;" fill="rgb(0, 0, 0)" stroke="rgb(204, 204, 204)" stroke-width="1px"></line><line x1="219.45778295794724" y1="0" x2="219.45778295794724" y2="5" style="visibility: inherit;" fill="rgb(0, 0, 0)" stroke="rgb(204, 204, 204)" stroke-width="1px"></line><line x1="239.08863800720118" y1="0" x2="239.08863800720118" y2="5" style="visibility: inherit;" fill="rgb(0, 0, 0)" stroke="rgb(204, 204, 204)" stroke-width="1px"></line><line x1="258.7194930564551" y1="0" x2="258.7194930564551" y2="5" style="visibility: inherit;" fill="rgb(0, 0, 0)" stroke="rgb(204, 204, 204)" stroke-width="1px"></line><line x1="278.35034810570903" y1="0" x2="278.35034810570903" y2="5" style="visibility: inherit;" fill="rgb(0, 0, 0)" stroke="rgb(204, 204, 204)" stroke-width="1px"></line><line x1="297.981203154963" y1="0" x2="297.981203154963" y2="5" style="visibility: inherit;" fill="rgb(0, 0, 0)" stroke="rgb(204, 204, 204)" stroke-width="1px"></line></g><g transform="translate(0, 8)"><text x="3.5183774161540042" y="0" dx="0em" dy="0.95em" style="text-anchor: middle; visibility: inherit; font-family: &quot;Helvetica Neue&quot;, sans-serif; font-size: 12px; font-weight: 200;" fill="rgb(50, 49, 63)" stroke="none" stroke-width="1px">0</text><text x="23.149232465407938" y="0" dx="0em" dy="0.95em" style="text-anchor: middle; visibility: hidden; font-family: &quot;Helvetica Neue&quot;, sans-serif; font-size: 12px; font-weight: 200;" fill="rgb(50, 49, 63)" stroke="none" stroke-width="1px">2k</text><text x="42.78008751466186" y="0" dx="0em" dy="0.95em" style="text-anchor: middle; visibility: inherit; font-family: &quot;Helvetica Neue&quot;, sans-serif; font-size: 12px; font-weight: 200;" fill="rgb(50, 49, 63)" stroke="none" stroke-width="1px">4k</text><text x="62.410942563915796" y="0" dx="0em" dy="0.95em" style="text-anchor: middle; visibility: hidden; font-family: &quot;Helvetica Neue&quot;, sans-serif; font-size: 12px; font-weight: 200;" fill="rgb(50, 49, 63)" stroke="none" stroke-width="1px">6k</text><text x="82.04179761316972" y="0" dx="0em" dy="0.95em" style="text-anchor: middle; visibility: inherit; font-family: &quot;Helvetica Neue&quot;, sans-serif; font-size: 12px; font-weight: 200;" fill="rgb(50, 49, 63)" stroke="none" stroke-width="1px">8k</text><text x="101.67265266242364" y="0" dx="0em" dy="0.95em" style="text-anchor: middle; visibility: hidden; font-family: &quot;Helvetica Neue&quot;, sans-serif; font-size: 12px; font-weight: 200;" fill="rgb(50, 49, 63)" stroke="none" stroke-width="1px">10k</text><text x="121.30350771167758" y="0" dx="0em" dy="0.95em" style="text-anchor: middle; visibility: inherit; font-family: &quot;Helvetica Neue&quot;, sans-serif; font-size: 12px; font-weight: 200;" fill="rgb(50, 49, 63)" stroke="none" stroke-width="1px">12k</text><text x="140.93436276093152" y="0" dx="0em" dy="0.95em" style="text-anchor: middle; visibility: hidden; font-family: &quot;Helvetica Neue&quot;, sans-serif; font-size: 12px; font-weight: 200;" fill="rgb(50, 49, 63)" stroke="none" stroke-width="1px">14k</text><text x="160.56521781018546" y="0" dx="0em" dy="0.95em" style="text-anchor: middle; visibility: inherit; font-family: &quot;Helvetica Neue&quot;, sans-serif; font-size: 12px; font-weight: 200;" fill="rgb(50, 49, 63)" stroke="none" stroke-width="1px">16k</text><text x="180.1960728594394" y="0" dx="0em" dy="0.95em" style="text-anchor: middle; visibility: hidden; font-family: &quot;Helvetica Neue&quot;, sans-serif; font-size: 12px; font-weight: 200;" fill="rgb(50, 49, 63)" stroke="none" stroke-width="1px">18k</text><text x="199.82692790869334" y="0" dx="0em" dy="0.95em" style="text-anchor: middle; visibility: inherit; font-family: &quot;Helvetica Neue&quot;, sans-serif; font-size: 12px; font-weight: 200;" fill="rgb(50, 49, 63)" stroke="none" stroke-width="1px">20k</text><text x="219.45778295794724" y="0" dx="0em" dy="0.95em" style="text-anchor: middle; visibility: hidden; font-family: &quot;Helvetica Neue&quot;, sans-serif; font-size: 12px; font-weight: 200;" fill="rgb(50, 49, 63)" stroke="none" stroke-width="1px">22k</text><text x="239.08863800720118" y="0" dx="0em" dy="0.95em" style="text-anchor: middle; visibility: inherit; font-family: &quot;Helvetica Neue&quot;, sans-serif; font-size: 12px; font-weight: 200;" fill="rgb(50, 49, 63)" stroke="none" stroke-width="1px">24k</text><text x="258.7194930564551" y="0" dx="0em" dy="0.95em" style="text-anchor: middle; visibility: hidden; font-family: &quot;Helvetica Neue&quot;, sans-serif; font-size: 12px; font-weight: 200;" fill="rgb(50, 49, 63)" stroke="none" stroke-width="1px">26k</text><text x="278.35034810570903" y="0" dx="0em" dy="0.95em" style="text-anchor: middle; visibility: inherit; font-family: &quot;Helvetica Neue&quot;, sans-serif; font-size: 12px; font-weight: 200;" fill="rgb(50, 49, 63)" stroke="none" stroke-width="1px">28k</text><text x="297.981203154963" y="0" dx="0em" dy="0.95em" style="text-anchor: middle; visibility: hidden; font-family: &quot;Helvetica Neue&quot;, sans-serif; font-size: 12px; font-weight: 200;" fill="rgb(50, 49, 63)" stroke="none" stroke-width="1px">30k</text></g><line x1="0" y1="0" x2="300" y2="0" fill="rgb(0, 0, 0)" stroke="rgb(204, 204, 204)" stroke-width="1px"></line></g></g></g></g></svg>