<svg viewBox="0 0 330 200" xmlns="http://www.w3.org/2000/svg"><g><g><g><g><g><line x1="30" y1="172.2636642088307" x2="25" y2="172.2636642088307" style="visibility: inherit;" fill="rgb(0, 0, 0)" stroke="rgb(204, 204, 204)" stroke-width="1px"></line><line x1="30" y1="152.60857736019548" x2="25" y2="152.60857736019548" style="visibility: inherit;" fill="rgb(0, 0, 0)" stroke="rgb(204, 204, 204)" stroke-width="1px"></line><line x1="30" y1="132.95349051156023" x2="25" y2="132.95349051156023" style="visibility: inherit;" fill="rgb(0, 0, 0)" stroke="rgb(204, 204, 204)" stroke-width="1px"></line><line x1="30" y1="113.29840366292501" x2="25" y2="113.29840366292501" style="visibility: inherit;" fill="rgb(0, 0, 0)" stroke="rgb(204, 204, 204)" stroke-width="1px"></line><line x1="30" y1="93.64331681428978" x2="25" y2="93.64331681428978" style="visibility: inherit;" fill="rgb(0, 0, 0)" stroke="rgb(204, 204, 204)" stroke-width="1px"></line><line x1="30" y1="73.98822996565455" x2="25" y2="73.98822996565455" style="visibility: inherit;" fill="rgb(0, 0, 0)" stroke="rgb(204, 204, 204)" stroke-width="1px"></line><line x1="30" y1="54.33314311701932" x2="25" y2="54.33314311701932" style="visibility: inherit;" fill="rgb(0, 0, 0)" stroke="rgb(204, 204, 204)" stroke-width="1px"></line><line x1="30" y1="34.67805626838407" x2="25" y2="34.67805626838407" style="visibility: inherit;" fill="rgb(0, 0, 0)" stroke="rgb(204, 204, 204)" stroke-width="1px"></line><line x1="30" y1="15.022969419748847" x2="25" y2="15.022969419748847" style="visibility: inherit;" fill="rgb(0, 0, 0)" stroke="rgb(204, 204, 204)" stroke-width="1px"></line></g><g transform="translate(20, 0)"><text x="0" y="172.2636642088307" dx="0em" dy="0.3em" style="text-anchor: end; visibility: inherit; font-family: &quot;Helvetica Neue&quot;, sans-serif; font-size: 12px; font-weight: 200;" fill="rgb(50, 49, 63)" stroke="none" stroke-width="1px">0</text><text x="0" y="152.60857736019548" dx="0em" dy="0.3em" style="text-anchor: end; visibility: hidden; font-family: &quot;Helvetica Neue&quot;, sans-serif; font-size: 12px; font-weight: 200;" fill="rgb(50, 49, 63)" stroke="none" stroke-width="1px">10</text><text x="0" y="132.95349051156023" dx="0em" dy="0.3em" style="text-anchor: end; visibility: inherit; font-family: &quot;Helvetica Neue&quot;, sans-serif; font-size: 12px; font-weight: 200;" fill="rgb(50, 49, 63)" stroke="none" stroke-width="1px">20</text><text x="0" y="113.29840366292501" dx="0em" dy="0.3em" style="text-anchor: end; visibility: hidden; font-family: &quot;Helvetica Neue&quot;, sans-serif; font-size: 12px; font-weight: 200;" fill="rgb(50, 49, 63)" stroke="none" stroke-width="1px">30</text><text x="0" y="93.64331681428978" dx="0em" dy="0.3em" style="text-anchor: end; visibility: inherit; font-family: &quot;Helvetica Neue&quot;, sans-serif; font-size: 12px; font-weight: 200;" fill="rgb(50, 49, 63)" stroke="none" stroke-width="1px">40</text><text x="0" y="73.98822996565455" dx="0em" dy="0.3em" style="text-anchor: end; visibility: hidden; font-family: &quot;Helvetica Neue&quot;, sans-serif; font-size: 12px; font-weight: 200;" fill="rgb(50, 49, 63)" stroke="none" stroke-width="1px">50</text><text x="0" y="54.33314311701932" dx="0em" dy="0.3em" style="text-anchor: end; visibility: inherit; font-family: &quot;Helvetica Neue&quot;, sans-serif; font-size: 12px; font-weight: 200;" fill="rgb(50, 49, 63)" stroke="none" stroke-width="1px">60</text><text x="0" y="34.67805626838407" dx="0em" dy="0.3em" style="text-anchor: end; visibility: hidden; font-family: &quot;Helvetica Neue&quot;, sans-serif; font-size: 12px; font-weight: 200;" fill="rgb(50, 49, 63)" stroke="none" stroke-width="1px">70</text><text x="0" y="15.022969419748847" dx="0em" dy="0.3em" style="text-anchor: end; visibility: inherit; font-family: &quot;Helvetica Neue&quot;, sans-serif; font-size: 12px; font-weight: 200;" fill="rgb(50, 49, 63)" stroke="none" stroke-width="1px">80</text></g><line x1="30" y1="0" x2="30" y2="178" fill="rgb(0, 0, 0)" stroke="rgb(204, 204, 204)" stroke-width="1px"></line></g></g><g transform="translate(30, 0)" clip-path="url(#clip_0)"><clipPath id="clip_0"><rect width="300" height="178"></rect></clipPath><g><g><g><line x1="24.251598582632052" y1="0" x2="24.251598582632052" y2="178" fill="rgb(0, 0, 0)" stroke="rgb(60, 60, 60)" stroke-width="1px" opacity="0.25"></line><line x1="61.25817753000051" y1="0" x2="61.25817753000051" y2="178" fill="rgb(0, 0, 0)" stroke="rgb(60, 60, 60)" stroke-width="1px" opacity="0.25"></line><line x1="98.26475647736896" y1="0" x2="98.26475647736896" y2="178" fill="rgb(0, 0, 0)" stroke="rgb(60, 60, 60)" stroke-width="1px" opacity="0.25"></line><line x1="135.2713354247374" y1="0" x2="135.2713354247374" y2="178" fill="rgb(0, 0, 0)" stroke="rgb(60, 60, 60)" stroke-width="1px" opacity="0.25"></line><line x1="172.27791437210587" y1="0" x2="172.27791437210587" y2="178" fill="rgb(0, 0, 0)" stroke="rgb(60, 60, 60)" stroke-width="1px" opacity="0.25"></line><line x1="209.28449331947434" y1="0" x2="209.28449331947434" y2="178" fill="rgb(0, 0, 0)" stroke="rgb(60, 60, 60)" stroke-width="1px" opacity="0.25"></line><line x1="246.29107226684278" y1="0" x2="246.29107226684278" y2="178" fill="rgb(0, 0, 0)" stroke="rgb(60, 60, 60)" stroke-width="1px" opacity="0.25"></line><line x1="283.2976512142112" y1="0" x2="283.2976512142112" y2="178" fill="rgb(0, 0, 0)" stroke="rgb(60, 60, 60)" stroke-width="1px" opacity="0.25"></line></g><g><line x1="0" y1="172.2636642088307" x2="300" y2="172.2636642088307" fill="rgb(0, 0, 0)" stroke="rgb(60, 60, 60)" stroke-width="1px" opacity="0.25"></line><line x1="0" y1="152.60857736019548" x2="300" y2="152.60857736019548" fill="rgb(0, 0, 0)" stroke="rgb(60, 60, 60)" stroke-width="1px" opacity="0.25"></line><line x1="0" y1="132.95349051156023" x2="300" y2="132.95349051156023" fill="rgb(0, 0, 0)" stroke="rgb(60, 60, 60)" stroke-width="1px" opacity="0.25"></line><line x1="0" y1="113.29840366292501" x2="300" y2="113.29840366292501" fill="rgb(0, 0, 0)" stroke="rgb(60, 60, 60)" stroke-width="1px" opacity="0.25"></line><line x1="0" y1="93.64331681428978" x2="300" y2="93.64331681428978" fill="rgb(0, 0, 0)" stroke="rgb(60, 60, 60)" stroke-width="1px" opacity="0.25"></line><line x1="0" y1="73.98822996565455" x2="300" y2="73.98822996565455" fill="rgb(0, 0, 0)" stroke="rgb(60, 60, 60)" stroke-width="1px" opacity="0.25"></line><line x1="0" y1="54.33314311701932" x2="300" y2="54.33314311701932" fill="rgb(0, 0, 0)" stroke="rgb(60, 60, 60)" stroke-width="1px" opacity="0.25"></line><line x1="0" y1="34.67805626838407" x2="300" y2="34.67805626838407" fill="rgb(0, 0, 0)" stroke="rgb(60, 60, 60)" stroke-width="1px" opacity="0.25"></line><line x1="0" y1="15.022969419748847" x2="300" y2="15.022969419748847" fill="rgb(0, 0, 0)" stroke="rgb(60, 60, 60)" stroke-width="1px" opacity="0.25"></line></g></g></g><g><g><line x1="0" y1="172.2636642088307" x2="300" y2="172.2636642088307" fill="rgb(0, 0, 0)" stroke="rgb(153, 153, 153)" stroke-width="1.5px"></line></g></g><g><g><line x1="24.251598582632052" y1="0" x2="24.251598582632052" y2="178" fill="rgb(0, 0, 0)" stroke="rgb(153, 153, 153)" stroke-width="1.5px"></line></g></g><g><g><g><g><g><path style="fill: none;" stroke="rgb(255, 112, 67)" stroke-width="2px" d="M24.42182884578995,0.5727196791861218L24.44403279315837,-3.74308209511571L24.68087489842153,18.18203535655792L24.70307884578995,28.750602089712203L24.873309108947847,36.676009032430585L24.880710424737316,37.6034241115467L24.932519635263635,42.93150566977181L25.317388056316265,43.818746979824624L25.52462489842153,44.18787163782923L25.554230161579422,43.49781063387408L25.857684108947847,45.228931526799926L26.02051305631627,50.70040296239769L26.220348582632056,54.673132810447015L26.79024989842153,54.01263564652854L26.97528279315837,59.040038078834584L27.241730161579422,57.19553846866876L27.633999898421532,55.89749804574613L28.063276214211005,58.02435904082935L28.337124898421532,54.676791492581515L28.351927530000477,57.34221990654585L28.433342003684686,57.66555744141026L28.618374898421532,59.24296052175829L28.91442753000048,62.03694164828569L29.151269635263635,58.33115412748266L29.173473582632056,59.78429263017095L29.210480161579426,56.855899230288856L29.447322266842583,60.82359623892289L29.758177530000477,59.88498760635427L29.7803814773689,57.599113901209265L30.298473582632056,55.902106753581165L30.490907793158375,58.59801161649696L30.550118319474162,56.4319137963563L30.749953845789953,59.814884336733726L30.80176305631627,62.99608590708323L30.82396700368469,58.811414854667916L30.934986740526796,62.28731317445943L30.957190687895217,63.710398694877156L31.149624898421536,63.0857487525047L31.72692753000048,66.81812996475374L31.971170951053114,63.780382598450615L32.07478937210574,68.237452858155L32.19321042473732,65.50185548914075L32.33383542473732,72.2572403865137L32.65209200368469,65.3500581891299L33.221993319474166,62.683617299056564L33.258999898421536,60.65474546487387L33.39222358263206,60.57973932679401L33.49584200368469,59.549372059923215L33.606861740526796,59.222882902202954L33.73268410894785,62.34321547894159L33.93992095105312,64.36801666819328L34.4506117405268,68.62794827567717L34.75406568789522,72.80864597675284L34.79107226684259,75.91993436101701L36.08630253000049,67.98834548504708L36.249131477368906,70.53605133014716L36.27133542473733,67.10036781416417L36.41196042473733,66.68663977221902L36.530381477368906,68.83051363135468L36.848638056316275,64.93308770943474L36.99666437210575,64.63463918668481L37.159493319474166,64.48468561001097L37.270513056316275,69.84956689974078L37.45554595105312,67.92944744262884L37.477749898421536,70.98451987622765L37.581368319474166,66.80514196912969L37.67018410894785,62.47564378891518L37.692388056316275,66.08328817135683L38.07725647736891,67.12996774327972L38.151269635263645,63.23541006219823L38.23268410894786,68.80680379495911L38.60274989842154,72.63080517416655L38.647157793158385,67.7935339674392L38.921006477368906,73.5395564140862L39.25406568789522,73.87912529854317L39.89057884578996,72.23311829624953L41.22281568789522,70.20098970716347L41.37824331947417,73.18091496999222L42.022157793158385,71.86869825579423L42.15538147736891,62.274770044426816L42.52544726684259,64.44496810293673L42.82149989842154,59.114607803206184L42.95472358263207,64.22512252148427L43.10274989842155,65.79628194808156L43.428407793158385,67.9873707331473L43.44321042473733,67.42554744032368L43.465414372105755,67.81260197611381L43.502420951053125,67.68838530686413L43.643045951053125,70.17310740655941L43.87988805631628,74.14273815339409L44.168539372105755,70.0961611339565L44.53860516157944,68.58940615929636L44.95307884578996,71.69331317928311L45.27133542473734,76.15059611947517L45.471170951053125,75.81298337765955L45.55258542473734,75.5877213291608L45.88564463526365,74.10606048876433L46.26311174052681,74.08078592615018L46.70719068789523,70.83453736891073L46.85521700368471,78.14932289019248L47.21788147736891,70.20094727508965L47.45472358263208,68.19306632315885L47.74337489842155,73.69308688009122L48.498309108947865,69.80442874775424L48.51311174052681,70.87189139797L48.69074331947418,72.28643199092012L48.72034858263207,71.78893165431947L48.82396700368471,65.98651827683773L48.83136831947418,65.43010502940749L48.920184108947865,68.73809850555531L49.164427530000495,65.840103873828L49.66771700368471,70.2799491466209L49.867552530000495,68.81496845565665L50.111795951053125,69.23786562151487L50.69649989842155,69.06011934081234L50.992552530000495,66.49484322280264L51.05176305631629,70.31916554495794L51.384822266842605,70.03161149200447L51.939920951053125,65.9545080033458L51.96952621421102,64.95946708315542L51.9769275300005,67.70662347672871L52.03613805631629,60.47560826491811L52.154559108947865,60.22210571839089L52.16196042473734,64.05722522346201L52.73926305631628,69.30726174980869L52.79847358263208,72.48338207958103L52.85028279315839,69.15991223409648L52.88728937210576,68.9515352752878L53.64962489842156,67.02086594696581L53.86426305631629,74.05765425109264L54.019690687895235,75.00858405796558L54.68580910894787,67.14111862544806L55.0706775300005,71.37069484999935L55.388934108947865,68.20854037683196L55.44074331947419,68.18785621843725L55.68498674052682,66.53743584433789L55.90702621421103,70.03610482349153L55.93663147736892,70.75194031446057L57.05423016157945,69.25917435517573L57.17265121421103,66.61576979728534L57.34288147736892,63.50048956657973L57.505710424737345,71.61919225005L57.73515121421103,68.4395210161332L58.07561174052682,70.40894328135654L58.49748674052682,70.09267604162511L58.60850647736892,72.89078521264912L58.80834200368471,63.53543803394521L58.978572266842605,66.54206019741146L59.089592003684714,72.39528249878559L59.3190327931584,70.86377385876784L59.548473582632084,70.06823181674709L59.66689463526366,70.51631460284567L60.3330130563163,64.97398141317669L60.4144275300005,65.19432485684202L60.84370384578998,70.21967763027781L61.376598582632084,66.88313756036537L61.49501963526366,70.78640405450041L61.66524989842156,66.14027518132902L61.68005253000051,67.19090617492775L61.694855161579454,72.39432552363984L61.761467003684714,65.62306882445267L61.99830910894787,62.329879115397574L62.10192753000051,62.5993916110652L62.153736740526824,63.94557781560182L62.35357226684261,65.77239931330854L62.38317753000051,71.80192320971955L62.47939463526367,68.67067527092755L62.76064463526367,65.43013933883246L63.02709200368472,67.71975609915788L63.833835424737345,66.12453015451895L64.14469068789525,67.13981926232583L64.15209200368471,72.071642260871L64.41113805631629,70.53554068010193L64.64057884578999,69.95561839833584L64.84781568789525,70.08877018626227L64.93663147736893,70.48015971564648L64.98844068789525,74.73772414465313L65.09205910894788,73.16901930676907L65.1438683194742,77.62016900110123L65.32149989842156,77.36558710751056L65.4251183194742,73.76787432021496L65.51393410894788,72.75726195380396L65.68416437210577,76.58361807256671L65.72117095105314,73.85681267036831L66.03202621421104,71.12862987003207L66.30587489842156,71.81856984358075L66.3502827931584,75.99450533406065L66.99419726684262,73.18835558536227L67.04600647736893,70.9581435939365L67.46048016157945,68.1841387661637L67.83794726684262,65.09390831532265L68.2080130563163,68.01836204971232L69.3330130563163,69.33014102629502L69.37742095105315,73.34507716643986L69.51064463526367,69.29409656434063L69.56985516157945,70.19699125832837L70.05094068789525,70.16554068331209L70.0953485826321,73.80817704679296L70.11755253000051,73.16089029583634L70.19156568789525,74.70504251771723L70.22117095105315,76.74260589512367L70.23597358263208,77.8275199247856L70.27298016157945,74.31095171618212L71.07232226684262,76.12915199676274L71.13153279315841,77.16257287845002L71.13893410894788,80.12087774679001L71.25735516157947,77.12076864555843L72.38975647736893,76.03950125151954L72.57478937210577,76.52176905869827L73.33712489842156,79.34266090190712L73.99584200368473,72.8557935177798L74.35850647736893,68.11863871375735L75.15044726684263,67.76009787821768L75.40209200368473,75.80496844107314L75.75735516157945,73.57286362881926L75.78696042473736,73.91664253108739L75.84617095105314,75.66161261715231L76.1422235826321,68.57330035779789L76.15702621421104,70.28754350508768L76.20883542473736,69.59832369705192L76.23844068789526,72.99271596150945L76.57890121421104,74.34342969727582L76.6751183194742,72.59881361441448L76.69732226684262,76.21410184260982L76.82314463526369,66.57316962716024L76.83794726684263,71.24750920587614L76.97857226684263,71.58444823012351L77.43005253000051,66.02878027564581L77.51146700368474,65.99420163311038L77.74090779315841,68.71140660602242L77.7705130563163,73.73953794755745L77.79271700368473,71.17520704476871L78.56985516157947,71.00985834005738L78.65867095105315,72.48924626581348L78.8140985826321,70.44047754617007L78.83630253000052,71.01712339070617L78.88811174052684,64.80072738787L79.14715779315841,63.29472838218096L80.10932884578999,62.736685535715324L80.33136831947421,69.41055860676934L80.46459200368473,71.00213476366403L80.71623674052684,77.53799025268638L80.89386831947421,75.11565151591601L80.99748674052684,78.73648234435956L81.39715779315841,75.54148601313284L82.14469068789526,78.28043686807943L82.30751963526367,80.9610678801544L82.92923016157947,81.57026292045639L82.98103937210578,70.66889489428283L83.01804595105315,68.38477278239189L83.7359735826321,65.6055849868304L84.71294726684262,67.16600404538181L84.74995384579,67.66609525936545L85.09041437210578,70.96005674777027L85.54189463526369,74.11861201658738L86.00077621421106,77.51146183602262L86.07478937210578,71.72955707662614L86.12659858263211,73.82453789510171L86.17100647736895,76.31173580076147L86.27462489842158,78.8194723922758L86.36344068789526,76.03317159710079L86.41524989842158,73.96039267836116L86.46705910894791,74.6599774812949L86.58548016157947,72.81229143978437L86.85932884579,67.8390931357176L87.06656568789526,67.40400428388067L87.4736380563163,67.15228126074022L87.76969068789526,69.0947229355613L87.78449331947421,71.9330656844613L87.8955130563163,68.27805375075411L87.93251963526369,67.99226121974802L88.05094068789526,62.74919386262006L88.11755253000052,67.65418630977743L88.30258542473737,70.6042117346718L88.9983091089479,72.169035632656L89.01311174052684,79.3318708562473L89.64962489842159,76.44311488054849L89.81985516157948,74.1484694750972L89.84946042473737,71.67608868840696L89.93087489842158,69.8137443560061L89.93827621421106,70.48391116194263L89.98268410894791,72.29181661953645L90.21212489842158,69.21077076555969L90.43416437210578,75.88928266640616L90.77462489842158,74.63294673385906L90.80423016157948,73.72591071504777L91.81821042473737,68.93717285886794L91.9810393721058,70.25687338079877L92.09946042473737,72.50009781378488L92.61755253000052,75.45178672839332L92.7951841089479,75.97515373098332L92.9950196352637,74.83088081513719L93.72034858263211,77.54373595528341L93.74995384579002,75.12367560717195L94.74913147736896,67.91759292912072L94.7639341089479,72.70635961287608L94.88975647736895,77.9310201406711L95.00817753000054,77.99469114247937L95.56327621421106,83.67242449907354L95.6668946352637,80.73086974515147L96.10357226684265,79.94266598659122L96.30340779315843,73.63260941344646L96.32561174052685,66.59743989699834L96.50324331947422,68.65661469683332L96.68827621421107,71.43026448358528L96.79189463526369,70.42696071699909L97.01393410894791,70.70363605731768L97.05834200368474,69.60005929136972L97.08054595105317,72.28231311385015L97.50242095105317,68.99072096667183L97.81327621421106,69.86533939171952L97.85768410894791,68.41441672237382L97.9168946352637,70.50650996711165L98.64962489842159,71.44027736115093L98.81245384579,75.47611355068473L99.11590779315844,75.61726109579467L99.18992095105317,75.65669277768458L99.25653279315843,74.71300396616739L99.41936174052685,76.45245449110402L99.6043946352637,74.95314597466356L99.86344068789528,76.04685347369933L99.98926305631633,70.33219180096107L100.05587489842159,68.08941505637071L100.50735516157948,64.33440233530553L100.69978937210581,69.04552343679121L100.79600647736895,72.38249476897909L101.06245384579,74.04759954688497L101.08465779315843,76.66646158600392L101.21788147736895,75.10600812241934L101.94321042473739,73.02809088668884L102.23926305631633,71.56875033892445L102.32067753000054,71.75724270888482L102.37988805631633,70.73802026211479L102.43909858263213,73.48994613608167L102.46870384579,75.46153452012396L102.56492095105317,75.00459721807886L102.6685393721058,72.78885319710524L103.32725647736896,70.81770730754539L103.40867095105317,68.27344554309478L103.67511831947422,67.40489422165336L103.89715779315843,64.55583408887087L104.25242095105317,66.4181797980676L104.4966643721058,71.30219238307065L104.59288147736896,68.11095931361604L104.62988805631633,68.61686986059937L104.8667301615795,73.09733808135783L104.94074331947422,65.82498927374391L105.18498674052685,74.44214592327393L105.19238805631633,76.99815980675746L105.43663147736896,77.08470375558656L105.55505253000055,78.82779955204106L105.5698551615795,78.9706195161619L105.69567753000054,83.10377901575288L105.8214998984216,74.74054849101805L105.83630253000054,77.27275057407488L106.00653279315843,75.00956228735512L106.02133542473739,70.62078429797897L106.19896700368476,71.98043988012934L106.20636831947422,77.42806889203416L106.53942753000054,71.28571777725166L106.73186174052687,72.32547864102493L107.05011831947424,72.7412916313781L107.0575196352637,71.64372097556794L107.07972358263211,68.66361039316607L107.27955910894791,66.37588627943212L107.45719068789528,66.39977188418557L107.53120384579002,66.25482854347463L107.73103937210581,66.20068799765986L108.21212489842159,66.59937934017952L108.47857226684265,64.67402732113088L108.62659858263213,67.5027770902898L108.8042301615795,72.12223355291148L109.31492095105318,69.85497010026216L109.41113805631635,73.34864410537331L110.09205910894792,71.98452032331356L110.10686174052685,71.61173450565063L110.12906568789528,70.64552984744338L110.20307884579002,70.08235624215993L110.28449331947422,68.80802227138844L110.75077621421107,68.00941777291452L111.01722358263211,67.58638675801276L111.65373674052687,65.88377926907137L111.82396700368476,73.38283708326861L112.31245384579002,71.79363955676509L112.34205910894792,72.30946894496415L112.62330910894791,73.89176061437021L112.76393410894792,72.58123550201593L113.12659858263213,73.65961642273074L113.76311174052687,77.51443156664449L113.82972358263213,74.67548413921789L114.20719068789528,75.78959572479592L114.44403279315846,78.57351877573575L114.53284858263214,84.00203222065441L115.03613805631633,81.68226132107768L115.16936174052687,76.42863128271895L115.17676305631635,74.04055915675997L115.30258542473739,78.19032318265525L115.33959200368476,73.86880146457538L115.47281568789528,71.86941591287557L115.9761051615795,79.43650935472313L116.11673016157951,76.76313620810298L116.6496248984216,69.84629159969491L116.77544726684266,68.11333823977569L116.87166437210583,76.56444850556062L117.10850647736898,77.18687063776842L117.50077621421107,73.13802834738215L117.55258542473739,74.34916380486722L117.60439463526372,76.04416161843167L117.68580910894792,72.17950325962993L117.6932104247374,66.47712175268602L118.09288147736898,68.33064357664028L118.16689463526372,65.40014773764689L118.21870384579002,69.44166939866896L118.2261051615795,68.80146433428278L118.85521700368477,64.90367361473561L118.93663147736898,63.7089446719489L119.11426305631635,67.00192077231344L119.2992959510532,71.48555347570448L119.3511051615795,69.65987372425361L119.38811174052688,66.21682926178538L119.69896700368477,69.01443992717299L119.76557884579003,73.64926203046655L119.83219068789529,71.4698940934002L120.46130253000057,73.0924216238723L120.68334200368477,77.80442047611267L120.73515121421107,76.37638765735416L120.80176305631635,70.82124163035299L121.25324331947424,71.3680302490919L121.28284858263214,70.43099315040538L121.31985516157951,74.45322332670824L121.49748674052687,74.82089804622312L121.57890121421107,75.2183224817124L121.60850647736898,77.88097550037274L121.80094068789529,79.53460602277603L121.88975647736898,79.78513591143997L122.2746248984216,79.59470489026295L122.74830910894792,73.20147738776653L122.76311174052687,73.96531586797327L122.8371248984216,74.49099137293202L123.0665656878953,74.24130693075251L123.41442753000055,73.5553121182892L123.58465779315844,68.646501437608L123.95472358263214,70.91868146630004L124.20636831947424,74.67191080420095L124.66524989842162,68.67519004751804L124.89469068789529,71.1670974284438L125.36097358263214,74.63509240779987L125.50899989842162,69.64735200979007L125.5682104247374,74.92089303585557L125.88646700368477,71.94405664690163L125.91607226684268,71.79245871167659L126.08630253000057,73.12022556904125L126.10850647736898,72.28548888217172L126.28613805631635,73.67342285883468L126.30834200368477,75.09985768126441L126.39715779315846,78.29831665087295L127.21870384579003,70.68252753522847L127.23350647736898,74.97462926849974L127.38153279315846,71.28285195082007L127.9588354247374,75.02383231389925L128.7729801615795,73.01351530662245L129.00242095105318,72.2000189577881L129.1948551615795,74.30820048701179L129.6759406878953,69.32908635703491L129.80916437210584,69.83242320537332L129.8979801615795,69.93196616325272L129.92018410894792,66.47160912175464L130.31245384579003,70.86159336455535L130.34205910894792,74.55484901325642L130.75653279315844,76.81459267394266L130.90455910894795,79.80989732835798L131.21541437210584,77.9695874323525L131.4448551615795,75.31179608180926L131.4744604247374,77.55177065252931L131.4966643721058,73.9576187649622L131.54847358263214,74.38426479098854L131.62248674052688,71.93765397189108L131.9259406878953,73.28561397403708L132.08136831947425,73.19776159862658L132.09617095105318,76.75213470078646L132.1257762142111,72.84715651410296L132.58465779315844,68.7471543143765L132.8807104247374,73.926922339959L132.88811174052688,75.80350905020809L133.00653279315844,73.6274148833459L133.05834200368477,70.07217527038412L133.21376963526373,75.79763224022373L133.5838354247374,68.39949437401485L133.67265121421107,71.70702700087531L133.93909858263214,73.29144787382963L134.02051305631636,74.27538172370683L134.27215779315847,72.62178528537122L134.76064463526373,71.59476255655329L134.79024989842162,70.87322553364999L135.22692753000058,72.74799454244675L135.5007762142111,73.8084826591324L135.5229801615795,70.31165290542567L136.03367095105318,69.86327652805032L136.05587489842162,74.45730115695041L136.15209200368477,75.97419122739551L136.4851512142111,76.8275157824972L136.52215779315847,79.0296602391129L136.5369604247374,82.50136385059565L136.55916437210584,77.0626833535809L136.63317753000058,75.8924766818151L136.6479801615795,73.07016995305275L137.08465779315847,75.76017979307561L137.1290656878953,76.14018538441665L137.13646700368477,71.67754916916019L137.217881477369,70.48846777706275L137.53613805631636,72.7729685266895L137.55834200368477,73.57414651976872L137.90620384579003,70.31054067635613L137.921006477369,71.53608376113614L138.29107226684266,78.15641001675962L138.35768410894795,75.36253046774466L138.41689463526373,78.60845598516367L138.81656568789532,77.40343265681415L138.94978937210584,78.81083141194175L139.00159858263214,70.72687188599404L139.09781568789532,70.3314072597712L139.24584200368477,72.5963671573967L139.34205910894795,75.74025627459814L139.39386831947425,76.5602377018618L139.56409858263214,71.17216871680782L139.57149989842162,72.29445741850039L139.6011051615795,73.5862088952796L139.78613805631636,75.10122569518121L139.99337489842162,73.37603845823071L140.06738805631636,72.36631973488782L140.17840779315847,71.75747737612683L140.4226512142111,73.19924269895036L140.50406568789532,79.28358580146008L140.80751963526373,75.35657025298411L141.0073551615795,74.81448561160454L141.20719068789532,74.03566766531137L141.2145920036848,70.50330982171617L141.4292301615795,68.91446489464514L141.80669726684266,71.43698261915682L142.01393410894795,71.18349686735712L142.2211709510532,74.92487070128269L142.3025854247374,74.77846306191049L142.52462489842162,78.59419082546906L142.82807884579003,77.1232155239395L143.19074331947425,77.83348834639673L143.405381477369,78.94718719377357L144.16031568789532,77.96782340578775L144.16771700368477,74.60387313044642L144.17511831947425,71.46277630861417L144.21212489842162,75.52557546591592L144.29353937210584,78.77726035304832L144.47857226684266,75.80860628617287L144.67840779315847,76.5273042019931L144.93005253000058,77.19429341999596L145.27051305631636,71.94128017050366L145.6257762142111,71.50182981882192L145.8774209510532,74.89985526138281L145.89962489842165,74.09195798190778L145.9070262142111,74.13060348204034L146.12166437210584,78.80109594820819L146.28449331947425,75.4095497941477L146.43251963526373,73.53120358811282L146.55094068789532,73.96992375378714L146.73597358263217,76.51965523557048L147.23926305631636,74.55907268673097L147.40949331947428,74.9917794524388L148.32725647736902,71.01811000485307L148.5789012142111,72.90547971706835L148.65291437210584,70.75691223077494L149.05258542473743,73.99297939521557L149.08959200368477,74.63709484590747L149.452256477369,75.37864590456785L149.6520920036848,73.49504437506974L149.65949331947428,66.7168861628337L149.94074331947425,69.841750804078L150.30340779315847,71.9019257403505L150.61426305631636,67.7525141122133L150.9695262142111,64.7360822560867L151.02873674052688,68.50677004277895L151.88728937210584,74.12122137647658L151.99830910894795,66.08286986009142L152.02791437210584,72.23322531779917L152.13153279315847,72.9295228350245L152.27955910894795,75.63216320371814L152.78284858263217,75.62677733693162L152.80505253000058,77.66060470419943L152.96048016157954,72.16426345211686L153.06409858263214,71.84991349895758L153.08630253000058,71.21134431687206L153.15291437210584,69.2776894958986L153.3305459510532,72.65223248995697L153.41196042473743,64.13941923676539L153.51557884579006,71.12941684611339L153.54518410894795,74.48029748112296L153.9226512142111,70.65523009690837L154.21130253000058,71.32950957306399L154.25571042473743,68.0034436434103L154.3149209510532,72.70305797369383L154.64798016157954,69.09138200223603L154.89962489842162,68.42668474284525L155.12166437210584,70.69274478602087L155.1956775300006,74.71837788557067L155.4473222668427,78.43630613307884L155.70636831947425,69.79504025647994L155.80258542473743,71.62842076516068L155.84699331947428,76.16093034976596L155.9506117405269,74.82437907612476L156.32807884579006,76.39525660687525L157.0238025300006,73.57778504535828L157.3346577931585,71.62288696609531L157.60110516157954,71.36039647817607L157.84534858263217,74.8256481605119L157.98597358263217,77.23939391313561L158.0377827931585,79.0176714347473L158.3930459510532,74.73217475017182L158.80751963526376,74.18618504231297L158.8223222668427,73.70203072509393L159.19978937210587,71.09264516823885L159.83630253000058,67.45991867743963L159.91031568789532,68.02917876034951L160.18416437210587,67.9593083995624L160.23597358263214,72.38628220742966L160.2507762142111,69.48017528539258L161.62001963526373,71.30913567607266L161.65702621421113,71.04417890032067L161.8864670036848,78.35690303359029L161.89386831947428,76.46542766473445L161.9382762142111,77.41101371206773L162.0789012142111,75.18933802806826L162.30094068789532,75.66068614556117L162.3083420036848,79.97365756721742L162.3379472668427,76.75444434190926L162.41936174052688,72.53310898589442L163.20390121421113,71.7005825527861L163.4629472668427,73.21876920658512L163.64057884579006,74.82084829706841L164.84699331947428,76.56183010568523L164.89140121421113,70.08796758196556L165.1430459510532,65.21952512369525L165.21705910894798,69.15849164069644L165.34288147736902,71.80206810606082L165.52791437210587,67.28891387109975L165.60192753000058,74.4122206917681L165.7425525300006,78.9648507900315L166.0238025300006,76.50588258699152L166.18663147736902,69.50373813156818L167.0599867405269,72.174656911813L167.68909858263217,71.13862913670638L167.92594068789535,68.76260942462507L168.25899989842162,75.31914742293384L168.44403279315847,75.96558779565201L168.6364670036848,80.25437913535515L168.64386831947428,79.57860534133475L168.6586709510532,73.3221957613582L168.68087489842165,74.3811350793569L169.1101512142111,67.52409449005059L169.1767630563164,72.26715358661002L169.66524989842165,69.87888944221318L169.68745384579006,67.75920556629802L170.12413147736905,69.71398336718468L170.2721577931585,67.10901615209255L170.31656568789532,69.12439769926706L170.65702621421113,71.9276662874742L170.8864670036848,69.98178594642748L170.95307884579006,70.0546851862953L171.01228937210587,71.37082588090287L171.40455910894798,67.54781207236678L171.46376963526373,71.5560479697315L171.54518410894798,66.84191981077262L172.49255253000058,69.6436883698684L172.51475647736902,69.65088804725505L172.61837489842168,67.65702366662383L173.7655788457901,71.21210394736664L173.8099867405269,71.30412238267981L173.8395920036848,69.14571587690475L174.3502827931585,70.925060339836L174.46870384579006,73.06615998499684L174.50571042473743,76.61528156014778L174.53531568789535,77.28634442183676L174.70554595105324,73.88332533052234L175.43087489842165,69.79791089056931L175.5937038457901,68.67977473029293L175.68992095105324,70.97618852924793L175.84534858263217,73.333762031528L175.99337489842165,71.90029796448383L176.11179595105324,75.48223136303304L176.48926305631642,73.54816527501133L176.67429595105324,75.44239771952985L177.24419726684272,79.92428179368646L177.26640121421113,81.58441733650912L177.29600647736905,83.08001546746816L177.40702621421113,82.75254536753583L177.51064463526376,78.16523159225531L178.10274989842165,74.42005390155654L178.22117095105324,74.45332244964528L179.0797235826322,72.72124684366433L179.75324331947428,74.7043519723402L180.01228937210587,73.15696768624932L180.3305459510532,75.14563620032452L180.60439463526376,73.68416794249629L180.61179595105324,71.13682654115529L180.87824331947428,75.06047694943469L181.03367095105324,76.42196774271916L181.27791437210587,78.71939087287831L181.3815327931585,71.41133466207445L181.8552170036848,71.4286813521821L182.24008542473746,70.93277653638422L182.4843288457901,67.81945710971313L182.79518410894798,69.40420884351217L182.95061174052694,70.56028723028288L183.13564463526376,71.22860662433922L183.84617095105327,75.73758519069256L184.03120384579006,74.6550643631146L184.24584200368483,75.80827686782486L184.29024989842168,74.21337208503739L184.3642630563164,79.27576357322056L184.56409858263217,79.26593421555734L184.5863025300006,79.19415774998937L184.94156568789535,77.13966053413922L185.0377827931585,72.34340702453153L185.07478937210587,78.8117272924529L185.3560393721059,71.17017071670917L185.4374538457901,69.84667476787405L185.59288147736902,74.31517751659186L185.87413147736902,77.71070450354539L186.03696042473743,74.74880082080779L186.24419726684272,73.89901005757724L186.29600647736905,66.75092513073142L186.32561174052694,67.40551626248366L186.4144275300006,72.90387289432682L186.42923016157957,68.67674849885798L186.82890121421116,70.85165446096917L187.1175525300006,74.32831778365416L187.4950196352638,72.48203277541984L187.67265121421116,69.59465105058551L187.83548016157957,71.01471068063853L188.03531568789532,78.56601318033431L188.76064463526376,79.25726871658382L188.9234735826322,79.09274941572104L189.49337489842168,79.3585428843859L189.60439463526376,76.98644281975957L189.84863805631642,79.53545915793991L190.0706775300006,78.5237345933147L190.17429595105324,78.62268264626036L190.24830910894798,78.82503791610691L190.3001183194743,82.07383404045231L190.58876963526376,77.89829801692277L190.99584200368483,76.77662421738297L191.12166437210587,75.01713774583969L191.18827621421116,76.22851989166719L191.24008542473746,72.64114219130468L191.27709200368483,77.66333212264021L191.86179595105327,78.96544247762603L192.0986380563164,78.93151864221046L192.27626963526376,80.13326411276839L192.35028279315853,82.72783981590402L192.54271700368483,76.32237961503903L192.80916437210587,76.04766721878225L193.1126183194743,72.61753590811281L193.12001963526376,76.8483831172657L193.26804595105324,75.91826167065635L193.49008542473746,76.9431316880967L194.08959200368483,73.91557345963932L194.20061174052694,70.55717169756527L194.3560393721059,74.16430544069195L194.5484735826322,76.38266896616108L194.62248674052694,78.0711801687946L194.78531568789535,74.50495996502602L194.97774989842168,68.86251897644671L196.0731446352638,75.28617416282438L196.2877827931585,68.69237319695429L196.53942753000064,68.76319305865736L196.76146700368486,71.78242772476322L196.78367095105324,71.90099362206782L196.98350647736905,71.19545791693092L197.2203485826322,68.1625740163394L197.3017630563164,71.26310850078785L197.6422235826322,75.71337737026175L197.6718288457901,72.4183236032225L197.86426305631642,73.06729204240426L197.88646700368483,70.68393705812599L198.08630253000064,73.67520293279583L198.09370384579012,73.90715272008221L198.46376963526376,72.61948133293073L198.61179595105324,74.19075720454998L198.70801305631642,78.1131626344876L198.9374538457901,76.49814740574644L199.44814463526376,72.03779909735009L199.4703485826322,69.62505753014047L199.5591643721059,67.06058821756811L199.59617095105327,68.46299874169266L200.1142630563164,72.29145682035299L200.18827621421116,66.84329497836261L200.2030788457901,74.82247838944403L201.3206775300006,72.40338018357939L201.63893410894798,72.8804177032861L201.67594068789535,69.99966576074624L201.78696042473746,78.13687394037116L201.99419726684272,81.14528353980195L202.0682104247375,74.9154937880706L202.3050525300006,72.09941399881089L202.44567753000064,74.53577181765425L202.55669726684275,69.49631023733896L202.94156568789538,74.60028582138182L203.08219068789538,74.47692217464694L203.08959200368486,74.0299084053696L203.27462489842165,73.15241524487013L203.33383542473746,73.30570475509488L203.36344068789535,79.44622132903696L203.60028279315853,76.53650096263179L203.8593288457901,74.51910367870634L204.26640121421116,74.25242198624841L204.54024989842168,77.32218017314622L204.62906568789535,79.27406110398135L204.732684108948,76.41468221157409L204.93992095105327,73.12148642853396L204.94732226684275,77.45072623631168L205.2137696352638,82.57993624065084L205.59863805631642,78.07226503533256L205.64304595105324,74.56610630072393L205.69485516157957,68.41859047878289L205.81327621421113,70.45036926730748L205.85028279315853,70.59598855994379L205.85768410894798,72.91380581105602L206.13893410894798,70.54477700068261L206.23515121421116,71.5965878203302L206.4497893721059,73.58118388698996L207.16031568789535,76.05602728130461L207.2713354247375,76.79061741249518L207.38235516157957,77.69485976890039L207.5747893721059,81.37224397799132L207.93005253000064,77.49861379694046L208.08548016157957,81.28051083318893L208.14469068789535,80.42961395669413L208.4925525300006,82.78276344166012L208.5887696352638,81.65199820708746L208.67018410894798,76.63543502465033L208.74419726684275,75.65092238407595L208.8034077931585,76.62524389214612L209.04024989842168,74.89946135467264L209.41771700368486,71.59265004394632L209.5731446352638,71.5339795960312L209.8469933194743,68.6133040488673L210.1060393721059,68.71331927680068L211.060809108948,71.77367430191148L212.48186174052697,72.57040146471516L213.0813683194743,72.40832482426188L213.15538147736908,74.62169421256486L213.42182884579012,71.26188645864858L213.50324331947434,73.30581673839076L213.5180459510533,71.89346989959641L213.56245384579012,79.38423513639074L213.91031568789538,80.47705603391415L213.9325196352638,80.1089961469244L214.01393410894798,77.40649856024163L214.25817753000064,73.56736960768083L214.72446042473746,74.48043628209669L214.8058748984217,73.71097518714409L215.58301305631642,73.68959754829407L216.263934108948,77.18001667525762L216.41936174052694,75.74968064459009L216.47857226684275,76.95692466234252L216.61179595105327,78.27020988593134L217.1150854247375,76.23085184090299L217.15949331947434,77.11164732416267L217.38153279315853,74.24290108633795L217.62577621421116,81.50600985741191L217.63317753000064,74.57245120242314L217.87742095105327,77.07002081191226L218.04024989842168,80.4592610075937L218.05505253000064,78.13269947852365L218.11426305631642,71.4606511703312L218.53613805631642,75.46462972743761L218.8247893721059,73.4123127122044L218.83219068789538,73.91930120788332L219.29847358263223,74.08156955860927L219.31327621421116,71.62643250460142L219.43909858263223,77.05092835062524L220.07561174052694,73.38347292299372L220.1200196352638,76.30001630129675L220.3494604247375,72.72643871304359L220.35686174052697,78.62620003441442L220.4604801615796,70.90066234361855L220.66771700368486,81.04816879874716L222.54765121421119,74.12324528957522L222.89551305631642,74.29121063947491L223.11015121421116,77.23928722443351L223.13975647736908,80.55047386267059L223.2211709510533,76.66745400273881L223.48761831947434,71.35198592855966L223.50242095105327,74.41056101745693L223.51722358263223,74.12453063364421L223.87988805631645,72.5348375956855L224.05011831947434,71.53960681101256L224.05751963526382,73.98322748162437L224.19814463526382,74.51016589148347L224.38317753000067,73.07972362381152L224.55340779315856,74.8464662511655L225.31574331947434,75.52865765858894L225.67840779315856,71.51026950511124L225.91524989842168,76.83671755657663L225.967059108948,78.48757947518656L226.60357226684275,76.67358481483818L226.92182884579012,78.16798627570437L227.4325196352638,75.23906512975225L227.59534858263223,73.48838250339182L227.92840779315853,73.94785704899947L228.65373674052697,73.2630349672336L228.83876963526382,73.12450155124061L229.2532433194743,73.5965801218565L229.29765121421116,72.75331570775688L229.33465779315853,76.63030406646928L229.43827621421116,79.26501440485227L229.63811174052697,75.54396670553042L230.467059108948,69.91484334631966L230.5336709510533,69.49361603746944L230.70390121421119,66.82723522707718L230.82972358263223,69.2939697114789L231.029559108948,69.9875639987869L231.25899989842168,74.98049823751448L231.3774209510533,79.75521569068796L231.38482226684275,80.16116888535977L231.4588354247375,76.24700133383206L232.4136051615796,72.5812746815194L232.5246248984217,71.03576861207948L233.19074331947434,75.61376374318483L233.64222358263223,74.11491990386416L234.04189463526382,76.19758083075382L234.6117959510533,76.93802438257973L235.01146700368486,76.06312995456294L235.11508542473752,74.28539145012935L235.65538147736908,70.39795426872747L235.75159858263223,72.57282181265076L236.55834200368486,69.15701251528881L236.57314463526382,74.12707056352913L236.68416437210593,75.64643354783945L237.31327621421116,73.93366117088641L237.32067753000064,67.31151389540449L237.34288147736908,70.78011239410779L237.5871248984217,77.30913163217794L237.86097358263223,75.30225718941888L238.2088354247375,69.61715301173574L238.61590779315856,72.91862237100538L238.80094068789538,72.29266171837358L238.83054595105327,74.96857834818921L238.97857226684275,64.44551575438119L239.2746248984217,70.08741501965201L239.88153279315856,71.71287306609071L240.64386831947436,68.76249896378059L240.85850647736908,70.34038430607939L241.28038147736908,71.04503787625443L241.39880253000067,74.53840949188807L241.5542301615796,74.49694776473568L241.79847358263225,72.86908466899507L241.95390121421119,75.14687682192216L242.33876963526382,73.55165504939369L242.3979801615796,76.65352115508666L242.73103937210593,73.40684050470904L242.88646700368486,71.32722736808279L242.9308748984217,74.64946812000696L243.12330910894804,76.13562099672401L243.62659858263225,70.49421570048233L243.65620384579015,67.80482537519943L244.41113805631645,73.56496184338341L244.77380253000067,71.42912113050258L244.87001963526382,73.02725967588592L244.93663147736908,72.23981041019854L245.1586709510533,77.18321461675521L245.96541437210593,74.49977827680033L245.98021700368488,78.77726013833235L246.03202621421119,75.58593288186664L246.12824331947436,75.2317389071164L246.27626963526382,76.33630168637842L246.35028279315858,76.35910336436645L246.4835064773691,79.2438828279088L246.794361740527,78.80447334130048L247.43827621421119,78.16249661895604L247.46048016157962,72.89357214360881L247.57890121421119,78.24202191039261L247.61590779315856,72.81492204911032L247.63071042473752,82.1388744373768L247.74913147736908,76.28530044886698L248.0821906878954,69.53236405796984L248.34863805631647,74.17553386443522L248.61508542473752,72.22379683956851L249.34781568789538,76.63320555291293L249.52544726684275,75.62681831854633L249.6290656878954,74.53493184080293L249.69567753000064,76.00278086650978L249.91771700368486,75.14092479408885L250.06574331947434,77.2509095309783L250.13975647736908,75.19472103220987L250.23597358263223,75.9134554143172L250.31738805631647,74.00219693866292L250.76886831947434,75.11141610839911L250.90949331947434,80.77474889749197L251.47939463526382,78.05563963326533L251.92347358263223,78.41026577671965L251.95307884579015,70.31680883850166L252.06409858263223,66.11805661156059" fill="none"></path></g></g></g></g><g opacity="0.2"><g><g><g><path style="fill: none;" stroke="rgb(255, 112, 67)" stroke-width="2px" d="M24.42182884578995,0.5727196791861218L24.44403279315837,-6.332563159696832L24.68087489842153,39.230148110164606L24.70307884578995,41.1792365679016L24.873309108947847,47.023420336843714L24.880710424737316,38.88637303539272L24.932519635263635,50.55074754733867L25.317388056316265,45.11235332739824L25.52462489842153,44.73225880961235L25.554230161579422,42.47315046547038L25.857684108947847,47.80991172710037L26.02051305631627,58.87783460986199L26.220348582632056,60.61925593028262L26.79024989842153,53.02318388335432L26.97528279315837,66.57523220445587L27.241730161579422,54.43008993745116L27.633999898421532,53.95098669856681L28.063276214211005,61.21411052367792L28.337124898421532,49.6559501384325L28.351927530000477,61.3401188967775L28.433342003684686,58.15054601110802L28.618374898421532,61.60901323716013L28.91442753000048,66.22785817579329L29.151269635263635,52.77251674486419L29.173473582632056,61.963990055916895L29.210480161579426,52.46332161872587L29.447322266842583,66.77513159962473L29.758177530000477,58.47707609848672L29.7803814773689,54.170305449104475L30.298473582632056,53.35659697004908L30.490907793158375,62.64186801687924L30.550118319474162,53.182767497126264L30.749953845789953,64.88933974344113L30.80176305631627,67.76788803474452L30.82396700368469,52.534408455888624L30.934986740526796,67.50116056451695L30.957190687895217,65.84502695348628L31.149624898421536,62.14877384474465L31.72692753000048,72.4167017623387L31.971170951053114,59.223761559147675L32.07478937210574,74.9230582387746L32.19321042473732,61.398459438910535L32.33383542473732,82.39031772769678L32.65209200368469,54.98928489604569L33.221993319474166,58.68395596463951L33.258999898421536,57.611437713916175L33.39222358263206,60.46723011968122L33.49584200368469,58.00382115967484L33.606861740526796,58.73314916563359L33.73268410894785,67.02371434398648L33.93992095105312,67.40521845204627L34.4506117405268,75.01784568687201L34.75406568789522,79.0796925283481L34.79107226684259,80.5868669374051L36.08630253000049,56.090962171104636L36.249131477368906,74.3576100977949L36.27133542473733,61.94684254019165L36.41196042473733,66.06604770930143L36.530381477368906,72.0463244200578L36.848638056316275,59.08694882655526L36.99666437210575,64.18696640255993L37.159493319474166,64.25975524500018L37.270513056316275,77.89688883433537L37.45554595105312,65.04926825696096L37.477749898421536,75.56712852662578L37.581368319474166,60.53607510848286L37.67018410894785,55.981396518593385L37.692388056316275,71.49475474501926L38.07725647736891,68.6999871011641L38.151269635263645,57.39357354057603L38.23268410894786,77.16389439410044L38.60274989842154,78.3668072429777L38.647157793158385,60.537627157348254L38.921006477368906,82.15859008405668L39.25406568789522,74.38847862522861L39.89057884578996,69.76410779280904L41.22281568789522,67.1527968235344L41.37824331947417,77.65080286423532L42.022157793158385,69.90037318449723L42.15538147736891,47.883877727375705L42.52544726684259,67.70026519070161L42.82149989842154,51.11906735361035L42.95472358263207,71.8908945989014L43.10274989842155,68.15302108797748L43.428407793158385,71.27400391074592L43.44321042473733,66.58281250108824L43.465414372105755,68.393183779799L43.502420951053125,67.50206030298963L43.643045951053125,73.90019055610227L43.87988805631628,80.09718427364612L44.168539372105755,64.02629560480015L44.53860516157944,66.32927369730614L44.95307884578996,76.34917370926325L45.27133542473734,82.83652052976325L45.471170951053125,75.3065642649361L45.55258542473734,75.24982825641268L45.88564463526365,71.88356922816962L46.26311174052681,74.04287408222896L46.70719068789523,65.96516453305159L46.85521700368471,89.12150117211512L47.21788147736891,58.27838385243538L47.45472358263208,65.18124489526268L47.74337489842155,81.94311771548976L48.498309108947865,63.971441549248766L48.51311174052681,72.47308537329366L48.69074331947418,74.40824288034526L48.72034858263207,71.04268114941851L48.82396700368471,57.282898210615116L48.83136831947418,64.59548515826211L48.920184108947865,73.70008871977706L49.164427530000495,61.493111926237034L49.66771700368471,76.93971705581028L49.867552530000495,66.61749741921027L50.111795951053125,69.87221137030217L50.69649989842155,68.79349991975852L50.992552530000495,62.6469290457881L51.05176305631629,76.05564902819089L51.384822266842605,69.60028041257425L51.939920951053125,59.83885277035779L51.96952621421102,63.466905702869866L51.9769275300005,71.8273580670886L52.03613805631629,49.62908544720224L52.154559108947865,59.84185189860008L52.16196042473734,69.80990448106871L52.73926305631628,77.18231653932867L52.79847358263208,77.24756257423957L52.85028279315839,64.1747074658696L52.88728937210576,68.63896983707482L53.64962489842156,64.12486195448282L53.86426305631629,84.61283670728288L54.019690687895235,76.43497876827503L54.68580910894787,55.339920476671765L55.0706775300005,77.71505918682627L55.388934108947865,63.46530866708086L55.44074331947419,68.15682998084517L55.68498674052682,64.0618052831888L55.90702621421103,75.284108292222L55.93663147736892,71.82569355091415L57.05423016157945,67.02002541624849L57.17265121421103,62.650662960449736L57.34288147736892,58.8275692205213L57.505710424737345,83.79724627525543L57.73515121421103,63.67001416525798L58.07561174052682,73.36307667919156L58.49748674052682,69.61827518202796L58.60850647736892,77.08794896918519L58.80834200368471,49.50241726588936L58.978572266842605,71.05199344261082L59.089592003684714,81.17511595084676L59.3190327931584,68.56651089874123L59.548473582632084,68.87491875371595L59.66689463526366,71.18843878199354L60.3330130563163,56.660481628673224L60.4144275300005,65.52484002234L60.84370384578998,77.75770679043154L61.376598582632084,61.878327455496645L61.49501963526366,76.64130379570298L61.66524989842156,59.17108187157196L61.68005253000051,68.76685266532583L61.694855161579454,80.19945454670801L61.761467003684714,55.46618377567194L61.99830910894787,57.39009455181498L62.10192753000051,63.00366035456662L62.153736740526824,65.96485712240676L62.35357226684261,68.5126315598686L62.38317753000051,80.84620905433606L62.47939463526367,63.973803362739574L62.76064463526367,60.5693354406898L63.02709200368472,71.15418123964605L63.833835424737345,63.731691237560554L64.14469068789525,68.66275292403614L64.15209200368471,79.46937675868871L64.41113805631629,68.23138830894837L64.64057884578999,69.08573497568672L64.84781568789525,70.28849786815186L64.93663147736893,71.06724400972283L64.98844068789525,81.1240707881631L65.09205910894788,70.81596204994302L65.1438683194742,84.29689354259942L65.32149989842156,76.98371426712458L65.4251183194742,68.37130513927154L65.51393410894788,71.24134340418745L65.68416437210577,82.32315225071082L65.72117095105314,69.76660456707074L66.03202621421104,67.03635566952771L66.30587489842156,72.85347980390381L66.3502827931584,82.25840856978053L66.99419726684262,68.97913096231473L67.04600647736893,67.61282560679781L67.46048016157945,64.02313152450455L67.83794726684262,60.45856263906103L68.2080130563163,72.40504265129684L69.3330130563163,71.29780949116906L69.37742095105315,79.3674813766571L69.51064463526367,63.21762566119179L69.56985516157945,71.55133329930996L70.05094068789525,70.11836482078766L70.0953485826321,79.27213159201428L70.11755253000051,72.1899601694014L70.19156568789525,77.0212708505386L70.22117095105315,79.79895096123336L70.23597358263208,79.45489096927848L70.27298016157945,69.0360994032769L71.07232226684262,78.85645241763365L71.13153279315841,78.71270420098097L71.13893410894788,84.55833504929997L71.25735516157947,72.62060499371101L72.38975647736893,74.41760016046118L72.57478937210577,77.24517076946634L73.33712489842156,83.5739986667204L73.99584200368473,63.12549244158882L74.35850647736893,61.01290650772367L75.15044726684263,67.22228662490812L75.40209200368473,87.87227428535637L75.75735516157945,70.22470641043847L75.78696042473736,74.4323108844896L75.84617095105314,78.27906774624967L76.1422235826321,57.940831968766275L76.15702621421104,72.85890822602234L76.20883542473736,68.56449398499828L76.23844068789526,78.08430435819572L76.57890121421104,76.36950030092534L76.6751183194742,69.98188949012253L76.69732226684262,81.63703418490282L76.82314463526369,52.11177130398589L76.83794726684263,78.25901857394999L76.97857226684263,72.08985676649456L77.43005253000051,57.69527834392923L77.51146700368474,65.94233366930719L77.74090779315841,72.78721406539054L77.7705130563163,81.28173495985999L77.79271700368473,67.3287106905856L78.56985516157947,70.7618352829904L78.65867095105315,74.70832815444763L78.8140985826321,67.367324466705L78.83630253000052,71.8820921575103L78.88811174052684,55.47613338361572L79.14715779315841,61.035729873647455L80.10932884578999,61.89962126601688L80.33136831947421,79.42136821335033L80.46459200368473,73.38949899900608L80.71623674052684,87.3417734862199L80.89386831947421,71.48214341076046L80.99748674052684,84.16772858702483L81.39715779315841,70.74899151629282L82.14469068789526,82.38886315049929L82.30751963526367,84.98201439826688L82.92923016157947,82.48405548090939L82.98103937210578,54.316842855022486L83.01804595105315,64.95858961455548L83.7359735826321,61.43680329348814L84.71294726684262,69.50663263320892L84.74995384579,68.41623208034096L85.09041437210578,75.9009989803775L85.54189463526369,78.85644491981304L86.00077621421106,82.60073656517547L86.07478937210578,63.05669993753142L86.12659858263211,76.96700912281507L86.17100647736895,80.0425326592511L86.27462489842158,82.5810772795473L86.36344068789526,71.85372040433828L86.41524989842158,70.85122430025169L86.46705910894791,75.70935468569552L86.58548016157947,70.04076237751856L86.85932884579,60.37929567961746L87.06656568789526,66.75137100612525L87.4736380563163,66.7746967260296L87.76969068789526,72.0083854477929L87.78449331947421,76.19057980781126L87.8955130563163,62.7955358501933L87.93251963526369,67.5635724232389L88.05094068789526,54.884592826928156L88.11755253000052,75.01167498051349L88.30258542473737,75.02924987201327L88.9983091089479,74.51627147963235L89.01311174052684,90.07612369163425L89.64962489842159,72.10998091700029L89.81985516157948,70.70650136692025L89.84946042473737,67.96751750837157L89.93087489842158,67.02022785740482L89.93827621421106,71.4891613708474L89.98268410894791,75.0036748059272L90.21212489842158,64.58920198459452L90.43416437210578,85.90705051767588L90.77462489842158,72.7484428350384L90.80423016157948,72.3653566868308L91.81821042473737,61.7540660745982L91.9810393721058,72.23642416369499L92.09946042473737,75.86493446326402L92.61755253000052,79.87932010030597L92.7951841089479,76.76020423486834L92.9950196352637,73.114471441368L93.72034858263211,81.61301866550272L93.74995384579002,71.49358508500477L94.74913147736896,57.108468912043875L94.7639341089479,79.88950963850913L94.88975647736895,85.76801093236358L95.00817753000054,78.0901976451918L95.56327621421106,92.18902453396484L95.6668946352637,76.31853761426834L96.10357226684265,78.76036034875085L96.30340779315843,64.16752455372934L96.32561174052685,56.044685622326185L96.50324331947422,71.74537689658577L96.68827621421107,75.59073916371317L96.79189463526369,68.92200506711981L97.01393410894791,71.11864906779559L97.05834200368474,67.94469414244779L97.08054595105317,76.30569384757075L97.50242095105317,64.05333274590434L97.81327621421106,71.17726702929103L97.85768410894791,66.23803271835524L97.9168946352637,73.64464983421844L98.64962489842159,72.84092845220984L98.81245384579,81.52986783498538L99.11590779315844,75.82898241345964L99.18992095105317,75.71584030051945L99.25653279315843,73.2974707488916L99.41936174052685,79.06163027850894L99.6043946352637,72.70418320000289L99.86344068789528,77.687414722253L99.98926305631633,61.76019929185368L100.05587489842159,64.72524993948515L100.50735516157948,58.70188325370778L100.69978937210581,76.11220508901978L100.79600647736895,77.3879517672609L101.06245384579,76.54525671374383L101.08465779315843,80.59475464468231L101.21788147736895,72.76532792704246L101.94321042473739,69.91121503309309L102.23926305631633,69.37973951727786L102.32067753000054,72.03998126382537L102.37988805631633,69.20918659195976L102.43909858263213,77.61783494703201L102.46870384579,78.41891709618739L102.56492095105317,74.31919126501123L102.6685393721058,69.4652371656448L103.32725647736896,67.86098847320562L103.40867095105317,64.45705289641887L103.67511831947422,66.10206723949126L103.89715779315843,60.282243889697114L104.25242095105317,69.21169836186266L104.4966643721058,78.6282112605752L104.59288147736896,63.3241097094341L104.62988805631633,69.37573568107442L104.8667301615795,79.81804041249549L104.94074331947422,54.916466062323025L105.18498674052685,87.367880897569L105.19238805631633,80.83218063198277L105.43663147736896,77.2145196788302L105.55505253000055,81.4424432467228L105.5698551615795,79.18484946234318L105.69567753000054,89.30351826513936L105.8214998984216,62.1957027039158L105.83630253000054,81.07105369866011L106.00653279315843,71.6147798572755L106.02133542473739,64.03761731391478L106.19896700368476,74.01992325335488L106.20636831947422,85.59951240989143L106.53942753000054,62.07219110507792L106.73186174052687,73.88511993668482L107.05011831947424,73.36501111690784L107.0575196352637,69.9973649918527L107.07972358263211,64.19344451956327L107.27955910894791,62.9443001088312L107.45719068789528,66.43560029131572L107.53120384579002,66.03741353240822L107.73103937210581,66.11947717893774L108.21212489842159,67.19741635395899L108.47857226684265,61.78599929255793L108.62659858263213,71.74590174402816L108.8042301615795,79.05141824684395L109.31492095105318,66.4540749212882L109.41113805631635,78.58915511304005L110.09205910894792,69.93833465022395L110.10686174052685,71.05255577915625L110.12906568789528,69.19622286013248L110.20307884579002,69.23759583423478L110.28449331947422,66.89652131523121L110.75077621421107,66.81151102520364L111.01722358263211,66.95184023566014L111.65373674052687,63.329868035659274L111.82396700368476,84.63142380456443L112.31245384579002,69.40984326700979L112.34205910894792,73.0832130272628L112.62330910894791,76.2651981184793L112.76393410894792,70.61544783348451L113.12659858263213,75.27718780380293L113.76311174052687,83.29665428251515L113.82972358263213,70.41706299807798L114.20719068789528,77.46076310316296L114.44403279315846,82.7494033521455L114.53284858263214,92.14480238803236L115.03613805631633,78.20260497171262L115.16936174052687,68.54818622518087L115.17676305631635,70.4584509678215L115.30258542473739,84.41496922149817L115.33959200368476,67.38651888745562L115.47281568789528,68.87033758532586L115.9761051615795,90.78714951749444L116.11673016157951,72.75307648817272L116.6496248984216,59.47102468708282L116.77544726684266,65.51390819989686L116.87166437210583,89.24111390423802L117.10850647736898,78.12050383608009L117.50077621421107,67.06476491180275L117.55258542473739,76.16586699109484L117.60439463526372,78.58665833877835L117.68580910894792,66.38251572142728L117.6932104247374,57.9235494922701L118.09288147736898,71.11092631257169L118.16689463526372,61.00440397915679L118.21870384579002,75.50395189020207L118.2261051615795,67.84115673770354L118.85521700368477,59.05698753541485L118.93663147736898,61.91685125776881L119.11426305631635,71.94138492286025L119.2992959510532,78.21100253079102L119.3511051615795,66.92135409707731L119.38811174052688,61.05226256808304L119.69896700368477,73.2108559252544L119.76557884579003,80.60149518540683L119.83219068789529,68.20084218780069L120.46130253000057,75.52621291958042L120.68334200368477,84.8724187544732L120.73515121421107,74.23433842921641L120.80176305631635,62.48852258985124L121.25324331947424,72.18821317720028L121.28284858263214,69.0254375023756L121.31985516157951,80.48656859116252L121.49748674052687,75.37241012549546L121.57890121421107,75.81445913494636L121.60850647736898,81.87495502836325L121.80094068789529,82.01505180638094L121.88975647736898,80.16093074443587L122.2746248984216,79.3090583584974L122.74830910894792,63.61163613402192L122.76311174052687,75.1110735882834L122.8371248984216,75.2795046303701L123.0665656878953,73.86678026748324L123.41442753000055,72.52631989959421L123.58465779315844,61.283285416586224L123.95472358263214,74.32695150933813L124.20636831947424,80.30175481105235L124.66524989842162,59.68010891249368L124.89469068789529,74.9049584998324L125.36097358263214,79.837084876834L125.50899989842162,62.165741412775375L125.5682104247374,82.83120457495382L125.88646700368477,67.47880206347072L125.91607226684268,71.56506180883902L126.08630253000057,75.11187585508821L126.10850647736898,71.03338385186743L126.28613805631635,75.75532382382913L126.30834200368477,77.23950991490904L126.39715779315846,83.0960051052857L127.21870384579003,59.25884386176179L127.23350647736898,81.4127818684066L127.38153279315846,65.74518597430063L127.9588354247374,80.63530285851799L128.7729801615795,69.99803979570721L129.00242095105318,70.97977443453661L129.1948551615795,77.47047278084736L129.6759406878953,61.860415162069614L129.80916437210584,70.58742847788096L129.8979801615795,70.08128060007182L129.92018410894792,61.28107355950752L130.31245384579003,77.44656972875634L130.34205910894792,80.09473248630803L130.75653279315844,80.20420816497203L130.90455910894795,84.30285430998096L131.21541437210584,75.20912258834429L131.4448551615795,71.32510905599445L131.4744604247374,80.91173250860936L131.4966643721058,68.56639093361153L131.54847358263214,75.02423383002805L131.62248674052688,68.26773774324485L131.9259406878953,75.30755397725606L132.08136831947425,73.06598303551087L132.09617095105318,82.08369435402624L132.1257762142111,66.98968923407777L132.58465779315844,62.597151014786775L132.8807104247374,81.69657437833276L132.88811174052688,78.61838911558172L133.00653279315844,70.36327363305261L133.05834200368477,64.73931585094145L133.21376963526373,84.38581769498315L133.5838354247374,57.302287574701495L133.67265121421107,76.66832594116595L133.93909858263214,75.66807918326107L134.02051305631636,75.75128249852266L134.27215779315847,70.1413906278678L134.76064463526373,70.05422846332641L134.79024989842162,69.79091999929506L135.22692753000058,75.56014805564187L135.5007762142111,75.39921483416087L135.5229801615795,65.06640827486561L136.03367095105318,69.19071196198729L136.05587489842162,81.34833810030051L136.15209200368477,78.24952633306316L136.4851512142111,78.10750261514978L136.52215779315847,82.33287692403644L136.5369604247374,87.70891926781977L136.55916437210584,68.9046626080588L136.63317753000058,74.13716667416638L136.6479801615795,68.83670985990923L137.08465779315847,79.7951945531099L137.1290656878953,76.71019377142825L137.13646700368477,64.98359484627554L137.217881477369,68.7048456889166L137.53613805631636,76.19971965112964L137.55834200368477,74.77591350938752L137.90620384579003,65.41513191123724L137.921006477369,73.37439838830618L138.29107226684266,88.08689940019487L138.35768410894795,71.1717111442222L138.41689463526373,83.47734426129217L138.81656568789532,75.5958976642899L138.94978937210584,80.92192954463313L139.00159858263214,58.60093259707247L139.09781568789532,69.7382103204369L139.24584200368477,75.99380700383499L139.34205910894795,80.45608995040028L139.39386831947425,77.7902098427573L139.56409858263214,63.09006523922682L139.57149989842162,73.97789047103926L139.6011051615795,75.52383611044841L139.78613805631636,77.37375089503368L139.99337489842162,70.78825760280492L140.06738805631636,70.85174164987349L140.17840779315847,70.84421383798535L140.4226512142111,75.36189068318566L140.50406568789532,88.41010045522464L140.80751963526373,69.4660469302702L141.0073551615795,74.00135864953513L141.20719068789532,72.86744074587163L141.2145920036848,65.2047730563234L141.4292301615795,66.53119750403854L141.80669726684266,75.22075920592435L142.01393410894795,70.80326823965756L142.2211709510532,80.53693145217107L142.3025854247374,74.55885160285219L142.52462489842162,84.31778247080693L142.82807884579003,74.91675257164519L143.19074331947425,78.89889758008258L143.405381477369,80.6177354648388L144.16031568789532,76.49877772380903L144.16771700368477,69.5579477174344L144.17511831947425,66.75113107586586L144.21212489842162,81.61977420186847L144.29353937210584,83.65478768374693L144.47857226684266,71.3556251858597L144.67840779315847,77.60535107572349L144.93005253000058,78.19477724700025L145.27051305631636,64.06176029626516L145.6257762142111,70.84265429129935L145.8774209510532,79.99689342522413L145.89962489842165,72.88011206269529L145.9070262142111,74.18857173223914L146.12166437210584,85.80683464745995L146.28449331947425,70.32223056305696L146.43251963526373,70.71368427906053L146.55094068789532,74.62800400229865L146.73597358263217,80.3442524582455L147.23926305631636,71.61819886347169L147.40949331947428,75.64083960100052L148.32725647736902,65.0576058334745L148.5789012142111,75.73653428539123L148.65291437210584,67.53406100133482L149.05258542473743,78.8470801418765L149.08959200368477,75.60326802194531L149.452256477369,76.49097249255847L149.6520920036848,70.66964208082258L149.65949331947428,56.54964884447962L149.94074331947425,74.52904776594448L150.30340779315847,74.99218814475925L150.61426305631636,61.52839667000751L150.9695262142111,60.211434471896794L151.02873674052688,74.16280172281732L151.88728937210584,82.54289837702301L151.99830910894795,54.025342585513656L152.02791437210584,81.45875850436083L152.13153279315847,73.97396911086247L152.27955910894795,79.68612375675862L152.78284858263217,75.61869853675188L152.80505253000058,80.71134575510112L152.96048016157954,63.919751573993L153.06409858263214,71.37838856921863L153.08630253000058,70.2534905437438L153.15291437210584,66.37720726443844L153.3305459510532,77.71404698104448L153.41196042473743,51.370199356978034L153.51557884579006,81.6144132601354L153.54518410894795,79.50661843363727L153.9226512142111,64.91762902058647L154.21130253000058,72.34092878729739L154.25571042473743,63.014344748929744L154.3149209510532,79.75247946911915L154.64798016157954,63.67386804504932L154.89962489842162,67.42963885375907L155.12166437210584,74.09183485078427L155.1956775300006,80.75682753489536L155.4473222668427,84.01319850434113L155.70636831947425,56.833141441581546L155.80258542473743,74.3784915281818L155.84699331947428,82.95969472667387L155.9506117405269,72.81955216566296L156.32807884579006,78.75157290300096L157.0238025300006,69.35157770308281L157.3346577931585,68.6905398472009L157.60110516157954,70.96666074629722L157.84534858263217,80.02352568401561L157.98597358263217,80.86001254207116L158.0377827931585,81.6850877171648L158.3930459510532,68.30392972330861L158.80751963526376,73.3672004805247L158.8223222668427,72.97579924926536L159.19978937210587,67.17856683295624L159.83630253000058,62.010828941240774L159.91031568789532,68.88306888471435L160.18416437210587,67.8545028583817L160.23597358263214,79.02674291923057L160.2507762142111,65.12101490233701L161.62001963526373,74.05257626209276L161.65702621421113,70.64674373669274L161.8864670036848,89.32598923349468L161.89386831947428,73.62821461145072L161.9382762142111,78.82939278306765L162.0789012142111,71.85682450206905L162.30094068789532,76.36770832180059L162.3083420036848,86.4431146997018L162.3379472668427,71.92562450394706L162.41936174052688,66.20110595187211L163.20390121421113,70.45179290312365L163.4629472668427,75.49604918728365L163.64057884579006,77.2239669327934L164.84699331947428,79.1733028186104L164.89140121421113,60.37717379638603L165.1430459510532,57.91686143628982L165.21705910894798,75.06694141619818L165.34288147736902,75.76743280410734L165.52791437210587,60.5191825186582L165.60192753000058,85.09718092277059L165.7425525300006,85.79379593742661L166.0238025300006,72.81743028243156L166.18663147736902,59.00052144843323L167.0599867405269,76.18103508218019L167.68909858263217,69.5845874740465L167.92594068789535,65.19857985650309L168.25899989842162,85.15395442039704L168.44403279315847,76.93524835472928L168.6364670036848,86.6875661449098L168.64386831947428,78.56494465030421L168.6586709510532,63.93758139139338L168.68087489842165,75.96954405635489L169.1101512142111,57.23853360609114L169.1767630563164,79.38174223144917L169.66524989842165,66.29649322561797L169.68745384579006,64.57967975242528L170.12413147736905,72.64615006851467L170.2721577931585,63.20156532945437L170.31656568789532,72.14747002002883L170.65702621421113,76.13256916978487L170.8864670036848,67.06296543485739L170.95307884579006,70.16403404609706L171.01228937210587,73.34503692281423L171.40455910894798,61.81329135956271L171.46376963526373,77.56840181577854L171.54518410894798,59.77072757233431L172.49255253000058,73.84634120851206L172.51475647736902,69.66168756333502L172.61837489842168,64.66622709567699L173.7655788457901,76.54472436848081L173.8099867405269,71.44215003564959L173.8395920036848,65.90810611824213L174.3502827931585,73.59407703423291L174.46870384579006,76.27780945273811L174.50571042473743,81.9389639228742L174.53531568789535,78.29293871437024L174.70554595105324,68.77879669355073L175.43087489842165,63.66978923063981L175.5937038457901,67.00257048987838L175.68992095105324,74.42080922768042L175.84534858263217,76.87012228494807L175.99337489842165,69.75010186391758L176.11179595105324,80.85513146085684L176.48926305631642,70.64706614297879L176.67429595105324,78.28374638630763L177.24419726684272,86.64710790492138L177.26640121421113,84.07462065074313L177.29600647736905,85.32341266390672L177.40702621421113,82.26134021763735L177.51064463526376,71.28426092933452L178.10274989842165,68.80228736550842L178.22117095105324,74.50322527177842L179.0797235826322,70.1231334346929L179.75324331947428,77.679009665354L180.01228937210587,70.835891257113L180.3305459510532,78.12863897143728L180.60439463526376,71.49196555575394L180.61179595105324,67.31581443914376L180.87824331947428,80.94595256185383L181.03367095105324,78.46420393264587L181.27791437210587,82.16552556811698L181.3815327931585,60.44925034586872L181.8552170036848,71.45470138734356L182.24008542473746,70.1889193126874L182.4843288457901,63.149477969706496L182.79518410894798,71.78133644421075L182.95061174052694,72.29440481043896L183.13564463526376,72.23108571542372L183.84617095105327,82.50105304022253L184.03120384579006,73.03128312174765L184.24584200368483,77.53809562489026L184.29024989842168,71.82101491085618L184.3642630563164,86.86935080549526L184.56409858263217,79.25119017906252L184.5863025300006,79.08649305163746L184.94156568789535,74.05791471036403L185.0377827931585,65.14902676011994L185.07478937210587,88.51420769433494L185.3560393721059,59.7078358530936L185.4374538457901,67.86143084462138L185.59288147736902,81.01793163966865L185.87413147736902,82.8039949839757L186.03696042473743,70.30594529670135L186.24419726684272,72.62432391273146L186.29600647736905,56.02879774046269L186.32561174052694,68.387402960112L186.4144275300006,81.15140784209152L186.42923016157957,62.3360619056547L186.82890121421116,74.11401340413595L187.1175525300006,79.54331276768164L187.4950196352638,69.7126052630684L187.67265121421116,65.26357846333399L187.83548016157957,73.1448001257181L188.03531568789532,89.89296692987794L188.76064463526376,80.29415202095815L188.9234735826322,78.84597046442687L189.49337489842168,79.75723308738317L189.60439463526376,73.42829272282003L189.84863805631642,83.35898366521042L190.0706775300006,77.00614774637687L190.17429595105324,78.77110472567885L190.24830910894798,79.12857082087673L190.3001183194743,86.94702822697042L190.58876963526376,71.63499398162848L190.99584200368483,75.09411351807329L191.12166437210587,72.37790803852477L191.18827621421116,78.04559311040842L191.24008542473746,67.26007564076092L191.27709200368483,85.19661701964354L191.86179595105327,80.91860801010479L192.0986380563164,78.88063288908707L192.27626963526376,81.93588231860525L192.35028279315853,86.6197033706075L192.54271700368483,66.71418931374153L192.80916437210587,75.63559862439713L193.1126183194743,67.47233894210859L193.12001963526376,83.19465393099506L193.26804595105324,74.52307950074234L193.49008542473746,78.48043671425724L194.08959200368483,69.37423611695327L194.20061174052694,65.5195690544542L194.3560393721059,79.57500605538198L194.5484735826322,79.71021425436476L194.62248674052694,80.60394697274492L194.78531568789535,69.15562965937316L194.97774989842168,60.39885749357775L196.0731446352638,84.92165694239091L196.2877827931585,58.80167174814916L196.53942753000064,68.86942285121195L196.76146700368486,76.311279723922L196.78367095105324,72.07884246802476L196.98350647736905,70.13715435922559L197.2203485826322,63.613248165452134L197.3017630563164,75.91391022746052L197.6422235826322,82.38878067447263L197.6718288457901,67.4757429526636L197.86426305631642,74.04074470117693L197.88646700368483,67.10890458170859L198.08630253000064,78.16210174480055L198.09370384579012,74.25507740101179L198.46376963526376,70.68797425220353L198.61179595105324,76.54767101197886L198.70801305631642,83.99677077939403L198.9374538457901,74.07562456263472L199.44814463526376,65.34727663475554L199.4703485826322,66.00594517932605L199.5591643721059,63.21388424870953L199.59617095105327,70.56661452787951L200.1142630563164,78.03414393834349L200.18827621421116,58.67105221537709L200.2030788457901,86.79125350606618L201.3206775300006,68.77473287478243L201.63893410894798,73.59597398284616L201.67594068789535,65.67853784693648L201.78696042473746,90.34268620980849L201.99419726684272,85.6578979389481L202.0682104247375,65.57080916047362L202.3050525300006,67.87529431492133L202.44567753000064,78.19030854591925L202.55669726684275,61.93711786686603L202.94156568789538,82.25624919744608L203.08219068789538,74.29187670454462L203.08959200368486,73.35938775145354L203.27462489842165,71.83617550412093L203.33383542473746,73.535639020432L203.36344068789535,88.65699618995009L203.60028279315853,72.17192041302407L203.8593288457901,71.49300775281814L204.26640121421116,73.85239944756148L204.54024989842168,81.92681745349293L204.62906568789535,82.20188250023406L204.732684108948,72.12561387296319L204.93992095105327,68.1816927539737L204.94732226684275,83.94458594797828L205.2137696352638,90.27375124715958L205.59863805631642,71.31075822735512L205.64304595105324,69.30686819881095L205.69485516157957,59.19731674587135L205.81327621421113,73.49803745009436L205.85028279315853,70.81441749889825L205.85768410894798,76.39053168772438L206.13893410894798,66.99123378512255L206.23515121421116,73.17430404980158L206.4497893721059,76.5580779869796L207.16031568789535,79.76829237277661L207.2713354247375,77.89250260928102L207.38235516157957,79.05122330350822L207.5747893721059,86.88832029162769L207.93005253000064,71.68816852536418L208.08548016157957,86.95335638756166L208.14469068789535,79.15326864195194L208.4925525300006,86.31248766910909L208.5887696352638,79.95585035522846L208.67018410894798,69.11059025099465L208.74419726684275,74.17415342321436L208.8034077931585,78.08672615425135L209.04024989842168,72.31078754846243L209.41771700368486,66.63243307785686L209.5731446352638,71.44597392415851L209.8469933194743,64.23229072812146L210.1060393721059,68.86334211870071L211.060809108948,76.3642068395777L212.48186174052697,73.76549220892069L213.0813683194743,72.16520986358194L213.15538147736908,77.94174829501932L213.42182884579012,66.22217482777417L213.50324331947434,76.37171215800403L213.5180459510533,69.7749496414049L213.56245384579012,90.62038299158222L213.91031568789538,82.11628738019925L213.9325196352638,79.5569063164398L214.01393410894798,73.3527521802175L214.25817753000064,67.80867617883958L214.72446042473746,75.85003629372048L214.8058748984217,72.5567835447152L215.58301305631642,73.65753109001905L216.263934108948,82.41564536570287L216.41936174052694,73.6041765985888L216.47857226684275,78.76779068897113L216.61179595105327,80.24013772131461L217.1150854247375,73.17181477336048L217.15949331947434,78.43284054905217L217.38153279315853,69.93978172960085L217.62577621421116,92.40067301402286L217.63317753000064,64.17211321994002L217.87742095105327,80.81637522614591L218.04024989842168,85.54312130111587L218.05505253000064,74.64285718491857L218.11426305631642,61.45257870804255L218.53613805631642,81.47059756309723L218.8247893721059,70.33383718935458L218.83219068789538,74.67978395140169L219.29847358263223,74.32497208469823L219.31327621421116,67.94372692358967L219.43909858263223,85.18767211966093L220.07561174052694,67.88228978154645L220.1200196352638,80.67483136875131L220.3494604247375,67.36607233066385L220.35686174052697,87.47584201647064L220.4604801615796,59.312355807424765L220.66771700368486,96.26942848144007L222.54765121421119,63.73586002581732L222.89551305631642,74.54315866432442L223.11015121421116,81.66140210187137L223.13975647736908,85.51725382002617L223.2211709510533,70.84292421284117L223.48761831947434,63.37878381729094L223.50242095105327,78.99842365080279L223.51722358263223,73.69548505792515L223.87988805631645,70.1502980387474L224.05011831947434,70.04676063400314L224.05751963526382,77.6486584875421L224.19814463526382,75.30057350627214L224.38317753000067,70.93406022230359L224.55340779315856,77.49658019219645L225.31574331947434,76.55194476972412L225.67840779315856,65.48268727489469L225.91524989842168,84.82638963377474L225.967059108948,80.96387235310146L226.60357226684275,73.9525928243156L226.92182884579012,80.40958846700369L227.4325196352638,70.84568341082407L227.59534858263223,70.86235856385116L227.92840779315853,74.63706886741096L228.65373674052697,72.23580184458473L228.83876963526382,72.91670142725116L229.2532433194743,74.30469797778039L229.29765121421116,71.48841908660744L229.33465779315853,82.44578660453783L229.43827621421116,83.21707991242674L229.63811174052697,69.96239515654767L230.467059108948,61.4711583075035L230.5336709510533,68.86177507419413L230.70390121421119,62.827664011488764L230.82972358263223,72.99407143808148L231.029559108948,71.0279554297489L231.25899989842168,82.46989959560581L231.3774209510533,86.91729187044818L231.38482226684275,80.77009867736747L231.4588354247375,70.37575000654053L232.4136051615796,67.0826847030504L232.5246248984217,68.71750950791964L233.19074331947434,82.48075643984286L233.64222358263223,71.86665414488314L234.04189463526382,79.32157222108832L234.6117959510533,78.0486897103186L235.01146700368486,74.75078831253778L235.11508542473752,71.61878369347895L235.65538147736908,64.56679849662466L235.75159858263223,75.83512312853573L236.55834200368486,64.0332985692459L236.57314463526382,81.58215763588962L236.68416437210593,77.92547802430492L237.31327621421116,71.36450260545685L237.32067753000064,57.37829298218159L237.34288147736908,75.98301014216275L237.5871248984217,87.10266048928317L237.86097358263223,72.29194552528028L238.2088354247375,61.089496745210994L238.61590779315856,77.8708264099099L238.80094068789538,71.35372073942584L238.83054595105327,78.98245329291262L238.97857226684275,48.66092186366919L239.2746248984217,78.55026391755824L239.88153279315856,74.15106013574876L240.64386831947436,64.33693781031538L240.85850647736908,72.7072123195276L241.28038147736908,72.10201823151701L241.39880253000067,79.77846691533856L241.5542301615796,74.43475517400705L241.79847358263225,70.4272900253842L241.95390121421119,78.56356505131275L242.33876963526382,71.15882239060097L242.3979801615796,81.30632031362612L242.73103937210593,68.5368195291426L242.88646700368486,68.2078076631434L242.9308748984217,79.63282924789321L243.12330910894804,78.3648503117996L243.62659858263225,62.032107756119785L243.65620384579015,63.7707398872751L244.41113805631645,82.20516654565937L244.77380253000067,68.22536006118139L244.87001963526382,75.42446749396092L244.93663147736908,71.05863651166747L245.1586709510533,84.59832092659022L245.96541437210593,70.47462376686804L245.98021700368488,85.19348293063035L246.03202621421119,70.79894199716807L246.12824331947436,74.70044794499104L246.27626963526382,77.99314585527148L246.35028279315858,76.39330588134848L246.4835064773691,83.57105202322235L246.794361740527,78.14535911138802L247.43827621421119,77.19953153543939L247.46048016157962,64.99018543058794L247.57890121421119,86.26469656056828L247.61590779315856,64.67427225718691L247.63071042473752,96.12480301977651L247.74913147736908,67.50493946610223L248.0821906878954,59.40295947162417L248.34863805631647,81.14028857413325L248.61508542473752,69.29619130226843L249.34781568789538,83.24731862292957L249.52544726684275,74.1172374669964L249.6290656878954,72.89710212418782L249.69567753000064,78.20455440507011L249.91771700368486,73.84814068545742L250.06574331947434,80.41588663631248L250.13975647736908,72.11043828405724L250.23597358263223,76.99155698747816L250.31738805631647,71.13530922518147L250.76886831947434,76.77524486300341L250.90949331947434,89.26974808113124L251.47939463526382,73.97697573692535L251.92347358263223,78.94220499190118L251.95307884579015,58.176623431174676L252.06409858263223,59.81992827114897" fill="none"></path></g></g></g></g></g></g><g transform="translate(30, 178)" clip-path="url(#clip_1)"><clipPath id="clip_1"><rect width="300" height="22"></rect></clipPath><g><g><line x1="24.251598582632052" y1="0" x2="24.251598582632052" y2="5" style="visibility: inherit;" fill="rgb(0, 0, 0)" stroke="rgb(204, 204, 204)" stroke-width="1px"></line><line x1="61.25817753000051" y1="0" x2="61.25817753000051" y2="5" style="visibility: inherit;" fill="rgb(0, 0, 0)" stroke="rgb(204, 204, 204)" stroke-width="1px"></line><line x1="98.26475647736896" y1="0" x2="98.26475647736896" y2="5" style="visibility: inherit;" fill="rgb(0, 0, 0)" stroke="rgb(204, 204, 204)" stroke-width="1px"></line><line x1="135.2713354247374" y1="0" x2="135.2713354247374" y2="5" style="visibility: inherit;" fill="rgb(0, 0, 0)" stroke="rgb(204, 204, 204)" stroke-width="1px"></line><line x1="172.27791437210587" y1="0" x2="172.27791437210587" y2="5" style="visibility: inherit;" fill="rgb(0, 0, 0)" stroke="rgb(204, 204, 204)" stroke-width="1px"></line><line x1="209.28449331947434" y1="0" x2="209.28449331947434" y2="5" style="visibility: inherit;" fill="rgb(0, 0, 0)" stroke="rgb(204, 204, 204)" stroke-width="1px"></line><line x1="246.29107226684278" y1="0" x2="246.29107226684278" y2="5" style="visibility: inherit;" fill="rgb(0, 0, 0)" stroke="rgb(204, 204, 204)" stroke-width="1px"></line><line x1="283.2976512142112" y1="0" x2="283.2976512142112" y2="5" style="visibility: inherit;" fill="rgb(0, 0, 0)" stroke="rgb(204, 204, 204)" stroke-width="1px"></line></g><g transform="translate(0, 8)"><text x="24.251598582632052" y="0" dx="0em" dy="0.95em" style="text-anchor: middle; visibility: inherit; font-family: &quot;Helvetica Neue&quot;, sans-serif; font-size: 12px; font-weight: 200;" fill="rgb(50, 49, 63)" stroke="none" stroke-width="1px">0</text><text x="61.25817753000051" y="0" dx="0em" dy="0.95em" style="text-anchor: middle; visibility: inherit; font-family: &quot;Helvetica Neue&quot;, sans-serif; font-size: 12px; font-weight: 200;" fill="rgb(50, 49, 63)" stroke="none" stroke-width="1px">5k</text><text x="98.26475647736896" y="0" dx="0em" dy="0.95em" style="text-anchor: middle; visibility: inherit; font-family: &quot;Helvetica Neue&quot;, sans-serif; font-size: 12px; font-weight: 200;" fill="rgb(50, 49, 63)" stroke="none" stroke-width="1px">10k</text><text x="135.2713354247374" y="0" dx="0em" dy="0.95em" style="text-anchor: middle; visibility: inherit; font-family: &quot;Helvetica Neue&quot;, sans-serif; font-size: 12px; font-weight: 200;" fill="rgb(50, 49, 63)" stroke="none" stroke-width="1px">15k</text><text x="172.27791437210587" y="0" dx="0em" dy="0.95em" style="text-anchor: middle; visibility: inherit; font-family: &quot;Helvetica Neue&quot;, sans-serif; font-size: 12px; font-weight: 200;" fill="rgb(50, 49, 63)" stroke="none" stroke-width="1px">20k</text><text x="209.28449331947434" y="0" dx="0em" dy="0.95em" style="text-anchor: middle; visibility: inherit; font-family: &quot;Helvetica Neue&quot;, sans-serif; font-size: 12px; font-weight: 200;" fill="rgb(50, 49, 63)" stroke="none" stroke-width="1px">25k</text><text x="246.29107226684278" y="0" dx="0em" dy="0.95em" style="text-anchor: middle; visibility: inherit; font-family: &quot;Helvetica Neue&quot;, sans-serif; font-size: 12px; font-weight: 200;" fill="rgb(50, 49, 63)" stroke="none" stroke-width="1px">30k</text><text x="283.2976512142112" y="0" dx="0em" dy="0.95em" style="text-anchor: middle; visibility: inherit; font-family: &quot;Helvetica Neue&quot;, sans-serif; font-size: 12px; font-weight: 200;" fill="rgb(50, 49, 63)" stroke="none" stroke-width="1px">35k</text></g><line x1="0" y1="0" x2="300" y2="0" fill="rgb(0, 0, 0)" stroke="rgb(204, 204, 204)" stroke-width="1px"></line></g></g></g></g></svg>