<svg viewBox="0 0 330 200" xmlns="http://www.w3.org/2000/svg"><g><g><g><g><g><line x1="40" y1="175.11902617990685" x2="35" y2="175.11902617990685" style="visibility: inherit;" fill="rgb(0, 0, 0)" stroke="rgb(204, 204, 204)" stroke-width="1px"></line><line x1="40" y1="157.86681087233075" x2="35" y2="157.86681087233075" style="visibility: inherit;" fill="rgb(0, 0, 0)" stroke="rgb(204, 204, 204)" stroke-width="1px"></line><line x1="40" y1="140.6145955647546" x2="35" y2="140.6145955647546" style="visibility: inherit;" fill="rgb(0, 0, 0)" stroke="rgb(204, 204, 204)" stroke-width="1px"></line><line x1="40" y1="123.36238025717851" x2="35" y2="123.36238025717851" style="visibility: inherit;" fill="rgb(0, 0, 0)" stroke="rgb(204, 204, 204)" stroke-width="1px"></line><line x1="40" y1="106.1101649496024" x2="35" y2="106.1101649496024" style="visibility: inherit;" fill="rgb(0, 0, 0)" stroke="rgb(204, 204, 204)" stroke-width="1px"></line><line x1="40" y1="88.85794964202628" x2="35" y2="88.85794964202628" style="visibility: inherit;" fill="rgb(0, 0, 0)" stroke="rgb(204, 204, 204)" stroke-width="1px"></line><line x1="40" y1="71.60573433445018" x2="35" y2="71.60573433445018" style="visibility: inherit;" fill="rgb(0, 0, 0)" stroke="rgb(204, 204, 204)" stroke-width="1px"></line><line x1="40" y1="54.35351902687407" x2="35" y2="54.35351902687407" style="visibility: inherit;" fill="rgb(0, 0, 0)" stroke="rgb(204, 204, 204)" stroke-width="1px"></line><line x1="40" y1="37.10130371929796" x2="35" y2="37.10130371929796" style="visibility: inherit;" fill="rgb(0, 0, 0)" stroke="rgb(204, 204, 204)" stroke-width="1px"></line><line x1="40" y1="19.84908841172185" x2="35" y2="19.84908841172185" style="visibility: inherit;" fill="rgb(0, 0, 0)" stroke="rgb(204, 204, 204)" stroke-width="1px"></line><line x1="40" y1="2.596873104145743" x2="35" y2="2.596873104145743" style="visibility: inherit;" fill="rgb(0, 0, 0)" stroke="rgb(204, 204, 204)" stroke-width="1px"></line></g><g transform="translate(30, 0)"><text x="0" y="175.11902617990685" dx="0em" dy="0.3em" style="text-anchor: end; visibility: hidden; font-family: &quot;Helvetica Neue&quot;, sans-serif; font-size: 12px; font-weight: 200;" fill="rgb(50, 49, 63)" stroke="none" stroke-width="1px">0</text><text x="0" y="157.86681087233075" dx="0em" dy="0.3em" style="text-anchor: end; visibility: inherit; font-family: &quot;Helvetica Neue&quot;, sans-serif; font-size: 12px; font-weight: 200;" fill="rgb(50, 49, 63)" stroke="none" stroke-width="1px">10</text><text x="0" y="140.6145955647546" dx="0em" dy="0.3em" style="text-anchor: end; visibility: hidden; font-family: &quot;Helvetica Neue&quot;, sans-serif; font-size: 12px; font-weight: 200;" fill="rgb(50, 49, 63)" stroke="none" stroke-width="1px">20</text><text x="0" y="123.36238025717851" dx="0em" dy="0.3em" style="text-anchor: end; visibility: inherit; font-family: &quot;Helvetica Neue&quot;, sans-serif; font-size: 12px; font-weight: 200;" fill="rgb(50, 49, 63)" stroke="none" stroke-width="1px">30</text><text x="0" y="106.1101649496024" dx="0em" dy="0.3em" style="text-anchor: end; visibility: hidden; font-family: &quot;Helvetica Neue&quot;, sans-serif; font-size: 12px; font-weight: 200;" fill="rgb(50, 49, 63)" stroke="none" stroke-width="1px">40</text><text x="0" y="88.85794964202628" dx="0em" dy="0.3em" style="text-anchor: end; visibility: inherit; font-family: &quot;Helvetica Neue&quot;, sans-serif; font-size: 12px; font-weight: 200;" fill="rgb(50, 49, 63)" stroke="none" stroke-width="1px">50</text><text x="0" y="71.60573433445018" dx="0em" dy="0.3em" style="text-anchor: end; visibility: hidden; font-family: &quot;Helvetica Neue&quot;, sans-serif; font-size: 12px; font-weight: 200;" fill="rgb(50, 49, 63)" stroke="none" stroke-width="1px">60</text><text x="0" y="54.35351902687407" dx="0em" dy="0.3em" style="text-anchor: end; visibility: inherit; font-family: &quot;Helvetica Neue&quot;, sans-serif; font-size: 12px; font-weight: 200;" fill="rgb(50, 49, 63)" stroke="none" stroke-width="1px">70</text><text x="0" y="37.10130371929796" dx="0em" dy="0.3em" style="text-anchor: end; visibility: hidden; font-family: &quot;Helvetica Neue&quot;, sans-serif; font-size: 12px; font-weight: 200;" fill="rgb(50, 49, 63)" stroke="none" stroke-width="1px">80</text><text x="0" y="19.84908841172185" dx="0em" dy="0.3em" style="text-anchor: end; visibility: inherit; font-family: &quot;Helvetica Neue&quot;, sans-serif; font-size: 12px; font-weight: 200;" fill="rgb(50, 49, 63)" stroke="none" stroke-width="1px">90</text><text x="0" y="2.596873104145743" dx="0em" dy="0.3em" style="text-anchor: end; visibility: hidden; font-family: &quot;Helvetica Neue&quot;, sans-serif; font-size: 12px; font-weight: 200;" fill="rgb(50, 49, 63)" stroke="none" stroke-width="1px">100</text></g><line x1="40" y1="0" x2="40" y2="178" fill="rgb(0, 0, 0)" stroke="rgb(204, 204, 204)" stroke-width="1px"></line></g></g><g transform="translate(40, 0)" clip-path="url(#clip_0)"><clipPath id="clip_0"><rect width="290" height="178"></rect></clipPath><g><g><g><line x1="21.89765730400973" y1="0" x2="21.89765730400973" y2="178" fill="rgb(0, 0, 0)" stroke="rgb(60, 60, 60)" stroke-width="1px" opacity="0.25"></line><line x1="60.96496916796631" y1="0" x2="60.96496916796631" y2="178" fill="rgb(0, 0, 0)" stroke="rgb(60, 60, 60)" stroke-width="1px" opacity="0.25"></line><line x1="100.03228103192288" y1="0" x2="100.03228103192288" y2="178" fill="rgb(0, 0, 0)" stroke="rgb(60, 60, 60)" stroke-width="1px" opacity="0.25"></line><line x1="139.09959289587945" y1="0" x2="139.09959289587945" y2="178" fill="rgb(0, 0, 0)" stroke="rgb(60, 60, 60)" stroke-width="1px" opacity="0.25"></line><line x1="178.16690475983606" y1="0" x2="178.16690475983606" y2="178" fill="rgb(0, 0, 0)" stroke="rgb(60, 60, 60)" stroke-width="1px" opacity="0.25"></line><line x1="217.2342166237926" y1="0" x2="217.2342166237926" y2="178" fill="rgb(0, 0, 0)" stroke="rgb(60, 60, 60)" stroke-width="1px" opacity="0.25"></line><line x1="256.3015284877492" y1="0" x2="256.3015284877492" y2="178" fill="rgb(0, 0, 0)" stroke="rgb(60, 60, 60)" stroke-width="1px" opacity="0.25"></line></g><g><line x1="0" y1="175.11902617990685" x2="290" y2="175.11902617990685" fill="rgb(0, 0, 0)" stroke="rgb(60, 60, 60)" stroke-width="1px" opacity="0.25"></line><line x1="0" y1="157.86681087233075" x2="290" y2="157.86681087233075" fill="rgb(0, 0, 0)" stroke="rgb(60, 60, 60)" stroke-width="1px" opacity="0.25"></line><line x1="0" y1="140.6145955647546" x2="290" y2="140.6145955647546" fill="rgb(0, 0, 0)" stroke="rgb(60, 60, 60)" stroke-width="1px" opacity="0.25"></line><line x1="0" y1="123.36238025717851" x2="290" y2="123.36238025717851" fill="rgb(0, 0, 0)" stroke="rgb(60, 60, 60)" stroke-width="1px" opacity="0.25"></line><line x1="0" y1="106.1101649496024" x2="290" y2="106.1101649496024" fill="rgb(0, 0, 0)" stroke="rgb(60, 60, 60)" stroke-width="1px" opacity="0.25"></line><line x1="0" y1="88.85794964202628" x2="290" y2="88.85794964202628" fill="rgb(0, 0, 0)" stroke="rgb(60, 60, 60)" stroke-width="1px" opacity="0.25"></line><line x1="0" y1="71.60573433445018" x2="290" y2="71.60573433445018" fill="rgb(0, 0, 0)" stroke="rgb(60, 60, 60)" stroke-width="1px" opacity="0.25"></line><line x1="0" y1="54.35351902687407" x2="290" y2="54.35351902687407" fill="rgb(0, 0, 0)" stroke="rgb(60, 60, 60)" stroke-width="1px" opacity="0.25"></line><line x1="0" y1="37.10130371929796" x2="290" y2="37.10130371929796" fill="rgb(0, 0, 0)" stroke="rgb(60, 60, 60)" stroke-width="1px" opacity="0.25"></line><line x1="0" y1="19.84908841172185" x2="290" y2="19.84908841172185" fill="rgb(0, 0, 0)" stroke="rgb(60, 60, 60)" stroke-width="1px" opacity="0.25"></line><line x1="0" y1="2.596873104145743" x2="290" y2="2.596873104145743" fill="rgb(0, 0, 0)" stroke="rgb(60, 60, 60)" stroke-width="1px" opacity="0.25"></line></g></g></g><g><g><line x1="0" y1="175.11902617990685" x2="290" y2="175.11902617990685" fill="rgb(0, 0, 0)" stroke="rgb(153, 153, 153)" stroke-width="1.5px"></line></g></g><g><g><line x1="21.89765730400973" y1="0" x2="21.89765730400973" y2="178" fill="rgb(0, 0, 0)" stroke="rgb(153, 153, 153)" stroke-width="1.5px"></line></g></g><g><g><g><g><g><path style="fill: none;" stroke="rgb(255, 112, 67)" stroke-width="2px" d="M22.07736693858393,7.078063373864296L22.100807325702302,-1.6887766148760193L22.350838121631625,31.09627657321471L22.37427850875,33.84519026807405L22.553988143324197,42.85037491836647L22.561801605696992,34.59095844671782L22.61649584230653,46.73425567067645L23.02279588569168,44.353059824822026L23.241572832129833,40.96941592154499L23.272826681620998,43.27161106833623L23.593178638905442,46.296803449189554L23.765074811106853,57.712259677464075L23.97603829517222,61.623741973582014L24.57767489787715,51.700651333524874L24.773011457196933,64.1600171657147L25.05429610261742,51.478812316195544L25.46840960837536,54.59510163777132L25.92159042599726,62.38113254763944L26.210688533790535,51.20825927233628L26.226315458536117,63.30102605915668L26.312263544636824,59.03286916403614L26.5076001039566,64.68649983179726L26.820138598868258,69.53298606970976L27.070169394797578,57.62021504425037L27.09360978191595,63.09392892502474L27.13267709377991,55.924766852593194L27.382707889709234,69.37996663836041L27.710873309366466,62.18561832173404L27.73431369648484,58.376052455613774L28.281256062580233,57.92663561642472L28.484406084272806,65.05700810869314L28.54691378325514,57.44260167651322L28.757877267320506,70.90711385724663L28.812571503930045,71.45647276707658L28.836011891048418,57.79659114679059L28.953213826640283,71.12503048065379L28.97665421375866,71.46794379493956L29.179804235451236,68.94506134044379L29.789254300528956,77.8889355515099L30.04709855883107,65.20567078706183L30.156487032050148,79.72636650571195L30.281502430014807,69.45165562660559L30.429958215097844,86.12739748918511L30.76593709712787,61.47324314101151L31.367573699832803,66.7447562988588L31.40664101169676,66.81776810787302L31.547283334407005,67.59400065139212L31.656671807626083,64.66979675163878L31.77387374321795,67.32968658310031L31.906702603555402,74.22276740547356L32.125479549993564,74.44463932879216L32.66460845371616,82.64281117319308L32.98496041100061,85.65407115818529L33.02402772286456,87.14243537810624L34.39138363810304,64.63694341194174L34.56327981030445,82.16669441430233L34.58672019742283,69.90960169821598L34.735175982505865,74.40384906448082L34.860191380470525,80.04668656775813L35.196170262500544,66.79602383015688L35.352439509956376,71.5268981653334L35.52433568215778,72.05696100304962L35.64153761774965,84.56862761460093L35.83687417706943,73.08192333833757L35.86031456418781,82.40969198273862L35.96970303740689,69.44126391519099L36.06346458588038,65.52799153325623L36.08690497299876,78.88452600076661L36.493205016383904,77.34607886516167L36.571339640111816,67.56377979083746L36.65728772621252,84.40112954796841L37.047960844852085,87.5518319531331L37.09484161908884,69.78838919610457L37.38393972688211,90.49325884767552L37.73554553365773,82.19894886499448L38.40750329771778,78.78200410056618L39.81392652482021,76.134710681801L39.97800923464883,85.65776979138036L40.65778046108168,76.03909903934934L40.79842278379192,57.91024843376334L41.18909590243149,78.54050704524104L41.50163439734314,60.43283473435558L41.64227672005338,80.13623034578659L41.798545967509206,76.32721730028622L42.14233831191203,80.83899697763937L42.15796523665761,76.30284054342768L42.18140562377599,78.11374927027013L42.22047293563994,77.32195877501951L42.36892872072297,82.87177104660257L42.618959516652296,88.45332443544503L42.92368454919116,73.44091451898547L43.31435766783073,75.55987595507057L43.751911560707036,84.17045856311636L44.08789044273706,91.15506410407271L44.29885392680243,83.59711776829923L44.38480201290313,83.72060078367096L44.736407819678746,81.33616698847142L45.134894400691095,84.1517811236011L45.603702143058584,76.27311985391007L45.75997139051441,96.67260876256792L46.142831046781176,69.99685521939054L46.3928618427105,75.71671906237424L46.697586875249364,90.26072538383023L47.49456003727408,74.67458638188005L47.51018696201966,81.43242358831296L47.69771005896665,85.51233189996108L47.72896390845782,79.64200213039616L47.8383523816769,67.71814178654944L47.846165844049686,75.10293680673212L47.93992739252319,83.30268155742061L48.197771650825295,71.88401370459236L48.72908709217511,86.47794499298381L48.94005057624047,76.90703399379365L49.19789483454259,79.3577075454136L49.8151583619931,79.79406070685855L50.12769685690475,73.70850602380955L50.19020455588708,85.50642856548427L50.541810362662694,79.01883508661142L51.12782004062204,69.76816517509316L51.159073890113206,73.96362615869656L51.16688735248599,81.33976032250078L51.22939505146833,60.89328166115126L51.35441044943298,71.76142573212906L51.36222391180578,80.36490064649041L51.9716739768835,86.92632858410947L52.03418167586584,86.98274261213092L52.08887591247537,73.23725277013436L52.127943224339326,79.95765612316245L52.932729848736834,74.55680268385161L53.159320257547776,92.66995055135325L53.323402967376396,85.70133073998907L54.026614580927614,65.86647570138491L54.43291462431277,87.64732513402335L54.76889350634279,73.71650217920457L54.823587742952334,79.8151468647891L55.08143200125444,75.79851018932835L55.315835872438186,84.7056744787538L55.34708972192935,82.07897362807999L56.52692254022084,78.70993998404322L56.651937938185505,73.85167340196851L56.8316475727597,69.23352840486704L57.00354374496111,92.88593230259076L57.245761078517646,74.25126399218995L57.60518034766604,83.75077557584062L58.05054770291514,80.87450912127025L58.16774963850701,87.15853956925982L58.37871312257238,61.439889630277406L58.55842275714658,82.68459519838069L58.67562469273845,91.80053482739136L58.91784202629498,78.87167292135388L59.160059359851516,81.32425502035208L59.28507475781617,82.22215416863465L59.988286371367394,69.33799833963283L60.074234457468094,76.27294216156795L60.52741527508999,88.31606697296073L61.08998456593096,74.39385222493759L61.21499996389563,86.07204961521634L61.39470959846983,70.59985747294458L61.410336523215406,80.3747395372851L61.425963447960996,91.39864739911818L61.49628460931612,66.51857369094454L61.74631540524544,70.37647845531696L61.85570387846452,73.4068699824765L61.91039811507406,77.71049295284291L62.12136159913942,78.4375705295757L62.152615448630584,90.463854055655L62.25419045947687,75.8280400241081L62.55110202964294,73.3007086798617L62.83238667506343,81.75508655679586L63.68405407369769,75.14273331016722L64.01221949335492,80.27259276536243L64.02003295572771,89.65725586522844L64.2935041387754,79.63144588903518L64.53572147233194,79.74529403074574L64.7544984187701,81.91893205861831L64.84825996724359,81.27614646402489L64.90295420385313,91.83480970582531L65.01234267707221,81.81803571428829L65.06703691368175,94.27481513572073L65.25456001062874,87.64655513387419L65.3639484838478,78.7956074365345L65.45771003232132,80.78894696794465L65.63741966689551,91.29677703750549L65.67648697875947,81.25602774217916L66.0046523984167,78.18731389990425L66.29375050620999,83.43904397699649L66.34063128044673,92.46631512729357L67.02040250687958,80.27631772334894L67.07509674348911,78.88076155559298L67.51265063636542,75.97915090807923L67.91113721737779,73.33611552432687L68.30181033601735,82.03940746656986L69.48945661668164,82.41477266748342L69.53633739091838,89.55067336595087L69.67697971362863,74.60227876103642L69.73948741261096,82.45861660759996L70.24736246684239,81.62792465182265L70.29424324107914,89.86729479480198L70.31768362819751,84.29816670751163L70.39581825192542,88.90654520699483L70.42707210141658,90.22391674422174L70.44269902616217,89.35178298554534L70.48176633802613,80.7736917513145L71.32562027428759,88.5574521479223L71.38812797326992,90.11424108195186L71.39594143564271,95.36011389295227L71.52095683360737,83.32802575036399L72.71641657664445,85.10864122347537L72.91175313596422,88.45026417844198L73.71653976036173,95.02212331466279L74.41193791154015,75.8100141231806L74.79479756780692,74.40174308116688L75.63083804169561,79.86604584900724L75.8964957623705,98.96856493379168L76.2715419562645,82.47566191004694L76.30279580575566,84.84361638581512L76.365303504738,89.85546838225478L76.67784199964964,71.30068265142987L76.69346892439522,83.88624953370595L76.74816316100477,80.5791186367025L76.77941701049593,89.19407774132253L77.13883627964432,86.55100287038303L77.24041129049061,81.6657862830881L77.26385167760898,92.51067240084286L77.39668053794644,65.94084323715748L77.41230746269203,88.8752581923875L77.56076324777506,84.01841314904969L78.03738445251533,71.59125569916702L78.12333253861604,78.12710252071992L78.36554987217256,84.74491158037115L78.39680372166373,92.80564168874781L78.4202441087821,78.71588938690502L79.2406576579252,83.95380552969756L79.33441920639869,86.328374109311L79.49850191622731,78.67090031836156L79.52194230334568,82.7695518815035L79.57663653995522,68.29948531795944L79.8501077230029,74.41686667383995L80.86585783146579,74.52402173733098L81.10026170264952,89.93852309919724L81.24090402535977,85.19718465942971L81.50656174603468,97.29087939514781L81.69408484298167,83.2450500077958L81.80347331620075,95.05134383314333L82.22540028433147,82.79454727096054L83.0145599839834,93.07948533153508L83.1864561561848,95.9133491283194L83.84278699549928,92.4464859781535L83.89748123210882,67.70155058675452L83.93654854397276,77.56894454935652L84.69445439413353,74.92592232799988L85.72583142734199,81.85032965216757L85.76489873920595,80.33850346189007L86.12431800835435,87.10388930226378L86.60093921309462,90.22094204279085L87.08537388020767,94.4865849203304L87.16350850393557,75.50589038905798L87.21820274054512,88.72402226565714L87.26508351478188,91.40683440925102L87.37447198800095,94.20906238794166L87.46823353647444,82.36157026401571L87.52292777308399,82.93002781002369L87.57762200969353,87.98544075507209L87.70263740765819,82.74687307369182L87.99173551545147,73.52797060422436L88.21051246188964,77.88480914045421L88.64025289239315,79.41887319828706L88.9527913873048,85.4009846134358L88.96841831205037,88.01732007748645L89.08562024764224,75.8397479750939L89.12468755950621,80.118480855169L89.24970295747086,67.85796591619756L89.32002411882598,86.19567741694091L89.51536067814577,86.83227010435184L90.24982614118815,86.30676145555195L90.26545306593374,100.4908091602752L90.93741082999378,83.68462795619018L91.11712046456799,82.66937288773981L91.14837431405915,81.40056400949216L91.23432240015987,77.81247519481916L91.24213586253265,84.21557267441909L91.2890166367694,87.65116197237337L91.53123397032593,76.95129913057295L91.76563784150967,96.87084760438569L92.12505711065806,84.71002465053661L92.15631096014924,85.32296451285316L93.22675530522164,74.71424468016018L93.39865147742306,84.2527827670968L93.52366687538772,87.05016040296758L94.0706092414831,90.73151137245765L94.2581323384301,88.48494050994515L94.46909582249546,85.78915024417927L95.23481513502901,92.82404271795313L95.26606898452019,84.87531143468952L96.320886404847,71.55498013658486L96.33651332959259,91.86137142037202L96.46934218993003,96.77234681607526L96.5943575878947,88.94162957276504L97.18036726585404,102.00172056405074L97.28975573907313,88.07199666927391L97.75075001906781,90.56262467307754L97.96171350313318,76.86942902924457L97.98515389025155,68.85437901518625L98.17267698719854,82.9324496908347L98.36801354651833,87.52109775914566L98.47740201973741,82.9869420090822L98.71180589092116,84.20391737301617L98.7586866651579,80.83260005332336L98.78212705227628,87.86042432059992L99.22749440752538,76.4527865553783L99.55565982718261,84.03815674261763L99.60254060141935,78.35118572651812L99.6650483004017,85.3308093006975L100.43858107530804,86.06179610895671L100.61047724750945,93.17609731606083L100.93082920479388,88.01187742685954L101.0089638285218,87.33502097096573L101.07928498987692,86.24029135720659L101.25118116207832,90.36306959168856L101.44651772139811,84.75973901914067L101.71998890444581,89.46785557213123L101.85281776478325,75.51877637445997L101.92313892613838,77.43003520621039L102.39976013087865,72.64141085984765L102.60291015257123,87.85453414851882L102.70448516341752,89.05856429627008L102.985769808838,88.55247676234319L103.00921019595637,92.24285055409382L103.14985251866662,85.1130769508303L103.91557183120017,82.78052273832942L104.22811032611182,82.19485535992806L104.31405841221253,84.59284642271092L104.37656611119485,81.67842876416942L104.43907381017718,89.88881531179103L104.47032765966834,90.86247720979162L104.57190267051465,87.57314187179075L104.68129114373372,82.49662302521823L105.37668929491215,81.00196059894913L105.46263738101284,77.11179480268669L105.74392202643334,79.87707593661385L105.97832589761708,74.45607745066586L106.35337209151106,82.70360827898661L106.61121634981318,90.8220554925602L106.71279136065947,77.63112370669981L106.75185867252341,83.48288791711302L107.00188946845273,91.8209497031406L107.08002409218065,70.40615307644956L107.33786835048276,98.30793113061286L107.34568181285555,93.15487953417316L107.60352607115766,88.77933065243876L107.72854146912233,92.49494991916492L107.74416839386791,90.60072980866364L107.87699725420536,101.1021892786999L108.0098261145428,76.12605640662039L108.0254530392884,93.59593825208513L108.2051626738626,84.25856105881435L108.22078959860818,78.65143313510357L108.40831269555517,87.5540893039977L108.41612615792798,97.54410414505229L108.76773196470357,76.7298813099064L108.97088198639615,87.42572303981684L109.30686086842617,86.99572073430292L109.31467433079897,82.04577806609443L109.33811471791734,77.7468672333929L109.5490782019827,76.15467803609604L109.7366012989297,79.38786917518755L109.8147359226576,79.84077404924028L110.02569940672296,80.50573828060834L110.53357446095441,80.22373395247966L110.81485910637491,75.40605361758278L110.97112835383072,85.37625247189303L111.15865145077771,91.70299489396791L111.69778035450032,79.87713516739456L111.7993553653466,90.86969020264178L112.5181939036434,83.34038523993752L112.53382082838898,84.31746277962536L112.55726121550737,81.22219380400158L112.63539583923527,83.04662689243807L112.72134392533599,80.42471057260555L113.21359205482185,79.60353502892798L113.49487670024232,80.24250352876491L114.16683446430238,78.10019200268681L114.34654409887656,97.4560477177393L114.86223261548079,82.65599989369646L114.89348646497196,86.40917805658668L115.19039803513803,89.80090367083088L115.33885382022106,84.13298522252443L115.72171347648784,87.87213227158571L116.3936712405479,94.91660038824003L116.46399240190303,84.00201938519045L116.86247898291538,90.33174967109196L117.1125097788447,95.02846758939596L117.20627132731819,102.64066932029411L117.737586768668,91.52747434714897L117.87822909137824,82.94594772763729L117.88604255375103,84.0965714547873L118.0188714140885,96.24998397985054L118.05793872595245,81.06850967166876L118.1985810486627,83.35989849158051L118.72989649001251,101.82164582831545L118.87835227509554,86.51477337618587L119.4409215659365,72.93657100249042L119.57375042627397,79.83889840785132L119.67532543712025,100.88371983467283L119.92535623304957,90.8422992571652L120.33946973880751,81.60926695590094L120.39416397541704,88.60358634489272L120.44885821202658,91.46561766850063L120.5348062981273,79.90347970241204L120.54261976050009,72.73385694613057L120.96454672863082,85.30053579055999L121.04268135235873,76.83678628787892L121.09737558896828,87.68344274785694L121.10518905134106,81.80191177954116L121.76933335302833,72.91738022954239L121.85528143912903,75.99522219324354L122.04280453607603,85.42567726779141L122.2381410953958,91.62265821173997L122.29283533200534,81.98082164325594L122.3319026438693,74.21061193303358L122.66006806352654,86.40888848388103L122.73038922488165,93.13098320475811L122.80071038623677,81.29579792082284L123.46485468792403,87.7062926668129L123.69925855910778,96.94518881536682L123.75395279571732,86.98673081803165L123.82427395707245,76.1845369307686L124.30089516181272,86.14608809109609L124.33214901130387,83.3110857470827L124.37121632316784,92.40385955964034L124.55873942011482,88.9065057198077L124.64468750621552,88.52872521928097L124.67594135570668,95.10615204888794L124.87909137739926,94.03903056013459L124.97285292587276,91.80535226422194L125.37915296925792,92.16816053962633L125.87921456111656,78.47714327228368L125.89484148586214,88.27596115322639L125.97297610959005,88.84576784479486L126.21519344314657,86.81562625497406L126.58242617466777,85.5911022570993L126.76213580924197,76.7819385849472L127.15280892788154,87.65748650351297L127.41846664855645,93.0586097719359L127.9029013156695,75.41644532899737L128.14511864922605,89.045270276601L128.63736677871188,93.1160504668229L128.79363602616772,75.49488004504492L128.85614372515005,95.05930050135122L129.19212260718007,81.46534932118641L129.22337645667125,84.41494348226811L129.40308609124546,88.03565529471321L129.42652647836383,83.84281362785647L129.6140495753108,88.73657919116634L129.63748996242916,90.92198440080537L129.73125151090267,95.5572405123324L130.5985458342825,73.96882530500278L130.6141727590281,94.52107039709573L130.7704420064839,79.88277525395713L131.37989207156164,92.47447581263498L132.2393729325687,84.42401237291365L132.4815902661252,83.79091430156424L132.6847402878178,91.39852893755678L133.19261534204924,75.34365728071023L133.33325766475946,83.59457084472898L133.42701921323297,82.99316782225397L133.45045960035134,75.33916890377247L133.86457310610928,91.46540707016923L133.89582695560046,92.66413277244857L134.33338084847676,93.09799165990609L134.48965009593257,95.70968737946829L134.8178155155898,88.9858881283465L135.06003284914635,85.97040301433077L135.0912866986375,93.57743850491197L135.11472708575587,82.47812327804508L135.16942132236542,89.18341620079585L135.24755594609334,83.45743184380609L135.56790790337777,87.90534099596698L135.7319906132064,86.33437616175564L135.74761753795198,94.41396798318755L135.77887138744316,80.04089511364488L136.2633060545562,77.80453168900698L136.57584454946786,93.8653724923089L136.58365801184067,91.57479315973345L136.7086734098053,84.18593095927577L136.76336764641488,81.10886557692163L136.92745035624347,96.68190141394055L137.31812347488304,72.79946490755682L137.41188502335655,90.26165991392578L137.69316966877702,89.24420014419366L137.77911775487772,89.37739042640295L138.04477547555265,84.14232394228206L138.56046399215685,83.9419133051718L138.59171784164803,83.92765184941788L139.0527121216427,88.41838485602763L139.341810229436,87.6383154741585L139.36525061655436,78.72262195231168L139.90437952027696,83.01276662946906L139.92781990739533,94.16519870423154L140.02939491824162,91.62357957943982L140.38100072501723,91.63418847038365L140.4200680368812,95.03782605274715L140.43569496162678,99.40972895086935L140.45913534874515,83.70242351519273L140.53726997247304,87.79321054689682L140.55289689721863,82.93300909265245L141.01389117721334,92.2369340572213L141.06077195145008,90.27967265245759L141.0685854138229,79.62907007660917L141.15453349992356,83.79488934506924L141.4905123819536,89.33916682925543L141.51395276907198,88.60766668756342L141.88118550059318,80.25022985504783L141.89681242533877,87.85893696988448L142.2874855439783,99.43691587921239L142.35780670533345,84.31737722405323L142.42031440431577,96.0543710359773L142.8422413724465,88.49439111006632L142.98288369515674,92.91866059952854L143.0375779317663,74.86917924008561L143.13915294261258,84.3285784228041L143.2954221900684,89.7714330668318L143.39699720091468,93.47608147673205L143.45169143752423,91.43165868756378L143.6314010720984,77.59555891348609L143.63921453447122,87.72880036348035L143.67046838396237,88.84610348588554L143.86580494328217,90.5428810795096L144.0845818897203,85.60161243007528L144.16271651344823,84.43713528143847L144.2799184490401,84.59846676567992L144.5377627073422,88.82853168761007L144.62371079344294,100.09775369952474L144.94406275072737,83.00099944770257L145.15502623479273,87.68242924338713L145.3659897188581,86.47266687230331L145.3738031812309,80.16255513721049L145.60039359004185,81.22902508737607L145.9988801710542,89.77021554522845L146.21765711749234,86.12268535152025L146.4364340639305,93.4205493292233L146.5223821500312,88.13628839112897L146.75678602121494,96.85546076379842L147.07713797849937,89.28380579289094L147.45999763476615,91.61884111698352L147.6865880435771,93.10188114783897L148.48356120560183,89.84807769706254L148.49137466797464,84.26757729987703L148.4991881303474,81.55059557701489L148.53825544221138,94.8784820902582L148.62420352831208,95.31534200393806L148.81954008763188,85.40628247770985L149.03050357169724,90.95477850972172L149.29616129237212,91.24668095942579L149.65558056152054,78.66966305316464L150.03062675541452,85.0039738527739L150.2962844760894,93.32546418260013L150.31972486320777,86.63752587859557L150.32753832558058,88.34347108083301L150.55412873439153,97.72407358162187L150.72602490659295,84.43353536621125L150.88229415404876,84.17038616993996L151.00730955201342,89.29524391476463L151.2026461113332,92.95739094891097L151.73396155268304,85.98937002655168L151.91367118725722,89.52951481484389L152.88254052148332,80.47686656561417L153.14819824215826,89.1942027840818L153.22633286588615,82.28975623301127L153.64825983401687,90.55630672313579L153.68732714588086,89.13701217471333L154.07018680214762,91.30878772359266L154.28115028621298,84.65005677567294L154.2889637485858,71.75000735384893L154.58587531875185,89.18212628601607L154.96873497501863,87.87727218711123L155.29690039467587,77.39624075521994L155.67194658856982,75.63630998696989L155.73445428755218,88.89757503431713L156.64081592279598,95.26207378849176L156.75801785838783,69.68805225359232L156.789271707879,92.94881564810463L156.89866018109808,88.21902721057432L157.0549294285539,93.2319716858581L157.5862448699037,88.63655814615117L157.60968525702208,94.22345546765268L157.7737679668507,79.57866468223023L157.8831564400698,85.7731776769828L157.90659682718817,84.31614654005416L157.9769179885433,81.02181607288061L158.16444108549027,91.33353302753113L158.250389171591,68.07504014627915L158.35977764481004,94.76714138493077L158.39103149430122,92.68542294751265L158.7895180753136,79.80002327211606L159.09424310785246,85.90402505275536L159.1411238820892,77.91944598477022L159.20363158107153,93.3731581234624L159.55523738784714,78.70979519769038L159.82089510852202,82.44982412726436L160.05529897970575,88.4733444393229L160.13343360343367,94.04172227005768L160.3990913241086,97.45065771669526L160.6725625071563,72.73071771475328L160.77413751800256,87.74177848565235L160.8210182922393,94.83101849132089L160.9304067654584,86.7569285512966L161.32889334647078,91.47165920813241L162.06335880951315,83.45697115995617L162.3915242291704,83.07789416345183L162.67280887459086,85.01142376874685L162.93065313289299,93.57294354677634L163.079108917976,93.55360798747547L163.13380315458554,94.43631773110644L163.50884934847952,83.21676401941082L163.94640324135582,87.23031411307713L163.96203016610144,86.77028838294423L164.36051674711376,82.73917307220032L165.03247451117386,77.53823668016052L165.11060913490175,84.07321478359643L165.39970724269503,83.40313696149428L165.45440147930455,92.49188308096404L165.47002840405017,80.05300451769986L166.91551894301656,88.16820061953261L166.9545862548805,84.42987622020333L167.19680358843704,101.44855772186004L167.20461705080982,87.52633639263904L167.25149782504656,92.41498178401693L167.39995361012961,86.50623756256667L167.63435748131334,89.7684715277966L167.64217094368615,98.76180344075041L167.6734247931773,85.28532006111698L167.75937287927803,82.03965755208837L168.58759989079388,85.1401388364141L168.86107107384157,89.05879463819504L169.04859417078856,90.11462279142752L170.3221885375536,92.88405008000393L170.3690693117903,76.26552515158428L170.6347270324652,72.84013012910891L170.71286165619313,89.55387182810887L170.84569051653057,89.79767888388145L171.04102707585037,75.68098315801629L171.11916169957826,97.50773644570015L171.26761748466132,98.49774603917498L171.56452905482737,87.43922765781731L171.7364252270288,74.85552325453446L172.65841378701816,90.06367773882438L173.32255808870542,84.38365646766077L173.57258888463474,81.54542933669795L173.92419469141035,98.02634141794911L174.11953125073012,90.84239139393517L174.32268127242273,98.67701128757399L174.33049473479548,91.73087942928369L174.3461216595411,79.47163466149846L174.36956204665947,90.16010544981019L174.82274286428134,73.84432878516125L174.89306402563648,93.46955292845892L175.4087525422407,81.19247969568183L175.43219292935908,81.01273401983936L175.89318720935375,86.55991381228002L176.0494564568096,78.46460609036806L176.09633723104636,86.10693654505089L176.45575650019472,89.5262110535202L176.6979738337513,82.0351823375463L176.7682949951064,84.81068407174381L176.83080269408873,87.22554932582939L177.24491619984664,77.94248017726616L177.307423898829,90.93415961683894L177.3933719849297,74.85962334079873L178.39349516864698,89.28395057924376L178.41693555576535,84.43025134848112L178.52632402898442,80.10004033877655L179.73741069676709,90.8464388306166L179.78429147100383,86.28862367426089L179.815545320495,80.66981412435574L180.3546742242176,87.24953121081658L180.47968962218226,89.55812328192383L180.51875693404622,95.21616335224846L180.55001078353737,92.06700752857992L180.7297204181116,84.01242425900074L181.49543973064513,79.50877236099974L181.66733590284653,82.38863214959949L181.76891091369282,88.26623414279527L181.93299362352144,90.59046314000832L182.08926287097728,84.99098256820619L182.21427826894194,93.26266639265839L182.6127648499543,85.32688690677533L182.80810140927406,92.02595401635435L183.40973801197902,99.16299984324871L183.4331783990974,97.03215276383573L183.46443224858854,98.65403632585877L183.58163418418042,95.72800285310147L183.69102265739951,85.34155639679629L184.3160996472228,84.91178443320736L184.44111504518744,89.51518754711142L185.34747668043124,84.71296644597824L186.05850175635527,91.1969863344153L186.33197293940296,85.0512005285884L186.667951821433,92.42339255487687L186.95704992922626,85.8550411971133L186.96486339159907,82.47226601195325L187.24614803701954,94.71484718676716L187.41023074684816,92.84483930317802L187.66807500515029,95.50975058860365L187.77746347836936,76.28355763370965L188.27752507022802,85.29020989112396L188.68382511361315,85.02833086603887L188.94166937191525,78.52956909440441L189.2698347915725,87.00306535111018L189.4339175014011,87.26116676862596L189.6292540607209,87.59601153434028L190.37934644850884,95.3650300477507L190.57468300782864,87.26795856481333L190.8012734166396,91.86824219093367L190.84815419087633,86.81495497279275L190.92628881460425,99.44022622173395L191.13725229866964,93.04471686326195L191.160692685788,93.06648088457166L191.535738879682,88.16869420937182L191.63731389052825,81.04034214484518L191.67638120239224,100.73251023273387L191.9732927725583,75.5050940641174L192.059240858659,83.96513177120771L192.22332356848761,93.79590794893903L192.52023513865367,95.73030627235106L192.6921313108551,84.89982639670303L192.91090825729327,86.99249594735348L192.96560249390276,72.6125194012599L192.99685634339394,82.63458467587311L193.09061789186745,94.26548299716096L193.106244816613,78.72686682492878L193.52817178474376,88.84193100644484L193.83289681728263,92.86652435011348L194.23138339829498,84.54840359358948L194.41890649524197,81.38102443305776L194.5908026674434,87.95945160473885L194.80176615150876,102.23757753281329L195.5674854640423,93.43975984576491L195.7393816362437,91.915613653101L196.34101823894864,92.97837180767583L196.4582201745405,88.24219960822522L196.71606443284261,96.5632950661801L196.95046830402634,90.1053103964613L197.05985677724544,92.40924297948652L197.13799140097333,92.74398244603515L197.19268563758288,100.08439386787713L197.49741067012175,85.43978077479677L197.92715110062525,90.04756038527509L198.05997996096275,87.39851636788023L198.13030112231786,91.93823981132985L198.18499535892738,82.1647397985391L198.22406267079137,97.49388960541118L198.84132619824186,94.56496040559725L199.09135699417118,93.46532779943539L199.27888009111817,96.0365952205683L199.3570147148461,99.27968448123521L199.56016473653864,83.2571923178401L199.84144938195914,90.64639015938842L200.16180133924357,82.91163336201623L200.16961480161638,96.74820040114167L200.3258840490722,88.36853886346644L200.56028792025594,92.17097729230868L201.19317837245205,83.39389695970448L201.3103803080439,80.54879905818001L201.47446301787252,94.46748628415236L201.6776130395651,93.57948525744519L201.75574766329302,94.82545079793474L201.92764383549445,84.22348985543985L202.130793857187,76.5789020498924L203.28718628836012,98.04257065186195L203.51377669717107,75.42327661237186L203.77943441784598,83.66272572972548L204.0138382890297,91.59370094117367L204.03727867614808,86.78766274528401L204.24824216021344,85.31344810075342L204.49827295614276,79.80608455534141L204.58422104224348,89.77910674353187L204.94364031139187,95.57725393501244L204.97489416088305,83.34768378835979L205.1780441825756,89.46607864871011L205.20148456969397,82.87924728736697L205.41244805375936,92.46934905950516L205.42026151613214,88.21088626882648L205.8109346347717,84.92705281223321L205.96720388222752,89.96159019768244L206.06877889307384,97.34916906455821L206.31099622663035,88.04747512606254L206.85012513035295,81.9647240333002L206.87356551747132,81.60240276653717L206.96732706594483,79.12048826869487L207.0063943778088,85.95415403682435L207.55333674390417,92.29161064900876L207.6314713676321,74.70858485000404L207.64709829237768,100.23273406755087L208.82693111066914,84.7661951742374L209.16290999269918,88.65730866299107L209.20197730456314,81.1489384906667L209.319179240155,102.74388882746727L209.53795618659316,97.95421807064544L209.6160908103211,80.88187348167108L209.8661216062504,83.36429473174829L210.01457739133343,92.01847777558994L210.13177932692528,78.82025402250513L210.53807937031047,96.51673967254692L210.6865351553935,88.23673721400478L210.69434861776628,87.94646690136899L210.88968517708608,86.9591424366194L210.95219287606838,88.91083614799692L210.98344672555956,101.01038814980686L211.23347752148888,86.17847416574537L211.50694870453657,86.91807576199808L211.9366891350401,88.61474805645646L212.22578724283338,94.95209936947519L212.31954879130686,95.90275998096912L212.42893726452596,87.00292056475735L212.6477142109641,82.81718659158508L212.6555276733369,97.18698860579333L212.9368123187574,103.04542615083251L213.34311236214256,86.77117026345692L213.3899931363793,84.9329758903036L213.44468737298882,75.15292100444827L213.56970277095348,88.1067585563492L213.60877008281744,86.05921627939718L213.61658354519025,90.50777038894795L213.9134951153563,82.23983784727366L214.0150701262026,88.00856708433801L214.24166053501355,90.41415284944665L214.9917529228015,93.2528735702487L215.1089548583934,92.25063611115745L215.22615679398527,92.55620112761052L215.42930681567782,100.38972854240524L215.8043530095718,86.96335440324721L215.96843571940042,100.68832407032883L216.03094341838275,92.52444026675757L216.39817614990395,99.69259541591715L216.49975116075024,92.91898307822348L216.58569924685094,84.47470733999825L216.66383387057886,88.02819221634454L216.72634156956116,92.77757946108993L216.9763723654905,88.31523774203087L217.37485894650285,82.874949765167L217.53894165633147,85.99327267688028L217.82803976412475,79.8965497010697L218.10151094717244,83.64434444411373L219.10944759326253,90.62894998507008L220.60963236883848,88.56363847390693L221.24252282103456,85.84440598137805L221.32065744476247,91.16311949024843L221.60194209018297,83.40041892677975L221.68789017628364,90.94233346457607L221.70351710102926,86.33830513687566L221.750397875266,103.09822710123102L222.1176306067872,95.35118320746172L222.14107099390557,93.51602276651998L222.22701908000627,87.60403401452672L222.48486333830837,83.17935649079745L222.97711146779423,91.1138921302857L223.06305955389493,87.4875468124759L223.88347310303803,88.86464930144366L224.6023116413348,97.17792629634565L224.76639435116343,88.85760741973777L224.82890205014576,93.00524283852178L224.969544372856,94.35396062113672L225.50085981420585,87.87566637483437L225.5477405884426,93.00141916256746L225.7821444596263,85.27384245205614L226.03998871792842,105.88941182991931L226.0478021803012,80.64073181103016L226.30564643860333,94.80129780180329L226.47754261080476,99.22097361516202L226.49316953555032,89.22604920050688L226.55567723453265,77.95133188838244L227.00104458978174,95.32938628016271L227.3057696223206,85.55687344705035L227.31358308469342,88.75644124629568L227.80583121417928,89.07522788924142L227.82145813892484,83.96044595833423L227.95428699926228,98.58754648391982L228.62624476332235,83.3848478126525L228.6731255375591,94.43467243164245L228.91534287111563,82.87199480732967L228.92315633348844,100.49878557207666L229.0325448067075,76.37630645509397L229.25132175314567,108.14834876320322L231.23594119583464,79.86046499322538L231.60317392735587,88.65344549984961L231.8297643361668,95.58452615864329L231.86101818565797,98.58221571365648L231.94696627175867,84.61971087235904L232.22825091717917,79.23575136794447L232.24387784192473,92.35773852506563L232.2595047666703,89.43581830096834L232.64236442293708,86.7798903506161L232.8220740575113,85.85196777771458L232.8298875198841,91.92560391144637L232.97834330496713,90.53427945391184L233.1736798642869,86.41490369872139L233.35338949886108,91.88139142424991L234.1581761232586,91.39533705659663L234.54103577952537,82.07876302974859L234.79106657545472,98.17342460883238L234.84576081206424,95.20682463249084L235.5177185761243,88.48122213315652L235.85369745815433,94.33875805408942L236.39282636187693,85.64204730970243L236.56472253407836,86.90017490382982L236.91632834085394,89.38706478725125L237.6820476533875,87.48855373574786L237.87738421270726,87.14656178916195L238.31493810558356,89.33024272496272L238.3618188798203,86.85477121982143L238.4008861916843,96.37466477323206L238.51027466490336,97.29028708734076L238.72123814896872,84.05337247206066L239.59634593472134,77.34753989108569L239.66666709607648,84.18547685662371L239.8463767306507,78.17756714587955L239.97920559098813,86.95774722267392L240.1901690750535,86.06890380264117L240.43238640861006,96.63539866989021L240.5574018065747,100.53311310009344L240.5652152689475,95.80479226968504L240.6433498926754,85.69156424237082L241.65128653876548,82.41315369281085L241.76848847435733,84.31569901859994L242.47170008790857,95.95212554608682L242.94832129264884,87.19037940448706L243.37024826077956,94.64690290010203L243.97188486348452,92.0429729940099L244.3938118316152,89.25340723999417L244.5032003048343,86.17682228508352L245.07358305804806,81.12484472531594L245.17515806889438,91.55550366881756L246.0268254675286,80.94151229664196L246.0424523922742,95.02380810131392L246.15965432786606,91.77241995015062L246.82379862955332,87.2756454039091L246.83161209192613,75.04607525725648L246.8550524790445,90.64013802142524L247.1128967373466,101.14738894557475L247.40199484513988,87.8232932022965L247.76922757666108,77.81852989684666L248.1989680071646,92.15237224596983L248.39430456648438,86.50388807493208L248.42555841597553,93.79603957289615L248.5818276634314,66.56639267456607L248.89436615834302,93.47215908280988L249.53507007291194,89.52640190825801L250.33985669730941,81.24476731264758L250.56644710612036,87.48376920490657L251.01181446136945,86.35115163509055L251.13682985933414,95.4241555292888L251.30091256916276,88.90070768449658L251.55875682746486,86.78539223202371L251.72283953729348,93.0615581485754L252.1291395806786,86.71333469669858L252.19164727966097,95.50977691339509L252.54325308643658,84.36496586574981L252.7073357962652,83.65210367638593L252.75421657050194,93.52872447838203L252.95736659219452,92.57329907964035L253.4886820335443,78.33387717615689L253.5199358830355,80.81275116058973L254.31690904506019,96.98478130166839L254.69976870132697,84.60303411699196L254.80134371217326,90.53820842903185L254.8716648735284,86.03017345325874L255.10606874471213,98.1179845980936L255.95773614334638,86.32283274071625L255.97336306809194,98.97038792559779L256.0280573047015,86.00465814917112L256.1296323155478,88.9704618005721L256.2859015630036,92.670556021556L256.36403618673154,90.6175250255921L256.50467850944176,97.59247594929373L256.832843929099,91.50069545307299L257.5126151555318,91.55046905245774L257.5360555426502,81.42245965475901L257.6610709406149,99.97755470188316L257.70013825247884,81.01370145592418L257.71576517722445,108.20302535499069L257.84078057518906,83.98345382603874L258.1923863819647,75.62880742141408L258.4736710273852,95.7336495208619L258.7549556728057,85.63061576902659L259.528488447712,97.36264735776724L259.716011544659,89.29709981256L259.82540001787805,87.90795373151579L259.8957211792332,93.25727639161434L260.13012505041695,89.83421769437784L260.28639429787273,93.9577461854154L260.3645289216007,86.80540565470372L260.46610393244697,91.41623235978936L260.55205201854767,86.78684009555201L261.0286732232879,90.71926376324768L261.17712900837097,102.80216533448198L261.7787656110759,88.86486648097292L262.2475733534434,93.11660986864065L262.27882720293456,76.13116341615662L262.39602913852644,77.63363114308294" fill="none"></path></g></g></g></g></g></g><g transform="translate(40, 178)" clip-path="url(#clip_1)"><clipPath id="clip_1"><rect width="290" height="22"></rect></clipPath><g><g><line x1="21.89765730400973" y1="0" x2="21.89765730400973" y2="5" style="visibility: inherit;" fill="rgb(0, 0, 0)" stroke="rgb(204, 204, 204)" stroke-width="1px"></line><line x1="60.96496916796631" y1="0" x2="60.96496916796631" y2="5" style="visibility: inherit;" fill="rgb(0, 0, 0)" stroke="rgb(204, 204, 204)" stroke-width="1px"></line><line x1="100.03228103192288" y1="0" x2="100.03228103192288" y2="5" style="visibility: inherit;" fill="rgb(0, 0, 0)" stroke="rgb(204, 204, 204)" stroke-width="1px"></line><line x1="139.09959289587945" y1="0" x2="139.09959289587945" y2="5" style="visibility: inherit;" fill="rgb(0, 0, 0)" stroke="rgb(204, 204, 204)" stroke-width="1px"></line><line x1="178.16690475983606" y1="0" x2="178.16690475983606" y2="5" style="visibility: inherit;" fill="rgb(0, 0, 0)" stroke="rgb(204, 204, 204)" stroke-width="1px"></line><line x1="217.2342166237926" y1="0" x2="217.2342166237926" y2="5" style="visibility: inherit;" fill="rgb(0, 0, 0)" stroke="rgb(204, 204, 204)" stroke-width="1px"></line><line x1="256.3015284877492" y1="0" x2="256.3015284877492" y2="5" style="visibility: inherit;" fill="rgb(0, 0, 0)" stroke="rgb(204, 204, 204)" stroke-width="1px"></line></g><g transform="translate(0, 8)"><text x="21.89765730400973" y="0" dx="0em" dy="0.95em" style="text-anchor: middle; visibility: inherit; font-family: &quot;Helvetica Neue&quot;, sans-serif; font-size: 12px; font-weight: 200;" fill="rgb(50, 49, 63)" stroke="none" stroke-width="1px">0</text><text x="60.96496916796631" y="0" dx="0em" dy="0.95em" style="text-anchor: middle; visibility: inherit; font-family: &quot;Helvetica Neue&quot;, sans-serif; font-size: 12px; font-weight: 200;" fill="rgb(50, 49, 63)" stroke="none" stroke-width="1px">5k</text><text x="100.03228103192288" y="0" dx="0em" dy="0.95em" style="text-anchor: middle; visibility: inherit; font-family: &quot;Helvetica Neue&quot;, sans-serif; font-size: 12px; font-weight: 200;" fill="rgb(50, 49, 63)" stroke="none" stroke-width="1px">10k</text><text x="139.09959289587945" y="0" dx="0em" dy="0.95em" style="text-anchor: middle; visibility: inherit; font-family: &quot;Helvetica Neue&quot;, sans-serif; font-size: 12px; font-weight: 200;" fill="rgb(50, 49, 63)" stroke="none" stroke-width="1px">15k</text><text x="178.16690475983606" y="0" dx="0em" dy="0.95em" style="text-anchor: middle; visibility: inherit; font-family: &quot;Helvetica Neue&quot;, sans-serif; font-size: 12px; font-weight: 200;" fill="rgb(50, 49, 63)" stroke="none" stroke-width="1px">20k</text><text x="217.2342166237926" y="0" dx="0em" dy="0.95em" style="text-anchor: middle; visibility: inherit; font-family: &quot;Helvetica Neue&quot;, sans-serif; font-size: 12px; font-weight: 200;" fill="rgb(50, 49, 63)" stroke="none" stroke-width="1px">25k</text><text x="256.3015284877492" y="0" dx="0em" dy="0.95em" style="text-anchor: middle; visibility: inherit; font-family: &quot;Helvetica Neue&quot;, sans-serif; font-size: 12px; font-weight: 200;" fill="rgb(50, 49, 63)" stroke="none" stroke-width="1px">30k</text></g><line x1="0" y1="0" x2="290" y2="0" fill="rgb(0, 0, 0)" stroke="rgb(204, 204, 204)" stroke-width="1px"></line></g></g></g></g></svg>