<svg viewBox="0 0 330 200" xmlns="http://www.w3.org/2000/svg"><g><g><g><g><g><line x1="40" y1="164.0958969009223" x2="35" y2="164.0958969009223" style="visibility: inherit;" fill="rgb(0, 0, 0)" stroke="rgb(204, 204, 204)" stroke-width="1px"></line><line x1="40" y1="143.6490661819751" x2="35" y2="143.6490661819751" style="visibility: inherit;" fill="rgb(0, 0, 0)" stroke="rgb(204, 204, 204)" stroke-width="1px"></line><line x1="40" y1="123.20223546302786" x2="35" y2="123.20223546302786" style="visibility: inherit;" fill="rgb(0, 0, 0)" stroke="rgb(204, 204, 204)" stroke-width="1px"></line><line x1="40" y1="102.75540474408064" x2="35" y2="102.75540474408064" style="visibility: inherit;" fill="rgb(0, 0, 0)" stroke="rgb(204, 204, 204)" stroke-width="1px"></line><line x1="40" y1="82.30857402513342" x2="35" y2="82.30857402513342" style="visibility: inherit;" fill="rgb(0, 0, 0)" stroke="rgb(204, 204, 204)" stroke-width="1px"></line><line x1="40" y1="61.8617433061862" x2="35" y2="61.8617433061862" style="visibility: inherit;" fill="rgb(0, 0, 0)" stroke="rgb(204, 204, 204)" stroke-width="1px"></line><line x1="40" y1="41.41491258723897" x2="35" y2="41.41491258723897" style="visibility: inherit;" fill="rgb(0, 0, 0)" stroke="rgb(204, 204, 204)" stroke-width="1px"></line><line x1="40" y1="20.968081868291762" x2="35" y2="20.968081868291762" style="visibility: inherit;" fill="rgb(0, 0, 0)" stroke="rgb(204, 204, 204)" stroke-width="1px"></line><line x1="40" y1="0.5212511493445504" x2="35" y2="0.5212511493445504" style="visibility: inherit;" fill="rgb(0, 0, 0)" stroke="rgb(204, 204, 204)" stroke-width="1px"></line></g><g transform="translate(30, 0)"><text x="0" y="164.0958969009223" dx="0em" dy="0.3em" style="text-anchor: end; visibility: inherit; font-family: &quot;Helvetica Neue&quot;, sans-serif; font-size: 12px; font-weight: 200;" fill="rgb(50, 49, 63)" stroke="none" stroke-width="1px">0</text><text x="0" y="143.6490661819751" dx="0em" dy="0.3em" style="text-anchor: end; visibility: hidden; font-family: &quot;Helvetica Neue&quot;, sans-serif; font-size: 12px; font-weight: 200;" fill="rgb(50, 49, 63)" stroke="none" stroke-width="1px">20</text><text x="0" y="123.20223546302786" dx="0em" dy="0.3em" style="text-anchor: end; visibility: inherit; font-family: &quot;Helvetica Neue&quot;, sans-serif; font-size: 12px; font-weight: 200;" fill="rgb(50, 49, 63)" stroke="none" stroke-width="1px">40</text><text x="0" y="102.75540474408064" dx="0em" dy="0.3em" style="text-anchor: end; visibility: hidden; font-family: &quot;Helvetica Neue&quot;, sans-serif; font-size: 12px; font-weight: 200;" fill="rgb(50, 49, 63)" stroke="none" stroke-width="1px">60</text><text x="0" y="82.30857402513342" dx="0em" dy="0.3em" style="text-anchor: end; visibility: inherit; font-family: &quot;Helvetica Neue&quot;, sans-serif; font-size: 12px; font-weight: 200;" fill="rgb(50, 49, 63)" stroke="none" stroke-width="1px">80</text><text x="0" y="61.8617433061862" dx="0em" dy="0.3em" style="text-anchor: end; visibility: hidden; font-family: &quot;Helvetica Neue&quot;, sans-serif; font-size: 12px; font-weight: 200;" fill="rgb(50, 49, 63)" stroke="none" stroke-width="1px">100</text><text x="0" y="41.41491258723897" dx="0em" dy="0.3em" style="text-anchor: end; visibility: inherit; font-family: &quot;Helvetica Neue&quot;, sans-serif; font-size: 12px; font-weight: 200;" fill="rgb(50, 49, 63)" stroke="none" stroke-width="1px">120</text><text x="0" y="20.968081868291762" dx="0em" dy="0.3em" style="text-anchor: end; visibility: hidden; font-family: &quot;Helvetica Neue&quot;, sans-serif; font-size: 12px; font-weight: 200;" fill="rgb(50, 49, 63)" stroke="none" stroke-width="1px">140</text><text x="0" y="0.5212511493445504" dx="0em" dy="0.3em" style="text-anchor: end; visibility: hidden; font-family: &quot;Helvetica Neue&quot;, sans-serif; font-size: 12px; font-weight: 200;" fill="rgb(50, 49, 63)" stroke="none" stroke-width="1px">160</text></g><line x1="40" y1="0" x2="40" y2="178" fill="rgb(0, 0, 0)" stroke="rgb(204, 204, 204)" stroke-width="1px"></line></g></g><g transform="translate(40, 0)" clip-path="url(#clip_0)"><clipPath id="clip_0"><rect width="290" height="178"></rect></clipPath><g><g><g><line x1="15.91549995415547" y1="0" x2="15.91549995415547" y2="178" fill="rgb(0, 0, 0)" stroke="rgb(60, 60, 60)" stroke-width="1px" opacity="0.25"></line><line x1="57.55581532279799" y1="0" x2="57.55581532279799" y2="178" fill="rgb(0, 0, 0)" stroke="rgb(60, 60, 60)" stroke-width="1px" opacity="0.25"></line><line x1="99.1961306914405" y1="0" x2="99.1961306914405" y2="178" fill="rgb(0, 0, 0)" stroke="rgb(60, 60, 60)" stroke-width="1px" opacity="0.25"></line><line x1="140.836446060083" y1="0" x2="140.836446060083" y2="178" fill="rgb(0, 0, 0)" stroke="rgb(60, 60, 60)" stroke-width="1px" opacity="0.25"></line><line x1="182.47676142872552" y1="0" x2="182.47676142872552" y2="178" fill="rgb(0, 0, 0)" stroke="rgb(60, 60, 60)" stroke-width="1px" opacity="0.25"></line><line x1="224.11707679736804" y1="0" x2="224.11707679736804" y2="178" fill="rgb(0, 0, 0)" stroke="rgb(60, 60, 60)" stroke-width="1px" opacity="0.25"></line><line x1="265.75739216601056" y1="0" x2="265.75739216601056" y2="178" fill="rgb(0, 0, 0)" stroke="rgb(60, 60, 60)" stroke-width="1px" opacity="0.25"></line></g><g><line x1="0" y1="164.0958969009223" x2="290" y2="164.0958969009223" fill="rgb(0, 0, 0)" stroke="rgb(60, 60, 60)" stroke-width="1px" opacity="0.25"></line><line x1="0" y1="143.6490661819751" x2="290" y2="143.6490661819751" fill="rgb(0, 0, 0)" stroke="rgb(60, 60, 60)" stroke-width="1px" opacity="0.25"></line><line x1="0" y1="123.20223546302786" x2="290" y2="123.20223546302786" fill="rgb(0, 0, 0)" stroke="rgb(60, 60, 60)" stroke-width="1px" opacity="0.25"></line><line x1="0" y1="102.75540474408064" x2="290" y2="102.75540474408064" fill="rgb(0, 0, 0)" stroke="rgb(60, 60, 60)" stroke-width="1px" opacity="0.25"></line><line x1="0" y1="82.30857402513342" x2="290" y2="82.30857402513342" fill="rgb(0, 0, 0)" stroke="rgb(60, 60, 60)" stroke-width="1px" opacity="0.25"></line><line x1="0" y1="61.8617433061862" x2="290" y2="61.8617433061862" fill="rgb(0, 0, 0)" stroke="rgb(60, 60, 60)" stroke-width="1px" opacity="0.25"></line><line x1="0" y1="41.41491258723897" x2="290" y2="41.41491258723897" fill="rgb(0, 0, 0)" stroke="rgb(60, 60, 60)" stroke-width="1px" opacity="0.25"></line><line x1="0" y1="20.968081868291762" x2="290" y2="20.968081868291762" fill="rgb(0, 0, 0)" stroke="rgb(60, 60, 60)" stroke-width="1px" opacity="0.25"></line><line x1="0" y1="0.5212511493445504" x2="290" y2="0.5212511493445504" fill="rgb(0, 0, 0)" stroke="rgb(60, 60, 60)" stroke-width="1px" opacity="0.25"></line></g></g></g><g><g><line x1="0" y1="164.0958969009223" x2="290" y2="164.0958969009223" fill="rgb(0, 0, 0)" stroke="rgb(153, 153, 153)" stroke-width="1.5px"></line></g></g><g><g><line x1="15.91549995415547" y1="0" x2="15.91549995415547" y2="178" fill="rgb(0, 0, 0)" stroke="rgb(153, 153, 153)" stroke-width="1.5px"></line></g></g><g><g><g><g><g><path stroke="rgb(255, 112, 67)" stroke-width="2px" d="M24.601669740054298,-4.365061702928557L24.718262623086495,1.067585374352376L24.851511632266153,0.3494252696516469L25.009744830666996,7.110628229631715L25.36785154283732,6.645598716492856L26.009112399514418,10.090340249809373L26.050752714883057,11.283477553329647L26.200657850210174,10.25086029606382L26.31725073324237,10.095771168699684L26.442171679348295,8.999511015527446L26.583748751601682,9.078790796327382L26.81693451766608,11.919756672268676L27.391570869753345,11.710935178282199L27.733021455776218,14.97583177542458L27.774661771144856,15.809487592589761L29.23207280904735,14.468245612850325L29.41529019666937,12.226842968333727L29.440274385890557,13.523174870004851L29.5985075842914,13.680865055447214L29.731756593471054,17.636082181858313L30.08986330564138,15.508196655587028L30.25642456711595,17.472111417195606L30.43964195473798,17.03514217498642L30.564562900843907,22.069382740187535L30.77276447768712,24.30649768983332L30.797748666908305,27.688024784778605L30.914341549940502,26.389277213334964L31.014278306825247,24.874810070325537L31.03926249604643,26.74827723539559L31.472321775880314,28.180562866271856L31.5556024066176,27.18066763902732L31.64721110042861,30.037814303590693L32.06361425411504,29.698710980134706L32.11358263255741,31.885373756920217L32.42172096628536,36.400899328734056L32.79648380460315,38.866899872610674L33.51269722894379,37.36223973769316L35.01174858221493,39.68216769975686L35.18663790676323,42.322052950504485L35.91117939417761,43.49934263181672L36.061084529504726,42.32144655941801L36.47748768319115,42.98268500588969L36.81061020614029,43.38783002830078L36.960515341467406,43.30259513663154L37.127076602941976,43.797280169776L37.49351137818602,46.17266399237769L37.51016750433349,46.05173761788737L37.53515169355467,46.76271267995935L37.57679200892331,46.63898070751526L37.735025207324156,48.47152273993697L38.001523225683464,50.50204006854564L38.32631768555888,50.722159895010975L38.7427208392453,49.50157455074418L39.2090923713741,49.36653187793888L39.567199083544416,52.61078078105709L39.7920567865351,53.005792919945634L39.8836654803461,55.47362729700778L40.25842831866389,56.15910647317605L40.683159535424046,51.02802937566301L41.182843319847755,51.73403165205805L41.349404581322325,51.455711324589345L41.75747967193502,50.9356726274778L42.02397769029433,50.826273049959966L42.34877215016974,53.93084120982711L43.19823458369005,55.63476201176465L43.214890709837505,56.41179849851824L43.414764223606994,54.266735201752326L43.44807647590191,55.72105054990027L43.564669358934104,53.38624651446021L43.57299742200783,54.4332106985175L43.672934178892575,56.26727153575048L43.947760260325616,57.95982143961521L44.51406854933915,58.557365238971485L44.73892625232982,56.716822848056964L45.01375233376286,56.81885243952783L45.67166931658741,57.255601997316035L46.00479183953655,56.96384947931939L46.07141634412638,57.2219571132636L46.44617918244417,58.25674008134152L47.0707839129738,58.10968748619844L47.10409616526872,58.16279600145887L47.11242422834245,58.54161905776766L47.17904873293227,57.10185866518543L47.31229774211193,57.04163838375642L47.320625805185664,58.34411144205805L47.97021472493649,61.61047449336398L48.036839229526315,61.12663888059704L48.095135671042414,62.390107870115116L48.13677598641106,64.5520446270907L48.99456648300509,60.71544850728232L49.236080312143216,64.47313195289274L49.41096963669151,63.54377406136433L50.16049531332708,63.129682061917606L50.59355459316097,64.43872979634651L50.951661305331285,63.812927495202274L51.009957746847384,64.1366089385729L51.284783828280425,63.55691862675238L51.534625720492286,65.90229386864021L51.56793797278719,68.23929840024414L52.825475496920205,66.88164904488136L52.958724506099855,67.20734739864191L53.15026995679561,64.53877734260375L53.33348734441764,67.2256520948672L53.59165729970323,67.98907449372953L53.974748201094734,63.74858099419541L54.44944779629726,65.57576117645843L54.57436874240319,66.72850297089786L54.799226445393856,62.80536832348072L54.99077189608961,65.31347351509952L55.115692842195536,62.6480723270748L55.373862797481124,63.67478209342907L55.632032752766705,64.12817445585146L55.76528176194636,63.90400713074743L56.514807438581926,64.1827325629283L56.606416132392944,64.18251632958031L57.08944379066919,66.52009273673521L57.68906433197765,66.91403699330054L57.822313341157304,68.71851468177795L58.01385879185306,68.98719872637824L58.03051491800051,67.59414265354447L58.04717104414797,68.7856371005502L58.12212361181153,68.98265091306618L58.388621630170846,66.5940343408657L58.50521451320304,67.78603376714322L58.56351095471914,68.11435215367668L58.78836865770981,70.25656907906995L58.82168091000472,72.59093475771058L58.929945729963194,72.60653840175607L59.246412126764874,68.58142116279024L59.54622239741911,70.07729323489382L60.45398127245551,67.39270440194768L60.80375992155211,67.88724400238783L60.81208798462583,69.67331784121231L61.103570192206334,68.95456772112684L61.361740147491915,70.25503832512851L61.59492591355631,71.21358488181276L61.694862670441054,72.72171433603307L61.75315911195715,73.83050620078633L61.86975199498935,74.56458813196362L61.92804843650545,70.21680221802114L62.12792195027494,65.38998889688581L62.244514833307136,62.28682685942756L62.34445159019188,62.182266074117265L62.53599704088763,64.80089120889362L62.577637356256275,61.673152588890815L62.927416005352875,64.46779594049944L63.23555433908083,66.33213149724979L63.2855227175232,69.48941249256148L64.01006420493758,71.03778322742983L64.06836064645368,69.37455048147041L64.53473217858247,67.84778741303884L64.95946339534262,66.59267504578546L65.37586654902906,66.47256333232583L66.64173213623579,67.62857010565266L66.69170051467816,68.13124848618567L66.84160565000528,66.24485735561042L66.9082301545951,67.26203779876069L67.44955425438745,67.29997279352101L67.49952263282982,68.86968813786099L67.52450682205101,68.47033970184208L67.60778745278829,66.59661919726743L67.6410997050832,68.40165361443267L67.65775583123066,68.19207001597134L67.69939614659931,70.7605592603965L68.59882695856199,73.10652127928836L68.66545146315181,72.68637781789936L68.67377952622554,67.18854454432255L68.8070285354052,69.25668217429275L70.08122218568566,71.69733658110641L70.28942376252887,73.71296983010023L71.1472142591229,74.06256515595682L71.88841187268474,75.17177775770622L72.29648696329744,75.9931753246098L73.1875897121864,76.41038059250918L73.47074385669315,76.59842075688803L73.87049088423213,76.26208542271647L73.90380313652703,76.24216116804429L73.97042764111687,76.78533286866138L74.30355016406601,74.2095863358409L74.32020629021346,73.23793311768527L74.37850273172957,73.77428600596866L74.41181498402447,76.30937980553406L74.794905885416,79.74266942325899L74.90317070537446,79.98337903895995L74.92815489459565,82.16084879731012L75.06973196684903,80.20313511336357L75.08638809299649,81.88666765883077L75.24462129139734,83.15734908741308L75.75263313889477,83.30763192874733L75.84424183270578,82.62986259644613L76.10241178799137,82.10823744645414L76.13572404028628,81.13177921829235L76.16070822950746,82.61825789431025L77.03515485224895,81.58277749053482L77.1350916091337,82.36727415292609L77.309980933682,82.85822076231281L77.33496512290318,82.22686734006156L77.39326156441928,82.29158800389668L77.68474377199978,78.43275510861785L78.76739197158449,75.97795277644506L79.01723386379633,75.98432141290483L79.16713899912347,77.32330527762231L79.45029314363022,77.59071337696115L79.65016665739971,78.97753136389929L79.7667595404319,77.60845554044238L80.21647494641324,78.70069228749404L81.05760931685982,80.21564346671218L81.24082670448186,81.05406037256455L81.94038400267505,82.92083078450852L81.99868044419115,82.63556168165327L82.04032075955979,81.65865405915771L82.84814287771147,82.17792438796111L83.94744720344363,82.4573499522005L83.98908751881225,81.61432266982922L84.37217842020377,81.34978526429185L84.88019026770121,81.37260066700011L85.39653017827239,82.79704635184306L85.47981080900966,83.69010252211244L85.53810725052575,83.85627803095086L85.58807562896814,86.12489384687169L85.70466851200034,86.83747738719933L85.80460526888508,87.35357295309811L85.86290171040118,88.07645037574561L85.92119815191728,86.66202451763144L86.05444716109693,87.3471062748221L86.36258549482488,84.80671593995328L86.59577126088928,83.7740713946069L87.05381472994435,82.40158121773703L87.38693725289349,82.45670260928324L87.40359337904094,81.15026370342227L87.52851432514687,80.29709941771198L87.57015464051553,80.90475775357484L87.70340364969518,80.9092403383183L87.77835621735873,81.66776824971717L87.98655779420194,81.3059008153449L88.76939572313242,80.61615534833966L88.78605184927989,82.98929750274866L89.50226527362052,83.14861409379692L89.69381072431628,78.67383428506253L89.72712297661121,80.42714979810971L89.81873167042221,81.42647907659834L89.82705973349593,81.53174101222837L89.87702811193832,82.11729012818904L90.1351980672239,81.55824400910153L90.38503995943576,83.39391914243646L90.76813086082726,84.72248329073021L90.80144311312218,84.02815707473147L91.94238775422298,80.9766263950797L92.12560514184501,81.32221909753211L92.25885415102466,82.85674514083911L92.84181856618567,83.24640574663694L93.04169207995514,82.52136682354318L93.26654978294582,84.55093019641316L94.0826999641712,85.14519943333173L94.11601221646612,82.8506565145049L95.24030073141947,82.1598982929223L95.25695685756692,83.94989145006228L95.39853392982032,81.33443325614266L95.53178293899997,81.3640384681788L96.1563876695296,84.20809299051767L96.27298055256179,84.41637841335992L96.76433627391178,86.0610528091267L96.98919397690246,85.42420641183747L97.01417816612364,81.70517490620031L97.21405167989312,83.18672181791614L97.42225325673634,83.74048209764302L97.53884613976854,82.92237978482828L97.78868803198039,83.27582194369518L97.83865641042276,83.33030140956124L97.86364059964394,84.80049365798708L98.33834019484647,84.22638855235986L98.68811884394307,85.09091813945129L98.73808722238545,84.66363115598588L98.80471172697527,84.72297711806253L99.62918997127439,84.11898005185074L99.81240735889642,85.96083848797018L100.15385794491928,84.68870049579515L100.23713857565657,84.7152469750727L100.31209114332013,81.80031387218551L100.49530853094215,82.45530919241453L100.70351010778536,83.4548789559786L100.99499231536586,83.21140768815893L101.13656938761925,82.73699464710002L101.2115219552828,82.49392755671714L101.71953380278023,82.06533865922322L101.93606344269718,83.2445931621744L102.04432826265565,81.69660019212048L102.34413853330987,82.92147008263935L102.36912272253106,83.47622187277099L102.51902785785818,84.60252551300621L103.33517803908357,84.67530485423516L103.66830056203271,86.09897348663405L103.75990925584372,87.27563802546919L103.82653376043356,85.57881405731969L103.89315826502337,84.76118855039324L103.92647051731831,83.24282641337832L104.03473533727677,85.65513106724013L104.15132822030897,86.2246340491036L104.8925258338708,82.62357309142789L104.98413452768182,82.49148532030098L105.28394479833604,83.78674704799886L105.53378669054791,80.17030015867213L105.93353371808686,80.93290571375L106.20835979951991,80.96239322324719L106.31662461947839,79.80511313138153L106.35826493484701,80.19739917600435L106.62476295320633,81.52427873416045L106.70804358394362,79.06126968401429L106.98286966537667,78.59487391352775L106.99119772845039,80.65847652241105L107.26602380988342,80.13342555107734L107.39927281906307,81.50934273440775L107.41592894521054,83.40385144067784L107.55750601746392,85.06437775072979L107.6990830897173,84.87237769541792L107.71573921586476,86.17818189365481L107.90728466656051,85.16726376268437L107.92394079270798,86.26984635478837L108.12381430647746,87.83495798387139L108.13214236955119,89.66574556059503L108.50690520786898,89.46576059249324L108.72343484778592,89.90519439708687L109.08154155995624,88.92476259718734L109.08986962302997,89.85031799388118L109.11485381225116,88.89479812300988L109.33971151524182,89.61974499923744L109.5395850290113,86.74692521695867L109.6228656597486,86.57026672348977L109.84772336273926,84.56840103227486L110.38904746253162,85.21243568672922L110.68885773318584,86.08759034114067L110.85541899466041,85.7115418040462L111.0552925084299,86.19621903329926L111.62992886051715,87.60076211574696L111.73819368047563,88.55382069471028L112.50437548325866,88.07964599050152L112.52103160940612,87.32587626896627L112.54601579862731,88.55949703085608L112.62929642936457,89.84884604831436L112.7209051231756,89.9186853363111L113.2455730968205,88.12853799033924L113.54538336747473,86.71889160419379L114.26159679181536,81.75544731115137L114.45314224251112,83.14639363543293L115.0027944053772,82.58784239021684L115.03610665767211,83.21854990503924L115.3525730544738,83.23361857088133L115.51080625287464,84.27131300308892L115.91888134348734,85.63134573987087L116.635094767828,88.54836796328519L116.71004733549155,90.14020900990235L117.1347785522517,90.65410104200866L117.40127657061102,90.63506307135495L117.50121332749576,92.0041251750283L118.0675216165093,89.77236327066471L118.21742675183641,87.00857812398557L118.22575481491015,87.36462104995833L118.36733188716352,87.76389649806096L118.40897220253215,83.36862044770237L118.55887733785929,84.90777567811104L119.12518562687282,83.91732354967645L119.28341882527367,82.99232954271824L119.88303936658211,82.38988041752033L120.0246164388355,83.50317938081527L120.13288125879396,85.39159682506128L120.39937927715329,88.1525169285537L120.84076662006089,89.47467709298466L120.89906306157698,87.67025473312218L120.95735950309309,89.09441983549782L121.04896819690411,89.72406310377578L121.05729625997783,89.3293406171916L121.50701166595917,87.04099523832548L121.59029229669646,85.38674788816805L121.64858873821255,86.12740809498048L121.65691680128627,87.24820351937497L122.3648021625532,84.95200237818356L122.45641085636423,83.26035770078734L122.65628437013369,84.35535080118852L122.86448594697691,86.48150367508451L122.92278238849302,88.35740865214937L122.96442270386166,88.8481938089523L123.31420135295825,89.96340461460545L123.38915392062181,88.23846563666368L123.46410648828537,86.77146483334555L124.17199184955228,89.21040518742312L124.42183374176415,90.78353892341352L124.48013018328024,89.98260554525936L124.55508275094381,88.41260134265343L125.06309459844125,88.33220410718197L125.09640685073616,89.20655799314412L125.1380471661048,90.04387090050749L125.33792067987429,88.95469307060965L125.4295293736853,88.63240049632643L125.4628416259802,88.8611585480955L125.67937126589715,87.94482195272596L125.77930802278189,88.5690677939393L126.21236730261577,84.09872629780902L126.7453633393344,84.73082185679439L126.76201946548186,85.0203255958652L126.84530009621915,86.27528148921272L127.10347005150471,86.32698618432144L127.49488901596996,87.39784557369741L127.68643446666573,86.54243126274078L128.10283762035215,87.14990036253096L128.38599176485891,88.81595602147897L128.90233167543008,89.03526197668711L129.16050163071566,88.59414752367488L129.68516960436057,91.48612092031225L129.85173086583512,91.63460194605301L129.91835537042496,93.0664569782898L130.2764620825953,92.67735888114434L130.3097743348902,93.7529601898895L130.50131978558596,94.21573357666489L130.52630397480715,90.96142295102213L130.7261774885766,90.91090940109498L130.7511616777978,88.04609101984548L130.85109843468254,89.10276816866386L131.77551343586643,89.2851745689391L131.79216956201387,91.49887481554924L131.95873082348845,88.50987821699358L132.60831974323926,88.61133657741992L133.5244066813494,86.35001628819685L133.78257663663499,87.46567199181L133.9991062765519,87.79553968827676L134.5404303763443,88.69233456075236L134.69033551167138,87.1396325928905L134.79027226855612,86.72271266045671L134.8152564577773,85.84740746723485L135.2566438006849,87.46358710460734L135.28995605297985,87.85011625118436L135.75632758510864,89.86882726986067L135.92288884658322,90.86681669374258L136.2726674956798,90.82308565295891L136.53083745096538,90.38714277266202L136.56414970326028,90.09568735965067L136.58913389248147,90.87166568025732L136.64743033399756,91.03540983115666L136.73071096473487,91.62051523628875L137.07216155075773,90.88118742663039L137.24705087530603,91.24192214721691L137.2637070014535,91.45015105759688L137.2970192537484,91.0747131174939L137.81335916431956,90.51771353430718L138.1464816872687,91.06193495573353L138.15480975034242,90.43775169397003L138.28805875952207,88.6967935163892L138.3463552010382,88.50673181102522L138.5212445255865,90.6482543682371L138.9376476792729,90.61117127373521L139.03758443615766,90.45690804447929L139.3373947068119,90.70690629045795L139.4290034006229,88.5970356456051L139.71215754512966,87.80617428146049L140.26180970799575,88.59064900768789L140.29512196029066,87.23597481047992L140.78647768164063,87.3296029365712L141.0946160153686,86.52189373492233L141.11960020458977,87.99902766384132L141.69423655667705,85.70150316111925L141.7192207458982,85.72446417117798L141.8274855658567,87.3647215937345L142.2022484041745,87.69196641792247L142.24388871954312,87.09988067807008L142.2605448456906,89.9749976145581L142.28552903491178,90.84573711924567L142.36880966564905,91.29672174734904L142.38546579179652,91.4613197205487L142.8768215131465,92.85526739547169L142.92678989158887,93.31548886079526L142.9351179546626,92.67930507358162L143.0267266484736,93.8230352860713L143.38483336064394,91.1697608964826L143.40981754986512,90.84227461234954L143.80123651433036,89.34826363831749L143.81789264047782,89.94699534524904L144.23429579416424,92.17342308412184L144.3092483618278,92.42219291377411L144.37587286641764,93.09330841660642L144.82558827239896,90.80310749892917L144.97549340772608,91.62553327120466L145.0337898492422,89.83722816246805L145.14205466920063,90.80679876375055L145.30861593067522,92.03281356107905L145.4168807506337,92.63638412574774L145.4751771921498,94.2451992624518L145.66672264284554,91.11759581224327L145.6750507059193,93.18925617628224L145.7083629582142,93.97532224381848L145.9165645350574,95.1229097920509L146.1497503011218,95.6396123096599L146.23303093185908,93.59374520914886L146.357951877965,90.3175274731839L146.63277795939806,90.6141725795895L146.72438665320905,90.17398903415291L147.06583723923194,89.67920216990537L147.2906949422226,89.95525551723821L147.51555264521326,85.87188706441802L147.523880708287,84.5501680837037L147.76539453742512,84.79843462680549L148.19012575418526,85.43696696670222L148.42331152024968,87.51095789704894L148.65649728631408,90.27882231182315L148.7481059801251,90.96958225607489L148.99794787233694,92.01442996866099L149.3393984583598,91.80477057977828L149.7474735489725,92.79270640615805L149.98898737811064,85.5105593529871L150.83844981163094,86.39374332403906L150.84677787470466,87.34704934328289L150.85510593777838,87.62866726744265L150.89674625314706,87.59293248172362L150.98835494695805,89.45076697944774L151.19655652380126,91.39672641915125L151.42141422679194,93.9950884623196L151.7045683712987,95.63090647127453L152.08765927269022,94.94092070735773L152.4874063002292,94.57707430091507L152.77056044473596,94.8927307517328L152.79554463395712,94.66376667188894L152.80387269703087,94.462346303117L153.04538652616898,92.48753933476141L153.228603913791,88.44809962864552L153.3951651752656,88.05344712402079L153.52841418444527,88.62797340228447L153.73661576128848,89.96254699139101L154.30292405030198,91.05013892884415L154.49446950099775,90.79929854928038L155.5271493221401,92.18258902959461L155.81030346664684,93.22507397308452L155.89358409738412,90.58067491993829L156.3432995033655,91.2211537716424L156.38493981873413,92.20364625769457L156.79301490934682,92.05401207772043L157.0178726123375,90.63128957818152L157.02620067541122,89.63077938829375L157.3426670722129,90.93365117903348L157.7507421628256,90.80306285279151L158.10052081192222,92.07370451425656L158.50026783946115,93.14814875356163L158.566892344051,94.56866240155745L159.5329476606035,95.07158310630668L159.65786860670943,93.76733592920043L159.69118085900433,94.29127820927027L159.80777374203652,95.43571919876335L159.9743350035111,92.37260994751806L160.54064329252466,92.89630038134636L160.56562748174585,93.3607775272679L160.74051680629415,92.45193095987126L160.85710968932634,92.90102120658827L160.88209387854752,94.14584831502317L160.95704644621108,95.287921234424L161.15691995998057,95.90474761223827L161.24852865379157,94.75473000552968L161.36512153682378,94.44477710481205L161.39843378911868,94.1020680484606L161.82316500587885,92.83629715069017L162.14795946575424,92.04125110595203L162.1979278441966,92.94570869964784L162.26455234878645,91.94578319218215L162.63931518710422,90.61884350024717L162.922469331611,90.05079799889445L163.17231122382287,89.50193600781031L163.25559185456012,88.97229121331098L163.53874599906692,89.08215840447892L163.8302282066474,88.29915380745258L163.93849302660587,88.46524121538957L163.98846140504827,88.86974805558526L164.10505428808045,89.69823739627208L164.5297855048406,88.51796996796062L165.31262343377108,90.14273637235625L165.6624020828677,91.38366833782347L165.96221235352192,92.88853691895322L166.23703843495494,93.06585436128707L166.3952716333558,92.11881270830956L166.4535680748719,92.82882096843451L166.85331510241087,89.9380106885134L167.31968663453966,92.10797628532762L167.3363427606871,93.0394518427348L167.76107397744727,92.29244332060833L168.47728740178792,92.79461302001727L168.56056803252523,92.55902702701712L168.86870636625315,94.52454598175797L168.92700280776924,94.95257457241233L168.9436589339167,92.40528822030811L170.48435060255647,92.41652073315535L170.52599091792513,94.14305341716769L170.7841608732107,96.56995579371791L170.79248893628446,95.85788205389953L170.8424573147268,95.63867832354502L171.00069051312767,96.4758914589546L171.2505324053395,96.64021026462461L171.25886046841325,97.9169553407018L171.29217272070815,97.46360094436984L171.38378141451915,98.16181076805677L172.26655610033436,99.1561491508946L172.55803830791487,98.70795216621516L172.75791182168436,92.96612871646592L174.1153861027021,92.98291050809522L174.16535448114448,89.15377484072965L174.44850862565127,89.00525833435856L174.53178925638855,88.83753457193501L174.67336632864192,90.53728267530659L174.88156790548516,92.05441969528756L174.96484853622243,93.33344777284901L175.12308173462327,94.60044057436906L175.43954813142494,94.85703006027943L175.62276551904696,90.56105109796796L176.60547696174692,91.7023865752052L177.31336232301388,92.68537248497758L177.57986034137318,93.53069290596541L177.95462317969097,93.44116622954286L178.16282475653418,94.70889815800099L178.3793543964511,95.79432707138488L178.38768245952485,97.42535411066679L178.4043385856723,96.13077751672591L178.42932277489348,95.90576628881672L178.91235043316973,93.56499404772333L178.98730300083326,95.05442122825112L179.53695516369936,92.51914565714577L179.56193935292055,91.76035000602656L180.05329507427052,90.90406171192231L180.2198563357451,90.57241297178243L180.26982471418748,91.55610684556166L180.652915615579,92.56725315631843L180.91108557086457,90.52299376547522L180.9860381385281,89.54980535134139L181.05266264311797,90.37252510966255L181.49404998602557,90.16810333695243L181.56067449061538,88.38885076562013L181.6522831844264,87.77207834131438L182.71827525786364,87.8781544352802L182.74325944708485,87.71586993449993L182.85985233011704,87.54975186986933L184.15070210654497,89.23976542894496L184.2006704849873,90.53562005445633L184.23398273728222,90.87088065741756L184.8086190893695,91.81307651232294L184.94186809854918,92.26997929220033L184.9835084139178,92.35030087143109L185.0168206662127,93.22120501803374L185.20836611690848,92.99851980855411L186.02451629813388,93.90701209775219L186.2077336857559,86.41493830462498L186.31599850571436,88.6699016440388L186.49088783026266,89.81560033160555L186.65744909173722,89.54275357061138L186.7906981009169,90.98679538831152L187.21542931767704,92.16292443873864L187.42363089452027,92.61853485757118L188.06489175119737,94.30659490176924L188.08987594041855,94.6651934313996L188.12318819271346,95.73913945011262L188.2481091388194,96.56171242903355L188.36470202185157,94.15252386044207L189.03094706774985,91.81129498893608L189.16419607692953,91.63719098036046L190.130251393482,91.27928195931484L190.88810513319132,92.16639990058731L191.1795873407718,91.73591454084365L191.53769405294216,92.8891152283921L191.84583238667008,91.55134754459873L191.8541604497438,89.34866947195934L192.15397072039806,89.72141824801146L192.32886004494637,92.22278929348984L192.6036861263794,93.94814158421102L192.72027900941157,94.42004180848026L193.25327504613023,95.95486353219013L193.6863343259641,96.70269078439772L193.96116040739713,96.43558019556542L194.31093905649374,95.99726403077062L194.485828381042,94.73826521212327L194.69402995788522,96.20875746444449L195.49352401296318,97.81230146994113L195.7017255898064,96.78436626705877L195.94323941894453,97.6258186891254L195.99320779738687,97.69430545574599L196.07648842812418,93.62468709079415L196.30134613111485,90.46418558658485L196.32633032033604,88.11393891266322L196.72607734787502,90.43961571088398L196.83434216783346,90.91259954502823L196.8759824832021,92.53232215521112L197.1924488800038,90.6520610028177L197.2840575738148,92.18076838019292L197.4589468983631,92.9698275909654L197.77541329516478,94.45593491092129L197.9586306827868,95.94423906445188L198.1918164488512,95.69335321852012L198.25011289036732,93.18775241154295L198.28342514266222,93.28714855478161L198.38336189954697,94.11643974123128L198.4000180256944,93.00708333635298L198.84973343167576,93.5454835076563L199.17452789155118,94.06645618586126L199.59925910831134,94.28995088677576L199.79913262208083,93.21034428875656L199.98235000970286,93.20701495870132L200.20720771269353,93.81648194327985L201.0233578939189,95.41467984747835L201.20657528154092,95.23127684298416L201.847836138218,95.19586842561345L201.97275708432397,95.45030713630004L202.247583165757,96.5465326675899L202.49742505796885,97.63013658586897L202.61401794100107,97.47916513501144L202.69729857173834,98.65905042914036L202.75559501325444,100.19935996772466L203.08038947312986,100.62841346268245L203.53843294218493,99.14076394926167L203.68001001443832,97.44512038042551L203.75496258210185,99.20860662420765L203.81325902361795,97.69800878627501L203.8548993389866,98.22057342630288L204.51281632181113,97.85507905946073L204.7793143401705,98.04255928511556L204.97918785393992,96.50659424666848L205.06246848467723,96.69116237114523L205.27899812459418,98.38079694014928L205.5788083952484,97.61169559866488L205.92025898127127,98.27313252812452L205.928587044345,99.8021549472128L206.09514830581958,99.73199742033277L206.34499019803144,100.46452497987819L207.01956330700344,100.2402271451573L207.14448425310934,98.5272343067661L207.31937357765764,99.93296178277403L207.5359032175746,99.43967974047784L207.6191838483119,99.61991250647586L207.8024012359339,97.79092608664966L208.01893087585083,97.77988758606348L209.25148421076267,96.63176549040142L209.49299803990078,97.66110646688477L209.77615218440755,98.77583480348903L210.02599407661944,98.3116033106712L210.0509782658406,93.34698826889961L210.27583596883127,94.32871886403161L210.54233398719057,95.7759690478027L210.6339426810016,96.25286336473901L211.0170335823931,97.43113988710613L211.05034583468802,97.55475984286684L211.26687547460494,96.81430487529003L211.29185966382613,97.3769733178933L211.5167173668168,97.8489640384287L211.52504542989053,96.7945149419438L211.94144858357697,97.65528235644027L212.10800984505153,98.02468721262885L212.21627466501002,98.96560773506559L212.4744446202956,97.46332560077873L213.04908097238285,95.91021228189906L213.07406516160407,95.89291459289886L213.17400191848878,97.25197702138526L213.21564223385744,97.21753212057885L213.79860664901844,95.15338467706407L213.88188727975572,93.44896369368284L213.89854340590315,95.28944901893377L215.15608093003618,94.06959980587709L215.5141876422065,91.88297085598472L215.55582795757513,91.33527002139819L215.6807489036811,93.64597254565602L215.9139346697455,94.21185605500331L215.99721530048276,95.284345444338L216.26371331884206,95.24638195905494L216.4219465172429,96.37354586181834L216.54686746334886,96.17011476059189L216.97992674318274,92.62749097392442L217.13815994158355,92.54526770579074L217.14648800465727,93.92363990192247L217.3546895815005,95.7806501675617L217.42131408609035,95.28137192604798L217.45462633838525,95.94140981324963L217.72112435674455,96.53863941845411L218.01260656432504,96.39770740939012L218.4706500333801,96.31466276244618L218.7787883671081,95.14211593280336L218.8787251239928,95.87223418896406L218.99531800702502,96.0282655134611L219.22850377308941,96.0677033963557L219.23683183616313,96.55893168188233L219.53664210681737,97.60611128661637L219.96970138665125,98.38525747621365L220.01966976509362,97.6500288499024L220.07796620660974,97.64389485166407L220.21121521578937,97.97753903501616L220.25285553115805,97.74192973264523L220.26118359423177,97.66700538107739L220.57764999103344,91.6303800624781L220.68591481099193,90.9816471191839L220.92742864013005,91.80530942467496L221.72692269520795,91.4040912290486L221.8518436413139,92.52523699219208L221.9767645874198,95.18922854678756L222.19329422733676,95.81219814898941L222.59304125487571,95.43060268742222L222.76793057942402,97.42029010049957L222.83455508401386,95.6453434718959L223.2259740484791,97.36570121404179L223.33423886843758,98.57417826640832L223.42584756224858,96.74208997883257L223.50912819298586,97.30602468121133L223.5757526975757,98.12172639204225L223.842250715935,96.4741247174244L224.26698193269516,97.29950785724404L224.44187125724346,97.06197911493457L224.75000959097142,96.4666727674314L225.0414917985519,97.62537095655676L226.11581193506288,96.67306968184272L227.71480004521877,96.77844723943615L228.38937315419076,97.76313924769568L228.47265378492804,97.44047341974455L228.7724640555823,95.2844636145325L228.8640727493933,95.87140458639131L228.88072887554074,96.75373635957662L228.9306972539831,99.1548138715812L229.32211621844837,98.75218530916871L229.34710040766953,101.00182738186881L229.43870910148058,93.7938257479596L229.7135351829136,93.19357786530287L230.23820315655848,94.73286073883826L230.3298118503695,92.14283065834582L231.20425847311103,93.10174524971207L231.97044027589402,94.00676300173014L232.14532960044232,95.16189501170273L232.21195410503213,96.52424216662442L232.36185924035925,97.443887378686L232.92816752937281,95.62740216180663L232.9781359078152,97.18086665859902L233.22797780002702,97.24860085053831L233.50280388146007,98.05445655019851L233.5111319445338,98.00020414841967L233.78595802596686,95.76873414033159L233.96917541358886,96.35027856139206L233.98583153973635,97.63329649206528L234.05245604432616,98.29388135404486L234.52715563952867,98.47100291433556L234.85195009940406,95.96587671152663L234.8602781624778,95.84097577440757L235.38494613612272,96.58471934842099L235.40160226227016,96.6764448305487L235.54317933452356,98.69752710655844L236.2593927588642,98.49169639238524L236.30936113730658,97.91084722375638L236.56753109259216,98.32335810213961L236.57585915566588,99.15391752436308L236.6924520386981,99.60643225800173L236.9256378047625,102.2287765155539L239.04096582548954,102.25441095831007L239.43238478995474,101.24763355078659L239.6738986190929,102.87165960307782L239.70721087138782,101.81224689845492L239.7988195651988,103.44018630777641L240.09862983585302,102.4236264548548L240.1152859620005,103.1172111613071L240.13194208814798,99.69686699530817L240.54001717876068,99.24141464956232L240.7315626294564,99.29676367980328L240.73989069253014,99.50130879386774L240.89812389093098,100.41998691290111L241.10632546777418,101.06184882355741L241.29787091846995,99.57180572771306L242.15566141506397,101.63488470699943L242.5637365056767,100.54839224095797L242.830234524036,100.90951547307459L242.8885309655521,101.95265732856076L243.60474438989272,100.70331975641437L243.96285110206307,100.60901107522558L244.53748745415035,102.02546995247025L244.72070484177237,102.07648306427693L245.09546768009014,102.01477219420914L245.91161786131553,99.62719847980739L246.11981943815874,100.53265103731388L246.58619097028753,100.5601230164399L246.6361593487299,100.85381862006996L246.6777996640986,101.25605104177308L246.79439254713077,99.03917629535343L247.01925025012142,95.78471217063858L247.95199331437905,94.34549483457045L248.02694588204258,94.64345794739798L248.21849133273835,91.80514885391322L248.36006840499172,92.35776680157973L248.58492610798237,92.8885477993249L248.84309606326798,94.3852355478613L248.97634507244763,96.87143823830742L248.98467313552135,97.42925666492862L249.06795376625865,97.28740076655899L250.1422739027696,97.48612213512763L250.26719484887553,98.46318387717605L251.0167205255111,99.32489217328786L251.52473237300856,98.20550189442703L251.97444777898988,98.58613893199518L252.61570863566698,97.1156680314325L253.06542404164833,97.84065111477628L253.1820169246805,98.65873917047783L253.7899655290627,97.4023568601172L253.8982303490212,97.7997597202825L254.80598922405758,98.220995911324L254.82264535020505,98.6686737021965L254.94756629631098,98.59664393024649L255.65545165757788,98.65560721958074L255.66377972065163,98.76910516180197L255.68876390987282,97.06882689079866L255.96358999130584,98.90277112516056L256.2717283250338,95.92661629697378L256.663147289499,87.76347855181598L257.1211907585541,89.62610932962573L257.3293923353973,91.1948444614747L257.36270458769224,92.40795987057301L257.5292658491668,91.97030458882611L257.86238837211596,93.3390359974631L258.5452895441617,95.20084659856896L259.4030800407557,94.44726721765406L259.64459386989387,93.96298605572024L260.11929346509635,95.18007958219816L260.252542474276,96.07786128924207L260.42743179882433,93.84094422022933L260.7022578802574,94.65254645269778L260.8771472048057,93.45259540477348L261.31020648463954,95.32550609949152L261.3768309892294,97.05629939717117L261.75159382754714,98.53134790637895L261.92648315209544,97.45220731702516L261.9764515305378,97.49744660654095L262.19298117045474,95.47960708514341L262.75928945946833,94.3579722135626L262.7926017117632,94.89302926760013L263.64206414528354,96.49159618232845L264.0501392358962,97.52824128479774L264.1584040558547,96.03211957978935L264.23335662351826,96.21199604212988L264.4831985157301,99.6041042425151L265.3909573907665,100.2708353496853L265.40761351691395,99.83964135789536L265.4659099584301,99.7978176437246L265.57417477838857,99.19378099815108L265.74073603986307,99.5458911772503L265.8240166706004,98.28048552374234L265.97392180592755,98.2855293460528L266.3237004550241,99.0133408958074L267.0482419424385,100.07958330737544L267.0732261316597,98.24437404256653L267.2064751408393,98.92763570700185L267.2481154562079,100.01353437456963L267.2647715823554,100.8701632102799L267.3980205915351,101.11542258832898L267.7727834298529,99.91957765298952L268.07259370050707,99.20999008863157L268.3724039711613,98.46337728432043L269.19688221546045,100.3998823441772L269.39675572922994,97.38042886007885L269.5133486122621,98.49660638902982L269.5883011799257,99.80840218246016L269.83814307213754,99.01473015216018L270.0047043336121,100.47180258396345L270.08798496434935,99.78110469213851L270.19624978430784,100.06812068501115L270.28785847811884,99.0835868581193L270.7958703256163,98.67117042497824L270.9541035240171,97.53518828865255L271.59536438069426,99.0539399756043L272.095048165118,99.57601284045498L272.12836041741286,99.92721689117936L272.2532813635188,100.54005819141494" style="fill: none;" fill="none"></path></g></g></g></g><g opacity="0.2"><g><g><g><path style="fill: none;" stroke="rgb(255, 112, 67)" stroke-width="2px" d="M20.512590770853603,-19.57586563294393L20.529246897001062,7.491443955220035L20.620855590812074,-59.53455942012724L21.453661898184922,-42.919309904150225L21.495302213553565,4.502074623347596L21.76180023191288,14.990903173931542L22.11157888100948,-17.920207726202023L22.719527485391655,-38.507966079361694L22.936057125308597,21.093004216617373L23.002681629898426,-2.926421588054609L23.227539332889098,37.21386043535301L23.285835774405196,54.646767904312824L23.310819963626383,-21.6345572299131L23.435740909732306,30.999683392224483L23.460725098953493,32.92027089956747L23.677254738870435,2.858927671070859L24.326843658621257,50.328343655923106L24.601669740054298,-16.4173332209962L24.718262623086495,47.293025425824766L24.851511632266153,-5.769231796235857L25.009744830666996,64.78258318298943L25.36785154283732,2.6748356839841563L26.009112399514418,39.531530349720725L26.050752714883057,21.489392437265906L26.200657850210174,1.4114008796336748L26.31725073324237,8.767280516178744L26.442171679348295,-0.39666603599198424L26.583748751601682,9.758672259533967L26.81693451766608,36.29481227221257L27.391570869753345,9.918506722688818L27.733021455776218,43.01102646256746L27.774661771144856,22.97044297077997L29.23207280904735,2.9436496083530983L29.41529019666937,-7.037705301698878L29.440274385890557,24.667736460399112L29.5985075842914,15.036828672616707L29.731756593471054,51.65341285066249L30.08986330564138,-2.7962109435149216L30.25642456711595,34.36871807294165L30.43964195473798,13.275124047103873L30.564562900843907,65.39340479525681L30.77276447768712,43.56103266837286L30.797748666908305,56.795352737074495L30.914341549940502,15.20895569452287L31.014278306825247,11.83637988330247L31.03926249604643,42.878624061042274L31.472321775880314,40.51320348380935L31.5556024066176,18.570596120356612L31.64721110042861,54.64193979906722L32.06361425411504,26.77840623726604L32.11358263255741,50.71737662092285L32.42172096628536,75.29105174812658L32.79648380460315,60.10616156050828L33.51269722894379,24.402448066839526L35.01174858221493,59.664495228469264L35.18663790676323,65.06084272198268L35.91117939417761,53.640213258538466L36.061084529504726,32.175151522972556L36.47748768319115,48.67863703238379L36.81061020614029,46.877831774243816L36.960515341467406,42.56835395027528L37.127076602941976,48.05871299875676L37.49351137818602,66.63549141857786L37.51016750433349,45.0100024314909L37.53515169355467,52.88755142996858L37.57679200892331,45.573057781199196L37.735025207324156,64.25857386697977L38.001523225683464,67.99473174268878L38.32631768555888,52.618480110651134L38.7427208392453,38.98624305130397L39.2090923713741,48.20313496439093L39.567199083544416,80.56020713785968L39.7920567865351,56.40886252217179L39.8836654803461,76.73434322268434L40.25842831866389,62.06461732466454L40.683159535424046,6.822872276331623L41.182843319847755,57.816383898738735L41.349404581322325,49.05792018872924L41.75747967193502,46.45541546441183L42.02397769029433,49.883767980981645L42.34877215016974,80.67752463543495L43.19823458369005,70.31451541557276L43.214890709837505,63.10619328312505L43.414764223606994,35.7863714506621L43.44807647590191,68.25042632453255L43.564669358934104,33.27117041295858L43.57299742200783,63.45314607397292L43.672934178892575,72.06831099630521L43.947760260325616,72.54170710562873L44.51406854933915,63.70540872317038L44.73892625232982,40.85991447940256L45.01375233376286,57.69787302458418L45.67166931658741,61.018353658203026L46.00479183953655,54.45029756015863L46.07141634412638,59.44564712349177L46.44617918244417,67.17176989379806L47.0707839129738,56.84277580636895L47.10409616526872,58.620345320523995L47.11242422834245,61.805319213542134L47.17904873293227,44.69779015883998L47.31229774211193,56.52281828572306L47.320625805185664,69.56540251735304L47.97021472493649,89.75141415502779L48.036839229526315,56.958213540835644L48.095135671042414,73.27536850709316L48.13677598641106,83.17794496321854L48.99456648300509,27.661723301650227L49.236080312143216,96.8469973000443L49.41096963669151,55.53700343291811L50.16049531332708,59.5621222375993L50.59355459316097,75.71667379504412L50.951661305331285,58.42140242489508L51.009957746847384,66.92524793193623L51.284783828280425,58.56266545252525L51.534625720492286,86.10859704745144L51.56793797278719,88.37348539768834L52.825475496920205,55.18498074157003L52.958724506099855,70.01336332585927L53.15026995679561,41.548024774834175L53.33348734441764,90.37410713431262L53.59165729970323,74.56625097276718L53.974748201094734,27.21510406681483L54.44944779629726,81.31761907320595L54.57436874240319,76.65981568533101L54.799226445393856,29.006058118290497L54.99077189608961,86.92176228860635L55.115692842195536,39.68461794528682L55.373862797481124,72.5202809261301L55.632032752766705,68.0343237656721L55.76528176194636,61.97271952821272L56.514807438581926,66.58405922796479L56.606416132392944,64.18065339621475L57.08944379066919,86.6592116413169L57.68906433197765,70.30801814308555L57.822313341157304,84.26478343337571L58.01385879185306,71.30201503531316L58.03051491800051,55.592429145155975L58.04717104414797,79.05081976047279L58.12212361181153,70.68000064271068L58.388621630170846,46.01518430420671L58.50521451320304,78.0555670928905L58.56351095471914,70.94294128234631L58.78836865770981,88.71259154253124L58.82168091000472,92.70239264034313L58.929945729963194,72.74096979498152L59.246412126764874,33.90348840334693L59.54622239741911,82.964806346189L60.45398127245551,44.2639392734182L60.80375992155211,72.14789283446493L60.81208798462583,85.06103080655372L61.103570192206334,62.76225903303657L61.361740147491915,81.45909269670305L61.59492591355631,79.47183209785858L61.694862670441054,85.71482957536918L61.75315911195715,83.38317453546775L61.86975199498935,80.88898628537595L61.92804843650545,32.75895446549717L62.12792195027494,23.80513578944354L62.244514833307136,35.55189245245003L62.34445159019188,61.28143469508328L62.53599704088763,87.36135386136374L62.577637356256275,34.72648145162535L62.927416005352875,88.54472323704525L63.23555433908083,82.3940993466488L63.2855227175232,96.69060256938266L64.01006420493758,84.37759261942924L64.06836064645368,55.04516068562067L64.53473217858247,54.69413637467879L64.95946339534262,55.77939927575743L65.37586654902906,65.43775472486341L66.64173213623579,77.58801306891262L66.69170051467816,72.46201606961209L66.84160565000528,49.99287223974653L66.9082301545951,76.02543853535488L67.44955425438745,67.6267973636169L67.49952263282982,82.39338956057875L67.52450682205101,65.02979933122744L67.60778745278829,50.4537963938395L67.6410997050832,83.95271935781636L67.65775583123066,66.386426706619L67.69939614659931,92.88908197645534L68.59882695856199,93.31788636091764L68.66545146315181,69.06668030506914L68.67377952622554,19.82259634911736L68.8070285354052,87.07448329136705L70.08122218568566,92.72451300621798L70.28942376252887,91.07842551165112L71.1472142591229,77.07446334762729L71.88841187268474,84.72807094108647L72.29648696329744,83.06983128501292L73.1875897121864,80.00476443874864L73.47074385669315,78.21845909603933L73.87049088423213,73.36442715926484L73.90380313652703,76.07050605087844L73.97042764111687,81.46496598143638L74.30355016406601,52.01853928484195L74.32020629021346,64.86676693083398L74.37850273172957,78.39517242793647L74.41181498402447,98.15018792416348L74.794905885416,109.32177997511303L74.90317070537446,82.0571849587914L74.92815489459565,100.9205882534311L75.06973196684903,63.33667875971231L75.08638809299649,96.39094805027847L75.24462129139734,94.10475831809367L75.75263313889477,84.60237640791547L75.84424183270578,76.79061911823688L76.10241178799137,77.61423615426918L76.13572404028628,72.71921602191208L76.16070822950746,95.424843410649L77.03515485224895,72.66171555039259L77.1350916091337,89.12601462886053L77.309980933682,87.08791462776918L77.33496512290318,76.78751477916136L77.39326156441928,82.84918141539612L77.68474377199978,45.187425549458084L78.76739197158449,54.8288865301279L79.01723386379633,76.03918966548088L79.16713899912347,88.85916626591626L79.45029314363022,79.89453700202677L79.65016665739971,90.92550171287041L79.7667595404319,65.81334075376716L80.21647494641324,88.11073195437886L81.05760931685982,93.26753054918L81.24082670448186,88.2773444845102L81.94038400267505,99.00377587199904L81.99868044419115,80.17785864167331L82.04032075955979,73.2422191576686L82.84814287771147,86.65163798995424L83.94744720344363,84.86470865949107L83.98908751881225,74.35131839094524L84.37217842020377,79.07069377043368L84.88019026770121,81.56916413648644L85.39653017827239,95.06919379048152L85.47981080900966,91.38412491212097L85.53810725052575,85.28794395325004L85.58807562896814,105.66989164556473L85.70466851200034,92.97665865771158L85.80460526888508,91.79993475160884L85.86290171040118,94.30431740162955L85.92119815191728,74.47620174003622L86.05444716109693,93.2493491060015L86.36258549482488,62.92027613185826L86.59577126088928,74.87744146547111L87.05381472994435,70.57705046316838L87.38693725289349,82.93159459798905L87.40359337904094,69.89479005292932L87.52851432514687,72.9467609562092L87.57015464051553,86.13996803177747L87.70340364969518,80.94785952995397L87.77835621735873,88.20277794792223L87.98655779420194,78.18827368844566L88.76939572313242,74.673732863372L88.78605184927989,103.43482990996303L89.50226527362052,84.52118780128951L89.69381072431628,40.121885163661034L89.72712297661121,95.53263729513075L89.81873167042221,90.03608516819209L89.82705973349593,82.4386130730408L89.87702811193832,87.16202097338865L90.1351980672239,76.74184667542468L90.38503995943576,99.20896644501362L90.76813086082726,96.16857441449157L90.80144311312218,78.04626967535778L91.94238775422298,54.6865159242346L92.12560514184501,84.29963314942958L92.25885415102466,96.07727720625286L92.84181856618567,86.603481735049L93.04169207995514,76.27487763996606L93.26654978294582,102.03639925498534L94.0826999641712,90.2650574744762L94.11601221646612,63.08228675230475L95.24030073141947,76.20875053774925L95.25695685756692,99.37137095772974L95.39853392982032,58.80125497006594L95.53178293899997,81.61909875649022L96.1563876695296,108.71071656759104L96.27298055256179,86.21083744092371L96.76433627391178,100.23055529573286L96.98919397690246,79.9375297582687L97.01417816612364,49.66428808840334L97.21405167989312,95.95081828808335L97.42225325673634,88.51133989221299L97.53884613976854,75.8741137051935L97.78868803198039,86.32086208162556L97.83865641042276,83.79966296163795L97.86364059964394,97.46676533673283L98.33834019484647,79.28025225772538L98.68811884394307,92.5391730436235L98.73808722238545,80.98238945228398L98.80471172697527,85.23426540672303L99.62918997127439,78.91531301987212L99.81240735889642,101.8291573222299L100.15385794491928,73.72874240936426L100.23713857565657,84.94395510423308L100.31209114332013,56.68704406269582L100.49530853094215,88.09834579746446L100.70351010778536,92.06655691899232L100.99499231536586,81.1138090730968L101.13656938761925,78.64974383182329L101.2115219552828,80.39981108572633L101.71953380278023,78.37288046542933L101.93606344269718,93.40432426452305L102.04432826265565,68.3600453731944L102.34413853330987,93.47419529326311L102.36912272253106,88.25562191082844L102.51902785785818,94.3060645673404L103.33517803908357,85.30232687097684L103.66830056203271,98.36442631960922L103.75990925584372,97.41305559081812L103.82653376043356,70.96002294710861L103.89315826502337,77.71703033687301L103.92647051731831,70.16155261755745L104.03473533727677,106.43806346974185L104.15132822030897,91.13112127746578L104.8925258338708,51.599047917606214L104.98413452768182,81.35349836905368L105.28394479833604,94.94592500970369L105.53378669054791,49.013219266011106L105.93353371808686,87.50304588057472L106.20835979951991,81.21643945891525L106.31662461947839,69.83470003223125L106.35826493484701,83.57709432967798L106.62476295320633,92.9558564659668L106.70804358394362,57.84149940583217L106.98286966537667,74.57669496779764L106.99119772845039,98.43720669125172L107.26602380988342,75.60990949035626L107.39927281906307,93.36339846771584L107.41592894521054,99.72577260238947L107.55750601746392,99.37045057579277L107.6990830897173,83.21822337273112L107.71573921586476,97.42818729384956L107.90728466656051,76.45781524970812L107.92394079270798,95.76901945599212L108.12381430647746,101.31899663443279L108.13214236955119,105.43868468313707L108.50690520786898,87.74281317500083L108.72343484778592,93.69108563666283L109.08154155995624,80.47796555189906L109.08986962302997,97.82433371924347L109.11485381225116,80.66262692781119L109.33971151524182,95.86544116365953L109.5395850290113,61.996477861941486L109.6228656597486,85.04828585668083L109.84772336273926,67.32155815411554L110.38904746253162,90.76104194048997L110.68885773318584,93.6273842868392L110.85541899466041,82.47173902292458L111.0552925084299,90.37189977763329L111.62992886051715,99.70144097991184L111.73819368047563,96.76478691347137L112.50437548325866,83.99444853885667L112.52103160940612,80.83186020650876L112.54601579862731,99.18761436406074L112.62929642936457,100.95708373718581L112.7209051231756,90.52037766366765L113.2455730968205,72.70573008658148L113.54538336747473,74.57424581586369L114.26159679181536,38.99346570955507L114.45314224251112,95.12993119847424L115.0027944053772,77.77570858527795L115.03610665767211,88.65233772504777L115.3525730544738,83.36344092275148L115.51080625287464,93.21144964980057L115.91888134348734,97.34855085676138L116.635094767828,113.67963634962413L116.71004733549155,103.85453187306567L117.1347785522517,95.08147854938592L117.40127657061102,90.47104363187697L117.50121332749576,103.79912176052166L118.0675216165093,70.54487609460924L118.21742675183641,63.19750609105762L118.22575481491015,90.43206779680061L118.36733188716352,91.2038080509452L118.40897220253215,45.50162678307447L118.55887733785929,98.16818997086273L119.12518562687282,75.38419752008613L119.28341882527367,75.02315040584766L119.88303936658211,77.19954949273827L120.0246164388355,93.09467814150995L120.13288125879396,101.66103942164236L120.39937927715329,111.93890551248842L120.84076662006089,100.86559543269748L120.89906306157698,72.12446209430696L120.95735950309309,101.36414994827253L121.04896819690411,95.14868203047816L121.05729625997783,85.92865457892799L121.50701166595917,67.32601966655574L121.59029229669646,71.13477071758108L121.64858873821255,92.50848064597983L121.65691680128627,96.90428717569685L122.3648021625532,65.16934639253446L122.45641085636423,68.68618817245056L122.65628437013369,93.78913751233723L122.86448594697691,104.79912843480378L122.92278238849302,104.51905153147739L122.96442270386166,93.07649669833144L123.31420135295825,99.57137463254024L123.38915392062181,73.37745290362697L123.46410648828537,74.1326886816816L124.17199184955228,110.2228143917838L124.42183374176415,104.33669111040767L124.48013018328024,83.08225644116195L124.55508275094381,74.88641128943306L125.06309459844125,87.6395510015816L125.09640685073616,96.73945301066408L125.1380471661048,97.25764364086885L125.33792067987429,79.57100715148997L125.4295293736853,85.85572601019396L125.4628416259802,90.83199714795238L125.67937126589715,80.05022974646529L125.77930802278189,93.94718581054661L126.21236730261577,45.58501494653282L126.7453633393344,90.17656821112992L126.76201946548186,87.51451165555214L126.84530009621915,97.08720918574505L127.10347005150471,86.77244201910428L127.49488901596996,96.62371108216736L127.68643446666573,79.17270796834518L128.10283762035215,92.383480299185L128.38599176485891,103.16966631395421L128.90233167543008,90.9246671292496L129.16050163071566,84.79377685156942L129.68516960436057,116.40158402980343L129.85173086583512,92.91382309089646L129.91835537042496,105.4024387944839L130.2764620825953,89.32512912112176L130.3097743348902,103.01967915754018L130.50131978558596,98.2027042934989L130.52630397480715,62.924285253176905L130.7261774885766,90.4757157401841L130.7511616777978,63.364578812157404L130.85109843468254,98.20644822002214L131.77551343586643,90.8566758636181L131.79216956201387,110.57075386326747L131.95873082348845,62.75852290636024L132.60831974323926,89.48543937493895L133.5244066813494,66.8678722579675L133.78257663663499,97.07747497678461L133.9991062765519,90.63747676552904L134.5404303763443,96.41856730823432L134.69033551167138,73.76250794669576L134.79027226855612,83.1307870887195L134.8152564577773,78.3063165717848L135.2566438006849,101.38759628812434L135.28995605297985,91.18021351400184L135.75632758510864,107.2607991230718L135.92288884658322,99.46487942257124L136.2726674956798,90.44632591697663L136.53083745096538,86.63132718856565L136.56414970326028,87.5846868783222L136.58913389248147,97.5570173654838L136.64743033399756,92.44612866967395L136.73071096473487,96.66142334204211L137.07216155075773,84.5115939895737L137.24705087530603,94.34979050919313L137.2637070014535,93.2441232085628L137.2970192537484,87.84017086429904L137.81335916431956,85.71894789454474L138.1464816872687,95.75061181725283L138.15480975034242,85.06017282339214L138.28805875952207,73.69776921723133L138.3463552010382,86.86927711865862L138.5212445255865,109.09829486113956L138.9376476792729,90.29168615187277L139.03758443615766,89.1278709924283L139.3373947068119,92.86073733273561L139.4290034006229,70.41968855148825L139.71215754512966,80.99259945190674L140.26180970799575,95.34920049518561L140.29512196029066,75.56493557299578L140.78647768164063,88.1362452536654L141.0946160153686,79.56316830533191L141.11960020458977,100.72510458991272L141.69423655667705,65.9074459068983L141.7192207458982,85.92228210399153L141.8274855658567,101.49617015729844L142.2022484041745,90.5113064416957L142.24388871954312,81.99883430395724L142.2605448456906,114.7452358366088L142.28552903491178,98.34749285193845L142.36880966564905,95.18212777408581L142.38546579179652,92.87939456657645L142.8768215131465,104.86466274865441L142.92678989158887,97.28047379281371L142.9351179546626,87.19833706066413L143.0267266484736,103.6767109629054L143.38483336064394,68.31078154002604L143.40981754986512,88.02085431828021L143.80123651433036,76.47678447742588L143.81789264047782,95.10529928189005L144.23429579416424,111.35495437287224L144.3092483618278,94.56544067693203L144.37587286641764,98.87522659485404L144.82558827239896,71.07214574663288L144.97549340772608,98.71104761696283L145.0337898492422,74.43029184104493L145.14205466920063,99.16002240556911L145.30861593067522,102.59540258421694L145.4168807506337,97.83637668289325L145.4751771921498,108.10576044021008L145.66672264284554,64.17208916429283L145.6750507059193,111.0374070049257L145.7083629582142,100.74758374874604L145.9165645350574,105.00981789989937L146.1497503011218,100.09120323059892L146.23303093185908,75.96781326628461L146.357951877965,62.09165159410112L146.63277795939806,93.16988426554562L146.72438665320905,86.38163848885291L147.06583723923194,85.41642303177272L147.2906949422226,92.33356127887507L147.51555264521326,50.69209731704403L147.523880708287,73.16305071139583L147.76539453742512,86.93734638275934L148.19012575418526,90.93816866427406L148.42331152024968,105.37918745080516L148.65649728631408,114.12503880833947L148.7481059801251,96.92074485270528L148.99794787233694,101.01619487709499L149.3393984583598,89.99847430632732L149.7474735489725,101.30415352573752L149.98898737811064,22.772061664129552L150.83844981163094,94.0027129207945L150.84677787470466,95.56014735522969L150.85510593777838,90.05491399866524L150.89674625314706,87.28506355860571L150.98835494695805,105.45672572907095L151.19655652380126,108.16191543813528L151.42141422679194,116.38097683423175L151.7045683712987,109.72410777919376L152.08765927269022,88.99642797207471L152.4874063002292,91.44239756848589L152.77056044473596,97.61223248185473L152.79554463395712,92.69115306092647L152.80387269703087,92.72703235677425L153.04538652616898,75.47381776123632L153.228603913791,53.646772929801074L153.3951651752656,84.6533640072539L153.52841418444527,93.57773826117159L153.73661576128848,101.46041175907799L154.30292405030198,100.42016177459443L154.49446950099775,88.63821220226943L155.5271493221401,104.1001685523017L155.81030346664684,102.20648271699757L155.89358409738412,67.79816000052459L156.3432995033655,96.7391254170933L156.38493981873413,100.6681969067594L156.79301490934682,90.76485606563553L157.0178726123375,78.37398804369246L157.02620067541122,81.0109992907991L157.3426670722129,102.15839276079119L157.7507421628256,89.67799419593759L158.10052081192222,103.02077113610946L158.50026783946115,102.40489912295916L158.566892344051,106.80693383044455L159.5329476606035,99.4044384087616L159.65786860670943,82.53074486490031L159.69118085900433,98.8052424683336L159.80777374203652,105.29551849285758L159.9743350035111,65.98274562909707L160.54064329252466,97.40809488817482L160.56562748174585,97.36242678443816L160.74051680629415,84.62186822537711L160.85710968932634,96.77010640907314L160.88209387854752,104.87051263384699L160.95704644621108,105.12731869387734L161.15691995998057,101.21894409802255L161.24852865379157,84.84688600927105L161.36512153682378,91.77441365247539L161.39843378911868,91.14949771681738L161.82316500587885,81.93119403143727L162.14795946575424,85.19162364359265L162.1979278441966,100.73795873764253L162.26455234878645,83.33104035863155L162.63931518710422,79.18674769280734L162.922469331611,85.15686752570187L163.17231122382287,84.77327885385466L163.25559185456012,84.40919759916297L163.53874599906692,90.02870651300253L163.8302282066474,81.55326804845649L163.93849302660587,89.89614811453889L163.98846140504827,92.35473006342525L164.10505428808045,96.83599171603532L164.5297855048406,78.34951212404675L165.31262343377108,104.14072385638005L165.6624020828677,102.0747745018486L165.96221235352192,105.85355854099413L166.23703843495494,94.59351232600943L166.3952716333558,83.95968462111897L166.4535680748719,98.94581520951104L166.85331510241087,65.03256827688524L167.31968663453966,110.80306450403481L167.3363427606871,101.06447202962754L167.76107397744727,85.8566775915186L168.47728740178792,97.12099812261734L168.56056803252523,90.52936308732343L168.86870636625315,111.45824774567917L168.92700280776924,98.64020550728081L168.9436589339167,70.45943657141002L170.48435060255647,92.51329315153158L170.52599091792513,109.01779654096633L170.7841608732107,117.47865319168902L170.79248893628446,89.72309291084883L170.8424573147268,93.75015387741395L171.00069051312767,103.68880462556017L171.2505324053395,98.05587997501232L171.25886046841325,108.91660522690526L171.29217272070815,93.55777845289455L171.38378141451915,104.17715694135937L172.26655610033436,107.72275675688213L172.55803830791487,94.84656275974616L172.75791182168436,43.498111303241586L174.1153861027021,93.1274920975168L174.16535448114448,56.16429832188777L174.44850862565127,87.72573151023855L174.53178925638855,87.39252984951669L174.67336632864192,105.18126633512321L174.88156790548516,105.12513863666224L174.96484853622243,104.35276659491686L175.12308173462327,105.51607086438784L175.43954813142494,97.0676471696611L175.62276551904696,53.54954003805365L176.60547696174692,101.5354306867875L177.31336232301388,101.1541741691704L177.57986034137318,100.81345345601437L177.95462317969097,92.66985947882551L178.16282475653418,105.63089631087107L178.3793543964511,105.14571463284625L178.38768245952485,111.47727937217233L178.4043385856723,84.97750224585074L178.42932277489348,93.96720801759905L178.91235043316973,73.39834089368792L178.98730300083326,107.88640924510601L179.53695516369936,70.67677150608438L179.56193935292055,85.22303362715328L180.05329507427052,83.52680871656264L180.2198563357451,87.71513151826959L180.26982471418748,100.03100791196738L180.652915615579,101.27866752591522L180.91108557086457,72.91091285974915L180.9860381385281,81.16541286034219L181.05266264311797,97.46057225827563L181.49404998602557,88.40693114129598L181.56067449061538,73.05990553568041L181.6522831844264,82.45834668575705L182.71827525786364,88.79204078329326L182.74325944708485,86.31772654316235L182.85985233011704,86.11858085151341L184.15070210654497,103.79988224559669L184.2006704849873,101.6999060588618L184.23398273728222,93.75927969831434L184.8086190893695,99.93045618535402L184.94186809854918,96.20637247268249L184.9835084139178,93.04230216941914L185.0168206662127,100.72437920414885L185.20836611690848,91.08000108072964L186.02451629813388,101.73402258930486L186.2077336857559,21.86784100999057L186.31599850571436,108.09727810668085L186.49088783026266,99.68623517833461L186.65744909173722,87.19207378358462L186.7906981009169,103.42777104849732L187.21542931767704,102.29572856549542L187.42363089452027,96.54379385058992L188.06489175119737,108.8498814363988L188.08987594041855,97.75465768667651L188.12318819271346,104.99159745748626L188.2481091388194,103.64849501665991L188.36470202185157,73.3964377310386L189.03094706774985,71.64070778826913L189.16419607692953,90.13721798340124L190.130251393482,88.19575808569114L190.88810513319132,99.80926216385782L191.1795873407718,88.02711759535974L191.53769405294216,102.82438269034797L191.84583238667008,80.0259644226865L191.8541604497438,70.37175069229686L192.15397072039806,92.93279231861423L192.32886004494637,113.77306291607293L192.6036861263794,108.81271516580868L192.72027900941157,98.48564374064618L193.25327504613023,109.17794299799813L193.6863343259641,103.14551018803236L193.96116040739713,94.13431973793347L194.31093905649374,92.2210016879231L194.485828381042,83.89150615916131L194.69402995788522,108.87761379213505L195.49352401296318,111.62744982498907L195.7017255898064,87.92830913453376L195.94323941894453,104.87525494077643L195.99320779738687,98.2843452912464L196.07648842812418,58.563359638901446L196.30134613111485,63.23524955032008L196.32633032033604,67.86565987579992L196.72607734787502,110.47621581863208L196.83434216783346,94.98753719304017L196.8759824832021,106.48685541217135L197.1924488800038,74.4528879975821L197.2840575738148,105.35117040065623L197.4589468983631,99.76787617608213L197.77541329516478,107.25932105207983L197.9586306827868,108.76655177179238L198.1918164488512,93.53187516126185L198.25011289036732,71.60103776681657L198.28342514266222,94.1434845580685L198.38336189954697,101.26110227064366L198.4000180256944,83.4495512327861L198.84973343167576,98.18400806042344L199.17452789155118,98.55483618270391L199.59925910831134,96.21544369465444L199.79913262208083,83.90911821351439L199.98235000970286,93.1783314997637L200.20720771269353,99.06727442580265L201.0233578939189,109.18376948364993L201.20657528154092,93.6511894196495L201.847836138218,94.89081129134276L201.97275708432397,97.64239448990763L202.247583165757,105.99093724485644L202.49742505796885,106.9658011125809L202.61401794100107,96.17848801993125L202.69729857173834,108.82421604009727L202.75559501325444,113.46971906937395L203.08038947312986,104.32487434231868L203.53843294218493,86.32409121825185L203.68001001443832,82.83649886429862L203.75496258210185,114.40171887833073L203.81325902361795,84.68362741331681L203.8548993389866,102.72266878654303L204.51281632181113,94.7062045143591L204.7793143401705,99.65777353691104L204.97918785393992,83.27366468466283L205.06246848467723,98.2812877512524L205.27899812459418,112.93764861156895L205.5788083952484,90.9855917335685L205.92025898127127,103.97166607423824L205.928587044345,112.97527117320409L206.09514830581958,99.12756334259727L206.34499019803144,106.77553164673083L207.01956330700344,98.30781503063899L207.14448425310934,83.76914216062659L207.31937357765764,112.0438446529962L207.5359032175746,95.18986522223385L207.6191838483119,101.17268710584317L207.8024012359339,82.03350462353185L208.01893087585083,97.68478665793646L209.25148421076267,86.74025205085128L209.49299803990078,106.52927487966441L209.77615218440755,108.37964816500273L210.02599407661944,94.31207044947143L210.0509782658406,50.574920216713394L210.27583596883127,102.78670552978436L210.54233398719057,108.24458601567667L210.6339426810016,100.36149132603643L211.0170335823931,107.58244531057662L211.05034583468802,98.6197933078822L211.26687547460494,90.43500053924382L211.29185966382613,102.22457836185993L211.5167173668168,101.91534563073375L211.52504542989053,87.71003041838168L211.94144858357697,105.07112469671752L212.10800984505153,101.20725212748434L212.21627466501002,107.07199992836681L212.4744446202956,84.52058721307641L213.04908097238285,82.5295436884741L213.07406516160407,95.74388834920484L213.17400191848878,108.96082255911416L213.21564223385744,96.92077605209298L213.79860664901844,77.3699605483213L213.88188727975572,78.76472137532151L213.89854340590315,111.14593797494172L215.15608093003618,83.56012966261952L215.5141876422065,73.04432144152742L215.55582795757513,86.61661667726806L215.6807489036811,113.55356352387732L215.9139346697455,99.08716013553392L215.99721530048276,104.52425402937531L216.26371331884206,94.91931193200097L216.4219465172429,106.08449640870293L216.54686746334886,94.41747758079462L216.97992674318274,62.106424504174086L217.13815994158355,91.8368826264851L217.14648800465727,105.79884651474975L217.3546895815005,111.77950784076127L217.42131408609035,90.9798978453144L217.45462633838525,101.6278900722178L217.72112435674455,101.68400217098493L218.01260656432504,95.1835239466851L218.4706500333801,95.59920118877527L218.7787883671081,85.04017401588047L218.8787251239928,102.16248378050253L218.99531800702502,97.37253538605091L219.22850377308941,96.4074759259092L219.23683183616313,100.79105229565029L219.53664210681737,106.62796634278652L219.96970138665125,105.09790157120564L220.01966976509362,91.31575145399022L220.07796620660974,97.59104809761071L220.21121521578937,100.85201199928034L220.25285553115805,95.71206497375726L220.26118359423177,97.0215032752621L220.57764999103344,39.62253116377633L220.68591481099193,85.39256330003396L220.92742864013005,98.90147697967483L221.72692269520795,87.94744215903694L221.8518436413139,102.18433895158198L221.9767645874198,118.14054040176407L222.19329422733676,101.17932087565154L222.59304125487571,92.14301101853574L222.76793057942402,114.56221242855061L222.83455508401386,80.35349559469503L223.2259740484791,112.1872448386834L223.33423886843758,108.9856728714122L223.42584756224858,80.95794473202596L223.50912819298586,102.16453904016684L223.5757526975757,105.14931036227794L223.842250715935,82.27940259763982L224.26698193269516,104.41050106184406L224.44187125724346,95.01557764272988L224.75000959097142,91.33787961971197L225.0414917985519,107.60800150902122L226.11581193506288,88.4686279304603L227.71480004521877,97.68631542793344L228.38937315419076,106.24663962654712L228.47265378492804,94.66058320970397L228.7724640555823,76.70960990809017L228.8640727493933,100.92812680548259L228.88072887554074,104.35536394394235L228.9306972539831,119.84102012885145L229.32211621844837,95.28338538684574L229.34710040766953,120.38335908513113L229.43870910148058,31.694119363510993L229.7135351829136,88.0222114916449L230.23820315655848,107.99437472622007L230.3298118503695,69.8287253494879L231.20425847311103,101.36316326763671L231.97044027589402,101.80383901911645L232.14532960044232,105.11380155915904L232.21195410503213,108.26138688594973L232.36185924035925,105.36698459029347L232.92816752937281,79.97768337023048L232.9781359078152,110.56456078481028L233.22797780002702,97.83215696570767L233.50280388146007,104.99721334727113L233.5111319445338,97.53279884078657L233.78595802596686,76.54376176295735L233.96917541358886,101.36050741975927L233.98583153973635,108.68698943324996L234.05245604432616,103.98507401109961L234.52715563952867,99.99697327991701L234.85195009940406,74.38325096424974L234.8602781624778,94.76490616230481L235.38494613612272,102.99235629376741L235.40160226227016,97.46669513811052L235.54317933452356,116.1099282537192L236.2593927588642,96.7183856241239L236.30936113730658,92.90660823249229L236.56753109259216,101.87729797744129L236.57585915566588,106.30950639274994L236.6924520386981,103.50502073242694L236.9256378047625,124.82128088831121L239.04096582548954,102.47526154205539L239.43238478995474,92.57385896289199L239.6738986190929,116.86326866897144L239.70721087138782,92.68499898170388L239.7988195651988,117.46551044962305L240.09862983585302,93.6655723373763L240.1152859620005,109.09271017074238L240.13194208814798,70.22928648824048L240.54001717876068,95.31751751698266L240.7315626294564,99.77361686341777L240.73989069253014,101.26354362273071L240.89812389093098,108.33475224611149L241.10632546777418,106.5917360538272L241.29787091846995,86.73451136351565L242.15566141506397,119.4091036054667L242.5637365056767,91.18784176429294L242.830234524036,104.02073101131005L242.8885309655521,110.93972562198017L243.60474438989272,89.9397960579224L243.96285110206307,99.79650551421456L244.53748745415035,114.22880797180875L244.72070484177237,102.51598064291915L245.09546768009014,101.48310931362515L245.91161786131553,79.05733263265385L246.11981943815874,108.33347307121605L246.58619097028753,100.79680468275632L246.6361593487299,103.38411920519036L246.6777996640986,104.721438059523L246.79439254713077,79.93994771081495L247.01925025012142,67.74625201924918L247.95199331437905,81.9460839392141L248.02694588204258,97.21052476560442L248.21849133273835,67.35202435619844L248.36006840499172,97.11878296609108L248.58492610798237,97.4614302414372L248.84309606326798,107.27977615063651L248.97634507244763,118.29103064830466L248.98467313552135,102.23507695581887L249.06795376625865,96.06525764214386L250.1422739027696,99.19818315664197L250.26719484887553,106.88094657790094L251.0167205255111,106.74884057055887L251.52473237300856,88.5615241073183L251.97444777898988,101.86547340950537L252.61570863566698,84.44699565735388L253.06542404164833,104.08665921743031L253.1820169246805,105.70688241959908L253.7899655290627,86.57814003239478L253.8982303490212,101.22353820786044L254.80598922405758,101.85010771106622L254.82264535020505,102.52559005432882L254.94756629631098,97.97607974113875L255.65545165757788,99.1635986353835L255.66377972065163,99.74693358709273L255.68876390987282,82.42027563292382L255.96358999130584,114.70290606735537L256.2717283250338,70.28589777721072L256.663147289499,17.43490720891802L257.1211907585541,105.6733898769099L257.3293923353973,104.7101009820198L257.36270458769224,102.85941570280454L257.5292658491668,88.19973600762208L257.86238837211596,105.1311835180279L258.5452895441617,111.24106100809637L259.4030800407557,87.9548910128488L259.64459386989387,89.79071758367493L260.11929346509635,105.66580842570032L260.252542474276,103.81259599608187L260.42743179882433,74.56904331796575L260.7022578802574,101.64481184011818L260.8771472048057,83.11455560727187L261.31020648463954,111.46135208475471L261.3768309892294,111.96774934641125L261.75159382754714,111.2394581395536L261.92648315209544,88.15499608566932L261.9764515305378,97.88720048544629L262.19298117045474,78.09514351617996L262.75928945946833,84.69465639686653L262.7926017117632,99.50275157930794L263.64206414528354,110.2638649861418L264.0501392358962,106.4593375522255L264.1584040558547,83.14245565971694L264.23335662351826,97.76170094844835L264.4831985157301,128.8284210458339L265.3909573907665,106.01498027299789L265.40761351691395,96.12473927478192L265.4659099584301,99.43749026009962L265.57417477838857,93.98977297474852L265.74073603986307,102.57945579718199L265.8240166706004,87.37852912428913L265.97392180592755,98.32898381518918L266.3237004550241,105.28371732446243L267.0482419424385,109.26567177626936L267.0732261316597,82.43334037652055L267.2064751408393,104.81419773905985L267.2481154562079,109.36896904899976L267.2647715823554,108.25035010255309L267.3980205915351,103.22842646075185L267.7727834298529,89.61691359468023L268.07259370050707,93.09662030339388L268.3724039711613,92.0310208164092L269.19688221546045,117.0836182444817L269.39675572922994,71.36667576630839L269.5133486122621,108.11290509999193L269.5883011799257,111.11002747970626L269.83814307213754,92.17694035265266L270.0047043336121,113.02504199642247L270.08798496434935,93.83047670103139L270.19624978430784,102.54087385437526L270.28785847811884,90.60144927258973L270.7958703256163,95.11804423176295L270.9541035240171,87.74826526800031L271.59536438069426,112.13856989395775L272.095048165118,104.07387136839935L272.12836041741286,102.95297486665103L272.2532813635188,105.81992170113685" fill="none"></path></g></g></g></g></g></g><g transform="translate(40, 178)" clip-path="url(#clip_1)"><clipPath id="clip_1"><rect width="290" height="22"></rect></clipPath><g><g><line x1="15.91549995415547" y1="0" x2="15.91549995415547" y2="5" style="visibility: inherit;" fill="rgb(0, 0, 0)" stroke="rgb(204, 204, 204)" stroke-width="1px"></line><line x1="57.55581532279799" y1="0" x2="57.55581532279799" y2="5" style="visibility: inherit;" fill="rgb(0, 0, 0)" stroke="rgb(204, 204, 204)" stroke-width="1px"></line><line x1="99.1961306914405" y1="0" x2="99.1961306914405" y2="5" style="visibility: inherit;" fill="rgb(0, 0, 0)" stroke="rgb(204, 204, 204)" stroke-width="1px"></line><line x1="140.836446060083" y1="0" x2="140.836446060083" y2="5" style="visibility: inherit;" fill="rgb(0, 0, 0)" stroke="rgb(204, 204, 204)" stroke-width="1px"></line><line x1="182.47676142872552" y1="0" x2="182.47676142872552" y2="5" style="visibility: inherit;" fill="rgb(0, 0, 0)" stroke="rgb(204, 204, 204)" stroke-width="1px"></line><line x1="224.11707679736804" y1="0" x2="224.11707679736804" y2="5" style="visibility: inherit;" fill="rgb(0, 0, 0)" stroke="rgb(204, 204, 204)" stroke-width="1px"></line><line x1="265.75739216601056" y1="0" x2="265.75739216601056" y2="5" style="visibility: inherit;" fill="rgb(0, 0, 0)" stroke="rgb(204, 204, 204)" stroke-width="1px"></line></g><g transform="translate(0, 8)"><text x="15.91549995415547" y="0" dx="0em" dy="0.95em" style="text-anchor: middle; visibility: inherit; font-family: &quot;Helvetica Neue&quot;, sans-serif; font-size: 12px; font-weight: 200;" fill="rgb(50, 49, 63)" stroke="none" stroke-width="1px">0</text><text x="57.55581532279799" y="0" dx="0em" dy="0.95em" style="text-anchor: middle; visibility: inherit; font-family: &quot;Helvetica Neue&quot;, sans-serif; font-size: 12px; font-weight: 200;" fill="rgb(50, 49, 63)" stroke="none" stroke-width="1px">5k</text><text x="99.1961306914405" y="0" dx="0em" dy="0.95em" style="text-anchor: middle; visibility: inherit; font-family: &quot;Helvetica Neue&quot;, sans-serif; font-size: 12px; font-weight: 200;" fill="rgb(50, 49, 63)" stroke="none" stroke-width="1px">10k</text><text x="140.836446060083" y="0" dx="0em" dy="0.95em" style="text-anchor: middle; visibility: inherit; font-family: &quot;Helvetica Neue&quot;, sans-serif; font-size: 12px; font-weight: 200;" fill="rgb(50, 49, 63)" stroke="none" stroke-width="1px">15k</text><text x="182.47676142872552" y="0" dx="0em" dy="0.95em" style="text-anchor: middle; visibility: inherit; font-family: &quot;Helvetica Neue&quot;, sans-serif; font-size: 12px; font-weight: 200;" fill="rgb(50, 49, 63)" stroke="none" stroke-width="1px">20k</text><text x="224.11707679736804" y="0" dx="0em" dy="0.95em" style="text-anchor: middle; visibility: inherit; font-family: &quot;Helvetica Neue&quot;, sans-serif; font-size: 12px; font-weight: 200;" fill="rgb(50, 49, 63)" stroke="none" stroke-width="1px">25k</text><text x="265.75739216601056" y="0" dx="0em" dy="0.95em" style="text-anchor: middle; visibility: inherit; font-family: &quot;Helvetica Neue&quot;, sans-serif; font-size: 12px; font-weight: 200;" fill="rgb(50, 49, 63)" stroke="none" stroke-width="1px">30k</text></g><line x1="0" y1="0" x2="290" y2="0" fill="rgb(0, 0, 0)" stroke="rgb(204, 204, 204)" stroke-width="1px"></line></g></g></g></g></svg>