<svg viewBox="0 0 330 200" xmlns="http://www.w3.org/2000/svg"><g><g><g><g><g><line x1="40" y1="170.9226167229665" x2="35" y2="170.9226167229665" style="visibility: inherit;" fill="rgb(0, 0, 0)" stroke="rgb(204, 204, 204)" stroke-width="1px"></line><line x1="40" y1="149.56273110406272" x2="35" y2="149.56273110406272" style="visibility: inherit;" fill="rgb(0, 0, 0)" stroke="rgb(204, 204, 204)" stroke-width="1px"></line><line x1="40" y1="128.20284548515897" x2="35" y2="128.20284548515897" style="visibility: inherit;" fill="rgb(0, 0, 0)" stroke="rgb(204, 204, 204)" stroke-width="1px"></line><line x1="40" y1="106.8429598662552" x2="35" y2="106.8429598662552" style="visibility: inherit;" fill="rgb(0, 0, 0)" stroke="rgb(204, 204, 204)" stroke-width="1px"></line><line x1="40" y1="85.48307424735144" x2="35" y2="85.48307424735144" style="visibility: inherit;" fill="rgb(0, 0, 0)" stroke="rgb(204, 204, 204)" stroke-width="1px"></line><line x1="40" y1="64.12318862844768" x2="35" y2="64.12318862844768" style="visibility: inherit;" fill="rgb(0, 0, 0)" stroke="rgb(204, 204, 204)" stroke-width="1px"></line><line x1="40" y1="42.763303009543904" x2="35" y2="42.763303009543904" style="visibility: inherit;" fill="rgb(0, 0, 0)" stroke="rgb(204, 204, 204)" stroke-width="1px"></line><line x1="40" y1="21.403417390640158" x2="35" y2="21.403417390640158" style="visibility: inherit;" fill="rgb(0, 0, 0)" stroke="rgb(204, 204, 204)" stroke-width="1px"></line><line x1="40" y1="0.04353177173641143" x2="35" y2="0.04353177173641143" style="visibility: inherit;" fill="rgb(0, 0, 0)" stroke="rgb(204, 204, 204)" stroke-width="1px"></line></g><g transform="translate(30, 0)"><text x="0" y="170.9226167229665" dx="0em" dy="0.3em" style="text-anchor: end; visibility: inherit; font-family: &quot;Helvetica Neue&quot;, sans-serif; font-size: 12px; font-weight: 200;" fill="rgb(50, 49, 63)" stroke="none" stroke-width="1px">0</text><text x="0" y="149.56273110406272" dx="0em" dy="0.3em" style="text-anchor: end; visibility: hidden; font-family: &quot;Helvetica Neue&quot;, sans-serif; font-size: 12px; font-weight: 200;" fill="rgb(50, 49, 63)" stroke="none" stroke-width="1px">20</text><text x="0" y="128.20284548515897" dx="0em" dy="0.3em" style="text-anchor: end; visibility: inherit; font-family: &quot;Helvetica Neue&quot;, sans-serif; font-size: 12px; font-weight: 200;" fill="rgb(50, 49, 63)" stroke="none" stroke-width="1px">40</text><text x="0" y="106.8429598662552" dx="0em" dy="0.3em" style="text-anchor: end; visibility: hidden; font-family: &quot;Helvetica Neue&quot;, sans-serif; font-size: 12px; font-weight: 200;" fill="rgb(50, 49, 63)" stroke="none" stroke-width="1px">60</text><text x="0" y="85.48307424735144" dx="0em" dy="0.3em" style="text-anchor: end; visibility: inherit; font-family: &quot;Helvetica Neue&quot;, sans-serif; font-size: 12px; font-weight: 200;" fill="rgb(50, 49, 63)" stroke="none" stroke-width="1px">80</text><text x="0" y="64.12318862844768" dx="0em" dy="0.3em" style="text-anchor: end; visibility: hidden; font-family: &quot;Helvetica Neue&quot;, sans-serif; font-size: 12px; font-weight: 200;" fill="rgb(50, 49, 63)" stroke="none" stroke-width="1px">100</text><text x="0" y="42.763303009543904" dx="0em" dy="0.3em" style="text-anchor: end; visibility: inherit; font-family: &quot;Helvetica Neue&quot;, sans-serif; font-size: 12px; font-weight: 200;" fill="rgb(50, 49, 63)" stroke="none" stroke-width="1px">120</text><text x="0" y="21.403417390640158" dx="0em" dy="0.3em" style="text-anchor: end; visibility: hidden; font-family: &quot;Helvetica Neue&quot;, sans-serif; font-size: 12px; font-weight: 200;" fill="rgb(50, 49, 63)" stroke="none" stroke-width="1px">140</text><text x="0" y="0.04353177173641143" dx="0em" dy="0.3em" style="text-anchor: end; visibility: hidden; font-family: &quot;Helvetica Neue&quot;, sans-serif; font-size: 12px; font-weight: 200;" fill="rgb(50, 49, 63)" stroke="none" stroke-width="1px">160</text></g><line x1="40" y1="0" x2="40" y2="178" fill="rgb(0, 0, 0)" stroke="rgb(204, 204, 204)" stroke-width="1px"></line></g></g><g transform="translate(40, 0)" clip-path="url(#clip_0)"><clipPath id="clip_0"><rect width="290" height="178"></rect></clipPath><g><g><g><line x1="14.091005799536196" y1="0" x2="14.091005799536196" y2="178" fill="rgb(0, 0, 0)" stroke="rgb(60, 60, 60)" stroke-width="1px" opacity="0.25"></line><line x1="56.90449825318723" y1="0" x2="56.90449825318723" y2="178" fill="rgb(0, 0, 0)" stroke="rgb(60, 60, 60)" stroke-width="1px" opacity="0.25"></line><line x1="99.71799070683826" y1="0" x2="99.71799070683826" y2="178" fill="rgb(0, 0, 0)" stroke="rgb(60, 60, 60)" stroke-width="1px" opacity="0.25"></line><line x1="142.5314831604893" y1="0" x2="142.5314831604893" y2="178" fill="rgb(0, 0, 0)" stroke="rgb(60, 60, 60)" stroke-width="1px" opacity="0.25"></line><line x1="185.34497561414034" y1="0" x2="185.34497561414034" y2="178" fill="rgb(0, 0, 0)" stroke="rgb(60, 60, 60)" stroke-width="1px" opacity="0.25"></line><line x1="228.15846806779138" y1="0" x2="228.15846806779138" y2="178" fill="rgb(0, 0, 0)" stroke="rgb(60, 60, 60)" stroke-width="1px" opacity="0.25"></line><line x1="270.97196052144244" y1="0" x2="270.97196052144244" y2="178" fill="rgb(0, 0, 0)" stroke="rgb(60, 60, 60)" stroke-width="1px" opacity="0.25"></line></g><g><line x1="0" y1="170.9226167229665" x2="290" y2="170.9226167229665" fill="rgb(0, 0, 0)" stroke="rgb(60, 60, 60)" stroke-width="1px" opacity="0.25"></line><line x1="0" y1="149.56273110406272" x2="290" y2="149.56273110406272" fill="rgb(0, 0, 0)" stroke="rgb(60, 60, 60)" stroke-width="1px" opacity="0.25"></line><line x1="0" y1="128.20284548515897" x2="290" y2="128.20284548515897" fill="rgb(0, 0, 0)" stroke="rgb(60, 60, 60)" stroke-width="1px" opacity="0.25"></line><line x1="0" y1="106.8429598662552" x2="290" y2="106.8429598662552" fill="rgb(0, 0, 0)" stroke="rgb(60, 60, 60)" stroke-width="1px" opacity="0.25"></line><line x1="0" y1="85.48307424735144" x2="290" y2="85.48307424735144" fill="rgb(0, 0, 0)" stroke="rgb(60, 60, 60)" stroke-width="1px" opacity="0.25"></line><line x1="0" y1="64.12318862844768" x2="290" y2="64.12318862844768" fill="rgb(0, 0, 0)" stroke="rgb(60, 60, 60)" stroke-width="1px" opacity="0.25"></line><line x1="0" y1="42.763303009543904" x2="290" y2="42.763303009543904" fill="rgb(0, 0, 0)" stroke="rgb(60, 60, 60)" stroke-width="1px" opacity="0.25"></line><line x1="0" y1="21.403417390640158" x2="290" y2="21.403417390640158" fill="rgb(0, 0, 0)" stroke="rgb(60, 60, 60)" stroke-width="1px" opacity="0.25"></line><line x1="0" y1="0.04353177173641143" x2="290" y2="0.04353177173641143" fill="rgb(0, 0, 0)" stroke="rgb(60, 60, 60)" stroke-width="1px" opacity="0.25"></line></g></g></g><g><g><line x1="0" y1="170.9226167229665" x2="290" y2="170.9226167229665" fill="rgb(0, 0, 0)" stroke="rgb(153, 153, 153)" stroke-width="1.5px"></line></g></g><g><g><line x1="14.091005799536196" y1="0" x2="14.091005799536196" y2="178" fill="rgb(0, 0, 0)" stroke="rgb(153, 153, 153)" stroke-width="1.5px"></line></g></g><g><g><g><g><g><path stroke="rgb(255, 112, 67)" stroke-width="2px" d="M16.368683598070433,-10.164581145429707L17.028011381856658,14.231928888396197L17.242078844124915,32.69825997457343L17.5503359897912,40.75565386318888L18.004159009799903,44.7078014685178L18.50079552226225,41.302493955384136L18.817615366419272,38.21137694936846L18.83474076340073,45.20419011761973L18.928930446798766,36.444113301046116L19.14299790906702,11.33916658165316L19.485505848696228,22.014297683152137L19.759512200399595,18.919382200956477L19.785200295871785,23.788485240882267L19.828013788325435,36.10035130181615L20.102020140028802,46.06047633277302L20.46165347663947,42.648149687673L20.487341572111664,34.07797626378999L21.08673046646278,33.01933014634733L21.309360627221764,45.56412203799704L21.3778622151476,50.157994417588824L21.609055074397318,58.335171068380006L21.66899396383243,74.19088576208874L21.694682059304622,59.92635401374771L21.823122536665572,65.81508695806808L21.848810632137766,68.36838130472167L22.07144079289675,61.52142972996657L22.739331275173704,69.14800243388889L23.021900325367803,58.31287133592926L23.141778104238025,70.67553828139724L23.278781280089706,57.33857885661857L23.441472551413582,73.12882767318708L23.809668586514984,67.63054976115221L24.468996370301205,68.836818850639L24.51180986275486,62.34002571998971L24.665938435588004,60.21563581511944L24.785816214458226,58.989088992674866L24.91425669181918,55.26644683917577L25.059822566161593,53.106214450206394L25.299578123902037,63.884811578000196L25.89040431976242,61.03112538249627L26.24147495788236,71.70315606405579L26.28428845033601,70.5406088593303L27.7827606862138,58.29112600257193L27.97114005300986,52.47414562244613L27.996828148482052,58.99911874172432L28.159519419805925,53.55201220725405L28.29652259565761,64.44527162226143L28.66471863075901,59.24063003414125L28.835972600573616,66.03930596602527L29.024351967369675,58.63035048507706L29.152792444730633,73.44562892730788L29.366859906998886,73.49494983591843L29.392548002471077,79.7888594463385L29.512425781341303,70.22851581445117L29.615178163230063,60.50572960385665L29.640866258702253,66.93056128901625L30.086126580220224,67.91447604029698L30.171753565127524,62.44553482848849L30.26594324852556,71.91721731241684L30.69407817306207,66.8286824940972L30.745454364006452,71.1367076215563L31.06227420816347,79.87927500190308L31.447595640246327,77.74969044598957L32.183987710449124,61.35353026547824L33.72527343878056,72.67982196035192L33.9050901070859,77.98203135463827L34.65004487577942,83.20052479321805L34.80417344861257,70.44090044499082L35.23230837314908,69.22449449077133L35.57481631277829,69.84041236409959L35.728944885611426,69.02349796938869L35.900198855426034,74.51152619424218L36.27695758901816,78.64103751344469L36.29408298599962,75.45816276406381L36.31977108147181,78.59864155932931L36.36258457392547,72.53559514893732L36.52527584524934,76.95390812244055L36.79928219695271,82.03056096898781L37.13322743809119,80.67220397193941L37.5613623626277,75.0550972879867L38.04087347810859,76.04476152954312L38.409069513209985,86.87528264992869L38.6402623724597,83.53786600956614L38.73445205585774,89.87015838053378L39.11977348794059,88.95531422330062L39.556471110967834,70.06882076955206L40.07023302041165,71.78121285361875L40.24148699022625,74.9420618506356L40.66105921627203,72.19443227519919L40.9350655679754,72.82753852745644L41.26901080911387,83.12024242115594L42.14240605516835,86.99137245914226L42.159531452149814,86.41516369819578L42.36503621592734,69.58404976691702L42.399287009890266,77.37896917044442L42.519164788760484,73.22722132465887L42.52772748725122,76.56075033800421L42.630479869139975,83.37332467818713L42.913048919334074,87.21786864263493L43.495312416703726,83.65614114383995L43.72650527595344,77.57794239967603L44.00907432614754,72.60773104500338L44.68552750691523,75.199303682199L45.028035446544436,79.8955447618764L45.09653703447027,74.1738199037308L45.48185846655314,79.70615176247723L46.1240608533579,79.98787503006625L46.15831164732082,77.43795290840073L46.16687434581155,79.56294345447728L46.235375933737394,76.58935562583702L46.372379109589076,76.83574139604342L46.380941808079804,80.35757173393505L47.04883229035676,90.73309094451318L47.11733387828261,85.10601098985974L47.17727276771772,86.7581817688531L47.22008626017137,90.248616275888L48.102044204716584,72.89162699016826L48.35036246094776,89.53622947485579L48.53017912925309,86.686597960733L49.300821993418815,84.60239201676963L49.74608231493678,89.50675912407897L50.11427835003818,88.12886210713344L50.174217239473286,85.61529068133663L50.45678628966739,78.74174115694653L50.7136672443893,88.17356103107079L50.74791803835221,91.88619687481194L52.040885510452476,82.78708433521756L52.17788868630416,82.4479858032794L52.374830751590956,76.42738333511019L52.56321011838702,87.35028615117932L52.828653771599654,89.28500309426117L53.222537902173244,73.92319450410996L53.71061171614487,82.73823195396301L53.83905219350582,84.75936075384489L54.07024505275554,67.86070889596938L54.26718711804233,79.35979634296162L54.39562759540328,69.32783693894001L54.66107124861592,76.98638661257708L54.92651490182856,77.8569189545619L55.063518077680236,76.68315862381372L55.83416094184596,76.97679002606365L55.928350625243986,81.33030034323183L56.424987137706346,89.66107134494511L57.04150142903892,86.47037295232045L57.1785046048906,89.6430360873016L57.375446670177396,86.67634472861613L57.39257206715886,83.51581823859152L57.409697464140315,85.65421186684308L57.48676175055689,85.86012783515523L57.76076810226026,74.0150428015147L57.88064588113048,81.04578444575498L57.94058477056559,83.12698605535091L58.17177762981531,91.55298026320231L58.20602842377822,98.57301420546287L58.31734350415771,94.36245353195295L58.642726046805464,76.4527396295593L58.95098319247175,83.64112246569397L59.88431732796135,75.17948302624724L60.24395066457202,78.81985275483935L60.25251336306275,85.68292468347578L60.5522078102383,83.33283503225974L60.817651463450936,87.98872997206347L61.05740702119138,88.75379483932578L61.160159403080144,93.67700943921142L61.22009829251526,90.67510356401266L61.339976071385486,93.56422731777128L61.399914960820595,77.3867452117749L61.605419724598114,65.25168362590935L61.72529750346834,61.49630869064612L61.8280498853571,66.67833554007119L62.024991950643894,80.32746361723922L62.06780544309755,65.37958812996958L62.42743877970822,81.15535296396327L62.744258623865235,84.30812738232954L62.79563481480962,93.68472800170429L63.54058958350314,95.17911364711479L63.60052847293826,88.14734438751415L64.08003958841915,81.85036124407397L64.51673721144638,76.87951038624999L64.9448721359829,79.85891302638166L66.24640230657388,84.79581773899326L66.29777849751827,84.50382423252843L66.45190707035141,77.85888643101234L66.52040865827725,81.54407812509235L67.07698406017472,80.71754988648043L67.1283602511191,86.77708013903315L67.15404834659128,83.80572767743801L67.2396753314986,74.47870407249599L67.27392612546151,83.53818548908828L67.29105152244297,81.94642438522992L67.33386501489663,91.52316739256025L68.25863645189548,97.47199782883055L68.32713803982134,89.92678964141005L68.33570073831207,71.28005547546272L68.47270391416374,80.88480892939651L69.78279678324546,89.92238445088746L69.99686424551372,93.09993362522125L70.87882219005893,88.42030066889285L71.64090235573391,92.13121667628948L72.0604745817797,93.0712744759777L72.97668332028783,93.99100196542928L73.26781506897267,89.70026270627568L73.6788245965277,87.30623548202655L73.71307539049063,90.52535575296095L73.78157697841647,90.18196880821337L74.12408491804568,76.88526269828627L74.14121031502714,77.72359570302638L74.20114920446225,83.42846555051273L74.23539999842517,93.13241800897715L74.62928412899878,103.39209582504611L74.74059920937826,97.25601450411199L74.76628730485045,103.23074121162671L74.91185317919286,90.63255336073365L74.92897857617432,97.88528529699978L75.09166984749818,99.49100126020588L75.61399445543273,94.50141872206467L75.70818413883077,89.80064486852831L75.9736277920434,89.66477426159906L76.00787858600633,84.37427340697785L76.03356668147852,92.39675121117577L76.9326500230052,86.95513472208988L77.03540240489394,92.6880296826411L77.2152190731993,94.92294212930034L77.24090716867148,91.48557667173388L77.30084605810659,90.48965567784941L77.60054050528214,80.08889466411304L78.71369130907708,77.00952577928686L78.97057226379899,81.47702359755935L79.12470083663213,86.99709380151245L79.41583258531696,87.75417602157968L79.62133734909447,94.52856213338976L79.7412151279647,85.16613327372042L80.20360084646413,90.1258249696817L81.06843339402788,94.68457125683615L81.25681276082395,95.1044864324994L81.97607943404529,99.3996810618171L82.0360183234804,93.71890231392261L82.07883181593404,89.87288594339537L82.90941356953486,93.13087631025014L84.03968977031126,92.17849870798287L84.08250326276492,88.98647400938148L84.4763873933385,87.71789961177159L84.99871200127305,89.22315956035767L85.5295993076983,94.49400733849674L85.61522629260563,96.21967454187798L85.67516518204073,94.04095246355153L85.72654137298512,102.07568858165615L85.84641915185533,103.87446137084612L85.94917153374409,102.6550244509523L86.00911042317921,102.34503556587956L86.06904931261433,89.52181608329414L86.206052488466,91.19509509706596L86.52287233262302,84.57962339980962L86.76262789036348,84.53599832704323L87.23357630735362,83.27398037733325L87.57608424698284,83.49986342756273L87.5932096439643,80.60573518937242L87.72165012132524,82.50396532087346L87.7644636137789,86.77904800724713L87.90146678963058,86.19233789746251L87.97853107604716,89.62156174920725L88.19259853831541,88.97335953615135L88.99749219644404,87.04617509554053L89.01461759342551,96.72122593662249L89.75100966362831,95.68395526406208L89.9479517289151,78.32514339644361L89.98220252287803,88.2922246683936L90.07639220627605,92.86555523311678L90.08495490476678,90.79196330544731L90.13633109571117,91.44235073804187L90.40177474892381,88.83444869093228L90.65865570364572,95.88255757542503L91.0525398342193,98.71078367185311L91.08679062818223,92.23626915430272L92.25988032141225,80.13615263022093L92.44825968820834,85.16508954060413L92.58526286406001,91.09405284340545L93.18465175841112,93.3155286403953L93.39015652218865,87.50478784597577L93.62134938143836,95.30305488851255L94.46049383352992,94.84129856271927L94.49474462749285,84.12150437410806L95.65070892374142,80.40485209058554L95.66783432072289,89.60061508179545L95.8134001950653,80.6137650299915L95.95040337091697,85.4897642471071L96.59260575772174,97.48951486837817L96.71248353659198,94.51205897349435L97.21768274754506,99.14948401421029L97.44887560679476,94.27703103736121L97.47456370226695,78.23668085865292L97.68006846604447,89.18870970002037L97.89413592831274,93.56163769014204L98.01401370718297,86.63862463500014L98.27089466190488,89.30350138195745L98.32227085284924,91.39299819182233L98.34795894832143,96.93248614493831L98.83603276229306,93.41485877682538L99.19566609890373,94.45370192896499L99.24704228984811,94.06794421738515L99.31554387777395,86.90217298799682L100.16325102835624,81.67493584843115L100.3516303951523,92.75656402242461L100.70270103327223,88.59864994463074L100.78832801817954,90.54275924665261L100.86539230459613,83.64143541327839L101.05377167139218,85.46092789739448L101.26783913366044,90.89748408131807L101.56753358083598,91.42315829869418L101.71309945517841,86.93390530586228L101.790163741595,86.06129549251031L102.31248834952952,88.60214442030029L102.53511851028851,94.43209209242166L102.64643359066801,85.87746591665541L102.95469073633429,91.10528095878887L102.98037883180648,92.03020037046268L103.13450740463962,94.47562705031977L103.97365185673118,95.22602188234055L104.3161597963604,96.31236527513758L104.41034947975842,98.33667498407797L104.47885106768426,89.63950600064067L104.54735265561011,84.58942805057063L104.58160344957304,82.54387658233705L104.69291852995252,92.96388247601135L104.81279630882275,93.99408559334273L105.57487647449773,77.53001571046661L105.66906615789577,81.06062526697093L105.97732330356204,89.19292194355322L106.23420425828395,70.4314734443348L106.645213785839,81.13486519111164L106.9277828360331,83.98571288077002L107.0390979164126,81.56995284345255L107.08191140886625,81.90564561129088L107.35591776056962,90.97197439654012L107.44154474547693,74.53761394917109L107.72411379567102,75.91502356126554L107.73267649416174,85.89443910145778L108.01524554435585,85.19340920404612L108.15224872020752,88.08815931519527L108.16937411718898,95.51109789069083L108.31493999153139,99.39867381520625L108.46050586587381,94.3842527616186L108.47763126285528,98.10372780307864L108.67457332814207,94.11705295678807L108.69169872512353,93.73728251285878L108.89720348890106,96.76299598783184L108.90576618739179,103.404475377995L109.29108761947464,103.69112644389045L109.51371778023363,99.94123336079362L109.88191381533503,92.60723015577832L109.89047651382576,98.01876494816182L109.91616460929795,94.84356191295612L110.14735746854767,97.23253455323092L110.3528622323252,79.20314666374192L110.4384892172325,82.95438282612099L110.66968207648222,78.89378611585332L111.22625747837967,84.47525630941739L111.53451462404597,91.01431830275479L111.70576859386057,91.93084054594567L111.9112733576381,94.42254271243029L112.50209955349847,97.16864395835967L112.61341463387797,98.63426200398884L113.40118289502514,94.55133794424101L113.4183082920066,90.18660210042228L113.44399638747879,97.05753250637945L113.52962337238608,99.7511676583557L113.62381305578413,99.25164093232021L114.16326306070012,82.33703278949578L114.47152020636642,81.39468302042239L115.20791227656922,60.963696273967514L115.40485434185601,72.68308161138351L115.9699924422442,74.16292862733818L116.00424323620713,80.95236568374426L116.32962577885486,83.36734492963338L116.49231705017876,89.43945574303888L116.91188927622453,94.6285794194045L117.64828134642732,104.53217242195532L117.7253456328439,105.44529510121102L118.16204325587114,102.56894463808284L118.4360496075745,98.55809332499955L118.53880198946327,103.07698669341922L119.12106548683293,93.26090917679262L119.27519405966606,77.70720509117936L119.2837567581568,82.9233279763529L119.42932263249921,90.07643744976183L119.47213612495285,65.84571479415038L119.626264697786,79.20396453031327L120.20852819515567,80.84402365570948L120.37121946647953,81.13443321881367L120.98773375781211,82.33951441560886L121.13329963215452,85.85957523102442L121.24461471253402,92.21138409707568L121.51862106423738,100.20046904080222L121.97244408424609,101.85775910326565L122.0323829736812,91.72546313364941L122.0923218631163,97.11274199519991L122.18651154651434,97.99075685609077L122.19507424500507,94.07012313337528L122.6574599635045,87.07193518503551L122.7430869484118,81.83217776997499L122.80302583784692,88.32453378007084L122.81158853633765,93.13151348862517L123.5394179080497,82.69049102895308L123.63360759144774,78.53671440646458L123.83911235522527,87.5909762991703L124.05317981749351,95.49788532148452L124.11311870692863,100.408838026443L124.15593219938228,100.05805064034733L124.51556553599295,101.86680215537035L124.59262982240952,94.57012151487324L124.66969410882609,90.75424420242302L125.39752348053817,99.17875737175008L125.65440443526008,101.30382900217036L125.71434332469518,95.56434499207495L125.79140761111175,88.32142985010566L126.3137322190463,88.74371072553127L126.34798301300921,93.54719835436961L126.39079650546286,97.54756744457971L126.59630126924039,92.8451494488463L126.69049095263843,89.83474957776967L126.72474174660135,89.04251103672154L126.94737190736033,86.5790128603192L127.0501242892491,91.47442926310549L127.49538461076706,70.83790861259827L128.0433973141738,76.88720542205954L128.06052271115524,82.90973211939996L128.14614969606257,89.26417163168568L128.4115933492752,90.75559044498617L128.8140401783395,95.19748449410478L129.01098224362633,90.24770893004454L129.43911716816282,92.5429889077664L129.73024891684764,98.6152527668053L130.26113622327293,96.13891878572956L130.52657987648556,90.5508378987663L131.06602988140156,102.01871105218557L131.23728385121615,101.54210551911814L131.305785439142,103.0880972207951L131.6739814742434,97.91671417153678L131.70823226820633,103.63561553223774L131.9051743334931,102.67910927650756L131.9308624289653,96.405486789401L132.13636719274282,98.25077660591559L132.16205528821502,79.38309388594223L132.2648076701038,87.1380686896508L133.21526720257484,89.50836898157043L133.2323925995563,98.89826299636931L133.4036465693709,83.12657007378061L134.07153705164785,88.03547265963189L135.0134338856282,78.25630182047128L135.27887753884082,88.35217677946076L135.5015076995998,84.4029215943131L136.05808310149726,89.06191680762137L136.2122116743304,88.56266500113462L136.31496405621917,87.96193548853378L136.34065215169136,82.46076493335846L136.79447517170007,88.99354954204247L136.82872596566298,93.1297622751231L137.3082370811439,99.39271375850784L137.4794910509585,103.06714700276652L137.83912438756914,99.2251285928914L138.1045680407818,95.65796145067286L138.1388188347447,93.91672494634432L138.1645069302169,97.94241854441202L138.224445819652,92.84952821185227L138.31007280455933,92.82883637798368L138.66114344267925,93.7004955229823L138.84096011098458,96.56007398109746L138.85808550796605,95.27886314212073L138.89233630192896,90.78460050968877L139.42322360835425,91.18602486364384L139.76573154798345,95.07658566444857L139.77429424647417,92.8913031954045L139.91129742232587,83.72127263615656L139.97123631176098,85.49323467254497L140.1510529800663,97.2563241891795L140.5791879046028,92.92898013828521L140.6819402864916,91.54513897966028L140.99019743215786,92.83533810263555L141.0843871155559,79.11923136224804L141.37551886424075,75.7602020392381L141.94065696462891,80.3604399491107L141.97490775859185,79.33108684989557L142.48010696954492,79.12370173649434L142.79692681370193,80.91978304045797L142.82261490917415,91.64151665386395L143.4134411050345,86.62933653088763L143.4391292005067,87.21934856131223L143.5504442808862,94.42018406876458L143.93576571296907,94.1186246260883L143.9785792054227,87.2797804115825L143.99570460240417,99.77177783813978L144.02139269787637,99.60884325513378L144.10701968278366,97.86914233543357L144.12414507976513,97.42750264099696L144.62934429071822,101.51343033377574L144.68072048166258,100.79468692794666L144.68928318015332,95.96139321695519L144.78347286355137,100.83363390325066L145.15166889865273,92.69070239370609L145.17735699412495,90.03251073427522L145.57980382318925,84.55213098599991L145.59692922017072,89.188689264663L146.02506414470722,99.0820995352837L146.10212843112382,97.81527748764154L146.17063001904967,97.80608514524693L146.6330157375491,91.24617528503494L146.78714431038222,96.44016269293671L146.84708319981732,89.62619973268065L146.95839828019683,94.50985391663707L147.12965225001142,99.56729202424481L147.24096733039093,98.72415310067869L147.30090621982603,103.98142671471774L147.49784828511284,91.17575905093297L147.5064109836036,100.64928503522802L147.54066177756647,101.43924219632224L147.75472923983472,103.73633892019272L147.99448479757518,103.20918636321365L148.0801117824825,91.59325915879873L148.20855225984343,80.43756158084733L148.49112131003753,85.99441029584928L148.58531099343557,86.35109109626896L148.93638163155552,85.55698441828532L149.16757449080524,89.85880400371812L149.39876735005495,78.8117079300047L149.40733004854567,76.96059965555771L149.65564830477683,78.3721096979548L150.0923459278041,82.75418500075L150.33210148554454,90.26957898072882L150.57185704328495,101.43569725075062L150.66604672668302,99.56815262736312L150.9229276814049,102.37132009483396L151.27399831952485,95.14146699725276L151.69357054557062,99.36721161230409L151.9418888018018,72.73717450974146L152.81528404785627,82.96732384326052L152.82384674634702,86.3646268384059L152.83240944483774,88.01755878305349L152.8752229372914,88.72923671040496L152.96941262068944,97.38049365245048L153.1834800829577,102.28686272555521L153.4146729422074,110.23458839793646L153.70580469089222,111.96131091584861L154.0996888214658,102.41696874754135L154.51069834902086,99.44147864611628L154.8018300977057,98.31947004707335L154.8275181931779,97.3449723848426L154.83608089166862,96.04186772242257L155.08439914789977,90.88246689185371L155.27277851469586,79.55392939138802L155.44403248451047,79.99979822000617L155.58103566036215,84.64774525455698L155.7951031226304,92.86377763766279L156.37736662000006,96.84214295734188L156.57430868528684,94.347618685073L157.6360832981374,98.8563512108962L157.92721504682223,100.16618423387685L158.01284203172952,89.11748323677763L158.47522775022895,96.09176482907998L158.5180412426826,97.63104675354921L158.9376134687284,98.2612727402989L159.1688063279781,90.25092730008765L159.17736902646882,87.44436723810855L159.50275156911658,94.16740527380131L159.92232379516236,94.01161898739093L160.28195713177303,96.00540332355114L160.69296665932808,97.17391154949931L160.76146824725393,102.76801461802997L161.75474127217862,101.57552905949609L161.88318174953957,88.21376060811787L161.9174325435025,95.8227256751724L162.03731032237275,99.88965306329919L162.20856429218733,95.2429269382568L162.790827789557,97.23600389303938L162.81651588502916,98.8880747468725L162.9963325533345,90.88724410999515L163.11621033220473,92.49609659899336L163.1418984276769,98.43692905615362L163.2189627140935,101.07386598040996L163.42446747787102,100.27312130302299L163.51865716126906,92.24935866507576L163.63853494013927,91.67139256954623L163.67278573410218,93.10220347877103L164.10948335712945,89.81722225875086L164.4434285982679,85.80194424186983L164.49480478921228,93.81392359847145L164.56330637713813,88.71182203373806L164.948627809221,85.5584381140908L165.2397595579058,82.13773665138314L165.49664051262775,81.96218013730827L165.582267497535,84.64422395396524L165.87339924621986,88.35162813185916L166.1730936933954,79.89472308813077L166.2844087737749,85.01671181466821L166.3357849647193,86.96184260986209L166.4556627435895,91.78740446229544L166.89236036661674,86.58212163429029L167.69725402474538,91.90760542584813L168.05688736135605,95.91436341352016L168.36514450702234,98.68065235036242L168.64771355721643,96.5099348964254L168.8104048285403,92.86566752600359L168.87034371797543,95.22357465068316L169.28135324553048,79.96251776945259L169.7608643610114,92.11478465714967L169.77798975799283,96.86761970546155L170.21468738102007,93.92080242608709L170.95107945122285,94.41538479303976L171.03670643613017,91.479163512909L171.35352628028718,100.09611690333621L171.4134651697223,100.29908234581211L171.43059056670376,85.6200409665923L173.01468978748883,90.9974627385253L173.0575032799425,97.71794018218338L173.32294693315515,106.60004447667964L173.33150963164587,99.11289331157133L173.38288582259025,94.13038385088403L173.54557709391412,97.23084113187879L173.80245804863603,95.3101230643915L173.81102074712675,101.89869846407728L173.8452715410897,102.38787784773137L173.9394612244877,101.80633449361113L174.8471072645051,103.0410796027118L175.14680171168067,100.52233107382368L175.3523064754582,76.8711544087147L176.74802632944724,83.47113362200233L176.79940252039162,68.88130096427135L177.09053426907644,74.45762399725706L177.17616125398374,69.28244787023537L177.32172712832616,82.8819780223126L177.5357945905944,91.2600046002899L177.6214215755017,98.50645638442843L177.7841128468256,105.32735771171673L178.10949538947332,101.59710765947723L178.2978747562694,82.3653721142439L179.30827317817554,92.0283345976481L180.0361025498876,95.93754046261391L180.31010890159098,96.90733364103957L180.69543033367384,95.02531336713314L180.9094977959421,99.07178635347066L181.13212795670105,102.65152518320296L181.1406906551918,107.05043662077928L181.15781605217327,94.665375980496L181.18350414764546,93.15492207647962L181.6801406601078,82.11012865912124L181.7572049465244,92.3991764779231L182.32234304691258,84.29405484788519L182.34803114238477,81.9005296074745L182.85323035333786,84.40040100340877L183.02448432315248,83.07313099704415L183.07586051409686,90.54751252119912L183.46974464467044,93.39394615540976L183.73518829788304,84.51682532265619L183.81225258429964,85.56645390987165L183.8807541722255,91.44114615221812L184.33457719223418,90.0637510665835L184.40307878016003,79.62912667260977L184.49726846355804,79.01128468482041L185.59329387037153,82.2570738222935L185.61898196584372,82.75883739511286L185.73885974471395,80.83241303326575L187.06607801077712,90.37502685882744L187.1174542017215,94.84111283612789L187.1517049956844,95.49529736350735L187.7425311915448,99.04168306121284L187.87953436739647,98.70214392783093L187.92234785985013,96.5508236261067L187.95659865381305,97.82982749839871L188.15354071909985,94.23769919955251L188.9926851711914,97.2567547780716L189.18106453798748,48.0307726095763L189.29237961836697,73.22756635461805L189.4721962866723,75.38576275797348L189.64345025648691,77.44974534154763L189.78045343233862,88.45834982122545L190.21715105536583,94.10318787857227L190.43121851763408,92.66900000135452L191.09054630142032,102.13085179299038L191.11623439689248,99.65013802853724L191.15048519085542,101.17681361315196L191.2789256682164,102.24948017945137L191.39880344708658,91.37939255568968L192.08381932634504,80.59361856295475L192.22082250219668,83.65796964403644L193.2140955271214,85.907380668554L193.99330108977784,90.53394258467164L194.2929955369534,89.75786986113066L194.6611915720548,96.79613271755414L194.9780114162118,93.0901243029703L194.98657411470256,81.05100713072736L195.29483126036885,84.03998117590837L195.4746479286742,95.41090286559894L195.75721697886829,100.85223857483363L195.87709475773852,99.74531811653236L196.42510746114522,103.57972345366554L196.8703677826632,103.61643584705037L197.1529368328573,100.40212250805205L197.51257016946795,97.83925645586709L197.69238683777328,92.9236366146993L197.90645430004156,99.70430926138063L198.72847335515164,106.1817638345425L198.94254081741994,102.17720823512802L199.19085907365107,103.17793746065794L199.24223526459545,101.64240273038499L199.32786224950277,85.55494384342033L199.5590551087525,78.45631374666358L199.5847432042247,69.82783054597628L199.99575273177973,86.34271712360867L200.10706781215922,85.23552826969244L200.14988130461288,93.19322033113386L200.4752638472606,83.2794936117472L200.56945353065865,92.25777484176069L200.74927019896398,97.58624638325264L201.07465274161174,102.33222738594803L201.2630321084078,105.84584411657531L201.50278766614824,99.39012464426945L201.56272655558334,86.38928882253205L201.59697734954628,89.71838415196568L201.69972973143504,95.87740778535331L201.7168551284165,88.03144047055432L202.17924084691595,85.99668134014271L202.51318608805443,92.56752337115209L202.94988371108164,93.4003491725962L203.1553884748592,89.0132831143015L203.34376784165522,87.8430007995437L203.57496070090494,94.5110023197769L204.4141051529965,100.60376245194534L204.6024845197926,96.56272844780047L205.2618123035788,96.25624238152335L205.39025278093976,99.2453918008214L205.67282183113386,102.1366213687368L205.92970278585574,104.47817463443396L206.04958056472597,100.3436489282635L206.1352075496333,103.20629453957336L206.1951464390684,106.84672301955545L206.52909168020688,106.79253182210412L207.00004009719703,95.77342356811637L207.14560597153945,89.26346826501582L207.22267025795603,98.33198618891456L207.28260914739113,94.89565848294806L207.3254226398448,99.47167055252298L208.0018758206125,95.90511479382052L208.27588217231585,98.3635570441219L208.48138693609337,91.70687652288251L208.56701392100067,92.77756904302623L208.78964408175966,100.12125429759676L209.09790122742595,95.33037833552463L209.44897186554587,98.47590133177567L209.4575345640366,103.62356687216943L209.6287885338512,97.23390924935067L209.88566948857311,101.49562735487606L210.57924806632226,100.02513536398371L210.70768854368322,93.41768943085363L210.88750521198858,99.29211592492322L211.11013537274755,97.62813763113834L211.19576235765484,99.31629339747452L211.3841417244509,91.81557306003613L211.6067718852099,93.41120189023553L212.87405126183796,88.44997507895515L213.12236951806915,93.98551323361197L213.41350126675397,99.6962386633088L213.67038222147588,96.83779418522354L213.69607031694807,74.98283826393079L213.92726317619778,84.9961029684987L214.20126952790113,93.27187111940432L214.29545921129917,94.79777312148092L214.68934334187279,98.81037388559209L214.7235941358357,94.86688837311675L214.94622429659466,88.60789794120436L214.97191239206688,93.52025113878241L215.2031052513166,95.10030249617441L215.21166794980732,93.91754978676448L215.63980287434381,98.25796491709718L215.81105684415843,100.69899677849637L215.9223719245379,103.2136027653856L216.18781557775057,97.14631451966311L216.77864177361093,90.22278152887219L216.80432986908312,89.24528634971169L216.90708225097188,95.97950088246373L216.94989574342551,94.40761666313543L217.54928463777665,85.13853400027817L217.63491162268397,84.83695623621887L217.6520370196654,95.16096761259975L218.94500449176567,84.72146943865344L219.31320052686706,77.66223734315336L219.35601401932075,78.06369928033943L219.48445449668168,93.73225380137156L219.72421005442212,95.89974926097922L219.80983703932944,99.31221109398072L220.0838433910328,97.62303798850884L220.24653466235665,101.25770317372688L220.37497513971763,100.20679454776294L220.8202354612356,83.08888232672012L220.98292673255946,88.26237265231894L220.99148943105018,93.3383158222191L221.20555689331846,99.19235174964295L221.27405848124428,92.27794950863768L221.30830927520722,97.3057934970806L221.58231562691057,99.89203151046809L221.88201007408614,96.74695755687257L222.35295849107632,97.68127195343634L222.6697783352333,93.355767200491L222.77253071712207,96.0020549936526L222.8924084959923,94.37306526868302L223.13216405373274,94.41428140878442L223.1407267522235,96.33937472020605L223.44898389788978,96.79349101573104L223.89424421940774,98.79058186784688L223.94562041035212,92.92055115813356L224.00555929978722,96.01909342211945L224.14256247563893,97.63096806595169L224.18537596809256,96.88917489160302L224.1939386665833,96.57757871655261L224.51932120923104,74.90970603584184L224.63063628961052,76.53787711289263L224.8789545458417,87.2962228389795L225.7009736009518,86.53157850581051L225.82941407831277,92.41210454124507L225.95785455567372,103.07930421197847L226.1804847164327,104.84241259766945L226.59149424398774,98.57454509897427L226.77131091229307,98.30160097904518L226.83981250021893,85.17402399599005L227.24225932928326,95.65221173185002L227.35357440966274,101.4594460582298L227.44776409306075,93.20744275109139L227.53339107796808,95.58004544469284L227.60189266589393,99.34050780980905L227.87589901759728,88.35519288619683L228.31259664062452,89.92860640240666L228.49241330892986,92.34630931609887L228.8092331530869,90.8968318358966L229.10892760026246,94.99804468101172L230.2135157055666,94.37238364209735L231.85755381578684,95.77532069654632L232.551132393536,99.43572184555808L232.63675937844326,98.29352055497364L232.94501652410958,86.34349685790274L233.0392062075076,90.48211386718566L233.05633160448906,92.27947712509942L233.10770779543344,102.81590876372228L233.51015462449774,100.89888022509275L233.53584271996996,107.889292086167L233.63003240336798,89.70545916446073L233.91260145356208,90.32075631061848L234.45205145847808,96.8139388956474L234.5462411418761,75.90917682794543L235.4453244834028,84.4484771524319L236.23309274454996,90.7456483892639L236.4129094128553,96.58168812254053L236.48141100078115,100.79628973024036L236.6355395736143,101.34020542150567L237.21780307098393,92.96143018711419L237.26917926192831,100.33513559670266L237.52606021665025,99.89283567758514L237.80862926684435,100.79773536020589L237.81719196533507,98.45213653619264L238.09976101552917,87.52565243496171L238.2881403823252,90.28955370539818L238.30526577930667,97.76127011223282L238.37376736723252,100.74785314795247L238.86184118120414,97.2444345362609L239.19578642234262,75.79507769573566L239.20434912083334,84.55158837300608L239.74379912574935,88.94775861322432L239.76092452273082,91.49160710954614L239.9064903970732,101.49940185020793L240.64288246727605,98.09544116844275L240.6942586582204,95.23508504538493L240.95970231143303,96.91958965990099L240.96826500992378,100.15283878504505L241.088142788794,101.10288095727478L241.32789834653445,111.42232059352428L243.50282376317992,107.21238887899739L243.90527059224422,99.50819921762536L244.1535888484754,106.81384165721886L244.18783964243832,95.38863516995261L244.28202932583636,105.16832724050714L244.59028647150265,100.49027584750675L244.60741186848412,105.62878240257486L244.6245372654656,89.04499230390465L245.04410949151134,86.5083937548099L245.24105155679814,89.6248047089932L245.2496142552889,95.04518633961426L245.41230552661276,95.24220954100657L245.626372988881,99.22628539584684L245.8233150541678,91.50267220891122L246.70527299871299,102.79195419594618L247.1248452247588,95.13487970405417L247.39885157646214,97.0672377546072L247.45879046589727,102.38765353907547L248.19518253610008,95.18440721836508L248.56337857120147,97.59372413719613L249.15420476706186,104.50915416282076L249.3425841338579,100.35755960735258L249.72790556594077,100.94033917315991L250.56705001803232,87.6325802671928L250.7811174803006,95.21759356909605L251.26062859578147,96.88014602777952L251.31200478672588,99.68871133526939L251.3548182791795,99.48585252442737L251.47469605804974,94.87908925805465L251.70588891729946,77.54393958691318L252.66491114826124,74.51294573033869L252.7419754346778,83.78617467599811L252.9389174999646,72.31481452142448L253.084483374307,84.3113297893215L253.31567623355673,87.89947173232719L253.58111988676936,93.06985792706675L253.71812306262106,104.44987154361795L253.72668576111178,100.48853169771976L253.81231274601907,97.22393147006602L254.91690085132328,96.72777072789125L255.04534132868423,100.00130075211281L255.81598419284992,102.61287400316932L256.3383088007845,96.15870114084896L256.8006945192839,96.98275181466354L257.46002230307016,90.265965414728L257.9224080215696,95.67500355127592L258.0422858004398,98.06050982219388L258.6673627902631,88.6972686790202L258.7786778706426,89.61230185115022L259.7120120061322,87.50616568456738L259.72913740311367,91.91837100996624L259.8575778804746,91.31909002078086L260.5854072521867,93.23254557125946L260.59396995067743,94.89145248197684L260.6196580461496,87.90314826715512L260.90222709634367,97.22291057791087L261.21904694050073,87.13267603784507L261.62149376956506,29.60011912018419L262.0924421865552,59.38790764817573L262.30650964882346,76.48981468974688L262.34076044278635,85.84119518291226L262.512014412601,84.15902858467264L262.85452235223016,90.25109207534118L263.55666362847006,98.68005568700832L264.43862157301527,91.09868399846798L264.68693982924646,90.24572155308599L265.17501364321805,97.22323442542559L265.31201681906975,96.32218412632933L265.4918334873751,87.4008983976078L265.7744025375692,90.77853694775668L265.95421920587455,85.52473851948372L266.3994795273925,94.95567478878496L266.46798111531837,99.58472923983842L266.8533025474012,102.66936996997688L267.0331192157065,95.28185721118902L267.0844954066509,93.29224306614323L267.3071255674099,84.59306068086826L267.88938906477955,82.86169592535894L267.9236398587425,87.5811451503962L268.7970351047969,95.10511085357828L269.21660733084275,96.91712871500151L269.32792241122223,87.1868167439024L269.4049866976388,89.71168184783771L269.6618676523607,106.36642369464323L270.59520178785027,103.87338638420384L270.61232718483177,95.0790609545863L270.6722660742669,93.09743403875675L270.78358115464636,91.77189164058385L270.95483512446094,96.04534436869058L271.04046210936826,87.62197180320621L271.1945906822014,90.16857166208669L271.5542240188121,96.18468400232825L272.29917878750564,101.0859683974009L272.3248668829778,93.28736688014779L272.4618700588295,94.85483177236355L272.5046835512831,98.09343767136006L272.5218089482646,102.25907749310477L272.65881212411625,99.94057126773828L273.04413355619914,96.12210765492999L273.35239070186543,90.30363680398698L273.6606478475317,87.67026764474592L274.508354998114,97.82905242301491L274.7138597618915,83.1105804435274L274.8337375407618,89.56048510466L274.9108018271783,96.88767968212237L275.1676827819002,90.35908275688209L275.3389367517148,100.51710036514469L275.42456373662213,96.6704349303585L275.5358788170016,96.33624997774167L275.63006850039966,90.25038912543516L276.1523931083342,90.8861389259787L276.31508437965806,85.6151130447503L276.9744121634443,96.398430587719L277.4881740728881,99.34738072776895L277.52242486685105,95.0876708291478L277.650865344212,96.77795652726422" style="fill: none;" fill="none"></path></g></g></g></g><g opacity="0.2"><g><g><g><path stroke="rgb(255, 112, 67)" stroke-width="2px" d="M15.324034382201347,-62.14829657115325L15.563789939941792,0.04312436425007604L15.598040733904714,-8.695179550586715L16.137490738820716,-26.02875475996214L16.368683598070433,30.592281392750692L17.028011381856658,50.778898636243525L17.242078844124915,60.376050124847L17.5503359897912,52.83606199768025L18.004159009799903,50.634350460096314L18.50079552226225,36.19539729289232L18.817615366419272,33.57517234090878L18.83474076340073,55.69277069917452L18.928930446798766,23.304478499617545L19.14299790906702,-26.31742740847079L19.485505848696228,38.026783573558816L19.759512200399595,14.277045639887433L19.785200295871785,31.092105193270555L19.828013788325435,54.568097888732154L20.102020140028802,61.00063839397825L20.46165347663947,37.52966495874816L20.487341572111664,21.22272402230641L21.08673046646278,31.431361555281L21.309360627221764,64.38130571548214L21.3778622151476,57.04880207294971L21.609055074397318,70.60093506837612L21.66899396383243,97.97445666693949L21.694682059304622,38.52955700427967L21.823122536665572,74.64818622270138L21.848810632137766,72.19832278519846L22.07144079289675,51.25100243139403L22.739331275173704,80.58786144729402L23.021900325367803,42.0601747251994L23.141778104238025,89.21953867481048L23.278781280089706,37.333139735495905L23.441472551413582,96.81420088664171L23.809668586514984,59.383132895481324L24.468996370301205,70.64622248455572L24.51180986275486,52.5948360250287L24.665938435588004,57.02905095801279L24.785816214458226,57.14926875907682L24.91425669181918,49.6824836090525L25.059822566161593,49.86586586679596L25.299578123902037,80.05270726956027L25.89040431976242,56.75059608926111L26.24147495788236,87.71120208634851L26.28428845033601,68.79678805224512L27.7827606862138,39.916901717453584L27.97114005300986,43.74867505226291L27.996828148482052,68.7865784206379L28.159519419805925,45.3813524055505L28.29652259565761,80.78516074477028L28.66471863075901,51.43366765196156L28.835972600573616,76.23731986385084L29.024351967369675,47.5169172636551L29.152792444730633,95.66854659065373L29.366859906998886,73.56893119883426L29.392548002471077,89.22972386196854L29.512425781341303,55.88800036662025L29.615178163230063,45.92155028796492L29.640866258702253,76.56780881675563L30.086126580220224,69.39034816721808L30.171753565127524,54.24212301077583L30.26594324852556,86.12474103830934L30.69407817306207,59.19588026661778L30.745454364006452,77.59874531274494L31.06227420816347,92.99312607242322L31.447595640246327,74.55531361211933L32.183987710449124,36.75928999471125L33.72527343878056,89.66925950266241L33.9050901070859,85.93534544606776L34.65004487577942,91.02826495108775L34.80417344861257,51.301463922649916L35.23230837314908,67.3998855594421L35.57481631277829,70.76428917409199L35.728944885611426,67.7981263773223L35.900198855426034,82.7435685315224L36.27695758901816,84.83530449224844L36.29408298599962,70.68385063999247L36.31977108147181,83.3093597522276L36.36258457392547,63.44102553334933L36.52527584524934,83.5813775826954L36.79928219695271,89.64554023880872L37.13322743809119,78.63466847636683L37.5613623626277,66.62943726205765L38.04087347810859,77.52925789187776L38.409069513209985,103.12106433050705L38.6402623724597,78.5317410490223L38.73445205585774,99.36859693698527L39.11977348794059,87.58304798745091L39.556471110967834,41.73908058892923L40.07023302041165,74.34980097971882L40.24148699022625,79.68333534616086L40.66105921627203,68.07298791204462L40.9350655679754,73.77719790584231L41.26901080911387,98.55929826170512L42.14240605516835,92.79806751612175L42.159531452149814,85.55085055677606L42.36503621592734,44.33737886999887L42.399287009890266,89.07134827573555L42.519164788760484,66.99959955598054L42.52772748725122,81.56104385802224L42.630479869139975,93.59218618846151L42.913048919334074,92.98468458930662L43.495312416703726,78.31354989564744L43.72650527595344,68.46064428343018L44.00907432614754,65.15241401299441L44.68552750691523,79.0866626379924L45.028035446544436,86.93990638139252L45.09653703447027,65.59123261651236L45.48185846655314,88.00464955059687L46.1240608533579,80.41045993144976L46.15831164732082,73.61306972590242L46.16687434581155,82.75042927359209L46.235375933737394,72.12897388287665L46.372379109589076,77.20532005135304L46.380941808079804,85.64031724077248L47.04883229035676,106.29636976038039L47.11733387828261,76.6653910578796L47.17727276771772,89.23643793734314L47.22008626017137,95.48426803644035L48.102044204716584,46.85614306158868L48.35036246094776,114.5031332018871L48.53017912925309,82.4121506895488L49.300821993418815,81.47608310082454L49.74608231493678,96.86330978504303L50.11427835003818,86.06201658171513L50.174217239473286,81.84493354264147L50.45678628966739,68.4314168703614L50.7136672443893,102.32129084225713L50.74791803835221,97.45515064042368L52.040885510452476,69.13841552582599L52.17788868630416,81.93933800537211L52.374830751590956,67.39647963285643L52.56321011838702,103.73464037528302L52.828653771599654,92.18707850888394L53.222537902173244,50.88048161888318L53.71061171614487,95.96078812874258L53.83905219350582,87.79105395366771L54.07024505275554,42.512731109156135L54.26718711804233,96.60842751344995L54.39562759540328,54.279897832907636L54.66107124861592,88.47421112303269L54.92651490182856,79.16271746753911L55.063518077680236,74.9225181276915L55.83416094184596,77.41723712943855L55.928350625243986,87.86056581898406L56.424987137706346,102.15722784751507L57.04150142903892,81.68432536338342L57.1785046048906,94.40203078977333L57.375446670177396,82.22630769058794L57.39257206715886,78.77502850355464L57.409697464140315,88.86180230922045L57.48676175055689,86.16900178762342L57.76076810226026,56.24741525105395L57.88064588113048,91.59189691211543L57.94058477056559,86.24878846974481L58.17177762981531,104.19197157497945L58.20602842377822,109.10306511885372L58.31734350415771,88.04661252168808L58.642726046805464,49.588168775968825L58.95098319247175,94.42369671989596L59.88431732796135,62.487023867077156L60.24395066457202,84.28040734772749L60.25251336306275,95.97753257643042L60.5522078102383,79.80770055543566L60.817651463450936,94.97257238176906L61.05740702119138,89.90139214021923L61.160159403080144,101.06183133903984L61.22009829251526,86.17224475121454L61.339976071385486,97.89791294840923L61.399914960820595,53.12052205278033L61.605419724598114,47.04909124711102L61.72529750346834,55.863246287751295L61.8280498853571,74.45137581420873L62.024991950643894,100.80115573299126L62.06780544309755,42.9577748990651L62.42743877970822,104.81900021495377L62.744258623865235,89.03728900987899L62.79563481480962,107.74962893076642L63.54058958350314,97.42069211523052L63.60052847293826,77.5996904981132L64.08003958841915,72.40488652891368L64.51673721144638,69.42323409951402L64.9448721359829,84.32801698657914L66.24640230657388,92.20117480791069L66.29777849751827,84.06583397283117L66.45190707035141,67.89147972873823L66.52040865827725,87.07186566621237L67.07698406017472,79.47775752856253L67.1283602511191,95.86637551786221L67.15404834659128,79.34869898504532L67.2396753314986,60.48816866508294L67.27392612546151,97.12740761397671L67.29105152244297,79.55878272944236L67.33386501489663,105.88828190355575L68.25863645189548,106.39524348323599L68.32713803982134,78.60897736027931L68.33570073831207,43.30995422654169L68.47270391416374,95.29193911029725L69.78279678324546,103.47874773312387L69.99686424551372,97.86625738672197L70.87882219005893,81.40085123440025L71.64090235573391,97.69759068738446L72.0604745817797,94.48136117551005L72.97668332028783,95.37059319960666L73.26781506897267,83.26415381754525L73.6788245965277,83.71519464565289L73.71307539049063,95.35403615936251L73.78157697841647,89.666888391092L74.12408491804568,56.94020353339559L74.14121031502714,78.98109521013654L74.20114920446225,91.98577032174227L74.23539999842517,107.68834669667379L74.62928412899878,118.78161254914954L74.74059920937826,88.05189252271082L74.76628730485045,112.19283127289879L74.91185317919286,71.73527158439406L74.92897857617432,108.76438320139899L75.09166984749818,101.89957520501501L75.61399445543273,87.01704491485282L75.70818413883077,82.7494840882238L75.9736277920434,89.46096835120518L76.00787858600633,76.43852212504605L76.03356668147852,104.43046791747263L76.9326500230052,78.79270998846101L77.03540240489394,101.28737212346796L77.2152190731993,98.27531079928919L77.24090716867148,86.32952848538419L77.30084605810659,88.99577418702273L77.60054050528214,64.48775314350848L78.71369130907708,72.3904724520476L78.97057226379899,88.17827032496804L79.12470083663213,95.27719910744209L79.41583258531696,88.88979935168054L79.62133734909447,104.69014130110484L79.7412151279647,71.12248998421643L80.20360084646413,97.56536251362364L81.06843339402788,101.52269068756782L81.25681276082395,95.73435919599427L81.97607943404529,105.84247300579365L82.0360183234804,85.1977341920809L82.07883181593404,84.10386138760452L82.90941356953486,98.01786186053228L84.03968977031126,90.74993230458195L84.08250326276492,84.19843696147942L84.4763873933385,85.81503801535672L84.99871200127305,91.48104948323682L85.5295993076983,102.40027900570533L85.61522629260563,98.80817534694981L85.67516518204073,90.77286934606191L85.72654137298512,114.12779275881306L85.84641915185533,106.57262055463106L85.94917153374409,100.82586907111158L86.00911042317921,101.88005223827045L86.06904931261433,70.28698685941603L86.206052488466,93.70501361772367L86.52287233262302,74.6564158539251L86.76262789036348,84.47056071789365L87.23357630735362,81.38095345276825L87.57608424698284,83.83868800290695L87.5932096439643,76.26454283208692L87.72165012132524,85.35131051812503L87.7644636137789,93.19167203680762L87.90146678963058,85.31227273278562L87.97853107604716,94.76539752682436L88.19259853831541,88.0010562165675L88.99749219644404,84.1553984346243L89.01461759342551,111.2338021982454L89.75100966362831,94.12804925522147L89.9479517289151,52.2869255950159L89.98220252287803,103.24284657631857L90.07639220627605,99.72555108020157L90.08495490476678,87.68157541394314L90.13633109571117,92.4179318869337L90.40177474892381,84.9225956202679L90.65865570364572,106.4547209021642L91.0525398342193,102.95312281649521L91.08679062818223,82.5244973779771L92.25988032141225,61.98597784409833L92.44825968820834,92.7084949061789L92.58526286406001,99.98749779760747L93.18465175841112,96.64774233588008L93.39015652218865,78.78867665434643L93.62134938143836,107.00045545231774L94.46049383352992,94.14866407402938L94.49474462749285,68.04181309119122L95.65070892374142,74.82987366530176L95.66783432072289,103.39425956861032L95.8134001950653,67.13348995228554L95.95040337091697,92.80376307278054L96.59260575772174,115.48914080028474L96.71248353659198,90.04587513116863L97.21768274754506,106.1056215752842L97.44887560679476,86.96835157208756L97.47456370226695,54.17615559059048L97.68006846604447,105.61675296207154L97.89413592831274,100.12102967532452L98.01401370718297,76.25410505228734L98.27089466190488,93.3008165023934L98.32227085284924,94.52724340661968L98.34795894832143,105.24171807461225L98.83603276229306,88.13841772465598L99.19566609890373,96.01196665717441L99.24704228984811,93.48930765001536L99.31554387777395,76.15351614391432L100.16325102835624,73.83408013908264L100.3516303951523,109.3790062834148L100.70270103327223,82.36177882793989L100.78832801817954,93.45892319968544L100.86539230459613,73.28944966321704L101.05377167139218,88.19016662356867L101.26783913366044,99.0523183572034L101.56753358083598,92.21166962475836L101.71309945517841,80.20002581661447L101.790163741595,84.75238077248237L102.31248834952952,92.41341781198525L102.53511851028851,103.17701360060371L102.64643359066801,73.04552665300605L102.95469073633429,98.94700352198905L102.98037883180648,93.41757948797343L103.13450740463962,98.14376707010538L103.97365185673118,96.35161413037173L104.3161597963604,97.94188036433314L104.41034947975842,101.37313954748856L104.47885106768426,76.59375252548465L104.54735265561011,77.01431112546562L104.58160344957304,79.47554937998667L104.69291852995252,108.59389131652276L104.81279630882275,95.53939026933979L105.57487647449773,52.83391088615245L105.66906615789577,86.35653960172736L105.97732330356204,101.39136695842663L106.23420425828395,42.289300695507166L106.645213785839,97.18995281127692L106.9277828360331,88.26198441525759L107.0390979164126,77.94631278747636L107.08191140886625,82.40918476304836L107.35591776056962,104.57146757441397L107.44154474547693,49.88607327811755L107.72411379567102,77.9811379794072L107.73267649416174,100.86356241174613L108.01524554435585,84.14186435792868L108.15224872020752,92.430284481919L108.16937411718898,106.64550575393416L108.31493999153139,105.2300377019794L108.46050586587381,86.86262118123716L108.47763126285528,103.68294036526869L108.67457332814207,88.13704068735221L108.69169872512353,93.16762684696486L108.89720348890106,101.30156620029143L108.90576618739179,113.36669446323972L109.29108761947464,104.12110304273365L109.51371778023363,94.31639373614834L109.88191381533503,81.6062253482554L109.89047651382576,106.13606713673707L109.91616460929795,90.08075736014756L110.14735746854767,100.81599351364314L110.3528622323252,52.15906482950845L110.4384892172325,88.5812370696896L110.66968207648222,72.80289105045182L111.22625747837967,92.84746159976348L111.53451462404597,100.82291129276088L111.70576859386057,93.30562391073201L111.9112733576381,98.16009596215719L112.50209955349847,101.28779582725373L112.61341463387797,100.83268907243261L113.40118289502514,88.42695185461928L113.4183082920066,83.63949833469415L113.44399638747879,107.3639281153152L113.52962337238608,103.79162038632009L113.62381305578413,98.50235084326698L114.16326306070012,56.965120575259064L114.47152020636642,79.98115836681232L115.20791227656922,30.317216154285205L115.40485434185601,90.2621596175075L115.9699924422442,76.38269915127016L116.00424323620713,91.13652126835335L116.32962577885486,86.98981379846704L116.49231705017876,98.54762196314712L116.91188927622453,102.41226493395294L117.64828134642732,119.38756192578155L117.7253456328439,106.81497912009458L118.16204325587114,98.25441894339056L118.4360496075745,92.54181635537464L118.53880198946327,109.85532674604872L119.12106548683293,78.5367929018527L119.27519405966606,54.37664896275949L119.2837567581568,90.7475123041132L119.42932263249921,100.80610165987522L119.47213612495285,29.499630810733265L119.626264697786,99.24133913455758L120.20852819515567,83.30411234380378L120.37121946647953,81.57004756346996L120.98773375781211,84.14713621080168L121.13329963215452,91.13966645414776L121.24461471253402,101.73909739615259L121.51862106423738,112.18409645639203L121.97244408424609,104.34369419696081L122.0323829736812,76.52701917922504L122.0923218631163,105.19366028752566L122.18651154651434,99.30777914742706L122.19507424500507,88.18917254930204L122.6574599635045,76.57465326252586L122.7430869484118,73.97254164738419L122.80302583784692,98.06306779521464L122.81158853633765,100.34198305145665L123.5394179080497,67.02895733944493L123.63360759144774,72.30604947273184L123.83911235522527,101.17236913822885L124.05317981749351,107.35824885495587L124.11311870692863,107.77526708388069L124.15593219938228,99.53186956120388L124.51556553599295,104.57992942790489L124.59262982240952,83.62510055412753L124.66969410882609,85.03042823374771L125.39752348053817,111.81552712574067L125.65440443526008,104.49143644780078L125.71434332469518,86.9551189769318L125.79140761111175,77.45705713715171L126.3137322190463,89.37713203866974L126.34798301300921,100.7524297976271L126.39079650546286,103.54812107989487L126.59630126924039,85.7915224552462L126.69049095263843,85.31914977115473L126.72474174660135,87.85415322514935L126.94737190736033,82.88376559571569L127.0501242892491,98.81755386728494L127.49538461076706,39.88312763683746L128.0433973141738,85.9611506362514L128.06052271115524,91.94352216541063L128.14614969606257,98.79583090011424L128.4115933492752,92.9927186649369L128.8140401783395,101.86032556778271L129.01098224362633,82.8230455839542L129.43911716816282,95.98590887434922L129.73024891684764,107.72364855536364L130.26113622327293,92.42441781411596L130.52657987648556,82.16871656832139L131.06602988140156,119.22052078231448L131.23728385121615,100.82719721951699L131.305785439142,105.40708477331054L131.6739814742434,90.15963959764932L131.70823226820633,112.2139675732892L131.9051743334931,101.2443498929123L131.9308624289653,86.99505305874114L132.13636719274282,101.01871133068747L132.16205528821502,51.08156980598223L132.2648076701038,98.77053089521361L133.21526720257484,93.0638194194499L133.2323925995563,112.98310401856766L133.4036465693709,59.46903068989754L134.07153705164785,95.3988265384088L135.0134338856282,63.58754556173035L135.27887753884082,103.49598921794504L135.5015076995998,78.47903881659164L136.05808310149726,96.05040962758379L136.2122116743304,87.81378729140451L136.31496405621917,87.0608412196325L136.34065215169136,74.20900910059551L136.79447517170007,98.79272645506846L136.82872596566298,99.33408137474403L137.3082370811439,108.78714098358496L137.4794910509585,108.5787968691545L137.83912438756914,93.46210097807875L138.1045680407818,90.30721073734505L138.1388188347447,91.30487018985151L138.1645069302169,103.98095894151358L138.224445819652,85.21019271301265L138.31007280455933,92.79779862718078L138.66114344267925,95.0079842404802L138.84096011098458,100.8494416682702L138.85808550796605,93.35704688365564L138.89233630192896,84.04320656104083L139.42322360835425,91.78816139457642L139.76573154798345,100.91242686565566L139.77429424647417,89.61337949183842L139.91129742232587,69.96622679728462L139.97123631176098,88.1511777271276L140.1510529800663,114.90095846413126L140.5791879046028,86.43796406194379L140.6819402864916,89.46937724172287L140.99019743215786,94.77063678709845L141.0843871155559,58.54507125166681L141.37551886424075,70.72165805472319L141.94065696462891,87.26079681391955L141.97490775859185,77.78705720107291L142.48010696954492,78.81262406639247L142.79692681370193,83.61390499640338L142.82261490917415,107.7241170739729L143.4134411050345,79.11106634642313L143.4391292005067,88.10436660694916L143.5504442808862,105.22143732994313L143.93576571296907,93.66628546207386L143.9785792054227,77.02151408982381L143.99570460240417,118.50977397797574L144.02139269787637,99.36444138062478L144.10701968278366,95.25959095588323L144.12414507976513,96.76504309934204L144.62934429071822,107.64232187294394L144.68072048166258,99.71657181920303L144.68928318015332,88.71145265046799L144.78347286355137,108.14199493269386L145.15166889865273,80.4763051293892L145.17735699412495,86.04522324512892L145.57980382318925,76.33156136358694L145.59692922017072,96.14352668265765L146.02506414470722,113.92221494121473L146.10212843112382,95.91504441617828L146.17063001904967,97.79229663165499L146.6330157375491,81.40631049471698L146.78714431038222,104.23114380478935L146.84708319981732,79.4052552922966L146.95839828019683,101.83533519257168L147.12965225001142,107.15344918565643L147.24096733039093,97.45944471532952L147.30090621982603,111.86733713577631L147.49784828511284,71.9672575552558L147.5064109836036,114.85957401167062L147.54066177756647,102.62417793796358L147.75472923983472,107.18198400599846L147.99448479757518,102.41845752774505L148.0801117824825,74.16936835217632L148.20855225984343,63.70401521392023L148.49112131003753,94.32968336835218L148.58531099343557,86.88611229689852L148.93638163155552,84.36582440130987L149.16757449080524,96.31153338186732L149.39876735005495,62.24106381943457L149.40733004854567,74.18393724388721L149.65564830477683,80.48937476155042L150.0923459278041,89.32729795494278L150.33210148554454,101.54266995069707L150.57185704328495,118.18487465578329L150.66604672668302,96.76683569228186L150.9229276814049,106.57607129604021L151.27399831952485,84.29668735088093L151.69357054557062,105.70582853488109L151.9418888018018,32.79211885589751L152.81528404785627,98.31254784353906L152.82384674634702,91.46058133112396L152.83240944483774,90.49695670002488L152.8752229372914,89.79675360143217L152.96941262068944,110.35737906551876L153.1834800829577,109.64641633521228L153.4146729422074,122.15617690650834L153.70580469089222,114.55139469271685L154.0996888214658,88.10045549508045L154.51069834902086,94.97824349397867L154.8018300977057,96.63645714850895L154.8275181931779,95.8832258914965L154.83608089166862,94.08721072879251L155.08439914789977,83.14336564600039L155.27277851469586,62.56112314068952L155.44403248451047,80.66860146293341L155.58103566036215,91.61966580638317L155.7951031226304,105.18782621232153L156.37736662000006,102.80969093686052L156.57430868528684,90.6058322766697L157.6360832981374,105.619449999631L157.92721504682223,102.13093376834782L158.01284203172952,72.54443174112886L158.47522775022895,106.55318721753349L158.5180412426826,99.93996964025308L158.9376134687284,99.20661172042345L159.1688063279781,78.2354091397708L159.17736902646882,83.2345271451399L159.50275156911658,104.25196232734044L159.92232379516236,93.77793955777538L160.28195713177303,98.99607982779145L160.69296665932808,98.92667388842156L160.76146824725393,111.15916922082599L161.75474127217862,99.78680072169529L161.88318174953957,68.17110793105053L161.9174325435025,107.2361732757542L162.03731032237275,105.99004414548938L162.20856429218733,88.27283775069323L162.790827789557,100.22561932521323L162.81651588502916,101.36618102762218L162.9963325533345,78.88599815467916L163.11621033220473,94.90937533249071L163.1418984276769,107.34817774189398L163.2189627140935,105.02927136679453L163.42446747787102,99.0720042869425L163.51865716126906,80.21371470815492L163.63853494013927,90.80444342625191L163.67278573410218,95.24841984260827L164.10948335712945,84.88975042872057L164.4434285982679,79.77902721654829L164.49480478921228,105.83189263337385L164.56330637713813,81.058669686638L164.948627809221,80.8283622346199L165.2397595579058,77.00668445732165L165.49664051262775,81.69884536619595L165.582267497535,88.66728967895064L165.87339924621986,93.91273439870004L166.1730936933954,67.20936552253823L166.2844087737749,92.69969490447433L166.3357849647193,89.87953880265289L166.4556627435895,99.02574724094546L166.89236036661674,78.77419739228253L167.69725402474538,99.89583111318491L168.05688736135605,101.92450039502822L168.36514450702234,102.83008575562582L168.64771355721643,93.25385871551988L168.8104048285403,87.39926647037085L168.87034371797543,98.76043533770253L169.28135324553048,57.07093244760674L169.7608643610114,110.3431849886953L169.77798975799283,103.99687227792934L170.21468738102007,89.50057650702546L170.95107945122285,95.15725834346875L171.03670643613017,87.0748315927128L171.35352628028718,113.02154698897705L171.4134651697223,100.60353050952595L171.43059056670376,63.601478897762576L173.01468978748883,99.06359539642482L173.0575032799425,107.79865634767047L173.32294693315515,119.92320091842403L173.33150963164587,87.88216656390887L173.38288582259025,86.65661965985306L173.54557709391412,101.88152705337093L173.80245804863603,92.42904596316058L173.81102074712675,111.78156156360596L173.8452715410897,103.1216469232125L173.9394612244877,100.93401946243075L174.8471072645051,104.89319726636283L175.14680171168067,96.74420828049152L175.3523064754582,41.394389411051236L176.74802632944724,93.37110244193376L176.79940252039162,46.99655197767487L177.09053426907644,82.82210854673566L177.17616125398374,61.51968367970282L177.32172712832616,103.28127325042851L177.5357945905944,103.82704446725582L177.6214215755017,109.37613406063622L177.7841128468256,115.55870970264917L178.10949538947332,96.00173258111798L178.2978747562694,53.51776879639391L179.30827317817554,106.52277832275438L180.0361025498876,101.80134926006266L180.31010890159098,98.36202340867806L180.69543033367384,92.20228295627348L180.9094977959421,105.14149583297693L181.13212795670105,108.02113342780144L181.1406906551918,113.64880377714373L181.15781605217327,76.08778502007105L181.18350414764546,90.88924122045506L181.6801406601078,65.5429385330837L181.7572049465244,107.83274820612593L182.32234304691258,72.13637240282827L182.34803114238477,78.3102417468585L182.85323035333786,88.15020809731017L183.02448432315248,81.08222598749717L183.07586051409686,101.75908480743156L183.46974464467044,97.66359660672572L183.73518829788304,71.20114407352584L183.81225258429964,87.14089679069485L183.8807541722255,100.25318451573781L184.33457719223418,87.99765843813157L184.40307878016003,63.97719008164917L184.49726846355804,78.0845217031364L185.59329387037153,87.12575752850312L185.61898196584372,83.51148275434191L185.73885974471395,77.94277649049508L187.06607801077712,104.68894759716991L187.1174542017215,101.54024180207858L187.1517049956844,96.47657415457655L187.7425311915448,104.36126160777103L187.87953436739647,98.19283522775807L187.92234785985013,93.32384317352036L187.95659865381305,99.74833330683673L188.15354071909985,88.84950675128323L188.9926851711914,101.78533814585019L189.18106453798748,-25.80820064316663L189.29237961836697,111.02275697218063L189.4721962866723,78.62305736300661L189.64345025648691,80.54571921690882L189.78045343233862,104.97125654074222L190.21715105536583,102.57044496459251L190.43121851763408,90.51771818552787L191.09054630142032,116.32362948044421L191.11623439689248,95.92906738185751L191.15048519085542,103.46682699007407L191.2789256682164,103.85848002890046L191.39880344708658,75.07426112004717L192.08381932634504,64.41495757385238L192.22082250219668,88.25449626565899L193.2140955271214,89.28149720533041L193.99330108977784,97.47378545884807L194.2929955369534,88.59376077581916L194.6611915720548,107.3535270021894L194.9780114162118,87.53111168109453L194.98657411470256,62.99233137236294L195.29483126036885,88.52344224367991L195.4746479286742,112.46728540013477L195.75721697886829,109.01424213868569L195.87709475773852,98.08493742908041L196.42510746114522,109.33133145936534L196.8703677826632,103.67150443712762L197.1529368328573,95.58065249955453L197.51257016946795,93.99495737758964L197.69238683777328,85.55020685294767L197.90645430004156,109.87531823140256L198.72847335515164,115.89794569428531L198.94254081741994,96.1703748360063L199.19085907365107,104.67903129895282L199.24223526459545,99.33910063497552L199.32786224950277,61.423755512973315L199.5590551087525,67.80836860152846L199.5847432042247,56.88510574494532L199.99575273177973,111.11504699005727L200.10706781215922,83.57474498881805L200.14988130461288,105.12975842329598L200.4752638472606,68.40890353266722L200.56945353065865,105.72519668678086L200.74927019896398,105.57895369549055L201.07465274161174,109.45119888999113L201.2630321084078,111.11626921251623L201.50278766614824,89.70654543581064L201.56272655558334,66.88803508992598L201.59697734954628,94.7120271461161L201.69972973143504,105.11594323543478L201.7168551284165,76.26248949835585L202.17924084691595,82.94454264452528L202.51318608805443,102.42378641766614L202.94988371108164,94.64958787476232L203.1553884748592,82.43268402685946L203.34376784165522,86.087577327407L203.57496070090494,104.51300460012669L204.4141051529965,109.74290265019803L204.6024845197926,90.50117744158318L205.2618123035788,95.79651328210763L205.39025278093976,103.72911592976848L205.67282183113386,106.4734657206099L205.92970278585574,107.99050453297973L206.04958056472597,94.1418603690078L206.1352075496333,107.50026295653815L206.1951464390684,112.30736573952862L206.52909168020688,106.71124502592714L207.00004009719703,79.24476118713473L207.14560597153945,79.49853531036499L207.22267025795603,111.93476307476267L207.28260914739113,89.74116692399832L207.3254226398448,106.33568865688537L208.0018758206125,90.5552811557668L208.27588217231585,102.05122041957397L208.48138693609337,81.72185574102346L208.56701392100067,94.38360782324183L208.78964408175966,111.13678217945257L209.09790122742595,88.14406439241642L209.44897186554587,103.19418582615222L209.4575345640366,111.34506518276007L209.6287885338512,87.64942281512256L209.88566948857311,107.88820451316414L210.57924806632226,97.81939737764516L210.70768854368322,83.5065205311585L210.88750521198858,108.10375566602764L211.11013537274755,95.13217019046101L211.19576235765484,101.84852704697882L211.3841417244509,80.56449255387857L211.6067718852099,95.80464513553463L212.87405126183796,81.00813486203455L213.12236951806915,102.28882046559723L213.41350126675397,108.26232680785408L213.67038222147588,92.55012746809562L213.69607031694807,42.2004043819916L213.92726317619778,100.01600002535059L214.20126952790113,105.68552334576277L214.29545921129917,97.08662612459582L214.68934334187279,104.82927503175884L214.7235941358357,88.95166010440374L214.94622429659466,79.21941229333574L214.97191239206688,100.8887809351495L215.2031052513166,97.47037953226243L215.21166794980732,92.14342072264961L215.63980287434381,104.76858761259624L215.81105684415843,104.3605445705951L215.9223719245379,106.98551174571944L216.18781557775057,88.0453821510794L216.77864177361093,79.83748204268585L216.80432986908312,87.77904358097092L216.90708225097188,106.08082268159174L216.94989574342551,92.04979033414298L217.54928463777665,71.23491000599226L217.63491162268397,84.38458959012988L217.6520370196654,110.64698467717109L218.94500449176567,69.06222217773394L219.31320052686706,67.07338919990325L219.35601401932075,78.66589218611855L219.48445449668168,117.23508558291971L219.72421005442212,99.15099245039072L219.80983703932944,104.430903843483L220.0838433910328,95.089278330301L220.24653466235665,106.70970095155398L220.37497513971763,98.63043160881703L220.8202354612356,57.41201399515592L220.98292673255946,96.02260814071715L220.99148943105018,100.95223057706937L221.20555689331846,107.97340564077876L221.27405848124428,81.90634614712972L221.30830927520722,104.84755947974499L221.58231562691057,103.7713885305493L221.88201007408614,92.02934662647932L222.35295849107632,99.08274354828197L222.6697783352333,86.86751007107303L222.77253071712207,99.971486683395L222.8924084959923,91.92958068122867L223.13216405373274,94.47610561893649L223.1407267522235,99.22701468733848L223.44898389788978,97.47466545901852L223.89424421940774,101.78621814602064L223.94562041035212,84.11550509356361L224.00555929978722,100.66690681809828L224.14256247563893,100.04878003170009L224.18537596809256,95.77648513008L224.1939386665833,96.11018445397703L224.51932120923104,42.40789701477564L224.63063628961052,78.98013372846883L224.8789545458417,103.43374142810983L225.7009736009518,85.38461200605703L225.82941407831277,101.23289359439691L225.95785455567372,119.08010371807856L226.1804847164327,107.48707517620589L226.59149424398774,89.17274385093148L226.77131091229307,97.89218479915154L226.83981250021893,65.48265852140742L227.24225932928326,111.36949333563996L227.35357440966274,110.17029754779948L227.44776409306075,80.82943779038379L227.53339107796808,99.13894948509501L227.60189266589393,104.98120135748334L227.87589901759728,71.87722050077853L228.31259664062452,92.2887266767214L228.49241330892986,95.97286368663717L228.8092331530869,88.72261561559324L229.10892760026246,101.1498639486844L230.2135157055666,93.43389208372578L231.85755381578684,97.87972627821979L232.551132393536,104.9263235690757L232.63675937844326,96.580218619097L232.94501652410958,68.41846131229636L233.0392062075076,96.69003938111008L233.05633160448906,94.97552201197003L233.10770779543344,118.62055622165654L233.51015462449774,98.02333741714847L233.53584271996996,118.3749098777784L233.63003240336798,62.42970978190132L233.91260145356208,91.24370202985506L234.45205145847808,106.55371277319084L234.5462411418761,44.552033726392466L235.4453244834028,97.25742763916166L236.23309274454996,100.19140524451187L236.4129094128553,105.33574772245548L236.48141100078115,107.11819214179008L236.6355395736143,102.15607895840364L237.21780307098393,80.39326733552696L237.26917926192831,111.39569371108537L237.52606021665025,99.22938579890888L237.80862926684435,102.15508488413701L237.81719196533507,94.93373830017279L238.09976101552917,71.13592628311535L238.2881403823252,94.43540561105287L238.30526577930667,108.96884472248479L238.37376736723252,105.22772770153195L238.86184118120414,91.98930661872355L239.19578642234262,43.62104243494781L239.20434912083334,97.6863543889117L239.74379912574935,95.5420139735517L239.76092452273082,95.30737985402887L239.9064903970732,116.51109396120063L240.64288246727605,92.98950014579495L240.6942586582204,90.9445508607982L240.95970231143303,99.44634658167504L240.96826500992378,105.00271247276117L241.088142788794,102.52794421561934L241.32789834653445,126.90148004789853L243.50282376317992,100.89749130720708L243.90527059224422,87.95191472556728L244.1535888484754,117.7723053166091L244.18783964243832,78.25082543905323L244.28202932583636,119.83786534633893L244.59028647150265,93.47319875800618L244.60741186848412,113.33654223517699L244.6245372654656,64.16930715589939L245.04410949151134,82.70349593116772L245.24105155679814,94.29942114026815L245.2496142552889,103.17575878554585L245.41230552661276,95.53774434309504L245.626372988881,105.20239917810727L245.8233150541678,79.91725242850777L246.70527299871299,119.7258771764986L247.1248452247588,83.64926796621617L247.39885157646214,99.96577483043676L247.45879046589727,110.3682772157779L248.19518253610008,84.37953773729947L248.56337857120147,101.20769951544273L249.15420476706186,114.8822992012577L249.3425841338579,94.13016777415034L249.72790556594077,101.81450852187088L250.56705001803232,67.67094190824216L250.7811174803006,106.59511352195094L251.26062859578147,99.37397471580474L251.31200478672588,103.9015592965042L251.3548182791795,99.18156430816435L251.47469605804974,87.96894435849555L251.70588891729946,51.54121508020097L252.66491114826124,69.96645494547695L252.7419754346778,97.69601809448726L252.9389174999646,55.10777428956409L253.084483374307,102.30610269116703L253.31567623355673,93.2816846468357L253.58111988676936,100.82543721917608L253.71812306262106,121.51989196844475L253.72668576111178,94.54652192887247L253.81231274601907,92.32703112858543L254.91690085132328,95.98352961462909L255.04534132868423,104.91159578844515L255.81598419284992,106.53023387975408L256.3383088007845,86.47744184736842L256.8006945192839,98.21882782538545L257.46002230307016,80.19078581482468L257.9224080215696,103.7885607560978L258.0422858004398,101.63876922857081L258.6673627902631,74.6524069642597L258.7786778706426,90.98485160934521L259.7120120061322,84.34696143469314L259.72913740311367,98.5366789980645L259.8575778804746,90.42016853700282L260.5854072521867,96.10272889697733L260.59396995067743,97.37981284805294L260.6196580461496,77.42069194492257L260.90222709634367,111.20255404404448L261.21904694050073,71.9973242277464L261.62149376956506,-56.69871625630711L262.0924421865552,104.06959044016304L262.30650964882346,102.14267525210363L262.34076044278635,99.86826592266033L262.512014412601,81.63577868731323L262.85452235223016,99.389187311344L263.55666362847006,111.32350110450902L264.43862157301527,79.7266264656575L264.68693982924646,88.96627788501297L265.17501364321805,107.68950373393494L265.31201681906975,94.97060867768498L265.4918334873751,74.01896980452551L265.7744025375692,95.84499477298L265.95421920587455,77.64404087707427L266.3994795273925,109.10207919273682L266.46798111531837,106.52831091641863L266.8533025474012,107.29633106518459L267.0331192157065,84.20058807300721L267.0844954066509,90.30782184857453L267.3071255674099,71.5442871029558L267.88938906477955,80.26464879209495L267.9236398587425,94.66031898795205L268.7970351047969,106.39105940835145L269.21660733084275,99.63515550713633L269.32792241122223,72.59134878725376L269.4049866976388,93.49897950374066L269.6618676523607,131.34853646485152L270.59520178785027,100.13383041854478L270.61232718483177,81.88757281015998L270.6722660742669,90.12499366501245L270.78358115464636,89.7835780433245L270.95483512446094,102.45552346085067L271.04046210936826,74.98691295497964L271.1945906822014,93.98847145040739L271.5542240188121,105.20885251269063L272.29917878750564,108.43789499000988L272.3248668829778,81.5894646042681L272.4618700588295,97.20602911068721L272.5046835512831,102.95134651985484L272.5218089482646,108.50753722572185L272.65881212411625,96.46281192968857L273.04413355619914,90.39441223571751L273.35239070186543,81.57593052757247L273.6606478475317,83.72021390588438L274.508354998114,113.06722959041839L274.7138597618915,61.032872474296084L274.8337375407618,99.23534209635892L274.9108018271783,107.8784715483159L275.1676827819002,80.56618736902166L275.3389367517148,115.7541267775386L275.42456373662213,90.9004367781792L275.5358788170016,95.83497254881647L275.63006850039966,81.12159784697538L276.1523931083342,91.83976362679402L276.31508437965806,77.70857422290774L276.9744121634443,112.57340690217207L277.4881740728881,103.77080593784386L277.52242486685105,88.69810598121606L277.650865344212,99.31338507443884" style="fill: none;" fill="none"></path></g></g></g></g></g></g><g transform="translate(40, 178)" clip-path="url(#clip_1)"><clipPath id="clip_1"><rect width="290" height="22"></rect></clipPath><g><g><line x1="14.091005799536196" y1="0" x2="14.091005799536196" y2="5" style="visibility: inherit;" fill="rgb(0, 0, 0)" stroke="rgb(204, 204, 204)" stroke-width="1px"></line><line x1="56.90449825318723" y1="0" x2="56.90449825318723" y2="5" style="visibility: inherit;" fill="rgb(0, 0, 0)" stroke="rgb(204, 204, 204)" stroke-width="1px"></line><line x1="99.71799070683826" y1="0" x2="99.71799070683826" y2="5" style="visibility: inherit;" fill="rgb(0, 0, 0)" stroke="rgb(204, 204, 204)" stroke-width="1px"></line><line x1="142.5314831604893" y1="0" x2="142.5314831604893" y2="5" style="visibility: inherit;" fill="rgb(0, 0, 0)" stroke="rgb(204, 204, 204)" stroke-width="1px"></line><line x1="185.34497561414034" y1="0" x2="185.34497561414034" y2="5" style="visibility: inherit;" fill="rgb(0, 0, 0)" stroke="rgb(204, 204, 204)" stroke-width="1px"></line><line x1="228.15846806779138" y1="0" x2="228.15846806779138" y2="5" style="visibility: inherit;" fill="rgb(0, 0, 0)" stroke="rgb(204, 204, 204)" stroke-width="1px"></line><line x1="270.97196052144244" y1="0" x2="270.97196052144244" y2="5" style="visibility: inherit;" fill="rgb(0, 0, 0)" stroke="rgb(204, 204, 204)" stroke-width="1px"></line></g><g transform="translate(0, 8)"><text x="14.091005799536196" y="0" dx="0em" dy="0.95em" style="text-anchor: middle; visibility: inherit; font-family: &quot;Helvetica Neue&quot;, sans-serif; font-size: 12px; font-weight: 200;" fill="rgb(50, 49, 63)" stroke="none" stroke-width="1px">0</text><text x="56.90449825318723" y="0" dx="0em" dy="0.95em" style="text-anchor: middle; visibility: inherit; font-family: &quot;Helvetica Neue&quot;, sans-serif; font-size: 12px; font-weight: 200;" fill="rgb(50, 49, 63)" stroke="none" stroke-width="1px">5k</text><text x="99.71799070683826" y="0" dx="0em" dy="0.95em" style="text-anchor: middle; visibility: inherit; font-family: &quot;Helvetica Neue&quot;, sans-serif; font-size: 12px; font-weight: 200;" fill="rgb(50, 49, 63)" stroke="none" stroke-width="1px">10k</text><text x="142.5314831604893" y="0" dx="0em" dy="0.95em" style="text-anchor: middle; visibility: inherit; font-family: &quot;Helvetica Neue&quot;, sans-serif; font-size: 12px; font-weight: 200;" fill="rgb(50, 49, 63)" stroke="none" stroke-width="1px">15k</text><text x="185.34497561414034" y="0" dx="0em" dy="0.95em" style="text-anchor: middle; visibility: inherit; font-family: &quot;Helvetica Neue&quot;, sans-serif; font-size: 12px; font-weight: 200;" fill="rgb(50, 49, 63)" stroke="none" stroke-width="1px">20k</text><text x="228.15846806779138" y="0" dx="0em" dy="0.95em" style="text-anchor: middle; visibility: inherit; font-family: &quot;Helvetica Neue&quot;, sans-serif; font-size: 12px; font-weight: 200;" fill="rgb(50, 49, 63)" stroke="none" stroke-width="1px">25k</text><text x="270.97196052144244" y="0" dx="0em" dy="0.95em" style="text-anchor: middle; visibility: inherit; font-family: &quot;Helvetica Neue&quot;, sans-serif; font-size: 12px; font-weight: 200;" fill="rgb(50, 49, 63)" stroke="none" stroke-width="1px">30k</text></g><line x1="0" y1="0" x2="290" y2="0" fill="rgb(0, 0, 0)" stroke="rgb(204, 204, 204)" stroke-width="1px"></line></g></g></g></g></svg>