<svg viewBox="0 0 330 200" xmlns="http://www.w3.org/2000/svg"><g><g><g><g><g><line x1="40" y1="173.18147124396071" x2="35" y2="173.18147124396071" style="visibility: inherit;" fill="rgb(0, 0, 0)" stroke="rgb(204, 204, 204)" stroke-width="1px"></line><line x1="40" y1="161.532941832196" x2="35" y2="161.532941832196" style="visibility: inherit;" fill="rgb(0, 0, 0)" stroke="rgb(204, 204, 204)" stroke-width="1px"></line><line x1="40" y1="149.88441242043132" x2="35" y2="149.88441242043132" style="visibility: inherit;" fill="rgb(0, 0, 0)" stroke="rgb(204, 204, 204)" stroke-width="1px"></line><line x1="40" y1="138.2358830086666" x2="35" y2="138.2358830086666" style="visibility: inherit;" fill="rgb(0, 0, 0)" stroke="rgb(204, 204, 204)" stroke-width="1px"></line><line x1="40" y1="126.58735359690189" x2="35" y2="126.58735359690189" style="visibility: inherit;" fill="rgb(0, 0, 0)" stroke="rgb(204, 204, 204)" stroke-width="1px"></line><line x1="40" y1="114.93882418513718" x2="35" y2="114.93882418513718" style="visibility: inherit;" fill="rgb(0, 0, 0)" stroke="rgb(204, 204, 204)" stroke-width="1px"></line><line x1="40" y1="103.29029477337247" x2="35" y2="103.29029477337247" style="visibility: inherit;" fill="rgb(0, 0, 0)" stroke="rgb(204, 204, 204)" stroke-width="1px"></line><line x1="40" y1="91.64176536160777" x2="35" y2="91.64176536160777" style="visibility: inherit;" fill="rgb(0, 0, 0)" stroke="rgb(204, 204, 204)" stroke-width="1px"></line><line x1="40" y1="79.99323594984305" x2="35" y2="79.99323594984305" style="visibility: inherit;" fill="rgb(0, 0, 0)" stroke="rgb(204, 204, 204)" stroke-width="1px"></line><line x1="40" y1="68.34470653807836" x2="35" y2="68.34470653807836" style="visibility: inherit;" fill="rgb(0, 0, 0)" stroke="rgb(204, 204, 204)" stroke-width="1px"></line><line x1="40" y1="56.69617712631364" x2="35" y2="56.69617712631364" style="visibility: inherit;" fill="rgb(0, 0, 0)" stroke="rgb(204, 204, 204)" stroke-width="1px"></line><line x1="40" y1="45.04764771454893" x2="35" y2="45.04764771454893" style="visibility: inherit;" fill="rgb(0, 0, 0)" stroke="rgb(204, 204, 204)" stroke-width="1px"></line><line x1="40" y1="33.399118302784245" x2="35" y2="33.399118302784245" style="visibility: inherit;" fill="rgb(0, 0, 0)" stroke="rgb(204, 204, 204)" stroke-width="1px"></line><line x1="40" y1="21.750588891019504" x2="35" y2="21.750588891019504" style="visibility: inherit;" fill="rgb(0, 0, 0)" stroke="rgb(204, 204, 204)" stroke-width="1px"></line><line x1="40" y1="10.10205947925482" x2="35" y2="10.10205947925482" style="visibility: inherit;" fill="rgb(0, 0, 0)" stroke="rgb(204, 204, 204)" stroke-width="1px"></line></g><g transform="translate(30, 0)"><text x="0" y="173.18147124396071" dx="0em" dy="0.3em" style="text-anchor: end; visibility: hidden; font-family: &quot;Helvetica Neue&quot;, sans-serif; font-size: 12px; font-weight: 200;" fill="rgb(50, 49, 63)" stroke="none" stroke-width="1px">0</text><text x="0" y="161.532941832196" dx="0em" dy="0.3em" style="text-anchor: end; visibility: inherit; font-family: &quot;Helvetica Neue&quot;, sans-serif; font-size: 12px; font-weight: 200;" fill="rgb(50, 49, 63)" stroke="none" stroke-width="1px">20</text><text x="0" y="149.88441242043132" dx="0em" dy="0.3em" style="text-anchor: end; visibility: hidden; font-family: &quot;Helvetica Neue&quot;, sans-serif; font-size: 12px; font-weight: 200;" fill="rgb(50, 49, 63)" stroke="none" stroke-width="1px">40</text><text x="0" y="138.2358830086666" dx="0em" dy="0.3em" style="text-anchor: end; visibility: inherit; font-family: &quot;Helvetica Neue&quot;, sans-serif; font-size: 12px; font-weight: 200;" fill="rgb(50, 49, 63)" stroke="none" stroke-width="1px">60</text><text x="0" y="126.58735359690189" dx="0em" dy="0.3em" style="text-anchor: end; visibility: hidden; font-family: &quot;Helvetica Neue&quot;, sans-serif; font-size: 12px; font-weight: 200;" fill="rgb(50, 49, 63)" stroke="none" stroke-width="1px">80</text><text x="0" y="114.93882418513718" dx="0em" dy="0.3em" style="text-anchor: end; visibility: inherit; font-family: &quot;Helvetica Neue&quot;, sans-serif; font-size: 12px; font-weight: 200;" fill="rgb(50, 49, 63)" stroke="none" stroke-width="1px">100</text><text x="0" y="103.29029477337247" dx="0em" dy="0.3em" style="text-anchor: end; visibility: hidden; font-family: &quot;Helvetica Neue&quot;, sans-serif; font-size: 12px; font-weight: 200;" fill="rgb(50, 49, 63)" stroke="none" stroke-width="1px">120</text><text x="0" y="91.64176536160777" dx="0em" dy="0.3em" style="text-anchor: end; visibility: inherit; font-family: &quot;Helvetica Neue&quot;, sans-serif; font-size: 12px; font-weight: 200;" fill="rgb(50, 49, 63)" stroke="none" stroke-width="1px">140</text><text x="0" y="79.99323594984305" dx="0em" dy="0.3em" style="text-anchor: end; visibility: hidden; font-family: &quot;Helvetica Neue&quot;, sans-serif; font-size: 12px; font-weight: 200;" fill="rgb(50, 49, 63)" stroke="none" stroke-width="1px">160</text><text x="0" y="68.34470653807836" dx="0em" dy="0.3em" style="text-anchor: end; visibility: inherit; font-family: &quot;Helvetica Neue&quot;, sans-serif; font-size: 12px; font-weight: 200;" fill="rgb(50, 49, 63)" stroke="none" stroke-width="1px">180</text><text x="0" y="56.69617712631364" dx="0em" dy="0.3em" style="text-anchor: end; visibility: hidden; font-family: &quot;Helvetica Neue&quot;, sans-serif; font-size: 12px; font-weight: 200;" fill="rgb(50, 49, 63)" stroke="none" stroke-width="1px">200</text><text x="0" y="45.04764771454893" dx="0em" dy="0.3em" style="text-anchor: end; visibility: inherit; font-family: &quot;Helvetica Neue&quot;, sans-serif; font-size: 12px; font-weight: 200;" fill="rgb(50, 49, 63)" stroke="none" stroke-width="1px">220</text><text x="0" y="33.399118302784245" dx="0em" dy="0.3em" style="text-anchor: end; visibility: hidden; font-family: &quot;Helvetica Neue&quot;, sans-serif; font-size: 12px; font-weight: 200;" fill="rgb(50, 49, 63)" stroke="none" stroke-width="1px">240</text><text x="0" y="21.750588891019504" dx="0em" dy="0.3em" style="text-anchor: end; visibility: inherit; font-family: &quot;Helvetica Neue&quot;, sans-serif; font-size: 12px; font-weight: 200;" fill="rgb(50, 49, 63)" stroke="none" stroke-width="1px">260</text><text x="0" y="10.10205947925482" dx="0em" dy="0.3em" style="text-anchor: end; visibility: hidden; font-family: &quot;Helvetica Neue&quot;, sans-serif; font-size: 12px; font-weight: 200;" fill="rgb(50, 49, 63)" stroke="none" stroke-width="1px">280</text></g><line x1="40" y1="0" x2="40" y2="178" fill="rgb(0, 0, 0)" stroke="rgb(204, 204, 204)" stroke-width="1px"></line></g></g><g transform="translate(40, 0)" clip-path="url(#clip_0)"><clipPath id="clip_0"><rect width="290" height="178"></rect></clipPath><g><g><g><line x1="12.912166305499898" y1="0" x2="12.912166305499898" y2="178" fill="rgb(0, 0, 0)" stroke="rgb(60, 60, 60)" stroke-width="1px" opacity="0.25"></line><line x1="55.996182698942526" y1="0" x2="55.996182698942526" y2="178" fill="rgb(0, 0, 0)" stroke="rgb(60, 60, 60)" stroke-width="1px" opacity="0.25"></line><line x1="99.08019909238516" y1="0" x2="99.08019909238516" y2="178" fill="rgb(0, 0, 0)" stroke="rgb(60, 60, 60)" stroke-width="1px" opacity="0.25"></line><line x1="142.16421548582778" y1="0" x2="142.16421548582778" y2="178" fill="rgb(0, 0, 0)" stroke="rgb(60, 60, 60)" stroke-width="1px" opacity="0.25"></line><line x1="185.2482318792704" y1="0" x2="185.2482318792704" y2="178" fill="rgb(0, 0, 0)" stroke="rgb(60, 60, 60)" stroke-width="1px" opacity="0.25"></line><line x1="228.33224827271303" y1="0" x2="228.33224827271303" y2="178" fill="rgb(0, 0, 0)" stroke="rgb(60, 60, 60)" stroke-width="1px" opacity="0.25"></line><line x1="271.41626466615566" y1="0" x2="271.41626466615566" y2="178" fill="rgb(0, 0, 0)" stroke="rgb(60, 60, 60)" stroke-width="1px" opacity="0.25"></line></g><g><line x1="0" y1="173.18147124396071" x2="290" y2="173.18147124396071" fill="rgb(0, 0, 0)" stroke="rgb(60, 60, 60)" stroke-width="1px" opacity="0.25"></line><line x1="0" y1="161.532941832196" x2="290" y2="161.532941832196" fill="rgb(0, 0, 0)" stroke="rgb(60, 60, 60)" stroke-width="1px" opacity="0.25"></line><line x1="0" y1="149.88441242043132" x2="290" y2="149.88441242043132" fill="rgb(0, 0, 0)" stroke="rgb(60, 60, 60)" stroke-width="1px" opacity="0.25"></line><line x1="0" y1="138.2358830086666" x2="290" y2="138.2358830086666" fill="rgb(0, 0, 0)" stroke="rgb(60, 60, 60)" stroke-width="1px" opacity="0.25"></line><line x1="0" y1="126.58735359690189" x2="290" y2="126.58735359690189" fill="rgb(0, 0, 0)" stroke="rgb(60, 60, 60)" stroke-width="1px" opacity="0.25"></line><line x1="0" y1="114.93882418513718" x2="290" y2="114.93882418513718" fill="rgb(0, 0, 0)" stroke="rgb(60, 60, 60)" stroke-width="1px" opacity="0.25"></line><line x1="0" y1="103.29029477337247" x2="290" y2="103.29029477337247" fill="rgb(0, 0, 0)" stroke="rgb(60, 60, 60)" stroke-width="1px" opacity="0.25"></line><line x1="0" y1="91.64176536160777" x2="290" y2="91.64176536160777" fill="rgb(0, 0, 0)" stroke="rgb(60, 60, 60)" stroke-width="1px" opacity="0.25"></line><line x1="0" y1="79.99323594984305" x2="290" y2="79.99323594984305" fill="rgb(0, 0, 0)" stroke="rgb(60, 60, 60)" stroke-width="1px" opacity="0.25"></line><line x1="0" y1="68.34470653807836" x2="290" y2="68.34470653807836" fill="rgb(0, 0, 0)" stroke="rgb(60, 60, 60)" stroke-width="1px" opacity="0.25"></line><line x1="0" y1="56.69617712631364" x2="290" y2="56.69617712631364" fill="rgb(0, 0, 0)" stroke="rgb(60, 60, 60)" stroke-width="1px" opacity="0.25"></line><line x1="0" y1="45.04764771454893" x2="290" y2="45.04764771454893" fill="rgb(0, 0, 0)" stroke="rgb(60, 60, 60)" stroke-width="1px" opacity="0.25"></line><line x1="0" y1="33.399118302784245" x2="290" y2="33.399118302784245" fill="rgb(0, 0, 0)" stroke="rgb(60, 60, 60)" stroke-width="1px" opacity="0.25"></line><line x1="0" y1="21.750588891019504" x2="290" y2="21.750588891019504" fill="rgb(0, 0, 0)" stroke="rgb(60, 60, 60)" stroke-width="1px" opacity="0.25"></line><line x1="0" y1="10.10205947925482" x2="290" y2="10.10205947925482" fill="rgb(0, 0, 0)" stroke="rgb(60, 60, 60)" stroke-width="1px" opacity="0.25"></line></g></g></g><g><g><line x1="0" y1="173.18147124396071" x2="290" y2="173.18147124396071" fill="rgb(0, 0, 0)" stroke="rgb(153, 153, 153)" stroke-width="1.5px"></line></g></g><g><g><line x1="12.912166305499898" y1="0" x2="12.912166305499898" y2="178" fill="rgb(0, 0, 0)" stroke="rgb(153, 153, 153)" stroke-width="1.5px"></line></g></g><g><g><g><g><g><path stroke="rgb(255, 112, 67)" stroke-width="2px" d="M14.971582289106456,-59.12044988246109L15.204235977631045,31.480726231340782L15.867729830090061,34.223567784748354L16.083149912057273,36.41092862347011L16.39335483009006,27.20910406386571L16.850045403860555,44.959878491167444L17.34981999402449,39.62588079389823L17.668641715335962,36.19833976234125L17.68587532189334,62.038279879447984L17.780660157958916,26.53529131097369L17.996080239926126,-0.9493086125528407L18.34075237107367,47.02332617865309L18.616490075991702,36.9121623414446L18.64234048582777,35.224595506826546L18.685424502221213,66.75439148671907L18.961162207139246,69.77370253892924L19.32306794484416,58.229872319211665L19.348918354680226,44.52531596738169L19.952094584188423,36.81955852333655L20.176131469434324,79.39884741215565L20.24506589566383,72.43256078320812L20.47771958418842,92.54564794589912L20.538037207139244,104.61223649467159L20.563887616975308,58.14310734069066L20.693139666155634,82.01153705422037L20.7189900759917,93.59743002548358L20.943026961237603,71.55486854939319L21.615137616975307,100.32971871481642L21.899492125172028,63.000906344516125L22.02012737107367,101.98771809234758L22.157996223532685,75.48557180454169L22.321715485827767,110.52978043998408L22.692238026811374,79.02443293452681L23.35573187927039,94.07134472840391L23.398815895663834,85.76376911212834L23.553918354680228,68.80552162219917L23.674553600581866,82.04904071184184L23.803805649762193,77.70218016393464L23.9502913054999,82.83196066961987L24.191561797303176,100.30884286369015L24.786121223532685,87.17944331611324L25.139410157958913,102.19685430632337L25.182494174352357,90.58713051564973L26.69043474812285,77.25568223441768L26.880004420253996,87.53370179955115L26.905854830090064,86.8913405737498L27.069574092385142,85.8677484472401L27.20744294484416,107.00799147262713L27.577965485827768,77.50931182798637L27.750301551401538,93.12587929719054L27.939871223532684,77.28013070885294L28.069123272713014,112.95004165867215L28.284543354680228,99.09112931693721L28.31039376451629,108.00334476688748L28.431029010417934,86.60994760899402L28.534430649762193,78.64482837726509L28.56028105959826,101.55964761166432L29.008354830090063,97.82617182612839L29.094522862876946,90.68336916692536L29.18930769894252,109.56814488909244L29.62014786287695,96.59621182435119L29.67184868254908,106.32456285301797L29.990670403860555,119.75339622434868L30.37842655140154,106.10964556575242L31.11947163336875,88.45107503603906L32.67049622353269,111.51143867822675L32.851449092385145,115.50884423249329L33.601110977631045,106.69335178200356L33.75621343664744,92.54755867727083L34.18705360058187,106.67992333966563L34.53172573172941,99.0767855009654L34.6868281907458,100.56512526337258L34.85916425631957,101.19230284011083L35.238303600581865,116.19384587281311L35.25553720713925,103.10628689871534L35.28138761697531,108.8864625890858L35.32447163336875,97.11491762547352L35.488190895663834,112.16310916501354L35.76392860058187,116.9972639790044L36.09998392845072,103.9180544566449L36.530824092385146,97.21969680162458L37.0133650759917,98.76601170869854L37.38388761697531,122.77188966127423L37.6165413054999,105.24611051833348L37.71132614156547,119.53542176688839L38.099082289106455,109.56976678897773L38.53853925631957,83.0304723284567L39.05554745304088,105.82012088376354L39.227883518614654,107.62921023362243L39.65010687927039,97.59731064341068L39.925844584188425,102.80360927519096L40.261899912057274,120.1068859716766L41.14081384648351,117.72319526273081L41.158047453040886,111.1915866901636L41.364850731729405,87.64135151632112L41.39931794484416,115.90388572181392L41.5199531907458,97.58849461773283L41.52856999402449,113.05313672507931L41.63197163336875,120.25048854316402L41.91632614156547,120.83367041917828L42.50226876451629,111.95111574110283L42.73492245304088,99.78547132317178L43.01927696123761,97.8614981386984L43.700004420254,111.32171194013847L44.044676551401544,111.09949832516978L44.11361097763105,111.35958885691166L44.50136712517203,115.20189190296986L45.147627371073675,105.4925459861096L45.18209458418843,107.56439200450812L45.19071138746712,111.73315905788785L45.25964581369662,100.45169002975155L45.39751466615564,107.4907488625933L45.40613146943432,115.32047722417185L46.07824212517203,130.04812358008132L46.147176551401536,106.57832575342654L46.20749417435236,117.68464292463554L46.2505781907458,123.54534927698163L47.13810892845072,90.63375236111949L47.38799622353269,130.2670756210341L47.56894909238515,111.59249368043928L48.34446138746711,106.91980011091933L48.79253515795892,121.6977298068341L49.163057698942524,110.41457666895388L49.22337532189334,116.12513952753542L49.507729830090064,107.8640169013991L49.766233928450724,125.12419994011066L49.800701141565476,123.81967253566208L51.10183843664745,107.96090431262886L51.239707289106455,115.69423405472389L51.437893764516296,96.97594080133017L51.627463436647446,126.57796879537386L51.89458433828678,119.24411521680635L52.29095728910645,92.36730116837585L52.782115075991705,123.40028921737812L52.91136712517203,118.55540764633767L53.14402081369662,92.55577926573051L53.34220728910646,126.63989426606261L53.471459338286785,99.74160448572634L53.73858023992613,116.75816927454471L54.00570114156548,116.18988221610714L54.14356999402449,110.04326379713311L54.919082289106456,110.80745858746836L55.013867125172034,113.8880463504132L55.513641715335964,127.54119069766016L56.13405155140154,115.46149364296548L56.27192040386056,123.90894368277296L56.47010687927039,118.27494338589976L56.487340485827765,114.17954397363242L56.50457409238515,116.75151281967302L56.58212532189334,114.41774552226487L56.85786302681138,101.13749595467202L56.97849827271301,119.05932971891654L57.03881589566383,120.0716218689652L57.271469584188424,126.91440859788025L57.30593679730318,129.88884856778452L57.41795523992614,121.791302321312L57.745393764516294,95.78896781185513L58.055598682549075,122.7012814717475L58.99483023992613,97.39061394460481L59.35673597763105,116.87251543823831L59.36535278090974,125.5824955249576L59.666940895663835,110.10875300400816L59.93406179730318,121.95079951167527L60.17533228910646,121.09010834350727L60.27873392845073,123.82264083463022L60.339051551401546,122.8791661188925L60.45968679730318,122.82669210315171L60.520004420254,100.38064637121452L60.72680769894252,88.66842739491321L60.84744294484417,94.79961776895101L60.950844584188424,104.37347950087293L61.14903105959826,126.77520959567042L61.1921150759917,88.22319143681385L61.55402081369662,128.28284774493187L61.8728425350081,118.15357195174414L61.92454335468023,131.06516589719126L62.674205239926124,125.0166390945673L62.73452286287695,111.53498510971208L63.21706384648351,110.76398722698127L63.65652081369662,110.657897200238L64.08736097763105,109.14323822407582L65.3971150759917,120.56475053107458L65.44881589566384,116.8190460647597L65.60391835468023,101.43299278308784L65.67285278090974,115.87180320901449L66.23294499402449,115.69547380833485L66.28464581369663,120.06893795792215L66.3104962235327,117.48874407986051L66.39666425631958,102.77559706456941L66.43113146943432,123.57563214744258L66.4483650759917,112.25796142515435L66.49144909238514,132.2287479798275L67.42206384648351,126.68097943411574L67.49099827271301,116.17808011721581L67.49961507599171,99.66836570789252L67.63748392845072,122.31668235155132L68.95585483009006,129.01258716071774L69.17127491205729,127.07915363417372L70.05880564976219,119.53554618660561L70.82570114156547,127.80593808167541L71.24792450222121,124.56162285798156L72.16992245304088,124.81285292843229L72.4628937645163,120.15341894591975L72.87650032189335,118.56135757495795L72.9109675350081,122.14118389684032L72.9799019612376,123.8384954614541L73.32457409238515,106.69172988211827L73.34180769894253,111.17281708710753L73.40212532189335,120.27106223211989L73.4365925350081,133.10427175571357L73.83296548582776,137.61655276123636L73.94498392845071,122.80315455878903L73.97083433828678,134.93157081990103L74.11731999402448,109.47734960044552L74.13455360058187,131.4160294997734L74.29827286287694,129.22296312830449L74.82389786287696,123.08897775419038L74.91868269894253,115.99801812501934L75.18580360058186,121.78578341814068L75.22027081369662,118.44039494844463L75.24612122353268,130.08227679246033L76.15088556779499,117.61320823270151L76.25428720713924,127.80824873356678L76.4352400759917,124.58123673769025L76.46109048582777,120.98344509735247L76.52140810877859,122.52684502819426L76.82299622353268,111.15263443154868L77.9431806497622,109.2166058651882L78.20168474812286,116.21769002290753L78.35678720713925,125.4126226188898L78.64975851861465,121.6197453055003L78.85656179730317,124.86151881211364L78.97719704320482,108.22499404956733L79.44250442025401,125.42807288163269L80.31280155140155,129.47764584590828L80.50237122353269,124.53636121182302L81.22618269894252,129.13067924661215L81.28650032189334,119.52721895267402L81.3295843382868,114.83735101861532L82.16541425631956,126.89881169761348L83.30283228910646,125.17919789868662L83.3459163054999,116.80641301989976L83.74228925631958,119.20438977852007L84.26791425631959,121.56955972384424L84.80215605959826,132.59454194847694L84.88832409238515,128.05970986920664L84.94864171533597,124.71143308464639L85.0003425350081,135.83721305447887L85.12097778090974,130.83496275895203L85.22437942025401,125.3791892634462L85.28469704320483,128.1161031060401L85.34501466615565,114.62222488396728L85.48288351861467,126.22861600364376L85.80170523992614,108.56387781080498L86.04297573172941,111.14610239639421L86.51689991205728,119.60299056046568L86.86157204320482,123.23574414134445L86.8788056497622,114.65609815198252L87.00805769894252,118.564445850082L87.05114171533597,121.5063456203699L87.18901056779498,119.69227059469924L87.26656179730318,126.90677455951607L87.48198187927039,119.15058713794176L88.29196138746711,115.26882082371571L88.3091949940245,136.87166968843937L89.0502400759917,123.45306983885064L89.24842655140154,80.69777148576765L89.28289376451629,133.75040556508372L89.37767860058187,122.07774317173816L89.38629540386056,123.55161469845632L89.43799622353269,124.99340815593635L89.70511712517204,119.63393107800343L89.9636212235327,132.9002945164414L90.35999417435235,130.89856345226204L90.39446138746712,120.30530875928682L91.57496343664744,105.09402963182926L91.7645331087786,124.43547015183532L91.90240196123762,128.32054691925188L92.5055781907458,123.53594225764695L92.71238146943432,120.60632449087394L92.94503515795891,135.03738978940316L93.7894818792704,127.56877188283275L93.82394909238515,116.94076409669904L94.9872175350081,117.13040640712205L95.00445114156547,133.77182797425354L95.15093679730317,106.25709181778991L95.2888056497622,119.6338510938995L95.93506589566383,136.39853705231303L96.05570114156548,123.66316586207361L96.5640925350081,132.46417674619028L96.7967462235327,118.33419827622947L96.82259663336876,94.59995078416851L97.02939991205727,130.11726539436927L97.2448199940245,131.045436484888L97.36545523992613,116.20697215298063L97.6239593382868,125.21815015730155L97.67566015795892,128.03672777001015L97.70151056779498,133.01786226209893L98.19266835468022,120.14046596464408L98.55457409238515,126.86594711802005L98.60627491205727,117.57851290584031L98.67520933828679,117.42320155024949L99.52827286287695,116.97855214224563L99.7178425350081,135.23277762462533L100.07113146943433,116.97981411366322L100.15729950222122,120.51991055369797L100.23485073172941,117.58826207939737L100.42442040386055,123.96543023439435L100.63984048582776,130.04635059911084L100.94142860058187,121.45215194639457L101.08791425631958,120.96974559777343L101.16546548582778,116.3672069745246L101.69109048582777,121.47607163703161L101.91512737107367,130.36362532160283L102.02714581369662,115.3280312784321L102.33735073172942,129.58014103153593L102.36320114156548,125.87005615283883L102.51830360058187,129.1709556865033L103.36275032189334,126.12519211369823L103.70742245304089,130.0864226351808L103.80220728910646,129.99854676632742L103.87114171533598,110.7540247624804L103.94007614156547,119.54531757796931L103.97454335468022,115.69575375269861L104.08656179730318,136.60863751909733L104.20719704320481,127.80236990192778L104.97409253500811,104.9700098351212L105.06887737107367,122.07044684403503L105.37908228910646,133.04164864589606L105.63758638746712,95.4874099657858L106.05119294484417,127.23237207237833L106.33554745304089,125.1995316353307L106.44756589566383,114.87149978743301L106.49064991205728,124.31177917866566L106.76638761697531,129.94668151848876L106.8525556497622,100.79076486412637L107.13691015795892,116.239916716678L107.14552696123761,132.21136921146757L107.42988146943432,116.52066980860232L107.56775032189334,123.44623119796444L107.58498392845073,131.94282258251553L107.73146958418843,132.4421722304863L107.87795523992614,122.66241364079784L107.8951888464835,133.3449528115679L108.09337532189335,120.60105442713709L108.11060892845073,129.08566597034368L108.31741220713926,133.23550789602083L108.32602901041794,139.6153888452095L108.71378515795891,129.01396466472988L108.93782204320482,131.81547900193297L109.30834458418843,121.08266093471892L109.31696138746712,130.8151355882995L109.34281179730318,123.89328457264759L109.57546548582778,128.75779335408072L109.78226876451629,107.67029540167555L109.86843679730318,122.49947269040416L110.10109048582777,114.77778063543123L110.66118269894253,125.91978404767794L110.9713876169753,128.21357262380403L111.14372368254908,128.26692202112673L111.3505269612376,128.41366619047417L111.94508638746713,128.31920052016903L112.05710483009007,129.77847050435824L112.84985073172942,123.81039882316729L112.86708433828679,118.97907900130467L112.89293474812285,132.68292882688326L112.97910278090974,132.73933983796204L113.07388761697533,124.1300819558999L113.61674622353269,116.64829333354865L113.92695114156548,115.5235346462488L114.66799622353268,100.9212767039369L114.86618269894252,129.3261603966222L115.43489171533597,116.22331112798943L115.46935892845072,124.98856023052579L115.79679745304088,124.2386692641104L115.96051671533597,131.2366518160217L116.3827400759917,130.759604402364L117.12378515795892,142.77469207532687L117.20133638746712,136.68590660705706L117.64079335468024,130.21938732084527L117.91653105959826,125.63091701276582L118.01993269894253,137.32979419617513L118.60587532189335,116.40021819164193L118.76097778090974,115.07614800446594L118.76959458418844,125.87904103384719L118.91608023992615,128.54940365840827L118.95916425631957,83.0335383857741L119.11426671533597,132.7604511978388L119.7002093382868,119.87370120378522L119.86392860058187,118.94328611479506L120.48433843664745,116.38884711819956L120.63082409238515,125.53055918013769L120.74284253500811,134.64017095503107L121.01858023992614,139.74682050221526L121.47527081369662,134.73049522617703L121.53558843664744,113.0513326391795L121.59590605959826,134.26150398920984L121.69069089566383,130.59968507367444L121.69930769894253,121.88113335715042L122.16461507599172,113.59586441874924L122.2507831087786,119.913217794689L122.31110073172943,125.56794286160329L122.31971753500811,131.3975087361518L123.05214581369663,102.92297221962563L123.1469306497622,112.3716988209458L123.35373392845074,131.18258700532493L123.56915401041793,137.930330400962L123.62947163336875,137.44907049116387L123.67255564976219,126.66147219987897L124.03446138746712,132.94937809488772L124.11201261697532,119.50584542267883L124.18956384648351,114.93280760309695L124.92199212517204,136.43914231574254L125.18049622353269,134.04534694833336L125.2408138464835,121.0787950363622L125.31836507599171,117.78849784003005L125.8439900759917,123.60969204503367L125.87845728910645,132.36741375467778L125.9215413054999,131.97145689172322L126.12834458418843,124.7032124961867L126.223129420254,124.3317307690354L126.25759663336875,125.1502125481339L126.48163351861466,122.68056114526776L126.58503515795893,128.66471851847172L127.03310892845072,105.32035798458912L127.58458433828679,125.64278132151574L127.60181794484417,126.38386070581464L127.68798597763106,131.33012657215033L127.9551068792704,123.62603990716512L128.36009663336876,131.91701437831347L128.5582831087786,121.54704864214868L128.98912327271302,127.19932975033171L129.28209458418843,134.31103636735045L129.81633638746712,129.47191809535445L130.08345728910646,126.90486827170568L130.62631589566385,141.97681509011352L130.79865196123762,130.43289155560802L130.86758638746713,136.0986499853036L131.2381089284507,126.47554026316614L131.27257614156548,135.56669792785783L131.47076261697532,131.9981449210686L131.4966130268114,109.68206002733706L131.7034163054999,132.77181338415846L131.72926671533597,113.4538970778311L131.83266835468024,131.79340338924771L132.78913351861465,125.81582693037285L132.80636712517205,140.1231323805318L132.97870319074582,110.45808802149296L133.65081384648352,127.5288998070226L134.59866220713926,110.77973965189456L134.8657831087786,130.66763601352608L135.0898199940245,131.01088335198935L135.64991220713924,123.30850301455469L135.80501466615564,114.71551745408141L135.9084163054999,121.34463553646452L135.93426671533598,116.48568120669336L136.39095728910647,133.85695327864394L136.42542450222123,129.0105075740155L136.90796548582776,136.45484808326188L137.08030155140153,132.99667980524092L137.44220728910648,128.68138187345755L137.70932819074582,125.09860058329105L137.74379540386056,126.758417377406L137.76964581369663,131.20204536038707L137.82996343664746,126.18130984972925L137.91613146943433,129.4661325785034L138.26942040386055,126.04431041037756L138.45037327271302,130.01880051886752L138.4676068792704,125.17713608622971L138.50207409238516,118.5638015336892L139.03631589566382,127.20690602239861L139.38098802681137,127.23009696897759L139.38960483009006,120.89063243186193L139.52747368254907,113.73517006643098L139.5877913054999,128.40099315356227L139.76874417435238,140.1405444756017L140.1995843382868,127.02266263899101L140.30298597763104,127.89069457047546L140.61319089566385,129.23433864530816L140.70797573172942,116.1386790589066L141.00094704320483,119.23078008925634L141.56965605959826,127.26896924348858L141.60412327271303,120.55107769286352L142.11251466615565,117.12582065182994L142.43133638746713,118.78459320903244L142.4571867973032,135.1227994817187L143.0517462235327,119.83927249060378L143.07759663336876,123.07069694288057L143.1896150759917,133.97209483981553L143.5773712235327,121.56995075724124L143.62045523992612,120.7373340095534L143.6376888464835,143.09915870183076L143.66353925631958,132.356522585859L143.74970728910645,131.40148127998043L143.76694089566382,130.08220569547905L144.27533228910647,134.2476845134749L144.3270331087786,132.1725635903765L144.33564991205728,123.68161997227527L144.43043474812285,136.77367360865787L144.80095728910646,110.36295581698838L144.82680769894253,127.71550272149618L145.23179745304088,119.1016679712646L145.24903105959825,128.86729159236376L145.6798712235327,138.60481190983407L145.7574224530409,127.47644356552712L145.8263568792704,131.5693234785206L146.29166425631956,119.03906707925375L146.44676671533597,130.9435189622332L146.5070843382868,121.27485384934509L146.61910278090974,133.9169857922063L146.79143884648352,135.7302343154697L146.90345728910648,133.33353285895095L146.9637749120573,139.61875039935532L147.1619613874671,112.1053384241679L147.1705781907458,141.2061638051664L147.20504540386057,130.92742438309753L147.42046548582778,136.36856300936446L147.66173597763105,132.98521541701064L147.74790401041793,117.9800864303154L147.87715605959826,107.44785960864039L148.16151056779498,128.22114000874828L148.25629540386058,123.68531257174016L148.6095843382868,123.75781816195459L148.84223802681137,127.51669778761163L149.07489171533598,109.04846594803894L149.08350851861465,117.60866691302272L149.33339581369665,123.32553962869224L149.77285278090974,130.28420110639823L150.01412327271302,135.57712696629832L150.2553937645163,141.8767594196558L150.35017860058187,129.017768353228L150.60868269894252,135.09365416295807L150.96197163336876,128.11708513309395L151.3841949940245,133.17505768769348L151.63408228910646,96.14373286128463L152.5129962235327,127.36016445265517L152.52161302681137,128.3594814036215L152.5302298300901,127.8238367467109L152.5733138464835,126.54079396129075L152.6680986825491,136.38519970298233L152.8835187645163,137.48479672425353L153.1161724530409,145.80928453494943L153.4091437645163,138.0862149759643L153.80551671533595,125.47598335988802L154.21912327271303,128.60725438335783L154.51209458418845,132.63338311805865L154.53794499402449,128.4323691401103L154.54656179730318,130.7324275812724L154.79644909238516,113.95870786267588L154.9860187645163,113.03590459424326L155.15835483009008,121.18661805202399L155.29622368254908,131.84301575149226L155.5116437645163,133.0115879535016L156.09758638746712,135.216660827683L156.29577286287693,128.402095156772L157.36425646943434,136.59528683908266L157.65722778090975,134.06907112227185L157.74339581369662,113.45587890618407L158.2087031907458,127.60355163735923L158.25178720713924,130.52352243248575L158.67401056779497,126.52848529640787L158.90666425631957,118.30494631199696L158.91528105959824,122.0208655867198L159.24271958418842,134.85859421218564L159.66494294484417,129.9238549439388L160.0268486825491,133.4345527822172L160.44045523992614,132.58297091477476L160.50938966615564,140.08916357594796L161.50893884648352,134.51157429015356L161.63819089566383,120.4988569601185L161.6726581087786,127.62322772692652L161.79329335468023,137.2735809235755L161.965629420254,115.25996924954723L162.55157204320483,130.46252122255353L162.5774224530409,131.91032237495114L162.75837532189337,124.46764597942267L162.879010567795,131.08477533333863L162.90486097763105,136.16391257055085L162.98241220713925,136.80057048538572L163.1892154858278,134.98526681500744L163.28400032189336,119.32637442413917L163.404635567795,124.33802285187805L163.43910278090974,129.34533436375926L163.87855974812285,126.3857358886957L164.21461507599173,119.88793837428514L164.26631589566387,134.22037882910476L164.33525032189337,79.38907157723062L164.72300646943432,122.62272819456352L165.01597778090974,123.3292633330864L165.2744818792704,124.59944645201878L165.36064991205728,124.36679046792563L165.65362122353267,129.33319011064557L165.9552093382868,116.10882277033329L166.06722778090975,126.5764268795925L166.11892860058185,128.63993677693674L166.23956384648352,130.45801545136536L166.67902081369664,117.51521881826204L167.48900032189334,133.82362656867224L167.85090605959826,133.88313029843638L168.16111097763107,136.70322316555837L168.44546548582778,131.9160634561889L168.60918474812286,124.48181649650265L168.66950237107366,130.5120758185008L169.08310892845074,108.043181294207L169.5656499120573,139.50332889381997L169.58288351861466,133.48917303808014L170.02234048582778,127.38326652800757L170.76338556779498,130.73673339220073L170.84955360058188,124.43273291805632L171.16837532189334,141.69608865955718L171.22869294484414,132.47006890851327L171.24592655140157,115.498188572425L172.8400351579589,131.8282453536328L172.88311917435237,135.7140908571594L173.15024007599172,144.79618810030013L173.15885687927042,128.0036676737182L173.21055769894255,127.60005011103152L173.3742769612376,135.37188775560855L173.63278105959827,129.88748883801767L173.64139786287697,140.4054207228955L173.67586507599174,133.4212087675445L173.77064991205728,136.15021084919115L174.68403105959828,135.82053192524768L174.98561917435237,133.66674663593207L175.1924224530409,92.66097613664654L176.59696138746713,131.54691015517432L176.64866220713927,99.04790679588457L176.94163351861468,122.68280514373919L177.02780155140152,117.1972908922546L177.17428720713926,135.71335322597866L177.38970728910647,133.96618934680853L177.47587532189334,138.43832277571875L177.63959458418844,140.97498308343467L177.9670331087786,131.84614401866827L178.15660278090976,106.65166228960962L179.17338556779498,135.7113580669417L179.9058138464835,133.85767313557932L180.18155155140155,134.46179751613982L180.5693076989425,130.3636519829708L180.78472778090975,134.0635300012939L181.00876466615566,135.78372146319361L181.01738146943433,139.2807353543576L181.0346150759917,123.55176133598019L181.0604654858278,129.73223969228548L181.56024007599171,117.57614004409032L181.63779130549992,139.68863873194667L182.20650032189334,111.92260585161237L182.2323507317294,125.61672872144052L182.74074212517206,120.09640361050016L182.91307819074584,127.70305186265075L182.9647790104179,134.18018237331756L183.3611519612376,133.53758119520438L183.62827286287697,110.62571248552798L183.70582409238514,125.17957115783831L183.77475851861465,131.0800518276453L184.23144909238513,127.33345420550317L184.30038351861464,118.21967437008269L184.39516835468024,120.28873427552756L185.49811917435235,128.38130373331097L185.52396958418845,122.75727923162263L185.6446048300901,123.80587972129513L186.9802093382868,136.55272418688745L187.03191015795895,134.9077444440519L187.06637737107368,131.40615590649912L187.66093679730318,134.44500085431406L187.79880564976222,129.2295662604402L187.84188966615562,126.93440906742461L187.8763568792704,132.6556231425131L188.07454335468023,127.65908726685608L188.9189900759917,134.40101404071274L189.10855974812284,80.1930451285881L189.2205781907458,138.7645957099031L189.40153105959826,125.80500241497404L189.57386712517203,124.24491691133976L189.71173597763106,133.86070808796742L190.15119294484415,135.68339473549477L190.3666130268114,130.87964276812076L191.0301068792704,141.3810579355366L191.05595728910646,132.4588266983495L191.0904245022212,136.49318713041333L191.21967655140156,134.28458829031692L191.3403117973032,123.49918511832882L192.0296560595983,114.21478141497583L192.16752491205727,127.83056429856384L193.16707409238515,125.95120891340059L193.95120319074582,128.91477548873144L194.25279130549993,125.40882781751435L194.6233138464835,137.22491059633282L194.942135567795,118.55627858435827L194.9507523710737,109.34718435841869L195.26095728910647,130.092074845192L195.44191015795892,140.39085028529587L195.72626466615563,135.58639179167045L195.84689991205727,132.69170486050913L196.39837532189335,136.69540694117967L196.84644909238514,134.90856205933653L197.13080360058186,128.97560784333314L197.4927093382868,131.3623512789123L197.67366220713927,120.47084474949696L197.88908228910645,139.95735421622922L198.71629540386058,142.11625182285448L198.93171548582777,125.04174965964064L199.18160278090974,137.62226718110617L199.23330360058188,135.5345087695865L199.31947163336875,108.66924798061287L199.55212532189336,113.08563693264372L199.57797573172942,116.26336983337542L199.99158228910647,139.16846211202426L200.10360073172944,122.07936062806213L200.14668474812285,135.70556366296796L200.47412327271303,114.42048275604388L200.5689081087786,137.83542259630457L200.74986097763107,134.60280504781076L201.07729950222122,138.63080452183135L201.2668691743524,138.87031247749468L201.50813966615564,128.9802291471159L201.56845728910648,116.70566415387461L201.6029245022212,126.16534857743346L201.70632614156548,136.0421523247789L201.72355974812285,123.30893848356499L202.18886712517204,124.78390756993153L202.5249224530409,134.5176530820524L202.964379420254,131.33528999041528L203.17118269894252,126.11779802764583L203.3607523710737,128.13796987134288L203.5934060595983,134.91965318841514L204.43785278090974,137.76281924774085L204.62742245304088,125.52435152496028L205.2909163054999,127.8401490603517L205.42016835468024,137.2574819008785L205.70452286287696,138.13555850274844L205.9630269612376,135.0986753872605L206.08366220713927,127.99435396917147L206.16983023992614,136.81940452008106L206.23014786287695,141.1157906548458L206.56620319074582,134.89200090626127L207.04012737107368,126.60498564825758L207.18661302681136,121.56229894463173L207.2641642563196,141.42875290106744L207.3244818792704,127.17848944769607L207.36756589566386,137.33847469323243L208.04829335468023,127.29300002315885L208.32403105959827,134.74660757955803L208.5308343382868,124.95862840140987L208.61700237107368,132.10333290486196L208.8410392563196,142.05517729416033L209.15124417435237,128.94459178525278L209.5045331087786,135.38992417104524L209.51314991205732,141.86151578251474L209.68548597763106,130.41125585549437L209.9439900759917,136.0644523373113L210.64195114156547,130.72442028375653L210.7712031907458,122.49029673625861L210.95215605959825,140.04672534347L211.17619294484416,129.98968630503626L211.26236097763106,134.47907408258914L211.4519306497622,122.9561597060498L211.6759675350081,130.55217451593876L212.95125442025403,123.4535008642996L213.20114171533598,136.29856803130122L213.4941130268114,136.2119807952334L213.75261712517207,128.64554455133464L213.7784675350081,98.5714637065677L214.0111212235327,134.31237387931066L214.28685892845073,136.7304733054119L214.3816437645163,130.12808102264543L214.77801671533598,137.3477306314819L214.81248392845075,130.20378153345584L215.03652081369665,126.89155980552364L215.0623712235327,135.606556672984L215.29502491205727,130.25310506421397L215.30364171533597,125.13295819949121L215.73448187927042,134.64192616175623L215.9068179448442,133.8208137943506L216.01883638746713,136.0879187846927L216.28595728910648,108.79400985206296L216.88051671533597,125.05489371405349L216.90636712517204,131.08310899784004L217.0097687645163,136.87434471235977L217.05285278090975,128.84087017669816L217.65602901041794,120.97801950896908L217.7421970432048,125.01236438856826L217.7594306497622,140.24141331778273L219.06056794484417,122.9722142931335L219.43109048582778,120.82871140473449L219.47417450222122,124.55017624399662L219.60342655140155,142.9767985752793L219.8446970432048,133.46351591496327L219.9308650759917,136.5803275898667L220.20660278090975,129.47633499531605L220.37032204320482,137.39073097446806L220.49957409238516,131.56196494095886L220.94764786287695,115.56322009248314L221.11136712517202,129.6453769554152L221.11998392845072,135.47753342621888L221.33540401041793,140.02934435332944L221.40433843664744,126.85397616379822L221.4388056497622,135.29625834177943L221.71454335468025,133.32528560912328L222.01613146943436,131.19798394533186L222.4900556497622,133.83246481215673L222.80887737107366,119.79081545430492L222.91227901041793,136.6095973283445L223.03291425631957,131.41928218666663L223.27418474812285,126.62303539437826L223.28280155140158,133.69751385457795L223.59300646943433,133.9921441885345L224.04108023992615,136.4270336111195L224.09278105959828,125.09408148141888L224.1530986825491,131.03541625408985L224.29096753500812,133.97757375093488L224.33405155140156,131.4535598187629L224.34266835468026,129.08852762383992L224.67010687927038,88.2597708336788L224.78212532189335,125.19093778771934L225.03201261697532,133.2076645407298L225.85922573172942,129.11546449261974L225.98847778090973,134.68394003412723L226.11772983009007,143.80705579190112L226.34176671533598,133.76205658288984L226.755373272713,126.99197540444905L226.93632614156547,141.60080093040605L227.005260567795,108.87007029134105L227.41025032189336,140.51592987138102L227.52226876451633,138.07548821891476L227.61705360058187,121.1358859123244L227.70322163336877,133.55863478878385L227.77215605959827,136.73220407254976L228.04789376451632,120.97005220350516L228.4873507317294,133.56392262676604L228.66830360058188,129.43449886539824L228.98712532189336,125.69156273779167L229.28871343664744,134.8737245385128L230.40028105959826,125.70772841390861L232.0547072891065,130.37436096577505L232.75266835468025,135.59470125135675L232.83883638746713,127.7116723716301L233.1490413054999,120.09971850725202L233.24382614156548,133.71079121583068L233.26105974812285,135.35627308109648L233.31276056779498,145.30739094811747L233.71775032189333,128.58368573406585L233.74360073172943,144.51668587089006L233.83838556779497,105.93785748475158L234.12274007599171,128.73371813879714L234.6655986825491,139.1029151388519L234.76038351861465,108.43468126514799L235.66514786287698,135.7452713270089L236.45789376451629,133.45534864923954L236.6388466333688,138.43118641622345L236.7077810595983,138.377948107934L236.86288351861467,136.63742735295153L237.44882614156546,122.94388658965755L237.5005269612376,139.90327607484846L237.75903105959827,132.96334865170786L238.043385567795,134.55358816252456L238.05200237107368,133.6256392500723L238.3363568792704,116.82706224939822L238.52592655140154,134.07495884103355L238.5431601579589,138.6191046248506L238.6120945841884,137.12154447268458L239.1032523710737,132.85130869634432L239.43930769894254,109.04293815774496L239.4479245022212,130.52265593802647L239.9907831087786,132.66344381045312L240.008016715336,134.30771258347596L240.15450237107368,143.64149758388436L240.8955474530409,129.7858334854813L240.94724827271304,125.16690700804907L241.21436917435236,134.01868558035596L241.22298597763105,131.00966137262373L241.34362122353272,135.361147667875L241.584891715336,148.29174228156734L243.77355974812286,134.61040798124566L244.17854950222122,126.53108033622433L244.4284367973032,143.8381251727174L244.46290401041793,121.8254999693043L244.55768884648353,142.46915279830625L244.8678937645163,130.7656165408429L244.88512737107368,139.64939319828397L244.90236097763108,122.03013929921458L245.3245843382868,123.94194601276762L245.5227708136966,131.46535303053153L245.53138761697534,136.29713942633376L245.69510687927038,136.34151282977075L245.91052696123762,136.92766522653383L246.10871343664746,123.50546831404881L246.99624417435237,146.14094750902652L247.41846753500812,126.37368495036993L247.69420523992613,135.8096807484809L247.75452286287697,139.62810409595406L248.4955679448442,125.97662164064434L248.86609048582778,134.05851766411416L249.46064991205728,142.23123119403755L249.65021958418845,132.1062123326035L250.0379757317294,133.36817930663753L250.8824224530409,120.6481650643531L251.09784253500808,137.07664228544937L251.58038351861467,133.23483247469875L251.6320843382868,136.42381202915556L251.67516835468024,135.83740857117738L251.79580360058188,124.58439610979556L252.02845728910646,89.74331599341139L252.9935392563196,119.32221969429605L253.07109048582777,132.05888840444368L253.26927696123764,112.11362122248622L253.41576261697531,131.6927034023972L253.6484163054999,131.60687601531674L253.91553720713927,138.69994411433865L254.05340605959827,146.20901842503406L254.06202286287694,135.16050754316132L254.14819089566384,131.56834145146678L255.25975851861466,129.67269597046936L255.389010567795,136.42048157993906L256.164522862877,137.01910260979287L256.690147862877,125.9779502654819L257.15545523992614,136.1198657688716L257.81894909238514,122.80451428855586L258.28425646943435,133.96417641352625L258.40489171533596,134.78768830404982L259.0339183546802,126.40155941059027L259.1459367973032,133.03654743748973L260.08516835468026,131.55366436839523L260.1024019612376,130.45604695369636L260.23165401041797,128.75389190723334L260.96408228910644,131.5279094869291L260.97269909238514,133.50205492237455L260.99854950222124,124.08863685937908L261.28290401041795,142.79139542236467L261.6017257317294,113.84010032366724L262.0067154858278,84.42767909155592L262.48063966615564,136.27430840822248L262.6960597481229,136.2494777875129L262.7305269612376,132.4371065705706L262.9028630268114,125.10314190296985L263.24753515795896,136.14679152874805L263.9541130268114,141.39827673568865L264.8416437645163,123.32028733920069L265.09153105959825,124.97882883121406L265.5826888464835,137.14291800267978L265.7205576989425,136.00749921175031L265.90151056779496,111.92191709960629L266.1858650759917,135.41447040382974L266.3668179448442,126.90054468653202L266.814891715336,138.9323179322874L266.88382614156546,140.44793005235476L267.27158228910645,138.8104510410435L267.45253515795895,123.5145598405291L267.5042359776311,121.95518975026889L267.72827286287696,115.1994790491679L268.3142154858278,124.71768517543708L268.3486826989425,134.60351601762352L269.22759663336876,139.5682293288189L269.6498199940245,137.42934996598328L269.76183843664745,118.66190648072326L269.8393896661556,129.6113126142628L270.0978937645163,151.5989783336878L271.03712532189337,136.92559452695426L271.0543589284507,128.45058329800017L271.11467655140154,132.4399504498215L271.2266949940245,127.60399599349216L271.39903105959826,137.43034310194042L271.48519909238513,119.06104049002843L271.64030155140154,130.67989135567302L272.0022072891065,135.1959627190099L272.75186917435235,138.70871348262253L272.77771958418845,125.05555136113026L272.91558843664745,135.07850161882428L272.9586724530409,138.35647681958955L272.9759060595983,135.77107064408835L273.1137749120573,134.81966417137735L273.5015310595983,128.48988659796015L273.81173597763103,132.0762094065063L274.12194089566384,124.19170526441826L274.97500442025404,142.81467524017026L275.1818076989425,113.72285251442544L275.3024429448442,137.22494614482346L275.37999417435236,139.91985944573037L275.63849827271304,129.94162474569572L275.8108343382868,142.01693378357746L275.89700237107365,128.40190852719616L276.0090208136966,132.81597349665165L276.1038056497622,126.38661127027763L276.6294306497622,128.51347746505877L276.7931499120573,123.0970517051262L277.4566437645163,139.5221762591993L277.97365196123764,132.00842287842386L278.0081191743524,132.38659216537616L278.1373712235327,136.14561398499572" style="fill: none;" fill="none"></path></g></g></g></g></g></g><g transform="translate(40, 178)" clip-path="url(#clip_1)"><clipPath id="clip_1"><rect width="290" height="22"></rect></clipPath><g><g><line x1="12.912166305499898" y1="0" x2="12.912166305499898" y2="5" style="visibility: inherit;" fill="rgb(0, 0, 0)" stroke="rgb(204, 204, 204)" stroke-width="1px"></line><line x1="55.996182698942526" y1="0" x2="55.996182698942526" y2="5" style="visibility: inherit;" fill="rgb(0, 0, 0)" stroke="rgb(204, 204, 204)" stroke-width="1px"></line><line x1="99.08019909238516" y1="0" x2="99.08019909238516" y2="5" style="visibility: inherit;" fill="rgb(0, 0, 0)" stroke="rgb(204, 204, 204)" stroke-width="1px"></line><line x1="142.16421548582778" y1="0" x2="142.16421548582778" y2="5" style="visibility: inherit;" fill="rgb(0, 0, 0)" stroke="rgb(204, 204, 204)" stroke-width="1px"></line><line x1="185.2482318792704" y1="0" x2="185.2482318792704" y2="5" style="visibility: inherit;" fill="rgb(0, 0, 0)" stroke="rgb(204, 204, 204)" stroke-width="1px"></line><line x1="228.33224827271303" y1="0" x2="228.33224827271303" y2="5" style="visibility: inherit;" fill="rgb(0, 0, 0)" stroke="rgb(204, 204, 204)" stroke-width="1px"></line><line x1="271.41626466615566" y1="0" x2="271.41626466615566" y2="5" style="visibility: inherit;" fill="rgb(0, 0, 0)" stroke="rgb(204, 204, 204)" stroke-width="1px"></line></g><g transform="translate(0, 8)"><text x="12.912166305499898" y="0" dx="0em" dy="0.95em" style="text-anchor: middle; visibility: inherit; font-family: &quot;Helvetica Neue&quot;, sans-serif; font-size: 12px; font-weight: 200;" fill="rgb(50, 49, 63)" stroke="none" stroke-width="1px">0</text><text x="55.996182698942526" y="0" dx="0em" dy="0.95em" style="text-anchor: middle; visibility: inherit; font-family: &quot;Helvetica Neue&quot;, sans-serif; font-size: 12px; font-weight: 200;" fill="rgb(50, 49, 63)" stroke="none" stroke-width="1px">5k</text><text x="99.08019909238516" y="0" dx="0em" dy="0.95em" style="text-anchor: middle; visibility: inherit; font-family: &quot;Helvetica Neue&quot;, sans-serif; font-size: 12px; font-weight: 200;" fill="rgb(50, 49, 63)" stroke="none" stroke-width="1px">10k</text><text x="142.16421548582778" y="0" dx="0em" dy="0.95em" style="text-anchor: middle; visibility: inherit; font-family: &quot;Helvetica Neue&quot;, sans-serif; font-size: 12px; font-weight: 200;" fill="rgb(50, 49, 63)" stroke="none" stroke-width="1px">15k</text><text x="185.2482318792704" y="0" dx="0em" dy="0.95em" style="text-anchor: middle; visibility: inherit; font-family: &quot;Helvetica Neue&quot;, sans-serif; font-size: 12px; font-weight: 200;" fill="rgb(50, 49, 63)" stroke="none" stroke-width="1px">20k</text><text x="228.33224827271303" y="0" dx="0em" dy="0.95em" style="text-anchor: middle; visibility: inherit; font-family: &quot;Helvetica Neue&quot;, sans-serif; font-size: 12px; font-weight: 200;" fill="rgb(50, 49, 63)" stroke="none" stroke-width="1px">25k</text><text x="271.41626466615566" y="0" dx="0em" dy="0.95em" style="text-anchor: middle; visibility: inherit; font-family: &quot;Helvetica Neue&quot;, sans-serif; font-size: 12px; font-weight: 200;" fill="rgb(50, 49, 63)" stroke="none" stroke-width="1px">30k</text></g><line x1="0" y1="0" x2="290" y2="0" fill="rgb(0, 0, 0)" stroke="rgb(204, 204, 204)" stroke-width="1px"></line></g></g></g></g></svg>